<?xml version="1.0" standalone="no"?>
<!DOCTYPE svg PUBLIC "-//W3C//DTD SVG 20010904//EN"
 "http://www.w3.org/TR/2001/REC-SVG-20010904/DTD/svg10.dtd">
<svg version="1.0" xmlns="http://www.w3.org/2000/svg"
 width="700.000000pt" height="700.000000pt" viewBox="0 0 700.000000 700.000000"
 preserveAspectRatio="xMidYMid meet">
<metadata>
Created by potrace 1.11, written by Peter Selinger 2001-2013
</metadata>
<g transform="translate(0.000000,700.000000) scale(0.100000,-0.100000)"
fill="#000000" stroke="none">
<path d="M134 6976 c-54 -25 -93 -68 -119 -129 -13 -32 -15 -397 -15 -3349 l0
-3313 24 -51 c25 -54 68 -93 129 -119 32 -13 397 -15 3349 -15 l3313 0 50 24
c60 28 87 56 114 116 l21 45 0 3315 0 3315 -24 51 c-25 54 -68 93 -129 119
-32 13 -397 15 -3349 15 l-3313 0 -51 -24z m3616 -1231 c612 -21 1271 -204
1665 -462 310 -203 539 -474 644 -761 86 -235 126 -611 118 -1119 -9 -577 -66
-825 -259 -1115 -75 -114 -286 -328 -408 -415 -293 -209 -667 -356 -1135 -447
-788 -153 -1644 -94 -2329 161 -498 185 -861 483 -1050 861 -79 157 -123 338
-168 692 -20 160 -17 704 5 893 45 375 98 542 242 762 307 470 896 778 1725
905 237 36 591 61 740 53 30 -1 125 -5 210 -8z"/>
<path d="M3385 5419 c-383 -28 -680 -149 -912 -372 -212 -205 -287 -391 -324
-802 -5 -66 -13 -327 -16 -580 -13 -1097 39 -1345 348 -1640 251 -239 605
-365 1029 -364 470 0 861 167 1106 474 158 197 213 389 234 816 13 266 13
1140 0 1294 -30 353 -86 528 -226 703 -265 332 -729 508 -1239 471z"/>
</g>
</svg>
