<?xml version="1.0" standalone="no"?>
<!DOCTYPE svg PUBLIC "-//W3C//DTD SVG 1.1//EN" "http://www.w3.org/Graphics/SVG/1.1/DTD/svg11.dtd" >
<svg xmlns="http://www.w3.org/2000/svg" xmlns:xlink="http://www.w3.org/1999/xlink" version="1.1">
<metadata>
Created by FontForge 20170910 at Wed Aug  7 13:27:18 2013
 By Jimmy Wärting
2005 published by FontShop International GmbH
</metadata>
<defs>
<font id="KievitPro-Italic" horiz-adv-x="1" >
  <font-face 
    font-family="KievitPro-Italic"
    font-weight="400"
    font-style="italic"
    font-stretch="normal"
    units-per-em="1000"
    panose-1="2 11 5 4 2 1 1 2 1 2"
    ascent="760"
    descent="-240"
    x-height="480"
    cap-height="666"
    bbox="-438 -254 1221 934"
    underline-thickness="60"
    underline-position="-135"
    slope="-10"
    stemh="66"
    stemv="64"
    unicode-range="U+000D-FEFF"
  />
<missing-glyph horiz-adv-x="511" 
d="M32 0v666h447v-666h-447zM93 61h325v544h-325v-544z" />
    <glyph glyph-name="f_b" unicode="fb" horiz-adv-x="801" 
d="M-43 -230c-38 0 -64 9 -86 19l24 60c18 -8 40 -15 67 -15c62 0 85 60 96 121l86 467h-95l10 58h95l15 80c22 120 94 172 205 172c86 0 135 -15 167 -28l-42 -226c-8 -43 -18 -89 -33 -144h2c42 79 97 158 186 158c82 0 116 -70 116 -154c0 -178 -106 -350 -282 -350
c-67 0 -130 15 -145 19l117 648c-23 6 -52 11 -92 11c-79 0 -114 -33 -129 -116l-13 -70h118l-10 -58h-119l-85 -469c-22 -121 -68 -183 -173 -183zM495 50c129 0 201 136 201 281c0 56 -16 96 -57 96c-98 0 -180 -187 -205 -321l-9 -48c9 -2 27 -8 70 -8z" />
    <glyph glyph-name="f_f" unicode="ff" horiz-adv-x="611" 
d="M-42 -233c-38 0 -64 9 -86 19l24 60c18 -8 40 -15 67 -15c62 0 85 60 96 121l86 470h-96l10 58h97l10 56c23 129 88 188 205 188c69 0 111 -22 139 -43c31 33 73 51 129 51s97 -19 116 -31l-32 -60c-15 9 -49 25 -90 25c-72 0 -95 -49 -107 -116l-13 -70h118l-10 -58
h-119l-85 -469c-21 -116 -66 -178 -168 -178c-38 0 -64 9 -85 19l24 60c18 -8 39 -15 66 -15c59 0 80 58 91 116l86 467h-214l-86 -472c-22 -121 -68 -183 -173 -183zM228 480h213l15 80c4 23 10 45 18 64c-22 18 -54 34 -109 34c-80 0 -112 -37 -129 -132z" />
    <glyph glyph-name="f_f_b" unicode="ffb" horiz-adv-x="1089" 
d="M-42 -233c-38 0 -64 9 -86 19l24 60c18 -8 40 -15 67 -15c62 0 85 60 96 121l86 470h-96l10 58h97l10 56c23 129 88 188 205 188c71 0 113 -23 141 -45c36 37 86 53 149 53c86 0 135 -15 167 -28l-41 -226c-8 -43 -18 -89 -33 -144h2c42 79 97 158 186 158
c82 0 116 -70 116 -154c0 -178 -106 -350 -282 -350c-67 0 -130 15 -145 19l116 648c-23 6 -52 11 -92 11c-79 0 -114 -33 -129 -116l-13 -70h118l-10 -58h-119l-85 -469c-21 -116 -66 -178 -168 -178c-38 0 -64 9 -85 19l24 60c18 -8 39 -15 66 -15c59 0 80 58 91 116
l86 467h-214l-86 -472c-22 -121 -68 -183 -173 -183zM783 50c129 0 201 136 201 281c0 56 -16 96 -57 96c-98 0 -180 -187 -205 -321l-9 -48c9 -2 27 -8 70 -8zM228 480h213l15 80c4 24 11 45 19 63c-22 18 -55 35 -110 35c-80 0 -112 -37 -129 -132z" />
    <glyph glyph-name="f_f_h" unicode="ffh" horiz-adv-x="1107" 
d="M-42 -233c-38 0 -64 9 -86 19l24 60c18 -8 40 -15 67 -15c62 0 85 60 96 121l86 470h-96l10 58h97l10 56c23 129 88 188 205 188c71 0 113 -23 141 -45c36 37 86 53 149 53c86 0 135 -15 167 -28l-41 -224c-14 -76 -20 -104 -30 -147h2c30 56 92 159 197 159
c67 0 101 -45 101 -115c0 -15 -2 -32 -5 -49l-60 -328h-72l57 321c3 17 5 31 5 44c0 42 -17 62 -49 62c-79 0 -177 -117 -223 -372l-10 -55h-72l119 655c-23 6 -52 11 -92 11c-79 0 -114 -33 -129 -116l-13 -70h118l-10 -58h-119l-85 -469c-21 -116 -66 -178 -168 -178
c-38 0 -64 9 -85 19l24 60c18 -8 39 -15 66 -15c59 0 80 58 91 116l86 467h-214l-86 -472c-22 -121 -68 -183 -173 -183zM228 480h213l15 80c4 24 11 45 19 63c-22 18 -55 35 -110 35c-80 0 -112 -37 -129 -132z" />
    <glyph glyph-name="f_f_i" unicode="ffi" horiz-adv-x="826" 
d="M-42 -233c-38 0 -64 9 -86 19l24 60c18 -8 40 -15 67 -15c62 0 85 60 96 121l86 470h-96l10 58h97l10 56c23 129 88 188 205 188c71 0 113 -23 141 -45c36 37 86 53 149 53c74 0 116 -23 139 -38l-33 -60c-18 11 -53 32 -112 32c-79 0 -114 -33 -129 -116l-13 -70h275
l-87 -480h-72l76 422h-203l-85 -469c-22 -121 -68 -183 -173 -183c-38 0 -64 9 -86 19l24 60c18 -8 40 -15 67 -15c62 0 85 60 96 121l86 467h-214l-86 -472c-22 -121 -68 -183 -173 -183zM228 480h214l14 80c4 24 11 45 19 63c-22 18 -55 35 -110 35
c-80 0 -112 -37 -129 -132z" />
    <glyph glyph-name="f_f_j" unicode="ffj" horiz-adv-x="826" 
d="M-42 -233c-38 0 -64 9 -86 19l24 60c18 -8 40 -15 67 -15c62 0 85 60 96 121l86 470h-96l10 58h97l10 56c23 129 88 188 205 188c71 0 113 -23 141 -45c36 37 86 53 149 53c74 0 116 -23 139 -38l-33 -60c-18 11 -53 32 -112 32c-79 0 -114 -33 -129 -116l-13 -70h275
l-94 -524c-19 -104 -57 -186 -184 -186c-36 0 -57 8 -70 13l27 61c7 -4 25 -10 49 -10c67 0 92 51 106 130l83 458h-203l-85 -469c-22 -121 -68 -183 -173 -183c-38 0 -64 9 -86 19l24 60c18 -8 40 -15 67 -15c62 0 85 60 96 121l86 467h-214l-86 -472
c-22 -121 -68 -183 -173 -183zM228 480h214l14 80c4 24 11 45 19 63c-22 18 -55 35 -110 35c-80 0 -112 -37 -129 -132z" />
    <glyph glyph-name="f_f_k" unicode="ffk" horiz-adv-x="1041" 
d="M-42 -233c-38 0 -64 9 -86 19l24 60c18 -8 40 -15 67 -15c62 0 85 60 96 121l86 470h-96l10 58h97l10 56c23 129 88 188 205 188c71 0 113 -23 141 -45c36 37 86 53 149 53c86 0 135 -15 167 -28l-127 -704h-72l118 655c-23 6 -52 11 -92 11c-79 0 -114 -33 -129 -116
l-13 -70h118l-10 -58h-119l-85 -469c-21 -116 -66 -178 -168 -178c-38 0 -64 9 -85 19l24 60c18 -8 39 -15 66 -15c59 0 80 58 91 116l86 467h-214l-86 -472c-22 -121 -68 -183 -173 -183zM228 480h213l15 80c4 24 11 45 19 63c-22 18 -55 35 -110 35
c-80 0 -112 -37 -129 -132zM910 0l-154 268l220 212h89l-231 -216l153 -264h-77z" />
    <glyph glyph-name="f_f_l" unicode="ffl" horiz-adv-x="827" 
d="M-42 -233c-38 0 -64 9 -86 19l24 60c18 -8 40 -15 67 -15c62 0 85 60 96 121l86 470h-96l10 58h97l10 56c23 129 88 188 205 188c71 0 113 -23 141 -45c36 37 86 53 149 53c86 0 135 -15 167 -28l-127 -704h-72l118 655c-23 6 -52 11 -92 11c-79 0 -114 -33 -129 -116
l-13 -70h118l-10 -58h-119l-85 -469c-21 -116 -66 -178 -168 -178c-38 0 -64 9 -85 19l24 60c18 -8 39 -15 66 -15c59 0 80 58 91 116l86 467h-214l-86 -472c-22 -121 -68 -183 -173 -183zM228 480h213l15 80c4 24 11 45 19 63c-22 18 -55 35 -110 35
c-80 0 -112 -37 -129 -132z" />
    <glyph glyph-name="f_h" unicode="fh" horiz-adv-x="820" 
d="M-43 -230c-38 0 -64 9 -86 19l24 60c18 -8 40 -15 67 -15c62 0 85 60 96 121l86 467h-95l10 58h95l15 80c22 120 94 172 205 172c86 0 135 -15 167 -28l-41 -224c-14 -76 -20 -104 -30 -147h2c30 56 92 159 197 159c67 0 101 -45 101 -115c0 -15 -2 -32 -5 -49l-60 -328
h-72l57 321c3 17 5 31 5 44c0 42 -17 62 -49 62c-79 0 -177 -117 -223 -372l-10 -55h-72l120 655c-23 6 -53 11 -93 11c-79 0 -114 -33 -129 -116l-13 -70h118l-10 -58h-119l-85 -469c-22 -121 -68 -183 -173 -183z" />
    <glyph glyph-name="f_i" unicode="fi" horiz-adv-x="539" 
d="M-43 -230c-38 0 -64 9 -86 19l24 60c18 -8 40 -15 67 -15c62 0 85 60 96 121l86 467h-95l10 58h95l15 80c22 120 94 172 205 172c74 0 116 -23 139 -38l-33 -60c-18 11 -53 32 -112 32c-79 0 -114 -33 -129 -116l-13 -70h275l-87 -480h-72l76 422h-203l-85 -469
c-22 -121 -68 -183 -173 -183z" />
    <glyph glyph-name="f_j" unicode="fj" horiz-adv-x="541" 
d="M-41 -230c-38 0 -64 9 -86 19l24 60c18 -8 40 -15 67 -15c62 0 85 60 96 121l86 467h-95l10 58h95l15 80c22 120 94 172 205 172c74 0 116 -23 139 -38l-33 -60c-18 11 -53 32 -112 32c-79 0 -114 -33 -129 -116l-13 -70h275l-93 -524c-18 -104 -57 -186 -184 -186
c-36 0 -57 8 -70 13l27 61c7 -4 25 -10 49 -10c67 0 92 51 106 130l82 458h-203l-85 -469c-22 -121 -68 -183 -173 -183z" />
    <glyph glyph-name="f_k" unicode="fk" horiz-adv-x="754" 
d="M-43 -230c-38 0 -64 9 -86 19l24 60c18 -8 40 -15 67 -15c62 0 85 60 96 121l86 467h-95l10 58h95l15 80c22 120 94 172 205 172c86 0 135 -15 167 -28l-127 -704h-72l118 655c-23 6 -52 11 -92 11c-79 0 -114 -33 -129 -116l-13 -70h118l-10 -58h-119l-85 -469
c-22 -121 -68 -183 -173 -183zM623 0l-154 268l220 212h89l-231 -216l153 -264h-77z" />
    <glyph glyph-name="f_l" unicode="fl" horiz-adv-x="540" 
d="M-43 -230c-38 0 -64 9 -86 19l24 60c18 -8 40 -15 67 -15c62 0 85 60 96 121l86 467h-95l10 58h95l15 80c22 120 94 172 205 172c86 0 135 -15 167 -28l-127 -704h-72l118 655c-23 6 -52 11 -92 11c-79 0 -114 -33 -129 -116l-13 -70h118l-10 -58h-119l-85 -469
c-22 -121 -68 -183 -173 -183z" />
    <glyph glyph-name=".notdef" horiz-adv-x="511" 
d="M32 0v666h447v-666h-447zM93 61h325v544h-325v-544z" />
    <glyph glyph-name=".null" horiz-adv-x="0" 
 />
    <glyph glyph-name=".null" horiz-adv-x="0" 
 />
    <glyph glyph-name="CR" unicode="&#xd;" horiz-adv-x="220" 
 />
    <glyph glyph-name="space" unicode=" " horiz-adv-x="220" 
 />
    <glyph glyph-name="exclam" unicode="!" horiz-adv-x="248" 
d="M95 -9c-33 0 -59 26 -59 58c0 30 26 56 59 56c31 0 57 -26 57 -56c0 -32 -26 -58 -57 -58zM84 199l66 467h88l-98 -467h-56z" />
    <glyph glyph-name="quotedbl" unicode="&#x22;" horiz-adv-x="359" 
d="M124 444l14 222h87l-44 -222h-57zM256 444l26 222h87l-56 -222h-57z" />
    <glyph glyph-name="numbersign" unicode="#" horiz-adv-x="514" 
d="M88 106l46 144h-87l17 59h89l36 111h-97l17 59h99l42 131h58l-42 -131h100l42 131h58l-42 -131h89l-17 -59h-91l-36 -111h99l-17 -59h-101l-46 -144h-58l46 144h-100l-46 -144h-58zM211 309h100l36 111h-100z" />
    <glyph glyph-name="dollar" unicode="$" horiz-adv-x="436" 
d="M120 -123l20 112c-59 8 -103 33 -127 54l41 56c13 -12 57 -49 125 -49c69 0 117 25 117 75c0 43 -38 61 -101 95c-75 40 -117 73 -117 142c0 71 66 120 150 129l19 102h71l-19 -104c60 -7 95 -29 106 -37l-37 -56c-17 11 -56 33 -120 33c-57 0 -98 -24 -98 -65
c0 -38 33 -61 84 -86c75 -37 140 -71 140 -149c0 -80 -69 -130 -163 -140l-20 -112h-71z" />
    <glyph glyph-name="percent" unicode="%" horiz-adv-x="709" 
d="M163 213c-74 0 -117 56 -117 120c0 81 64 159 153 159c79 0 118 -49 118 -118c0 -85 -65 -161 -154 -161zM168 261c52 0 88 46 88 110c0 46 -21 73 -61 73c-52 0 -88 -43 -88 -106c0 -50 21 -77 61 -77zM508 -12c-74 0 -117 56 -117 120c0 81 64 159 153 159
c79 0 118 -49 118 -118c0 -85 -65 -161 -154 -161zM513 36c52 0 88 46 88 110c0 46 -21 73 -61 73c-52 0 -88 -43 -88 -106c0 -50 21 -77 61 -77zM141 0l369 480h61l-369 -480h-61z" />
    <glyph glyph-name="ampersand" unicode="&#x26;" horiz-adv-x="678" 
d="M551 -90c-73 0 -115 45 -183 121c-53 -27 -109 -43 -164 -43c-110 0 -168 77 -168 169c0 181 128 335 262 335c65 0 112 -33 112 -100c0 -77 -80 -130 -143 -152l115 -133c30 20 60 45 87 72c80 81 130 191 130 277c0 113 -64 175 -208 197l13 61
c177 -24 266 -114 266 -254c0 -97 -63 -226 -158 -321c-28 -28 -59 -54 -92 -77c65 -74 90 -95 133 -95c31 0 55 13 66 20l24 -50c-15 -10 -49 -27 -92 -27zM217 52c38 0 77 10 114 27l-134 152l13 40c80 19 131 67 131 114c0 28 -18 45 -57 45c-94 0 -177 -131 -177 -265
c0 -77 40 -113 110 -113z" />
    <glyph glyph-name="quotesingle" unicode="'" horiz-adv-x="215" 
d="M116 444l20 222h91l-55 -222h-56z" />
    <glyph glyph-name="parenleft" unicode="(" horiz-adv-x="296" 
d="M154 -177c-39 51 -113 164 -113 344c0 291 176 477 262 553h71c-90 -82 -258 -270 -258 -551c0 -169 54 -271 103 -346h-65z" />
    <glyph glyph-name="parenright" unicode=")" horiz-adv-x="301" 
d="M-71 -177c113 107 267 301 267 563c0 164 -65 282 -106 334h68c39 -49 113 -165 113 -333c0 -295 -192 -493 -269 -564h-73z" />
    <glyph glyph-name="asterisk" unicode="*" horiz-adv-x="434" 
d="M152 329l-45 35l107 116l-128 37l24 56l127 -48l20 141h66l-30 -142l137 47l13 -56l-145 -36l72 -123l-53 -27l-63 123z" />
    <glyph glyph-name="plus" unicode="+" horiz-adv-x="563" 
d="M205 42l34 194h-179l11 61h179l32 185h67l-32 -185h181l-11 -61h-181l-34 -194h-67z" />
    <glyph glyph-name="comma" unicode="," horiz-adv-x="216" 
d="M72 112c33 0 63 -24 63 -67c0 -82 -70 -157 -114 -190l-31 28c26 25 55 55 55 90s-28 44 -28 82c0 33 24 57 55 57z" />
    <glyph glyph-name="hyphen" unicode="-" horiz-adv-x="305" 
d="M54 255l11 64h201l-11 -64h-201z" />
    <glyph glyph-name="period" unicode="." horiz-adv-x="216" 
d="M80 -9c-34 0 -61 27 -61 60c0 32 27 59 61 59c32 0 59 -27 59 -59c0 -33 -27 -60 -59 -60z" />
    <glyph glyph-name="slash" unicode="/" horiz-adv-x="402" 
d="M430 666l-349 -666h-67l349 666h67z" />
    <glyph glyph-name="zero" unicode="0" horiz-adv-x="530" 
d="M231 -12c-129 0 -185 111 -185 210c0 153 111 294 261 294c137 0 185 -107 185 -205c0 -157 -107 -299 -261 -299zM238 49c109 0 181 109 181 235c0 75 -28 148 -119 148c-103 0 -181 -106 -181 -230c0 -95 42 -153 119 -153z" />
    <glyph glyph-name="one" unicode="1" horiz-adv-x="321" 
d="M111 0l75 410l-121 -36l-15 60l164 46h58l-88 -480h-73z" />
    <glyph glyph-name="two" unicode="2" horiz-adv-x="449" 
d="M-6 0l4 33c201 137 323 226 323 329c0 42 -31 66 -82 66c-54 0 -98 -26 -128 -48l-35 47c38 31 98 65 169 65c92 0 151 -46 151 -124c0 -133 -176 -250 -268 -309c12 1 43 3 67 3h187l-10 -62h-378z" />
    <glyph glyph-name="three" unicode="3" horiz-adv-x="439" 
d="M75 -188c-47 0 -75 8 -89 12l17 58c10 -3 36 -9 77 -9c111 0 197 59 197 161c0 91 -79 119 -169 119l8 55c90 0 199 53 199 147c0 41 -29 73 -86 73c-55 0 -87 -22 -121 -44l-35 48c39 31 90 60 166 60c102 0 154 -61 154 -130c0 -90 -89 -156 -166 -178v-1
c66 -13 130 -66 130 -143c0 -141 -134 -228 -282 -228z" />
    <glyph glyph-name="four" unicode="4" horiz-adv-x="521" 
d="M253 -177l33 177h-299l6 47l382 433h73l-78 -419h105l-10 -61h-106l-33 -177h-73zM83 61h215l59 311h-2z" />
    <glyph glyph-name="five" unicode="5" horiz-adv-x="417" 
d="M73 -188c-48 0 -75 8 -89 12l17 58c10 -3 34 -9 77 -9c116 0 198 64 198 169c0 58 -19 94 -60 118c-36 22 -85 29 -145 27l56 293h288l-10 -59h-216l-36 -178c117 -11 202 -82 202 -193c0 -148 -122 -238 -282 -238z" />
    <glyph glyph-name="six" unicode="6" horiz-adv-x="521" 
d="M247 -12c-115 0 -188 92 -188 241c0 215 158 449 460 449l7 -61c-107 0 -197 -33 -264 -89c-58 -48 -98 -114 -117 -192c40 36 91 58 152 58c109 0 179 -64 179 -165c0 -134 -95 -241 -229 -241zM252 49c95 0 152 82 152 176c0 65 -38 108 -117 108
c-63 0 -109 -20 -153 -60c-1 -15 -2 -30 -2 -46c0 -110 41 -178 120 -178z" />
    <glyph glyph-name="seven" unicode="7" horiz-adv-x="449" 
d="M51 -200l-59 33l365 583h-308l12 64h388l-8 -52z" />
    <glyph glyph-name="eight" unicode="8" horiz-adv-x="487" 
d="M206 -12c-121 0 -175 79 -175 154c0 97 74 161 172 206c-61 47 -97 101 -97 152c0 107 94 178 197 178c114 0 169 -70 169 -140c0 -79 -54 -136 -155 -187c63 -44 111 -95 111 -165c0 -114 -108 -198 -222 -198zM211 54c73 0 142 51 142 129c0 50 -34 88 -103 134
c-83 -41 -145 -90 -145 -168c0 -58 42 -95 106 -95zM269 383c69 34 128 83 128 146c0 45 -32 86 -99 86c-61 0 -117 -39 -117 -108c0 -51 37 -88 88 -124z" />
    <glyph glyph-name="nine" unicode="9" horiz-adv-x="505" 
d="M-1 -186l-7 60c98 0 183 28 249 79c57 45 100 106 123 182c-32 -24 -82 -49 -138 -49c-114 0 -174 76 -174 172c0 132 104 234 226 234c125 0 180 -91 180 -209c0 -282 -188 -469 -459 -469zM236 144c55 0 103 22 142 51c5 27 7 55 7 84c0 92 -34 153 -112 153
s-148 -65 -148 -170c0 -67 35 -118 111 -118z" />
    <glyph glyph-name="colon" unicode=":" horiz-adv-x="216" 
d="M80 -9c-34 0 -61 27 -61 60c0 32 27 59 61 59c32 0 59 -27 59 -59c0 -33 -27 -60 -59 -60zM143 366c-34 0 -61 27 -61 60c0 32 27 59 61 59c32 0 59 -27 59 -59c0 -33 -27 -60 -59 -60z" />
    <glyph glyph-name="semicolon" unicode=";" horiz-adv-x="216" 
d="M72 112c33 0 63 -24 63 -67c0 -82 -70 -157 -114 -190l-31 28c26 25 55 55 55 90s-28 44 -28 82c0 33 24 57 55 57zM140 366c-34 0 -61 27 -61 60c0 32 27 59 61 59c32 0 59 -27 59 -59c0 -33 -27 -60 -59 -60z" />
    <glyph glyph-name="less" unicode="&#x3c;" horiz-adv-x="398" 
d="M255 26l-209 220l279 218l37 -48l-227 -175l163 -174z" />
    <glyph glyph-name="equal" unicode="=" horiz-adv-x="531" 
d="M55 153l11 63h389l-11 -63h-389zM84 316l11 63h389l-11 -63h-389z" />
    <glyph glyph-name="greater" unicode="&#x3e;" horiz-adv-x="398" 
d="M73 26l-37 48l227 175l-163 174l43 41l209 -220z" />
    <glyph glyph-name="question" unicode="?" horiz-adv-x="406" 
d="M103 193l11 63c11 65 28 90 95 128c70 40 116 68 116 142c0 53 -35 88 -104 88c-37 0 -69 -13 -85 -20l-21 58c24 12 67 26 117 26c112 0 171 -69 171 -145c0 -107 -83 -156 -158 -198c-38 -21 -55 -43 -63 -87l-10 -55h-69zM116 -9c-33 0 -59 26 -59 58
c0 30 26 56 59 56c31 0 57 -26 57 -56c0 -32 -26 -58 -57 -58z" />
    <glyph glyph-name="at" unicode="@" horiz-adv-x="745" 
d="M369 -91c-206 0 -329 149 -329 331c0 197 153 379 363 379c212 0 326 -168 326 -300c0 -126 -72 -236 -174 -236c-67 0 -105 47 -105 112h-2c-18 -43 -63 -112 -139 -112c-61 0 -94 58 -94 115c0 128 70 266 212 266c42 0 88 -14 117 -21l-25 -139
c-5 -27 -14 -64 -14 -95c0 -38 22 -70 53 -70c67 0 114 80 114 173c0 146 -120 252 -269 252c-152 0 -297 -144 -297 -321c0 -159 101 -278 274 -278c58 0 117 15 149 29l23 -51c-37 -15 -107 -34 -183 -34zM327 145c79 0 127 146 145 238l4 20c-11 4 -41 10 -55 10
c-81 0 -133 -100 -133 -204c0 -29 11 -64 39 -64z" />
    <glyph glyph-name="A" unicode="A" horiz-adv-x="607" 
d="M184 231h242l-36 223c-8 49 -15 103 -18 124h-2c-10 -21 -36 -75 -63 -124zM-21 0l373 666h75l115 -666h-78l-27 165h-289l-91 -165h-78z" />
    <glyph glyph-name="B" unicode="B" horiz-adv-x="559" 
d="M49 0l119 666h167c115 0 190 -50 190 -144s-55 -153 -144 -175v-2c67 -13 119 -60 119 -133c0 -145 -114 -212 -276 -212h-175zM137 65h92c138 0 192 49 192 144c0 64 -44 108 -141 108h-99zM192 379h96c106 0 157 51 157 131c0 61 -36 91 -122 91h-91z" />
    <glyph glyph-name="C" unicode="C" horiz-adv-x="607" 
d="M329 -12c-183 0 -271 124 -271 279c0 226 166 411 381 411c97 0 145 -19 184 -46l-45 -58c-34 24 -78 39 -145 39c-172 0 -294 -155 -294 -343c0 -121 57 -216 195 -216c73 0 123 26 168 60l34 -54c-42 -38 -125 -72 -207 -72z" />
    <glyph glyph-name="D" unicode="D" horiz-adv-x="660" 
d="M49 0l119 666h147c221 0 319 -102 319 -257c0 -211 -133 -409 -408 -409h-177zM138 64h100c205 0 315 151 315 340c0 137 -76 198 -247 198h-73z" />
    <glyph glyph-name="E" unicode="E" horiz-adv-x="494" 
d="M49 0l119 666h335l-12 -66h-258l-39 -214h228l-12 -66h-227l-45 -254h265l-12 -66h-342z" />
    <glyph glyph-name="F" unicode="F" horiz-adv-x="483" 
d="M49 0l119 666h342l-12 -66h-265l-39 -214h232l-12 -66h-231l-57 -320h-77z" />
    <glyph glyph-name="G" unicode="G" horiz-adv-x="690" 
d="M341 -12c-185 0 -282 122 -282 280c0 222 166 410 387 410c105 0 170 -31 203 -56l-46 -58c-34 27 -91 49 -164 49c-179 0 -299 -156 -299 -342c0 -127 65 -219 206 -219c102 0 154 35 164 41l33 189h-145l12 66h221l-53 -294c-12 -9 -95 -66 -237 -66z" />
    <glyph glyph-name="H" unicode="H" horiz-adv-x="709" 
d="M49 0l118 666h77l-50 -282h370l50 282h77l-119 -666h-77l57 318h-369l-57 -318h-77z" />
    <glyph glyph-name="I" unicode="I" horiz-adv-x="275" 
d="M55 0l119 666h77l-119 -666h-77z" />
    <glyph glyph-name="J" unicode="J" horiz-adv-x="270" 
d="M-47 -190c-29 0 -53 7 -60 11l27 66c6 -3 17 -7 36 -7c53 0 85 38 99 118l119 668h76l-121 -680c-20 -114 -78 -176 -176 -176z" />
    <glyph glyph-name="K" unicode="K" horiz-adv-x="553" 
d="M420 0l-227 347l316 319h90l-320 -320l228 -346h-87zM49 0l119 666h75l-118 -666h-76z" />
    <glyph glyph-name="L" unicode="L" horiz-adv-x="458" 
d="M49 0l119 666h76l-106 -600h256l-11 -66h-334z" />
    <glyph glyph-name="M" unicode="M" horiz-adv-x="834" 
d="M20 0l207 666h70l77 -482c6 -40 8 -64 12 -100h2c18 38 30 64 49 100l252 482h71l-34 -666h-74l24 437c3 46 5 73 9 97h-2c-11 -24 -22 -47 -43 -87l-235 -447h-71l-71 441c-7 44 -11 70 -14 93h-2c-4 -24 -12 -50 -26 -97l-130 -437h-71z" />
    <glyph glyph-name="N" unicode="N" horiz-adv-x="687" 
d="M46 0l119 666h75l225 -464c17 -36 31 -71 39 -97h2c3 26 8 65 15 104l81 457h70l-118 -666h-71l-231 477c-15 31 -25 55 -36 88h-2c-3 -26 -7 -55 -14 -95l-84 -470h-70z" />
    <glyph glyph-name="O" unicode="O" horiz-adv-x="734" 
d="M340 -12c-179 0 -280 137 -280 287c0 198 144 403 364 403c190 0 280 -136 280 -290c0 -196 -139 -400 -364 -400zM344 53c175 0 280 167 280 336c0 119 -68 224 -205 224c-175 0 -279 -165 -279 -337c0 -122 76 -223 204 -223z" />
    <glyph glyph-name="P" unicode="P" horiz-adv-x="524" 
d="M49 0l119 666h157c124 0 206 -58 206 -166c0 -146 -116 -231 -276 -231h-81l-48 -269h-77zM186 335h76c127 0 188 62 188 156c0 66 -36 109 -138 109h-79z" />
    <glyph glyph-name="Q" unicode="Q" horiz-adv-x="734" 
d="M499 -162c-102 0 -182 49 -253 164c-120 39 -186 152 -186 273c0 198 144 403 364 403c190 0 280 -136 280 -290c0 -193 -135 -394 -354 -400c40 -59 86 -86 156 -86c56 0 101 24 118 35l27 -58c-28 -18 -78 -41 -152 -41zM344 53c175 0 280 167 280 336
c0 119 -68 224 -205 224c-175 0 -279 -165 -279 -337c0 -122 76 -223 204 -223z" />
    <glyph glyph-name="R" unicode="R" horiz-adv-x="568" 
d="M49 0l119 666h174c116 0 187 -58 187 -152c0 -118 -82 -189 -217 -199v-2c16 -10 34 -29 64 -83l127 -230h-86l-105 192c-53 97 -68 115 -121 115h-10l-55 -307h-77zM191 371h101c110 0 158 58 158 139c0 61 -41 90 -123 90h-94z" />
    <glyph glyph-name="S" unicode="S" horiz-adv-x="453" 
d="M193 -12c-113 0 -173 53 -200 79l48 53c29 -26 70 -66 157 -66s121 53 121 113c0 65 -41 98 -105 155s-123 110 -123 193c0 107 82 163 189 163c84 0 134 -32 160 -52l-40 -59c-26 21 -59 46 -125 46c-73 0 -108 -37 -108 -98c0 -55 40 -89 101 -142
c68 -59 128 -111 128 -204c0 -86 -58 -181 -203 -181z" />
    <glyph glyph-name="T" unicode="T" horiz-adv-x="486" 
d="M163 0l107 600h-188l11 66h448l-11 -66h-183l-107 -600h-77z" />
    <glyph glyph-name="U" unicode="U" horiz-adv-x="675" 
d="M304 -12c-149 0 -222 80 -222 200c0 19 2 40 6 61l74 417h76l-72 -407c-4 -25 -7 -47 -7 -67c0 -94 49 -137 152 -137c122 0 182 66 206 199l73 412h72l-76 -425c-28 -154 -107 -253 -282 -253z" />
    <glyph glyph-name="V" unicode="V" horiz-adv-x="593" 
d="M227 0l-135 666h77l90 -459c9 -44 16 -94 19 -119h2c12 27 33 76 55 119l235 459h79l-349 -666h-73z" />
    <glyph glyph-name="W" unicode="W" horiz-adv-x="855" 
d="M158 0l-64 666h76l37 -413c5 -54 9 -104 10 -141h2c12 36 34 85 58 139l183 415h78l49 -431c6 -54 10 -86 12 -123h2c13 38 26 68 50 125l178 429h80l-291 -666h-71l-49 422c-7 59 -11 101 -15 150h-2c-18 -49 -37 -91 -64 -150l-190 -422h-69z" />
    <glyph glyph-name="X" unicode="X" horiz-adv-x="554" 
d="M-17 0l269 348l-139 318h80l111 -265l194 265h85l-249 -323l151 -343h-80l-123 290l-214 -290h-85z" />
    <glyph glyph-name="Y" unicode="Y" horiz-adv-x="544" 
d="M195 0l45 251l-150 415h80l120 -342h1l227 342h81l-282 -416l-45 -250h-77z" />
    <glyph glyph-name="Z" unicode="Z" horiz-adv-x="515" 
d="M-16 0l10 55l447 547h-333l12 64h430l-10 -51l-452 -551h367l-12 -64h-459z" />
    <glyph glyph-name="bracketleft" unicode="[" horiz-adv-x="301" 
d="M9 -161l153 881h197l-10 -56h-128l-133 -769h128l-10 -56h-197z" />
    <glyph glyph-name="backslash" unicode="\" horiz-adv-x="371" 
d="M241 -161l-163 881h63l163 -881h-63z" />
    <glyph glyph-name="bracketright" unicode="]" horiz-adv-x="300" 
d="M-46 -161l10 56h127l134 769h-128l10 56h197l-153 -881h-197z" />
    <glyph glyph-name="asciicircum" unicode="^" horiz-adv-x="605" 
d="M78 288l269 378h50l133 -378h-64l-104 307l-217 -307h-67z" />
    <glyph glyph-name="underscore" unicode="_" horiz-adv-x="387" 
d="M-73 -159l11 61h391l-11 -61h-391z" />
    <glyph glyph-name="grave" unicode="`" horiz-adv-x="500" 
d="M273 540l-106 126h97l71 -126h-62z" />
    <glyph glyph-name="a" unicode="a" horiz-adv-x="481" 
d="M148 -12c-80 0 -118 61 -118 147c0 177 101 357 284 357c69 0 116 -13 136 -19l-48 -264c-24 -134 -30 -209 -30 -209h-70c7 53 14 95 27 148h-2c-41 -81 -90 -160 -179 -160zM164 53c88 0 176 179 196 319l7 48c-11 4 -39 9 -67 9c-125 0 -197 -140 -197 -283
c0 -65 21 -93 61 -93z" />
    <glyph glyph-name="b" unicode="b" horiz-adv-x="487" 
d="M174 -12c-67 0 -130 15 -145 19l129 713h72l-45 -242c-8 -43 -18 -89 -33 -144h2c42 79 97 158 186 158c82 0 116 -70 116 -154c0 -178 -106 -350 -282 -350zM181 50c129 0 201 136 201 281c0 56 -16 96 -57 96c-98 0 -180 -187 -205 -321l-9 -48c9 -2 27 -8 70 -8z" />
    <glyph glyph-name="c" unicode="c" horiz-adv-x="404" 
d="M186 -12c-97 0 -159 68 -159 186c0 182 129 318 262 318c62 0 95 -18 115 -33l-37 -57c-15 11 -40 25 -86 25c-88 0 -182 -95 -182 -245c0 -90 37 -130 93 -130c60 0 99 36 118 55l43 -47c-26 -26 -86 -72 -167 -72z" />
    <glyph glyph-name="d" unicode="d" horiz-adv-x="484" 
d="M149 -12c-86 0 -118 71 -118 154c0 187 111 350 285 350c39 0 59 -5 72 -8l43 236h72l-93 -511c-24 -134 -30 -209 -30 -209h-70c7 53 14 96 27 149h-2c-42 -79 -100 -161 -186 -161zM161 53c97 0 184 176 207 319l8 49c-11 4 -42 10 -75 10c-123 0 -197 -137 -197 -279
c0 -57 16 -99 57 -99z" />
    <glyph glyph-name="e" unicode="e" horiz-adv-x="426" 
d="M185 -12c-109 0 -158 81 -158 173c0 181 117 331 258 331c72 0 127 -36 127 -109c0 -119 -154 -170 -312 -190v-23c0 -76 32 -118 94 -118c53 0 99 31 125 59l42 -49c-30 -29 -87 -74 -176 -74zM274 428c-73 0 -142 -76 -166 -180c126 16 229 57 229 128
c0 36 -21 52 -63 52z" />
    <glyph glyph-name="f" unicode="f" horiz-adv-x="324" 
d="M-43 -230c-38 0 -64 9 -86 19l24 60c18 -8 40 -15 67 -15c62 0 85 60 96 121l86 467h-95l10 58h95l15 80c20 109 78 172 183 172c56 0 97 -19 116 -31l-32 -60c-15 9 -49 25 -90 25c-72 0 -95 -49 -107 -116l-13 -70h118l-10 -58h-119l-85 -469
c-22 -121 -68 -183 -173 -183z" />
    <glyph glyph-name="g" unicode="g" horiz-adv-x="479" 
d="M134 -229c-68 0 -121 31 -145 49l39 57c25 -19 59 -42 114 -42c96 0 141 64 160 166l8 43c7 36 16 74 25 102h-2c-41 -78 -98 -158 -184 -158s-118 71 -118 154c0 187 110 350 284 350c60 0 123 -12 144 -17l-88 -476c-30 -162 -102 -228 -237 -228zM161 53
c97 0 184 177 207 319l8 49c-11 4 -41 10 -75 10c-124 0 -197 -137 -197 -279c0 -57 16 -99 57 -99z" />
    <glyph glyph-name="h" unicode="h" horiz-adv-x="511" 
d="M32 0l132 720h72l-45 -240c-14 -76 -20 -104 -30 -147h2c30 56 92 159 197 159c67 0 101 -45 101 -115c0 -15 -2 -32 -5 -49l-60 -328h-72l57 321c3 17 5 31 5 44c0 42 -17 62 -49 62c-79 0 -177 -117 -223 -372l-10 -55h-72z" />
    <glyph glyph-name="i" unicode="i" horiz-adv-x="234" 
d="M183 572c-28 0 -53 24 -53 53s25 53 53 53c29 0 53 -24 53 -53s-24 -53 -53 -53zM37 0l87 480h72l-87 -480h-72z" />
    <glyph glyph-name="j" unicode="j" horiz-adv-x="234" 
d="M-81 -230c-36 0 -57 8 -70 13l27 61c7 -4 25 -10 49 -10c67 0 92 51 106 130l93 516h72l-93 -524c-18 -104 -57 -186 -184 -186zM183 572c-28 0 -53 24 -53 53s25 53 53 53c29 0 53 -24 53 -53s-24 -53 -53 -53z" />
    <glyph glyph-name="k" unicode="k" horiz-adv-x="438" 
d="M307 0l-154 268l220 212h89l-231 -216l153 -264h-77zM26 0l125 720h72l-125 -720h-72z" />
    <glyph glyph-name="l" unicode="l" horiz-adv-x="235" 
d="M37 0l130 720h72l-130 -720h-72z" />
    <glyph glyph-name="m" unicode="m" horiz-adv-x="790" 
d="M32 0l87 480h69c-4 -33 -19 -106 -31 -153h2c31 65 94 165 193 165c74 0 98 -54 98 -111c0 -16 -2 -32 -5 -48h2c42 75 98 159 195 159c67 0 98 -47 98 -115c0 -16 -2 -32 -5 -50l-59 -327h-71l55 308c10 56 12 119 -41 119c-86 0 -175 -129 -219 -372l-10 -55h-72
l56 308c9 48 12 119 -45 119c-80 0 -170 -125 -215 -372l-10 -55h-72z" />
    <glyph glyph-name="n" unicode="n" horiz-adv-x="511" 
d="M32 0l87 480h69c-5 -33 -19 -107 -32 -156h2c33 63 96 168 202 168c67 0 101 -45 101 -115c0 -15 -2 -32 -5 -49l-60 -328h-72l57 321c3 17 5 31 5 44c0 42 -17 62 -49 62c-79 0 -177 -117 -223 -372l-10 -55h-72z" />
    <glyph glyph-name="o" unicode="o" horiz-adv-x="477" 
d="M199 -12c-123 0 -170 106 -170 199c0 149 104 305 247 305c118 0 171 -94 171 -196c0 -160 -106 -308 -248 -308zM204 48c101 0 170 128 170 236c0 96 -35 148 -103 148c-102 0 -171 -130 -171 -243c0 -85 35 -141 104 -141z" />
    <glyph glyph-name="p" unicode="p" horiz-adv-x="487" 
d="M-12 -218l127 698h70c-11 -61 -20 -94 -33 -146h2c42 79 97 158 186 158c82 0 116 -70 116 -154c0 -178 -106 -350 -282 -350c-40 0 -67 6 -75 8l-39 -214h-72zM180 48c129 0 202 138 202 283c0 56 -16 96 -57 96c-98 0 -181 -186 -205 -320l-9 -51c9 -2 26 -8 69 -8z
" />
    <glyph glyph-name="q" unicode="q" horiz-adv-x="479" 
d="M260 -218l42 220c8 43 21 104 33 144h-2c-41 -78 -98 -158 -184 -158s-118 71 -118 154c0 187 110 350 284 350c60 0 123 -12 144 -17l-128 -693h-71zM161 53c97 0 184 177 207 319l8 49c-11 4 -41 10 -75 10c-124 0 -197 -137 -197 -279c0 -57 16 -99 57 -99z" />
    <glyph glyph-name="r" unicode="r" horiz-adv-x="355" 
d="M32 0l87 480h69c-7 -54 -23 -119 -33 -159h2c34 77 101 171 174 171c24 0 36 -3 49 -9l-30 -69c-8 2 -16 4 -28 4c-84 0 -166 -131 -208 -363l-10 -55h-72z" />
    <glyph glyph-name="s" unicode="s" horiz-adv-x="354" 
d="M135 -12c-72 0 -120 30 -142 50l39 52c25 -20 57 -42 110 -42c51 0 81 28 81 68s-29 66 -78 117c-46 48 -75 82 -75 136c0 76 60 123 151 123c53 0 88 -15 113 -34l-37 -54c-14 10 -40 27 -86 27c-44 0 -72 -21 -72 -58c0 -34 21 -55 65 -102c57 -61 89 -91 89 -155
c0 -69 -54 -128 -158 -128z" />
    <glyph glyph-name="t" unicode="t" horiz-adv-x="333" 
d="M157 -12c-65 0 -92 32 -92 88c0 13 1 28 4 44l56 302h-84l10 58h85l25 135l76 18l-28 -153h118l-10 -58h-119l-53 -286c-4 -21 -7 -39 -7 -53c0 -21 7 -32 29 -32c37 0 68 29 90 47l37 -50c-34 -31 -77 -60 -137 -60z" />
    <glyph glyph-name="u" unicode="u" horiz-adv-x="511" 
d="M150 -12c-67 0 -101 44 -101 115c0 15 2 31 5 49l60 328h72l-57 -321c-3 -17 -5 -31 -5 -44c0 -42 17 -62 49 -62c75 0 176 112 219 350l14 77h72l-49 -271c-24 -134 -30 -209 -30 -209h-70c7 52 17 114 28 162h-2c-36 -69 -98 -174 -205 -174z" />
    <glyph glyph-name="v" unicode="v" horiz-adv-x="417" 
d="M112 0l-65 480h73l38 -299c3 -27 6 -59 7 -85h2l212 384h76l-279 -480h-64z" />
    <glyph glyph-name="w" unicode="w" horiz-adv-x="680" 
d="M107 0l-54 480h73l27 -279c3 -33 5 -76 6 -101h2l189 380h69l20 -274c3 -36 5 -76 5 -98h2l193 372h76l-261 -480h-62l-27 382h-2l-194 -382h-62z" />
    <glyph glyph-name="x" unicode="x" horiz-adv-x="426" 
d="M-37 0l207 248l-112 232h79l80 -175l140 175h79l-192 -233l118 -247h-79l-87 189l-154 -189h-79z" />
    <glyph glyph-name="y" unicode="y" horiz-adv-x="438" 
d="M-12 -220c-52 0 -73 12 -82 17l30 59c10 -5 27 -11 59 -11c51 0 91 28 154 136l-97 499h75l63 -352c4 -24 8 -47 10 -67h2c7 20 15 44 25 67l161 352h76l-176 -368c-111 -232 -171 -332 -300 -332z" />
    <glyph glyph-name="z" unicode="z" horiz-adv-x="412" 
d="M-9 0l8 46l307 375h-232l10 59h324l-8 -49l-308 -372h256l-10 -59h-347z" />
    <glyph glyph-name="braceleft" unicode="{" horiz-adv-x="349" 
d="M176 -161c-49 0 -94 33 -94 93c0 7 1 15 2 23l35 193c2 10 3 19 3 28c0 51 -31 81 -93 82l10 56c72 0 115 38 127 108l33 191c13 76 63 107 127 107h81l-10 -57h-65c-44 0 -60 -29 -69 -79l-30 -175c-14 -80 -57 -113 -119 -126v-2c48 -14 78 -41 78 -94
c0 -9 -1 -19 -3 -29l-32 -187c0 -1 -1 -3 -1 -4c-2 -12 -3 -22 -3 -30c0 -28 12 -41 46 -41h66l-10 -57h-79z" />
    <glyph glyph-name="bar" unicode="|" horiz-adv-x="243" 
d="M5 -250l176 1000h57l-176 -1000h-57z" />
    <glyph glyph-name="braceright" unicode="}" horiz-adv-x="349" 
d="M-45 -161l10 57h65c46 0 61 31 69 79l31 183c12 73 55 110 120 128v2c-47 13 -78 43 -78 96c0 9 1 18 3 28l30 176c2 13 4 24 4 34c0 29 -12 41 -46 41h-66l10 57h84c47 0 89 -28 89 -88c0 -8 -1 -18 -3 -27l-32 -183c-1 -8 -2 -16 -2 -23c0 -52 33 -85 92 -87l-10 -56
c-65 0 -114 -35 -127 -108l-35 -202c-13 -76 -66 -107 -123 -107h-85z" />
    <glyph glyph-name="asciitilde" unicode="~" horiz-adv-x="588" 
d="M398 178c-108 0 -144 70 -218 70c-40 0 -67 -20 -89 -40l-36 45c30 27 78 59 131 59c91 0 125 -69 218 -69c32 0 66 17 95 41l34 -45c-36 -35 -87 -61 -135 -61z" />
    <glyph glyph-name="uni00A0" unicode="&#xa0;" horiz-adv-x="220" 
 />
    <glyph glyph-name="exclamdown" unicode="&#xa1;" horiz-adv-x="248" 
d="M151 378c-31 0 -57 26 -57 56c0 32 26 58 57 58c33 0 59 -26 59 -58c0 -30 -26 -56 -59 -56zM8 -183l98 467h56l-66 -467h-88z" />
    <glyph glyph-name="cent" unicode="&#xa2;" horiz-adv-x="394" 
d="M133 -123l19 114c-77 14 -125 79 -125 183c0 159 99 284 213 312l19 107h71l-19 -102c48 -4 75 -19 93 -32l-37 -57c-15 11 -40 25 -86 25c-88 0 -182 -95 -182 -245c0 -90 37 -130 93 -130c60 0 99 36 118 55l43 -47c-22 -22 -68 -58 -129 -68l-20 -115h-71z" />
    <glyph glyph-name="sterling" unicode="&#xa3;" horiz-adv-x="455" 
d="M66 298l10 58h87c1 43 4 99 11 139c20 115 81 183 196 183c68 0 97 -19 119 -35l-37 -58c-18 12 -42 29 -91 29c-62 0 -96 -37 -112 -124c-7 -39 -12 -93 -13 -134h147l-10 -58h-139c-8 -98 -46 -189 -115 -236h254l-10 -62h-355l9 49c91 47 137 142 144 249h-95z" />
    <glyph glyph-name="currency" unicode="&#xa4;" horiz-adv-x="463" 
d="M15 -12l-44 38l95 99c-17 24 -28 58 -28 94c0 61 33 123 77 163l-62 101l58 38l59 -104c28 12 59 20 95 20c33 0 60 -6 81 -16l95 100l43 -38l-93 -95c24 -27 36 -65 36 -100c0 -64 -29 -127 -79 -169l56 -93l-58 -38l-54 96c-27 -11 -57 -18 -92 -18c-38 0 -69 8 -92 22
zM210 123c84 0 149 71 149 157c0 59 -41 101 -104 101c-84 0 -149 -75 -149 -154c0 -63 42 -104 104 -104z" />
    <glyph glyph-name="yen" unicode="&#xa5;" horiz-adv-x="544" 
d="M198 0l17 96h-163l11 58h163l13 72h-164l11 58h145l-138 382h75l121 -350h1l230 350h78l-259 -382h145l-11 -58h-161l-13 -72h162l-11 -58h-162l-17 -96h-73z" />
    <glyph glyph-name="brokenbar" unicode="&#xa6;" horiz-adv-x="112" 
d="M-58 -250l67 378h60l-67 -378h-60zM53 382l65 368h60l-65 -368h-60z" />
    <glyph glyph-name="section" unicode="&#xa7;" horiz-adv-x="409" 
d="M117 -152c-58 0 -96 20 -114 35l38 54c16 -12 37 -25 79 -25c65 0 96 43 96 97c0 98 -157 204 -157 340c0 63 34 104 91 138c-11 24 -18 49 -18 76c0 117 93 169 172 169c66 0 94 -15 117 -31l-39 -57c-14 11 -36 25 -83 25c-64 0 -95 -45 -95 -103
c0 -95 158 -199 158 -329c0 -69 -38 -109 -91 -146c10 -24 17 -47 17 -72c0 -117 -81 -171 -171 -171zM243 141c35 25 49 55 49 89c0 39 -32 94 -81 161c-12 16 -23 32 -34 48c-30 -19 -46 -43 -46 -85c0 -36 16 -72 53 -127c21 -31 42 -59 59 -86z" />
    <glyph glyph-name="dieresis" unicode="&#xa8;" horiz-adv-x="500" 
d="M219 541c-28 0 -50 22 -50 51c0 28 22 50 50 50c30 0 51 -22 51 -50c0 -29 -22 -51 -51 -51zM402 541c-28 0 -50 22 -50 51c0 28 22 50 50 50c30 0 51 -22 51 -50c0 -29 -22 -51 -51 -51z" />
    <glyph glyph-name="copyright" unicode="&#xa9;" horiz-adv-x="825" 
d="M440 127c-133 0 -229 106 -229 232c0 130 100 232 229 232c70 0 108 -24 141 -50l-38 -48c-21 18 -50 39 -104 39c-106 0 -156 -91 -156 -171c0 -97 70 -175 161 -175c59 0 94 26 116 44l31 -51c-33 -26 -78 -52 -151 -52zM432 -14c-205 0 -372 167 -372 373
s167 373 372 373c206 0 373 -167 373 -373s-167 -373 -373 -373zM432 38c182 0 317 134 317 321c0 186 -135 321 -317 321c-181 0 -316 -135 -316 -321c0 -187 135 -321 316 -321z" />
    <glyph glyph-name="ordfeminine" unicode="&#xaa;" horiz-adv-x="351" 
d="M151 314c-56 0 -88 43 -88 101c0 128 83 263 215 263c50 0 87 -11 101 -16l-34 -190c-11 -64 -18 -126 -20 -149h-59c6 39 10 69 19 108h-1c-30 -65 -76 -117 -133 -117zM167 370c60 0 125 117 141 222l4 26c-8 3 -27 6 -44 6c-86 0 -141 -94 -141 -202
c0 -27 10 -52 40 -52z" />
    <glyph glyph-name="guillemotleft" unicode="&#xab;" horiz-adv-x="450" 
d="M130 56l-100 189l167 190h80l-171 -196l96 -183h-72zM308 56l-100 189l167 190h80l-171 -196l96 -183h-72z" />
    <glyph glyph-name="logicalnot" unicode="&#xac;" horiz-adv-x="568" 
d="M423 33l36 204h-430l11 64h498l-47 -268h-68z" />
    <glyph glyph-name="uni00AD" unicode="&#xad;" horiz-adv-x="305" 
d="M54 255l11 64h201l-11 -64h-201z" />
    <glyph glyph-name="registered" unicode="&#xae;" horiz-adv-x="825" 
d="M297 136v452h147c92 0 139 -60 139 -127c0 -66 -45 -107 -120 -117c20 -15 35 -33 53 -59l105 -149h-79l-109 159c-23 33 -36 44 -71 44v-203h-65zM432 -14c-205 0 -372 167 -372 373s167 373 372 373c206 0 373 -167 373 -373s-167 -373 -373 -373zM432 38
c182 0 317 134 317 321c0 186 -135 321 -317 321c-181 0 -316 -135 -316 -321c0 -187 135 -321 316 -321zM362 390h46c51 0 105 6 105 71c0 42 -22 71 -84 71h-67v-142z" />
    <glyph glyph-name="macron" unicode="&#xaf;" horiz-adv-x="500" 
d="M172 574l11 61h271l-11 -61h-271z" />
    <glyph glyph-name="degree" unicode="&#xb0;" horiz-adv-x="339" 
d="M213 418c-70 0 -128 59 -128 130s58 130 128 130c71 0 129 -59 129 -130s-57 -130 -129 -130zM213 468c44 0 75 36 75 80c0 43 -31 80 -75 80c-43 0 -74 -37 -74 -80c0 -44 31 -80 74 -80z" />
    <glyph glyph-name="plusminus" unicode="&#xb1;" horiz-adv-x="574" 
d="M204 42l34 194h-179l11 61h179l32 185h67l-32 -185h181l-11 -61h-181l-34 -194h-67zM-4 -115l11 64h428l-11 -64h-428z" />
    <glyph glyph-name="twosuperior" unicode="&#xb2;" horiz-adv-x="322" 
d="M47 342l6 34c113 80 211 143 211 207c0 26 -24 38 -51 38c-32 0 -62 -15 -84 -32l-30 40c26 21 69 43 123 43c74 0 111 -32 111 -79c0 -74 -87 -139 -179 -202c8 1 28 2 43 2h116l-11 -51h-255z" />
    <glyph glyph-name="threesuperior" unicode="&#xb3;" horiz-adv-x="292" 
d="M113 336c-27 0 -52 5 -63 9l19 50c10 -4 28 -8 49 -8c58 0 103 19 103 59c0 32 -43 46 -102 44l8 43c66 4 114 25 114 58c0 19 -20 30 -48 30c-29 0 -53 -9 -71 -20l-25 40c22 15 62 31 109 31c69 0 100 -29 100 -66c0 -48 -42 -75 -90 -87v-1c37 -6 72 -29 72 -68
c0 -71 -63 -114 -175 -114z" />
    <glyph glyph-name="acute" unicode="&#xb4;" horiz-adv-x="500" 
d="M149 540l111 126h111l-152 -126h-70z" />
    <glyph glyph-name="mu" unicode="&#xb5;" horiz-adv-x="564" 
d="M-13 -207l127 687h72l-57 -321c-3 -17 -5 -31 -5 -44c0 -42 17 -62 49 -62c75 0 176 112 219 350l14 77h72l-49 -271c-24 -134 -30 -209 -30 -209h-70c7 52 17 114 28 162h-2c-36 -69 -98 -174 -205 -174c-23 0 -44 7 -56 23c-1 -20 -5 -46 -12 -87l-23 -131h-72z" />
    <glyph glyph-name="paragraph" unicode="&#xb6;" horiz-adv-x="606" 
d="M172 -177l79 451c-91 0 -160 68 -160 167c0 131 100 225 229 225h313l-11 -63h-78l-137 -780h-66l137 780h-102l-137 -780h-67z" />
    <glyph glyph-name="periodcentered" unicode="&#xb7;" horiz-adv-x="235" 
d="M118 234c-32 0 -58 26 -58 57s26 57 58 57c31 0 57 -26 57 -57s-26 -57 -57 -57z" />
    <glyph glyph-name="cedilla" unicode="&#xb8;" horiz-adv-x="500" 
d="M166 -219c-36 0 -55 7 -66 11l15 41c6 -3 24 -9 50 -9c30 0 50 13 50 39c0 37 -35 43 -71 41l36 96h51l-25 -66c40 -6 70 -32 70 -73c0 -51 -49 -80 -110 -80z" />
    <glyph glyph-name="onesuperior" unicode="&#xb9;" horiz-adv-x="244" 
d="M126 342l54 272l-87 -24l-14 48l118 28h55l-64 -324h-62z" />
    <glyph glyph-name="ordmasculine" unicode="&#xba;" horiz-adv-x="361" 
d="M196 315c-84 0 -128 64 -128 145c0 108 77 218 186 218c87 0 129 -63 129 -142c0 -126 -78 -221 -187 -221zM203 366c72 0 116 78 116 161c0 64 -20 100 -72 100c-72 0 -116 -85 -116 -166c0 -62 22 -95 72 -95z" />
    <glyph glyph-name="guillemotright" unicode="&#xbb;" horiz-adv-x="450" 
d="M-1 56l167 195l-96 184h72l100 -191l-163 -188h-80zM177 56l167 195l-96 184h72l100 -191l-163 -188h-80z" />
    <glyph glyph-name="onequarter" unicode="&#xbc;" horiz-adv-x="695" 
d="M187 342l54 272l-87 -24l-14 48l118 28h55l-64 -324h-62zM79 0l528 666h68l-528 -666h-68zM523 0l13 68h-174l8 42l221 214h57l-41 -207h54l-10 -49h-53l-14 -68h-61zM442 115c8 1 23 2 41 2h63l24 123h-1z" />
    <glyph glyph-name="onehalf" unicode="&#xbd;" horiz-adv-x="737" 
d="M187 342l54 272l-87 -24l-14 48l118 28h55l-64 -324h-62zM79 0l528 666h68l-528 -666h-68zM400 0l6 34c113 80 211 143 211 207c0 26 -24 38 -51 38c-32 0 -62 -15 -84 -32l-30 40c26 21 69 43 123 43c74 0 111 -32 111 -79c0 -74 -87 -139 -179 -202c8 1 28 2 43 2h116
l-11 -51h-255z" />
    <glyph glyph-name="threequarters" unicode="&#xbe;" horiz-adv-x="682" 
d="M113 336c-27 0 -52 5 -63 9l19 50c10 -4 28 -8 49 -8c58 0 103 19 103 59c0 32 -43 46 -102 44l8 43c66 4 114 25 114 58c0 19 -20 30 -48 30c-29 0 -53 -9 -71 -20l-25 40c22 15 62 31 109 31c69 0 100 -29 100 -66c0 -48 -42 -75 -90 -87v-1c37 -6 72 -29 72 -68
c0 -71 -63 -114 -175 -114zM66 0l528 666h68l-528 -666h-68zM510 0l13 68h-174l8 42l221 214h57l-41 -207h54l-10 -49h-53l-14 -68h-61zM429 115c8 1 23 2 41 2h63l24 123h-1z" />
    <glyph glyph-name="questiondown" unicode="&#xbf;" horiz-adv-x="441" 
d="M188 -195c-112 0 -171 69 -171 145c0 107 83 156 158 198c38 21 55 43 63 87l10 55h69l-11 -63c-11 -65 -28 -90 -95 -128c-70 -40 -116 -68 -116 -142c0 -53 35 -88 104 -88c37 0 69 13 85 20l21 -58c-24 -12 -67 -26 -117 -26zM304 378c-31 0 -57 26 -57 56
c0 32 26 58 57 58c33 0 59 -26 59 -58c0 -30 -26 -56 -59 -56z" />
    <glyph glyph-name="Agrave" unicode="&#xc0;" horiz-adv-x="607" 
d="M184 231h242l-36 223c-8 49 -15 103 -18 124h-2c-10 -21 -36 -75 -63 -124zM-21 0l373 666h75l115 -666h-78l-27 165h-289l-91 -165h-78zM360 726l-106 126h97l71 -126h-62z" />
    <glyph glyph-name="Aacute" unicode="&#xc1;" horiz-adv-x="607" 
d="M184 231h242l-36 223c-8 49 -15 103 -18 124h-2c-10 -21 -36 -75 -63 -124zM-21 0l373 666h75l115 -666h-78l-27 165h-289l-91 -165h-78zM363 726l111 126h111l-152 -126h-70z" />
    <glyph glyph-name="Acircumflex" unicode="&#xc2;" horiz-adv-x="607" 
d="M184 231h242l-36 223c-8 49 -15 103 -18 124h-2c-10 -21 -36 -75 -63 -124zM-21 0l373 666h75l115 -666h-78l-27 165h-289l-91 -165h-78zM254 727l147 153h50l92 -153h-61l-65 89l-94 -89h-69z" />
    <glyph glyph-name="Atilde" unicode="&#xc3;" horiz-adv-x="607" 
d="M184 231h242l-36 223c-8 49 -15 103 -18 124h-2c-10 -21 -36 -75 -63 -124zM-21 0l373 666h75l115 -666h-78l-27 165h-289l-91 -165h-78zM447 729c-47 0 -63 39 -101 39c-23 0 -41 -18 -53 -29l-30 35c21 28 52 58 95 58c47 0 64 -39 101 -39c26 0 45 17 55 29l31 -34
c-23 -28 -54 -59 -98 -59z" />
    <glyph glyph-name="Adieresis" unicode="&#xc4;" horiz-adv-x="607" 
d="M184 231h242l-36 223c-8 49 -15 103 -18 124h-2c-10 -21 -36 -75 -63 -124zM-21 0l373 666h75l115 -666h-78l-27 165h-289l-91 -165h-78zM311 727c-28 0 -50 22 -50 51c0 28 22 50 50 50c30 0 51 -22 51 -50c0 -29 -22 -51 -51 -51zM494 727c-28 0 -50 22 -50 51
c0 28 22 50 50 50c30 0 51 -22 51 -50c0 -29 -22 -51 -51 -51z" />
    <glyph glyph-name="Aring" unicode="&#xc5;" horiz-adv-x="607" 
d="M184 231h242l-36 223c-8 49 -15 103 -18 124h-2c-10 -21 -36 -75 -63 -124zM-21 0l373 666h75l115 -666h-78l-27 165h-289l-91 -165h-78zM403 731c-50 0 -94 38 -94 94s44 96 94 96s94 -39 94 -95s-44 -95 -94 -95zM403 771c31 0 49 25 49 55c0 32 -18 55 -49 55
c-32 0 -49 -23 -49 -55c0 -30 17 -55 49 -55z" />
    <glyph glyph-name="AE" unicode="&#xc6;" horiz-adv-x="810" 
d="M-63 0l506 666h376l-12 -66h-258l-39 -214h228l-12 -66h-227l-45 -254h265l-12 -66h-342l30 165h-250l-125 -165h-83zM195 231h211c1 0 66 367 66 367z" />
    <glyph glyph-name="Ccedilla" unicode="&#xc7;" horiz-adv-x="607" 
d="M269 -219c-36 0 -55 7 -66 11l15 41c6 -3 24 -9 50 -9c30 0 50 13 50 39c0 37 -35 43 -71 41l32 87c-149 20 -221 135 -221 276c0 226 166 411 381 411c97 0 145 -19 184 -46l-45 -58c-34 24 -78 39 -145 39c-172 0 -294 -155 -294 -343c0 -121 57 -216 195 -216
c73 0 123 26 168 60l34 -54c-42 -38 -125 -72 -207 -72l-20 -54c40 -6 70 -32 70 -73c0 -51 -49 -80 -110 -80z" />
    <glyph glyph-name="Egrave" unicode="&#xc8;" horiz-adv-x="494" 
d="M49 0l119 666h335l-12 -66h-258l-39 -214h228l-12 -66h-227l-45 -254h265l-12 -66h-342zM297 726l-106 126h97l71 -126h-62z" />
    <glyph glyph-name="Eacute" unicode="&#xc9;" horiz-adv-x="494" 
d="M49 0l119 666h335l-12 -66h-258l-39 -214h228l-12 -66h-227l-45 -254h265l-12 -66h-342zM300 726l111 126h111l-152 -126h-70z" />
    <glyph glyph-name="Ecircumflex" unicode="&#xca;" horiz-adv-x="494" 
d="M49 0l119 666h335l-12 -66h-258l-39 -214h228l-12 -66h-227l-45 -254h265l-12 -66h-342zM191 727l147 153h50l92 -153h-61l-65 89l-94 -89h-69z" />
    <glyph glyph-name="Edieresis" unicode="&#xcb;" horiz-adv-x="494" 
d="M49 0l119 666h335l-12 -66h-258l-39 -214h228l-12 -66h-227l-45 -254h265l-12 -66h-342zM248 727c-28 0 -50 22 -50 51c0 28 22 50 50 50c30 0 51 -22 51 -50c0 -29 -22 -51 -51 -51zM431 727c-28 0 -50 22 -50 51c0 28 22 50 50 50c30 0 51 -22 51 -50
c0 -29 -22 -51 -51 -51z" />
    <glyph glyph-name="Igrave" unicode="&#xcc;" horiz-adv-x="275" 
d="M55 0l119 666h77l-119 -666h-77zM183 726l-106 126h97l71 -126h-62z" />
    <glyph glyph-name="Iacute" unicode="&#xcd;" horiz-adv-x="275" 
d="M55 0l119 666h77l-119 -666h-77zM186 726l111 126h111l-152 -126h-70z" />
    <glyph glyph-name="Icircumflex" unicode="&#xce;" horiz-adv-x="275" 
d="M55 0l119 666h77l-119 -666h-77zM77 727l147 153h50l92 -153h-61l-65 89l-94 -89h-69z" />
    <glyph glyph-name="Idieresis" unicode="&#xcf;" horiz-adv-x="275" 
d="M55 0l119 666h77l-119 -666h-77zM134 727c-28 0 -50 22 -50 51c0 28 22 50 50 50c30 0 51 -22 51 -50c0 -29 -22 -51 -51 -51zM317 727c-28 0 -50 22 -50 51c0 28 22 50 50 50c30 0 51 -22 51 -50c0 -29 -22 -51 -51 -51z" />
    <glyph glyph-name="Eth" unicode="&#xd0;" horiz-adv-x="668" 
d="M57 0l56 314h-70l11 58h69l53 294h147c221 0 319 -102 319 -257c0 -211 -133 -409 -408 -409h-177zM146 64h100c205 0 315 151 315 340c0 137 -76 198 -247 198h-73l-41 -230h113l-11 -58h-112z" />
    <glyph glyph-name="Ntilde" unicode="&#xd1;" horiz-adv-x="687" 
d="M46 0l119 666h75l225 -464c17 -36 31 -71 39 -97h2c3 26 8 65 15 104l81 457h70l-118 -666h-71l-231 477c-15 31 -25 55 -36 88h-2c-3 -26 -7 -55 -14 -95l-84 -470h-70zM478 729c-47 0 -63 39 -101 39c-23 0 -41 -18 -53 -29l-30 35c21 28 52 58 95 58
c47 0 64 -39 101 -39c26 0 45 17 55 29l31 -34c-23 -28 -54 -59 -98 -59z" />
    <glyph glyph-name="Ograve" unicode="&#xd2;" horiz-adv-x="734" 
d="M340 -12c-179 0 -280 137 -280 287c0 198 144 403 364 403c190 0 280 -136 280 -290c0 -196 -139 -400 -364 -400zM344 53c175 0 280 167 280 336c0 119 -68 224 -205 224c-175 0 -279 -165 -279 -337c0 -122 76 -223 204 -223zM401 726l-106 126h97l71 -126h-62z" />
    <glyph glyph-name="Oacute" unicode="&#xd3;" horiz-adv-x="734" 
d="M340 -12c-179 0 -280 137 -280 287c0 198 144 403 364 403c190 0 280 -136 280 -290c0 -196 -139 -400 -364 -400zM344 53c175 0 280 167 280 336c0 119 -68 224 -205 224c-175 0 -279 -165 -279 -337c0 -122 76 -223 204 -223zM404 726l111 126h111l-152 -126h-70z" />
    <glyph glyph-name="Ocircumflex" unicode="&#xd4;" horiz-adv-x="734" 
d="M340 -12c-179 0 -280 137 -280 287c0 198 144 403 364 403c190 0 280 -136 280 -290c0 -196 -139 -400 -364 -400zM344 53c175 0 280 167 280 336c0 119 -68 224 -205 224c-175 0 -279 -165 -279 -337c0 -122 76 -223 204 -223zM295 727l147 153h50l92 -153h-61l-65 89
l-94 -89h-69z" />
    <glyph glyph-name="Otilde" unicode="&#xd5;" horiz-adv-x="734" 
d="M340 -12c-179 0 -280 137 -280 287c0 198 144 403 364 403c190 0 280 -136 280 -290c0 -196 -139 -400 -364 -400zM344 53c175 0 280 167 280 336c0 119 -68 224 -205 224c-175 0 -279 -165 -279 -337c0 -122 76 -223 204 -223zM488 729c-47 0 -63 39 -101 39
c-23 0 -41 -18 -53 -29l-30 35c21 28 52 58 95 58c47 0 64 -39 101 -39c26 0 45 17 55 29l31 -34c-23 -28 -54 -59 -98 -59z" />
    <glyph glyph-name="Odieresis" unicode="&#xd6;" horiz-adv-x="734" 
d="M340 -12c-179 0 -280 137 -280 287c0 198 144 403 364 403c190 0 280 -136 280 -290c0 -196 -139 -400 -364 -400zM344 53c175 0 280 167 280 336c0 119 -68 224 -205 224c-175 0 -279 -165 -279 -337c0 -122 76 -223 204 -223zM352 727c-28 0 -50 22 -50 51
c0 28 22 50 50 50c30 0 51 -22 51 -50c0 -29 -22 -51 -51 -51zM535 727c-28 0 -50 22 -50 51c0 28 22 50 50 50c30 0 51 -22 51 -50c0 -29 -22 -51 -51 -51z" />
    <glyph glyph-name="multiply" unicode="&#xd7;" horiz-adv-x="405" 
d="M301 81l-113 136l-151 -129l-37 45l151 129l-106 130l46 41l107 -129l163 136l37 -45l-163 -136l113 -137z" />
    <glyph glyph-name="Oslash" unicode="&#xd8;" horiz-adv-x="734" 
d="M75 -68l-41 34l96 113c-46 52 -70 122 -70 196c0 198 144 403 364 403c72 0 129 -20 173 -52l82 96l41 -34l-84 -98c46 -53 68 -126 68 -202c0 -196 -139 -400 -364 -400c-69 0 -127 20 -171 54zM344 53c175 0 280 167 280 336c0 52 -13 102 -40 141l-370 -432
c34 -28 77 -45 130 -45zM140 276c0 -53 14 -101 40 -140l369 433c-32 27 -76 44 -130 44c-175 0 -279 -165 -279 -337z" />
    <glyph glyph-name="Ugrave" unicode="&#xd9;" horiz-adv-x="675" 
d="M304 -12c-149 0 -222 80 -222 200c0 19 2 40 6 61l74 417h76l-72 -407c-4 -25 -7 -47 -7 -67c0 -94 49 -137 152 -137c122 0 182 66 206 199l73 412h72l-76 -425c-28 -154 -107 -253 -282 -253zM377 726l-106 126h97l71 -126h-62z" />
    <glyph glyph-name="Uacute" unicode="&#xda;" horiz-adv-x="675" 
d="M304 -12c-149 0 -222 80 -222 200c0 19 2 40 6 61l74 417h76l-72 -407c-4 -25 -7 -47 -7 -67c0 -94 49 -137 152 -137c122 0 182 66 206 199l73 412h72l-76 -425c-28 -154 -107 -253 -282 -253zM380 726l111 126h111l-152 -126h-70z" />
    <glyph glyph-name="Ucircumflex" unicode="&#xdb;" horiz-adv-x="675" 
d="M304 -12c-149 0 -222 80 -222 200c0 19 2 40 6 61l74 417h76l-72 -407c-4 -25 -7 -47 -7 -67c0 -94 49 -137 152 -137c122 0 182 66 206 199l73 412h72l-76 -425c-28 -154 -107 -253 -282 -253zM271 727l147 153h50l92 -153h-61l-65 89l-94 -89h-69z" />
    <glyph glyph-name="Udieresis" unicode="&#xdc;" horiz-adv-x="675" 
d="M304 -12c-149 0 -222 80 -222 200c0 19 2 40 6 61l74 417h76l-72 -407c-4 -25 -7 -47 -7 -67c0 -94 49 -137 152 -137c122 0 182 66 206 199l73 412h72l-76 -425c-28 -154 -107 -253 -282 -253zM328 727c-28 0 -50 22 -50 51c0 28 22 50 50 50c30 0 51 -22 51 -50
c0 -29 -22 -51 -51 -51zM511 727c-28 0 -50 22 -50 51c0 28 22 50 50 50c30 0 51 -22 51 -50c0 -29 -22 -51 -51 -51z" />
    <glyph glyph-name="Yacute" unicode="&#xdd;" horiz-adv-x="544" 
d="M195 0l45 251l-150 415h80l120 -342h1l227 342h81l-282 -416l-45 -250h-77zM315 726l111 126h111l-152 -126h-70z" />
    <glyph glyph-name="Thorn" unicode="&#xde;" horiz-adv-x="528" 
d="M49 0l119 666h76l-20 -115h85c124 0 206 -58 206 -166c0 -146 -116 -231 -276 -231h-85l-28 -154h-77zM166 220h80c127 0 188 62 188 156c0 66 -36 109 -138 109h-83z" />
    <glyph glyph-name="germandbls" unicode="&#xdf;" horiz-adv-x="500" 
d="M-88 -230c-38 0 -64 9 -86 19l24 60c18 -8 40 -15 67 -15c62 0 85 59 96 121l104 567c28 153 119 210 237 210c96 0 147 -60 147 -135c0 -168 -200 -183 -200 -265c0 -54 157 -83 157 -196c0 -84 -57 -148 -174 -148c-58 0 -100 19 -123 33l33 55c17 -12 51 -28 94 -28
c64 0 100 33 100 86c0 77 -156 101 -156 193c0 114 197 133 197 259c0 52 -27 86 -86 86c-77 0 -134 -42 -154 -150l-105 -569c-22 -120 -67 -183 -172 -183z" />
    <glyph glyph-name="agrave" unicode="&#xe0;" horiz-adv-x="481" 
d="M148 -12c-80 0 -118 61 -118 147c0 177 101 357 284 357c69 0 116 -13 136 -19l-48 -264c-24 -134 -30 -209 -30 -209h-70c7 53 14 95 27 148h-2c-41 -81 -90 -160 -179 -160zM164 53c88 0 176 179 196 319l7 48c-11 4 -39 9 -67 9c-125 0 -197 -140 -197 -283
c0 -65 21 -93 61 -93zM283 540l-106 126h97l71 -126h-62z" />
    <glyph glyph-name="aacute" unicode="&#xe1;" horiz-adv-x="481" 
d="M148 -12c-80 0 -118 61 -118 147c0 177 101 357 284 357c69 0 116 -13 136 -19l-48 -264c-24 -134 -30 -209 -30 -209h-70c7 53 14 95 27 148h-2c-41 -81 -90 -160 -179 -160zM164 53c88 0 176 179 196 319l7 48c-11 4 -39 9 -67 9c-125 0 -197 -140 -197 -283
c0 -65 21 -93 61 -93zM286 540l111 126h111l-152 -126h-70z" />
    <glyph glyph-name="acircumflex" unicode="&#xe2;" horiz-adv-x="481" 
d="M148 -12c-80 0 -118 61 -118 147c0 177 101 357 284 357c69 0 116 -13 136 -19l-48 -264c-24 -134 -30 -209 -30 -209h-70c7 53 14 95 27 148h-2c-41 -81 -90 -160 -179 -160zM164 53c88 0 176 179 196 319l7 48c-11 4 -39 9 -67 9c-125 0 -197 -140 -197 -283
c0 -65 21 -93 61 -93zM177 541l147 153h50l92 -153h-61l-65 89l-94 -89h-69z" />
    <glyph glyph-name="atilde" unicode="&#xe3;" horiz-adv-x="481" 
d="M148 -12c-80 0 -118 61 -118 147c0 177 101 357 284 357c69 0 116 -13 136 -19l-48 -264c-24 -134 -30 -209 -30 -209h-70c7 53 14 95 27 148h-2c-41 -81 -90 -160 -179 -160zM164 53c88 0 176 179 196 319l7 48c-11 4 -39 9 -67 9c-125 0 -197 -140 -197 -283
c0 -65 21 -93 61 -93zM370 543c-47 0 -63 39 -101 39c-23 0 -41 -18 -53 -29l-30 35c21 28 52 58 95 58c47 0 64 -39 101 -39c26 0 45 17 55 29l31 -34c-23 -28 -54 -59 -98 -59z" />
    <glyph glyph-name="adieresis" unicode="&#xe4;" horiz-adv-x="481" 
d="M148 -12c-80 0 -118 61 -118 147c0 177 101 357 284 357c69 0 116 -13 136 -19l-48 -264c-24 -134 -30 -209 -30 -209h-70c7 53 14 95 27 148h-2c-41 -81 -90 -160 -179 -160zM164 53c88 0 176 179 196 319l7 48c-11 4 -39 9 -67 9c-125 0 -197 -140 -197 -283
c0 -65 21 -93 61 -93zM234 541c-28 0 -50 22 -50 51c0 28 22 50 50 50c30 0 51 -22 51 -50c0 -29 -22 -51 -51 -51zM417 541c-28 0 -50 22 -50 51c0 28 22 50 50 50c30 0 51 -22 51 -50c0 -29 -22 -51 -51 -51z" />
    <glyph glyph-name="aring" unicode="&#xe5;" horiz-adv-x="481" 
d="M148 -12c-80 0 -118 61 -118 147c0 177 101 357 284 357c69 0 116 -13 136 -19l-48 -264c-24 -134 -30 -209 -30 -209h-70c7 53 14 95 27 148h-2c-41 -81 -90 -160 -179 -160zM164 53c88 0 176 179 196 319l7 48c-11 4 -39 9 -67 9c-125 0 -197 -140 -197 -283
c0 -65 21 -93 61 -93zM326 545c-50 0 -94 38 -94 94s44 96 94 96s94 -39 94 -95s-44 -95 -94 -95zM326 585c31 0 49 25 49 55c0 32 -18 55 -49 55c-32 0 -49 -23 -49 -55c0 -30 17 -55 49 -55z" />
    <glyph glyph-name="ae" unicode="&#xe6;" horiz-adv-x="696" 
d="M140 -12c-80 0 -132 52 -132 118c0 79 58 125 121 144c50 15 109 20 163 20h18c11 32 19 56 19 94s-19 63 -79 63c-68 0 -116 -36 -136 -51l-36 50c30 24 87 66 181 66c68 0 112 -24 133 -74c45 46 100 74 161 74c72 0 127 -36 127 -109c0 -120 -139 -166 -309 -168
c-2 -14 -3 -29 -3 -45c0 -76 32 -118 94 -118c53 0 99 31 125 59l42 -49c-30 -29 -87 -74 -176 -74c-71 0 -117 34 -140 84c-43 -49 -97 -84 -173 -84zM152 51c65 0 114 33 146 73c-2 12 -3 25 -3 37c0 19 1 37 4 55h-12c-54 0 -101 -4 -137 -19c-40 -16 -63 -45 -63 -87
c0 -41 26 -59 65 -59zM382 269c132 0 223 36 223 107c0 36 -21 52 -63 52c-66 0 -132 -63 -160 -159z" />
    <glyph glyph-name="ccedilla" unicode="&#xe7;" horiz-adv-x="404" 
d="M144 -219c-36 0 -55 7 -66 11l15 41c6 -3 24 -9 50 -9c30 0 50 13 50 39c0 37 -35 43 -71 41l32 87c-78 13 -127 78 -127 183c0 182 129 318 262 318c62 0 95 -18 115 -33l-37 -57c-15 11 -40 25 -86 25c-88 0 -182 -95 -182 -245c0 -90 37 -130 93 -130
c60 0 99 36 118 55l43 -47c-24 -24 -77 -65 -149 -71l-20 -55c40 -6 70 -32 70 -73c0 -51 -49 -80 -110 -80z" />
    <glyph glyph-name="egrave" unicode="&#xe8;" horiz-adv-x="426" 
d="M185 -12c-109 0 -158 81 -158 173c0 181 117 331 258 331c72 0 127 -36 127 -109c0 -119 -154 -170 -312 -190v-23c0 -76 32 -118 94 -118c53 0 99 31 125 59l42 -49c-30 -29 -87 -74 -176 -74zM274 428c-73 0 -142 -76 -166 -180c126 16 229 57 229 128
c0 36 -21 52 -63 52zM252 540l-106 126h97l71 -126h-62z" />
    <glyph glyph-name="eacute" unicode="&#xe9;" horiz-adv-x="426" 
d="M185 -12c-109 0 -158 81 -158 173c0 181 117 331 258 331c72 0 127 -36 127 -109c0 -119 -154 -170 -312 -190v-23c0 -76 32 -118 94 -118c53 0 99 31 125 59l42 -49c-30 -29 -87 -74 -176 -74zM274 428c-73 0 -142 -76 -166 -180c126 16 229 57 229 128
c0 36 -21 52 -63 52zM255 540l111 126h111l-152 -126h-70z" />
    <glyph glyph-name="ecircumflex" unicode="&#xea;" horiz-adv-x="426" 
d="M185 -12c-109 0 -158 81 -158 173c0 181 117 331 258 331c72 0 127 -36 127 -109c0 -119 -154 -170 -312 -190v-23c0 -76 32 -118 94 -118c53 0 99 31 125 59l42 -49c-30 -29 -87 -74 -176 -74zM274 428c-73 0 -142 -76 -166 -180c126 16 229 57 229 128
c0 36 -21 52 -63 52zM146 541l147 153h50l92 -153h-61l-65 89l-94 -89h-69z" />
    <glyph glyph-name="edieresis" unicode="&#xeb;" horiz-adv-x="426" 
d="M185 -12c-109 0 -158 81 -158 173c0 181 117 331 258 331c72 0 127 -36 127 -109c0 -119 -154 -170 -312 -190v-23c0 -76 32 -118 94 -118c53 0 99 31 125 59l42 -49c-30 -29 -87 -74 -176 -74zM274 428c-73 0 -142 -76 -166 -180c126 16 229 57 229 128
c0 36 -21 52 -63 52zM203 541c-28 0 -50 22 -50 51c0 28 22 50 50 50c30 0 51 -22 51 -50c0 -29 -22 -51 -51 -51zM386 541c-28 0 -50 22 -50 51c0 28 22 50 50 50c30 0 51 -22 51 -50c0 -29 -22 -51 -51 -51z" />
    <glyph glyph-name="igrave" unicode="&#xec;" horiz-adv-x="234" 
d="M37 0l87 480h72l-87 -480h-72zM130 540l-106 126h97l71 -126h-62z" />
    <glyph glyph-name="iacute" unicode="&#xed;" horiz-adv-x="234" 
d="M37 0l87 480h72l-87 -480h-72zM133 540l111 126h111l-152 -126h-70z" />
    <glyph glyph-name="icircumflex" unicode="&#xee;" horiz-adv-x="234" 
d="M37 0l87 480h72l-87 -480h-72zM24 541l147 153h50l92 -153h-61l-65 89l-94 -89h-69z" />
    <glyph glyph-name="idieresis" unicode="&#xef;" horiz-adv-x="234" 
d="M37 0l87 480h72l-87 -480h-72zM81 541c-28 0 -50 22 -50 51c0 28 22 50 50 50c30 0 51 -22 51 -50c0 -29 -22 -51 -51 -51zM264 541c-28 0 -50 22 -50 51c0 28 22 50 50 50c30 0 51 -22 51 -50c0 -29 -22 -51 -51 -51z" />
    <glyph glyph-name="eth" unicode="&#xf0;" horiz-adv-x="467" 
d="M200 -12c-95 0 -171 74 -171 196c0 176 116 301 243 301c54 0 85 -22 103 -41c-8 71 -30 125 -67 162l-83 -66l-34 42l72 57c-40 22 -89 32 -149 32l23 61c73 0 134 -17 181 -49l87 69l34 -42l-78 -62c58 -59 88 -150 88 -267c0 -185 -73 -393 -249 -393zM208 48
c111 0 168 161 170 326c-19 27 -51 52 -110 52c-88 0 -167 -91 -167 -239c0 -88 29 -139 107 -139z" />
    <glyph glyph-name="ntilde" unicode="&#xf1;" horiz-adv-x="511" 
d="M32 0l87 480h69c-5 -33 -19 -107 -32 -156h2c33 63 96 168 202 168c67 0 101 -45 101 -115c0 -15 -2 -32 -5 -49l-60 -328h-72l57 321c3 17 5 31 5 44c0 42 -17 62 -49 62c-79 0 -177 -117 -223 -372l-10 -55h-72zM362 543c-47 0 -63 39 -101 39c-23 0 -41 -18 -53 -29
l-30 35c21 28 52 58 95 58c47 0 64 -39 101 -39c26 0 45 17 55 29l31 -34c-23 -28 -54 -59 -98 -59z" />
    <glyph glyph-name="ograve" unicode="&#xf2;" horiz-adv-x="477" 
d="M199 -12c-123 0 -170 106 -170 199c0 149 104 305 247 305c118 0 171 -94 171 -196c0 -160 -106 -308 -248 -308zM204 48c101 0 170 128 170 236c0 96 -35 148 -103 148c-102 0 -171 -130 -171 -243c0 -85 35 -141 104 -141zM245 540l-106 126h97l71 -126h-62z" />
    <glyph glyph-name="oacute" unicode="&#xf3;" horiz-adv-x="477" 
d="M199 -12c-123 0 -170 106 -170 199c0 149 104 305 247 305c118 0 171 -94 171 -196c0 -160 -106 -308 -248 -308zM204 48c101 0 170 128 170 236c0 96 -35 148 -103 148c-102 0 -171 -130 -171 -243c0 -85 35 -141 104 -141zM248 540l111 126h111l-152 -126h-70z" />
    <glyph glyph-name="ocircumflex" unicode="&#xf4;" horiz-adv-x="477" 
d="M199 -12c-123 0 -170 106 -170 199c0 149 104 305 247 305c118 0 171 -94 171 -196c0 -160 -106 -308 -248 -308zM204 48c101 0 170 128 170 236c0 96 -35 148 -103 148c-102 0 -171 -130 -171 -243c0 -85 35 -141 104 -141zM139 541l147 153h50l92 -153h-61l-65 89
l-94 -89h-69z" />
    <glyph glyph-name="otilde" unicode="&#xf5;" horiz-adv-x="477" 
d="M199 -12c-123 0 -170 106 -170 199c0 149 104 305 247 305c118 0 171 -94 171 -196c0 -160 -106 -308 -248 -308zM204 48c101 0 170 128 170 236c0 96 -35 148 -103 148c-102 0 -171 -130 -171 -243c0 -85 35 -141 104 -141zM332 543c-47 0 -63 39 -101 39
c-23 0 -41 -18 -53 -29l-30 35c21 28 52 58 95 58c47 0 64 -39 101 -39c26 0 45 17 55 29l31 -34c-23 -28 -54 -59 -98 -59z" />
    <glyph glyph-name="odieresis" unicode="&#xf6;" horiz-adv-x="477" 
d="M199 -12c-123 0 -170 106 -170 199c0 149 104 305 247 305c118 0 171 -94 171 -196c0 -160 -106 -308 -248 -308zM204 48c101 0 170 128 170 236c0 96 -35 148 -103 148c-102 0 -171 -130 -171 -243c0 -85 35 -141 104 -141zM196 541c-28 0 -50 22 -50 51
c0 28 22 50 50 50c30 0 51 -22 51 -50c0 -29 -22 -51 -51 -51zM379 541c-28 0 -50 22 -50 51c0 28 22 50 50 50c30 0 51 -22 51 -50c0 -29 -22 -51 -51 -51z" />
    <glyph glyph-name="divide" unicode="&#xf7;" horiz-adv-x="572" 
d="M241 36c-31 0 -56 25 -56 55c0 29 25 54 56 54c30 0 55 -25 55 -54c0 -30 -25 -55 -55 -55zM302 374c-31 0 -56 25 -56 55c0 29 25 54 56 54c30 0 55 -25 55 -54c0 -30 -25 -55 -55 -55zM28 230l10 60h500l-10 -60h-500z" />
    <glyph glyph-name="oslash" unicode="&#xf8;" horiz-adv-x="477" 
d="M22 -59l-38 32l76 91c-22 36 -31 81 -31 123c0 149 104 305 247 305c47 0 84 -15 111 -40l86 100l38 -32l-92 -109c19 -33 28 -73 28 -115c0 -160 -106 -308 -248 -308c-45 0 -80 14 -106 37zM100 189c0 -26 3 -50 9 -69l236 278c-17 22 -42 34 -74 34
c-102 0 -171 -130 -171 -243zM204 48c101 0 170 128 170 236c0 25 -3 48 -8 67l-232 -275c17 -18 40 -28 70 -28z" />
    <glyph glyph-name="ugrave" unicode="&#xf9;" horiz-adv-x="511" 
d="M150 -12c-67 0 -101 44 -101 115c0 15 2 31 5 49l60 328h72l-57 -321c-3 -17 -5 -31 -5 -44c0 -42 17 -62 49 -62c75 0 176 112 219 350l14 77h72l-49 -271c-24 -134 -30 -209 -30 -209h-70c7 52 17 114 28 162h-2c-36 -69 -98 -174 -205 -174zM263 540l-106 126h97
l71 -126h-62z" />
    <glyph glyph-name="uacute" unicode="&#xfa;" horiz-adv-x="511" 
d="M150 -12c-67 0 -101 44 -101 115c0 15 2 31 5 49l60 328h72l-57 -321c-3 -17 -5 -31 -5 -44c0 -42 17 -62 49 -62c75 0 176 112 219 350l14 77h72l-49 -271c-24 -134 -30 -209 -30 -209h-70c7 52 17 114 28 162h-2c-36 -69 -98 -174 -205 -174zM266 540l111 126h111
l-152 -126h-70z" />
    <glyph glyph-name="ucircumflex" unicode="&#xfb;" horiz-adv-x="511" 
d="M150 -12c-67 0 -101 44 -101 115c0 15 2 31 5 49l60 328h72l-57 -321c-3 -17 -5 -31 -5 -44c0 -42 17 -62 49 -62c75 0 176 112 219 350l14 77h72l-49 -271c-24 -134 -30 -209 -30 -209h-70c7 52 17 114 28 162h-2c-36 -69 -98 -174 -205 -174zM157 541l147 153h50
l92 -153h-61l-65 89l-94 -89h-69z" />
    <glyph glyph-name="udieresis" unicode="&#xfc;" horiz-adv-x="511" 
d="M150 -12c-67 0 -101 44 -101 115c0 15 2 31 5 49l60 328h72l-57 -321c-3 -17 -5 -31 -5 -44c0 -42 17 -62 49 -62c75 0 176 112 219 350l14 77h72l-49 -271c-24 -134 -30 -209 -30 -209h-70c7 52 17 114 28 162h-2c-36 -69 -98 -174 -205 -174zM214 541
c-28 0 -50 22 -50 51c0 28 22 50 50 50c30 0 51 -22 51 -50c0 -29 -22 -51 -51 -51zM397 541c-28 0 -50 22 -50 51c0 28 22 50 50 50c30 0 51 -22 51 -50c0 -29 -22 -51 -51 -51z" />
    <glyph glyph-name="yacute" unicode="&#xfd;" horiz-adv-x="438" 
d="M-12 -220c-52 0 -73 12 -82 17l30 59c10 -5 27 -11 59 -11c51 0 91 28 154 136l-97 499h75l63 -352c4 -24 8 -47 10 -67h2c7 20 15 44 25 67l161 352h76l-176 -368c-111 -232 -171 -332 -300 -332zM225 540l111 126h111l-152 -126h-70z" />
    <glyph glyph-name="thorn" unicode="&#xfe;" horiz-adv-x="487" 
d="M-12 -218l170 938h72l-45 -242c-8 -43 -27 -123 -33 -144h2c42 79 97 158 186 158c82 0 116 -70 116 -154c0 -178 -106 -350 -282 -350c-40 0 -67 6 -75 8l-39 -214h-72zM180 48c129 0 202 138 202 283c0 56 -16 96 -57 96c-98 0 -181 -186 -205 -320l-9 -51
c9 -2 26 -8 69 -8z" />
    <glyph glyph-name="ydieresis" unicode="&#xff;" horiz-adv-x="438" 
d="M-12 -220c-52 0 -73 12 -82 17l30 59c10 -5 27 -11 59 -11c51 0 91 28 154 136l-97 499h75l63 -352c4 -24 8 -47 10 -67h2c7 20 15 44 25 67l161 352h76l-176 -368c-111 -232 -171 -332 -300 -332zM173 541c-28 0 -50 22 -50 51c0 28 22 50 50 50c30 0 51 -22 51 -50
c0 -29 -22 -51 -51 -51zM356 541c-28 0 -50 22 -50 51c0 28 22 50 50 50c30 0 51 -22 51 -50c0 -29 -22 -51 -51 -51z" />
    <glyph glyph-name="Amacron" unicode="&#x100;" horiz-adv-x="607" 
d="M184 231h242l-36 223c-8 49 -15 103 -18 124h-2c-10 -21 -36 -75 -63 -124zM-21 0l373 666h75l115 -666h-78l-27 165h-289l-91 -165h-78zM267 760l11 61h271l-11 -61h-271z" />
    <glyph glyph-name="amacron" unicode="&#x101;" horiz-adv-x="481" 
d="M148 -12c-80 0 -118 61 -118 147c0 177 101 357 284 357c69 0 116 -13 136 -19l-48 -264c-24 -134 -30 -209 -30 -209h-70c7 53 14 95 27 148h-2c-41 -81 -90 -160 -179 -160zM164 53c88 0 176 179 196 319l7 48c-11 4 -39 9 -67 9c-125 0 -197 -140 -197 -283
c0 -65 21 -93 61 -93zM190 574l11 61h271l-11 -61h-271z" />
    <glyph glyph-name="Abreve" unicode="&#x102;" horiz-adv-x="607" 
d="M184 231h242l-36 223c-8 49 -15 103 -18 124h-2c-10 -21 -36 -75 -63 -124zM-21 0l373 666h75l115 -666h-78l-27 165h-289l-91 -165h-78zM405 722c-71 0 -124 42 -124 126c0 5 1 11 1 16h61c0 -4 -1 -8 -1 -12c0 -42 20 -72 66 -72c42 0 78 32 89 84h64
c-22 -100 -96 -142 -156 -142z" />
    <glyph glyph-name="abreve" unicode="&#x103;" horiz-adv-x="481" 
d="M148 -12c-80 0 -118 61 -118 147c0 177 101 357 284 357c69 0 116 -13 136 -19l-48 -264c-24 -134 -30 -209 -30 -209h-70c7 53 14 95 27 148h-2c-41 -81 -90 -160 -179 -160zM164 53c88 0 176 179 196 319l7 48c-11 4 -39 9 -67 9c-125 0 -197 -140 -197 -283
c0 -65 21 -93 61 -93zM328 536c-71 0 -124 42 -124 126c0 5 1 11 1 16h61c0 -4 -1 -8 -1 -12c0 -42 20 -72 66 -72c42 0 78 32 89 84h64c-22 -100 -96 -142 -156 -142z" />
    <glyph glyph-name="Aogonek" unicode="&#x104;" horiz-adv-x="607" 
d="M466 -219c-62 0 -90 33 -90 76c0 60 49 111 88 143l-27 165h-289l-91 -165h-78l373 666h75l115 -666h-3c-43 0 -99 -77 -99 -131c0 -24 16 -38 43 -38c17 0 30 2 44 7l7 -40c-15 -8 -43 -17 -68 -17zM184 231h242l-36 223c-8 49 -15 103 -18 124h-2
c-10 -21 -36 -75 -63 -124z" />
    <glyph glyph-name="aogonek" unicode="&#x105;" horiz-adv-x="481" 
d="M304 -219c-62 0 -90 33 -90 76c0 60 49 111 88 143c7 53 14 95 27 148h-2c-41 -81 -90 -160 -179 -160c-80 0 -118 61 -118 147c0 177 101 357 284 357c69 0 116 -13 136 -19l-48 -264c-24 -134 -30 -209 -30 -209h-1c-35 0 -93 -77 -93 -131c0 -24 16 -38 43 -38
c17 0 30 2 44 7l7 -40c-15 -8 -43 -17 -68 -17zM164 53c88 0 176 179 196 319l7 48c-11 4 -39 9 -67 9c-125 0 -197 -140 -197 -283c0 -65 21 -93 61 -93z" />
    <glyph glyph-name="Cacute" unicode="&#x106;" horiz-adv-x="607" 
d="M329 -12c-183 0 -271 124 -271 279c0 226 166 411 381 411c97 0 145 -19 184 -46l-45 -58c-34 24 -78 39 -145 39c-172 0 -294 -155 -294 -343c0 -121 57 -216 195 -216c73 0 123 26 168 60l34 -54c-42 -38 -125 -72 -207 -72zM408 726l111 126h111l-152 -126h-70z" />
    <glyph glyph-name="cacute" unicode="&#x107;" horiz-adv-x="404" 
d="M186 -12c-97 0 -159 68 -159 186c0 182 129 318 262 318c62 0 95 -18 115 -33l-37 -57c-15 11 -40 25 -86 25c-88 0 -182 -95 -182 -245c0 -90 37 -130 93 -130c60 0 99 36 118 55l43 -47c-26 -26 -86 -72 -167 -72zM252 540l111 126h111l-152 -126h-70z" />
    <glyph glyph-name="Ccircumflex" unicode="&#x108;" horiz-adv-x="607" 
d="M329 -12c-183 0 -271 124 -271 279c0 226 166 411 381 411c97 0 145 -19 184 -46l-45 -58c-34 24 -78 39 -145 39c-172 0 -294 -155 -294 -343c0 -121 57 -216 195 -216c73 0 123 26 168 60l34 -54c-42 -38 -125 -72 -207 -72zM299 727l147 153h50l92 -153h-61l-65 89
l-94 -89h-69z" />
    <glyph glyph-name="ccircumflex" unicode="&#x109;" horiz-adv-x="404" 
d="M186 -12c-97 0 -159 68 -159 186c0 182 129 318 262 318c62 0 95 -18 115 -33l-37 -57c-15 11 -40 25 -86 25c-88 0 -182 -95 -182 -245c0 -90 37 -130 93 -130c60 0 99 36 118 55l43 -47c-26 -26 -86 -72 -167 -72zM143 541l147 153h50l92 -153h-61l-65 89l-94 -89h-69z
" />
    <glyph glyph-name="Cdotaccent" unicode="&#x10a;" horiz-adv-x="607" 
d="M329 -12c-183 0 -271 124 -271 279c0 226 166 411 381 411c97 0 145 -19 184 -46l-45 -58c-34 24 -78 39 -145 39c-172 0 -294 -155 -294 -343c0 -121 57 -216 195 -216c73 0 123 26 168 60l34 -54c-42 -38 -125 -72 -207 -72zM455 749c-31 0 -55 26 -55 57
c0 32 24 58 55 58s56 -25 56 -57s-25 -58 -56 -58z" />
    <glyph glyph-name="cdotaccent" unicode="&#x10b;" horiz-adv-x="404" 
d="M186 -12c-97 0 -159 68 -159 186c0 182 129 318 262 318c62 0 95 -18 115 -33l-37 -57c-15 11 -40 25 -86 25c-88 0 -182 -95 -182 -245c0 -90 37 -130 93 -130c60 0 99 36 118 55l43 -47c-26 -26 -86 -72 -167 -72zM299 563c-31 0 -55 26 -55 57c0 32 24 58 55 58
s56 -25 56 -57s-25 -58 -56 -58z" />
    <glyph glyph-name="Ccaron" unicode="&#x10c;" horiz-adv-x="607" 
d="M329 -12c-183 0 -271 124 -271 279c0 226 166 411 381 411c97 0 145 -19 184 -46l-45 -58c-34 24 -78 39 -145 39c-172 0 -294 -155 -294 -343c0 -121 57 -216 195 -216c73 0 123 26 168 60l34 -54c-42 -38 -125 -72 -207 -72zM417 725l-96 153h61l69 -89l99 89h69
l-152 -153h-50z" />
    <glyph glyph-name="ccaron" unicode="&#x10d;" horiz-adv-x="404" 
d="M186 -12c-97 0 -159 68 -159 186c0 182 129 318 262 318c62 0 95 -18 115 -33l-37 -57c-15 11 -40 25 -86 25c-88 0 -182 -95 -182 -245c0 -90 37 -130 93 -130c60 0 99 36 118 55l43 -47c-26 -26 -86 -72 -167 -72zM261 539l-96 153h61l69 -89l99 89h69l-152 -153h-50z
" />
    <glyph glyph-name="Dcaron" unicode="&#x10e;" horiz-adv-x="660" 
d="M49 0l119 666h147c221 0 319 -102 319 -257c0 -211 -133 -409 -408 -409h-177zM138 64h100c205 0 315 151 315 340c0 137 -76 198 -247 198h-73zM348 725l-96 153h61l69 -89l99 89h69l-152 -153h-50z" />
    <glyph glyph-name="dcaron" unicode="&#x10f;" horiz-adv-x="512" 
d="M149 -12c-86 0 -118 71 -118 154c0 187 111 350 285 350c39 0 59 -5 72 -8l43 236h72l-93 -511c-24 -134 -30 -209 -30 -209h-70c7 53 14 96 27 149h-2c-42 -79 -100 -161 -186 -161zM161 53c97 0 184 176 207 319l8 49c-11 4 -42 10 -75 10c-123 0 -197 -137 -197 -279
c0 -57 16 -99 57 -99zM514 554l71 166h91l-106 -166h-56z" />
    <glyph glyph-name="Dcroat" unicode="&#x110;" horiz-adv-x="668" 
d="M57 0l56 314h-70l11 58h69l53 294h147c221 0 319 -102 319 -257c0 -211 -133 -409 -408 -409h-177zM146 64h100c205 0 315 151 315 340c0 137 -76 198 -247 198h-73l-41 -230h113l-11 -58h-112z" />
    <glyph glyph-name="dcroat" unicode="&#x111;" horiz-adv-x="484" 
d="M257 576l10 58h148l16 86h72l-16 -86h40l-10 -58h-40l-67 -367c-24 -134 -30 -209 -30 -209h-70c7 53 14 96 27 149h-2c-42 -79 -100 -161 -186 -161s-118 71 -118 154c0 187 111 350 285 350c39 0 59 -5 72 -8l17 92h-148zM161 53c97 0 184 176 207 319l8 49
c-11 4 -42 10 -75 10c-123 0 -197 -137 -197 -279c0 -57 16 -99 57 -99z" />
    <glyph glyph-name="Emacron" unicode="&#x112;" horiz-adv-x="494" 
d="M49 0l119 666h335l-12 -66h-258l-39 -214h228l-12 -66h-227l-45 -254h265l-12 -66h-342zM204 760l11 61h271l-11 -61h-271z" />
    <glyph glyph-name="emacron" unicode="&#x113;" horiz-adv-x="426" 
d="M185 -12c-109 0 -158 81 -158 173c0 181 117 331 258 331c72 0 127 -36 127 -109c0 -119 -154 -170 -312 -190v-23c0 -76 32 -118 94 -118c53 0 99 31 125 59l42 -49c-30 -29 -87 -74 -176 -74zM274 428c-73 0 -142 -76 -166 -180c126 16 229 57 229 128
c0 36 -21 52 -63 52zM159 574l11 61h271l-11 -61h-271z" />
    <glyph glyph-name="Ebreve" unicode="&#x114;" horiz-adv-x="494" 
d="M49 0l119 666h335l-12 -66h-258l-39 -214h228l-12 -66h-227l-45 -254h265l-12 -66h-342zM342 722c-71 0 -124 42 -124 126c0 5 1 11 1 16h61c0 -4 -1 -8 -1 -12c0 -42 20 -72 66 -72c42 0 78 32 89 84h64c-22 -100 -96 -142 -156 -142z" />
    <glyph glyph-name="ebreve" unicode="&#x115;" horiz-adv-x="426" 
d="M185 -12c-109 0 -158 81 -158 173c0 181 117 331 258 331c72 0 127 -36 127 -109c0 -119 -154 -170 -312 -190v-23c0 -76 32 -118 94 -118c53 0 99 31 125 59l42 -49c-30 -29 -87 -74 -176 -74zM274 428c-73 0 -142 -76 -166 -180c126 16 229 57 229 128
c0 36 -21 52 -63 52zM297 536c-71 0 -124 42 -124 126c0 5 1 11 1 16h61c0 -4 -1 -8 -1 -12c0 -42 20 -72 66 -72c42 0 78 32 89 84h64c-22 -100 -96 -142 -156 -142z" />
    <glyph glyph-name="Edotaccent" unicode="&#x116;" horiz-adv-x="494" 
d="M49 0l119 666h335l-12 -66h-258l-39 -214h228l-12 -66h-227l-45 -254h265l-12 -66h-342zM347 749c-31 0 -55 26 -55 57c0 32 24 58 55 58s56 -25 56 -57s-25 -58 -56 -58z" />
    <glyph glyph-name="edotaccent" unicode="&#x117;" horiz-adv-x="426" 
d="M185 -12c-109 0 -158 81 -158 173c0 181 117 331 258 331c72 0 127 -36 127 -109c0 -119 -154 -170 -312 -190v-23c0 -76 32 -118 94 -118c53 0 99 31 125 59l42 -49c-30 -29 -87 -74 -176 -74zM274 428c-73 0 -142 -76 -166 -180c126 16 229 57 229 128
c0 36 -21 52 -63 52zM302 563c-31 0 -55 26 -55 57c0 32 24 58 55 58s56 -25 56 -57s-25 -58 -56 -58z" />
    <glyph glyph-name="Eogonek" unicode="&#x118;" horiz-adv-x="494" 
d="M293 -219c-62 0 -90 33 -90 76c0 60 54 124 98 143h-252l119 666h335l-12 -66h-258l-39 -214h228l-12 -66h-227l-45 -254h265l-12 -66h-20c-45 0 -104 -75 -104 -131c0 -24 16 -38 43 -38c17 0 30 2 44 7l7 -40c-15 -8 -43 -17 -68 -17z" />
    <glyph glyph-name="eogonek" unicode="&#x119;" horiz-adv-x="426" 
d="M253 -219c-62 0 -90 33 -90 76c0 58 48 113 91 145c-18 -7 -47 -14 -69 -14c-109 0 -158 81 -158 173c0 181 117 331 258 331c72 0 127 -36 127 -109c0 -119 -154 -170 -312 -190v-23c0 -76 32 -118 94 -118c53 0 99 31 125 59l42 -49l-60 -62c-30 -31 -74 -77 -74 -131
c0 -24 16 -38 43 -38c17 0 30 2 44 7l7 -40c-15 -8 -43 -17 -68 -17zM274 428c-73 0 -142 -76 -166 -180c126 16 229 57 229 128c0 36 -21 52 -63 52z" />
    <glyph glyph-name="Ecaron" unicode="&#x11a;" horiz-adv-x="494" 
d="M49 0l119 666h335l-12 -66h-258l-39 -214h228l-12 -66h-227l-45 -254h265l-12 -66h-342zM309 725l-96 153h61l69 -89l99 89h69l-152 -153h-50z" />
    <glyph glyph-name="ecaron" unicode="&#x11b;" horiz-adv-x="426" 
d="M185 -12c-109 0 -158 81 -158 173c0 181 117 331 258 331c72 0 127 -36 127 -109c0 -119 -154 -170 -312 -190v-23c0 -76 32 -118 94 -118c53 0 99 31 125 59l42 -49c-30 -29 -87 -74 -176 -74zM274 428c-73 0 -142 -76 -166 -180c126 16 229 57 229 128
c0 36 -21 52 -63 52zM264 539l-96 153h61l69 -89l99 89h69l-152 -153h-50z" />
    <glyph glyph-name="Gcircumflex" unicode="&#x11c;" horiz-adv-x="690" 
d="M341 -12c-185 0 -282 122 -282 280c0 222 166 410 387 410c105 0 170 -31 203 -56l-46 -58c-34 27 -91 49 -164 49c-179 0 -299 -156 -299 -342c0 -127 65 -219 206 -219c102 0 154 35 164 41l33 189h-145l12 66h221l-53 -294c-12 -9 -95 -66 -237 -66zM311 727l147 153
h50l92 -153h-61l-65 89l-94 -89h-69z" />
    <glyph glyph-name="gcircumflex" unicode="&#x11d;" horiz-adv-x="479" 
d="M134 -229c-68 0 -121 31 -145 49l39 57c25 -19 59 -42 114 -42c96 0 141 64 160 166l8 43c7 36 16 74 25 102h-2c-41 -78 -98 -158 -184 -158s-118 71 -118 154c0 187 110 350 284 350c60 0 123 -12 144 -17l-88 -476c-30 -162 -102 -228 -237 -228zM161 53
c97 0 184 177 207 319l8 49c-11 4 -41 10 -75 10c-124 0 -197 -137 -197 -279c0 -57 16 -99 57 -99zM176 541l147 153h50l92 -153h-61l-65 89l-94 -89h-69z" />
    <glyph glyph-name="Gbreve" unicode="&#x11e;" horiz-adv-x="690" 
d="M341 -12c-185 0 -282 122 -282 280c0 222 166 410 387 410c105 0 170 -31 203 -56l-46 -58c-34 27 -91 49 -164 49c-179 0 -299 -156 -299 -342c0 -127 65 -219 206 -219c102 0 154 35 164 41l33 189h-145l12 66h221l-53 -294c-12 -9 -95 -66 -237 -66zM462 722
c-71 0 -124 42 -124 126c0 5 1 11 1 16h61c0 -4 -1 -8 -1 -12c0 -42 20 -72 66 -72c42 0 78 32 89 84h64c-22 -100 -96 -142 -156 -142z" />
    <glyph glyph-name="gbreve" unicode="&#x11f;" horiz-adv-x="479" 
d="M134 -229c-68 0 -121 31 -145 49l39 57c25 -19 59 -42 114 -42c96 0 141 64 160 166l8 43c7 36 16 74 25 102h-2c-41 -78 -98 -158 -184 -158s-118 71 -118 154c0 187 110 350 284 350c60 0 123 -12 144 -17l-88 -476c-30 -162 -102 -228 -237 -228zM161 53
c97 0 184 177 207 319l8 49c-11 4 -41 10 -75 10c-124 0 -197 -137 -197 -279c0 -57 16 -99 57 -99zM327 536c-71 0 -124 42 -124 126c0 5 1 11 1 16h61c0 -4 -1 -8 -1 -12c0 -42 20 -72 66 -72c42 0 78 32 89 84h64c-22 -100 -96 -142 -156 -142z" />
    <glyph glyph-name="Gdotaccent" unicode="&#x120;" horiz-adv-x="690" 
d="M341 -12c-185 0 -282 122 -282 280c0 222 166 410 387 410c105 0 170 -31 203 -56l-46 -58c-34 27 -91 49 -164 49c-179 0 -299 -156 -299 -342c0 -127 65 -219 206 -219c102 0 154 35 164 41l33 189h-145l12 66h221l-53 -294c-12 -9 -95 -66 -237 -66zM467 749
c-31 0 -55 26 -55 57c0 32 24 58 55 58s56 -25 56 -57s-25 -58 -56 -58z" />
    <glyph glyph-name="gdotaccent" unicode="&#x121;" horiz-adv-x="479" 
d="M134 -229c-68 0 -121 31 -145 49l39 57c25 -19 59 -42 114 -42c96 0 141 64 160 166l8 43c7 36 16 74 25 102h-2c-41 -78 -98 -158 -184 -158s-118 71 -118 154c0 187 110 350 284 350c60 0 123 -12 144 -17l-88 -476c-30 -162 -102 -228 -237 -228zM161 53
c97 0 184 177 207 319l8 49c-11 4 -41 10 -75 10c-124 0 -197 -137 -197 -279c0 -57 16 -99 57 -99zM332 563c-31 0 -55 26 -55 57c0 32 24 58 55 58s56 -25 56 -57s-25 -58 -56 -58z" />
    <glyph glyph-name="Gcommaaccent" unicode="&#x122;" horiz-adv-x="690" 
d="M341 -12c-185 0 -282 122 -282 280c0 222 166 410 387 410c105 0 170 -31 203 -56l-46 -58c-34 27 -91 49 -164 49c-179 0 -299 -156 -299 -342c0 -127 65 -219 206 -219c102 0 154 35 164 41l33 189h-145l12 66h221l-53 -294c-12 -9 -95 -66 -237 -66zM319 -50
c26 0 49 -17 49 -47c0 -57 -55 -110 -89 -133l-24 20c20 17 43 38 43 63c0 24 -22 30 -22 57c0 23 19 40 43 40z" />
    <glyph glyph-name="gcommaaccent" unicode="&#x123;" horiz-adv-x="479" 
d="M134 -229c-68 0 -121 31 -145 49l39 57c25 -19 59 -42 114 -42c96 0 141 64 160 166l8 43c7 36 16 74 25 102h-2c-41 -78 -98 -158 -184 -158s-118 71 -118 154c0 187 110 350 284 350c60 0 123 -12 144 -17l-88 -476c-30 -162 -102 -228 -237 -228zM161 53
c97 0 184 177 207 319l8 49c-11 4 -41 10 -75 10c-124 0 -197 -137 -197 -279c0 -57 16 -99 57 -99zM317 539c-26 0 -49 17 -49 47c0 57 55 110 89 133l24 -20c-20 -17 -43 -38 -43 -63c0 -24 22 -30 22 -57c0 -23 -19 -40 -43 -40z" />
    <glyph glyph-name="Hcircumflex" unicode="&#x124;" horiz-adv-x="709" 
d="M49 0l118 666h77l-50 -282h370l50 282h77l-119 -666h-77l57 318h-369l-57 -318h-77zM294 727l147 153h50l92 -153h-61l-65 89l-94 -89h-69z" />
    <glyph glyph-name="hcircumflex" unicode="&#x125;" horiz-adv-x="511" 
d="M32 0l132 720h72l-45 -240c-14 -76 -20 -104 -30 -147h2c30 56 92 159 197 159c67 0 101 -45 101 -115c0 -15 -2 -32 -5 -49l-60 -328h-72l57 321c3 17 5 31 5 44c0 42 -17 62 -49 62c-79 0 -177 -117 -223 -372l-10 -55h-72zM225 781l147 153h50l92 -153h-61l-65 89
l-94 -89h-69z" />
    <glyph glyph-name="Hbar" unicode="&#x126;" horiz-adv-x="771" 
d="M76 488l11 58h69l21 120h77l-21 -120h370l21 120h77l-22 -120h71l-11 -58h-70l-87 -488h-77l57 318h-369l-57 -318h-77l86 488h-69zM204 384h370l18 104h-370z" />
    <glyph glyph-name="hbar" unicode="&#x127;" horiz-adv-x="517" 
d="M38 0l105 576h-44l10 58h45l16 86h72l-16 -86h143l-10 -58h-144l-18 -96c-14 -76 -20 -104 -30 -147h2c30 56 92 159 197 159c67 0 101 -45 101 -115c0 -15 -2 -32 -5 -49l-60 -328h-72l57 321c3 17 5 31 5 44c0 42 -17 62 -49 62c-79 0 -177 -117 -223 -372l-10 -55h-72
z" />
    <glyph glyph-name="Itilde" unicode="&#x128;" horiz-adv-x="275" 
d="M55 0l119 666h77l-119 -666h-77zM270 729c-47 0 -63 39 -101 39c-23 0 -41 -18 -53 -29l-30 35c21 28 52 58 95 58c47 0 64 -39 101 -39c26 0 45 17 55 29l31 -34c-23 -28 -54 -59 -98 -59z" />
    <glyph glyph-name="itilde" unicode="&#x129;" horiz-adv-x="234" 
d="M37 0l87 480h72l-87 -480h-72zM217 543c-47 0 -63 39 -101 39c-23 0 -41 -18 -53 -29l-30 35c21 28 52 58 95 58c47 0 64 -39 101 -39c26 0 45 17 55 29l31 -34c-23 -28 -54 -59 -98 -59z" />
    <glyph glyph-name="Imacron" unicode="&#x12a;" horiz-adv-x="275" 
d="M55 0l119 666h77l-119 -666h-77zM90 760l11 61h271l-11 -61h-271z" />
    <glyph glyph-name="imacron" unicode="&#x12b;" horiz-adv-x="234" 
d="M37 0l87 480h72l-87 -480h-72zM37 574l11 61h271l-11 -61h-271z" />
    <glyph glyph-name="Ibreve" unicode="&#x12c;" horiz-adv-x="275" 
d="M55 0l119 666h77l-119 -666h-77zM228 722c-71 0 -124 42 -124 126c0 5 1 11 1 16h61c0 -4 -1 -8 -1 -12c0 -42 20 -72 66 -72c42 0 78 32 89 84h64c-22 -100 -96 -142 -156 -142z" />
    <glyph glyph-name="ibreve" unicode="&#x12d;" horiz-adv-x="234" 
d="M37 0l87 480h72l-87 -480h-72zM175 536c-71 0 -124 42 -124 126c0 5 1 11 1 16h61c0 -4 -1 -8 -1 -12c0 -42 20 -72 66 -72c42 0 78 32 89 84h64c-22 -100 -96 -142 -156 -142z" />
    <glyph glyph-name="Iogonek" unicode="&#x12e;" horiz-adv-x="275" 
d="M58 -219c-62 0 -90 33 -90 76c0 60 49 111 88 143h-1l119 666h77l-119 -666h-1c-43 0 -99 -77 -99 -131c0 -24 16 -38 43 -38c17 0 30 2 44 7l7 -40c-15 -8 -43 -17 -68 -17z" />
    <glyph glyph-name="iogonek" unicode="&#x12f;" horiz-adv-x="234" 
d="M40 -219c-62 0 -90 33 -90 76c0 60 49 111 88 143h-1l87 480h72l-87 -480h-1c-39 0 -94 -77 -94 -131c0 -24 16 -38 43 -38c17 0 30 2 44 7l7 -40c-15 -8 -43 -17 -68 -17zM183 572c-28 0 -53 24 -53 53s25 53 53 53c29 0 53 -24 53 -53s-24 -53 -53 -53z" />
    <glyph glyph-name="Idotaccent" unicode="&#x130;" horiz-adv-x="275" 
d="M55 0l119 666h77l-119 -666h-77zM233 749c-31 0 -55 26 -55 57c0 32 24 58 55 58s56 -25 56 -57s-25 -58 -56 -58z" />
    <glyph glyph-name="dotlessi" unicode="&#x131;" horiz-adv-x="234" 
d="M37 0l87 480h72l-87 -480h-72z" />
    <glyph glyph-name="IJ" unicode="&#x132;" horiz-adv-x="545" 
d="M228 -190c-29 0 -53 7 -60 11l27 66c6 -3 17 -7 36 -7c53 0 85 38 99 118l119 668h76l-121 -680c-20 -114 -78 -176 -176 -176zM55 0l119 666h77l-119 -666h-77z" />
    <glyph glyph-name="ij" unicode="&#x133;" horiz-adv-x="511" 
d="M153 -229c-68 0 -121 31 -145 49l39 57c25 -19 59 -42 114 -42c96 0 141 64 160 166l8 43c7 36 19 87 28 118h-2c-36 -69 -98 -174 -205 -174c-67 0 -101 44 -101 115c0 15 2 31 5 49l60 328h72l-57 -321c-3 -17 -5 -31 -5 -44c0 -42 17 -62 49 -62c75 0 176 112 219 350
l14 77h72l-88 -481c-30 -162 -102 -228 -237 -228zM173 572c-28 0 -53 24 -53 53s25 53 53 53c29 0 53 -24 53 -53s-24 -53 -53 -53zM465 572c-28 0 -53 24 -53 53s25 53 53 53c29 0 53 -24 53 -53s-24 -53 -53 -53z" />
    <glyph glyph-name="Jcircumflex" unicode="&#x134;" horiz-adv-x="270" 
d="M-47 -190c-29 0 -53 7 -60 11l27 66c6 -3 17 -7 36 -7c53 0 85 38 99 118l119 668h76l-121 -680c-20 -114 -78 -176 -176 -176zM77 727l147 153h50l92 -153h-61l-65 89l-94 -89h-69z" />
    <glyph glyph-name="jcircumflex" unicode="&#x135;" horiz-adv-x="234" 
d="M-81 -230c-36 0 -57 8 -70 13l27 61c7 -4 25 -10 49 -10c67 0 92 51 106 130l93 516h72l-93 -524c-18 -104 -57 -186 -184 -186zM24 541l147 153h50l92 -153h-61l-65 89l-94 -89h-69z" />
    <glyph glyph-name="Kcommaaccent" unicode="&#x136;" horiz-adv-x="553" 
d="M420 0l-227 347l316 319h90l-320 -320l228 -346h-87zM49 0l119 666h75l-118 -666h-76zM234 -50c26 0 49 -17 49 -47c0 -57 -55 -110 -89 -133l-24 20c20 17 43 38 43 63c0 24 -22 30 -22 57c0 23 19 40 43 40z" />
    <glyph glyph-name="kcommaaccent" unicode="&#x137;" horiz-adv-x="438" 
d="M307 0l-154 268l220 212h89l-231 -216l153 -264h-77zM26 0l125 720h72l-125 -720h-72zM186 -50c26 0 49 -17 49 -47c0 -57 -55 -110 -89 -133l-24 20c20 17 43 38 43 63c0 24 -22 30 -22 57c0 23 19 40 43 40z" />
    <glyph glyph-name="kgreenlandic" unicode="&#x138;" horiz-adv-x="438" 
d="M307 0l-154 268l220 212h89l-231 -216l153 -264h-77zM26 0l83 480h72l-83 -480h-72z" />
    <glyph glyph-name="Lacute" unicode="&#x139;" horiz-adv-x="458" 
d="M49 0l119 666h76l-106 -600h256l-11 -66h-334zM176 726l111 126h111l-152 -126h-70z" />
    <glyph glyph-name="lacute" unicode="&#x13a;" horiz-adv-x="235" 
d="M37 0l130 720h72l-130 -720h-72zM178 780l111 126h111l-152 -126h-70z" />
    <glyph glyph-name="Lcommaaccent" unicode="&#x13b;" horiz-adv-x="458" 
d="M49 0l119 666h76l-106 -600h256l-11 -66h-334zM202 -50c26 0 49 -17 49 -47c0 -57 -55 -110 -89 -133l-24 20c20 17 43 38 43 63c0 24 -22 30 -22 57c0 23 19 40 43 40z" />
    <glyph glyph-name="lcommaaccent" unicode="&#x13c;" horiz-adv-x="235" 
d="M37 0l130 720h72l-130 -720h-72zM46 -50c26 0 49 -17 49 -47c0 -57 -55 -110 -89 -133l-24 20c20 17 43 38 43 63c0 24 -22 30 -22 57c0 23 19 40 43 40z" />
    <glyph glyph-name="Lcaron" unicode="&#x13d;" horiz-adv-x="458" 
d="M49 0l119 666h76l-106 -600h256l-11 -66h-334zM275 530l71 166h91l-106 -166h-56z" />
    <glyph glyph-name="lcaron" unicode="&#x13e;" horiz-adv-x="248" 
d="M37 0l130 720h72l-130 -720h-72zM250 554l71 166h91l-106 -166h-56z" />
    <glyph glyph-name="Ldot" unicode="&#x13f;" horiz-adv-x="458" 
d="M49 0l119 666h76l-106 -600h256l-11 -66h-334zM376 294c-31 0 -55 26 -55 57c0 32 24 58 55 58s56 -25 56 -57s-25 -58 -56 -58z" />
    <glyph glyph-name="ldot" unicode="&#x140;" horiz-adv-x="327" 
d="M37 0l130 720h72l-130 -720h-72zM298 283c-31 0 -55 26 -55 57c0 32 24 58 55 58s56 -25 56 -57s-25 -58 -56 -58z" />
    <glyph glyph-name="Lslash" unicode="&#x141;" horiz-adv-x="478" 
d="M69 0l50 281l-84 -58l-24 42l120 84l57 317h76l-45 -256l121 84l27 -43l-160 -110l-49 -275h256l-11 -66h-334z" />
    <glyph glyph-name="lslash" unicode="&#x142;" horiz-adv-x="250" 
d="M91 0l49 279l-77 -55l12 68l77 55l66 373h73s-55 -313 -55 -314l92 66l-12 -69l-92 -65l-60 -338h-73z" />
    <glyph glyph-name="Nacute" unicode="&#x143;" horiz-adv-x="687" 
d="M46 0l119 666h75l225 -464c17 -36 31 -71 39 -97h2c3 26 8 65 15 104l81 457h70l-118 -666h-71l-231 477c-15 31 -25 55 -36 88h-2c-3 -26 -7 -55 -14 -95l-84 -470h-70zM394 726l111 126h111l-152 -126h-70z" />
    <glyph glyph-name="nacute" unicode="&#x144;" horiz-adv-x="511" 
d="M32 0l87 480h69c-5 -33 -19 -107 -32 -156h2c33 63 96 168 202 168c67 0 101 -45 101 -115c0 -15 -2 -32 -5 -49l-60 -328h-72l57 321c3 17 5 31 5 44c0 42 -17 62 -49 62c-79 0 -177 -117 -223 -372l-10 -55h-72zM278 540l111 126h111l-152 -126h-70z" />
    <glyph glyph-name="Ncommaaccent" unicode="&#x145;" horiz-adv-x="687" 
d="M46 0l119 666h75l225 -464c17 -36 31 -71 39 -97h2c3 26 8 65 15 104l81 457h70l-118 -666h-71l-231 477c-15 31 -25 55 -36 88h-2c-3 -26 -7 -55 -14 -95l-84 -470h-70zM281 -50c26 0 49 -17 49 -47c0 -57 -55 -110 -89 -133l-24 20c20 17 43 38 43 63
c0 24 -22 30 -22 57c0 23 19 40 43 40z" />
    <glyph glyph-name="ncommaaccent" unicode="&#x146;" horiz-adv-x="511" 
d="M32 0l87 480h69c-5 -33 -19 -107 -32 -156h2c33 63 96 168 202 168c67 0 101 -45 101 -115c0 -15 -2 -32 -5 -49l-60 -328h-72l57 321c3 17 5 31 5 44c0 42 -17 62 -49 62c-79 0 -177 -117 -223 -372l-10 -55h-72zM195 -50c26 0 49 -17 49 -47c0 -57 -55 -110 -89 -133
l-24 20c20 17 43 38 43 63c0 24 -22 30 -22 57c0 23 19 40 43 40z" />
    <glyph glyph-name="Ncaron" unicode="&#x147;" horiz-adv-x="687" 
d="M46 0l119 666h75l225 -464c17 -36 31 -71 39 -97h2c3 26 8 65 15 104l81 457h70l-118 -666h-71l-231 477c-15 31 -25 55 -36 88h-2c-3 -26 -7 -55 -14 -95l-84 -470h-70zM403 725l-96 153h61l69 -89l99 89h69l-152 -153h-50z" />
    <glyph glyph-name="ncaron" unicode="&#x148;" horiz-adv-x="511" 
d="M32 0l87 480h69c-5 -33 -19 -107 -32 -156h2c33 63 96 168 202 168c67 0 101 -45 101 -115c0 -15 -2 -32 -5 -49l-60 -328h-72l57 321c3 17 5 31 5 44c0 42 -17 62 -49 62c-79 0 -177 -117 -223 -372l-10 -55h-72zM287 539l-96 153h61l69 -89l99 89h69l-152 -153h-50z
" />
    <glyph glyph-name="napostrophe" unicode="&#x149;" horiz-adv-x="721" 
d="M117 428l-29 26c25 24 55 58 55 92c0 33 -27 41 -27 78c0 31 24 54 54 54c31 0 61 -23 61 -66c0 -76 -71 -151 -114 -184zM242 0l87 480h69c-5 -33 -19 -107 -32 -156h2c33 63 96 168 202 168c67 0 101 -45 101 -115c0 -15 -2 -32 -5 -49l-60 -328h-72l57 321
c3 17 5 31 5 44c0 42 -17 62 -49 62c-79 0 -177 -117 -223 -372l-10 -55h-72z" />
    <glyph glyph-name="Eng" unicode="&#x14a;" horiz-adv-x="687" 
d="M46 0l119 666h75l225 -464c17 -36 31 -71 39 -97h2c3 26 8 65 15 104l81 457h70l-123 -691c-19 -107 -73 -165 -165 -165c-29 0 -54 8 -60 12l25 62c7 -4 18 -8 38 -8c49 0 80 35 93 110l2 15l-230 476c-15 31 -25 55 -36 88h-2c-3 -26 -7 -55 -14 -95l-84 -470h-70z" />
    <glyph glyph-name="eng" unicode="&#x14b;" horiz-adv-x="511" 
d="M32 0l87 480h69c-5 -33 -19 -107 -32 -156h2c33 63 96 168 202 168c67 0 101 -45 101 -115c0 -15 -2 -32 -5 -49l-68 -372c-19 -104 -57 -186 -184 -186c-36 0 -57 8 -70 13l27 61c7 -4 25 -10 49 -10c67 0 93 51 107 130l64 357c3 17 5 31 5 44c0 42 -17 62 -49 62
c-79 0 -177 -117 -223 -372l-10 -55h-72z" />
    <glyph glyph-name="Omacron" unicode="&#x14c;" horiz-adv-x="734" 
d="M340 -12c-179 0 -280 137 -280 287c0 198 144 403 364 403c190 0 280 -136 280 -290c0 -196 -139 -400 -364 -400zM344 53c175 0 280 167 280 336c0 119 -68 224 -205 224c-175 0 -279 -165 -279 -337c0 -122 76 -223 204 -223zM308 760l11 61h271l-11 -61h-271z" />
    <glyph glyph-name="omacron" unicode="&#x14d;" horiz-adv-x="477" 
d="M199 -12c-123 0 -170 106 -170 199c0 149 104 305 247 305c118 0 171 -94 171 -196c0 -160 -106 -308 -248 -308zM204 48c101 0 170 128 170 236c0 96 -35 148 -103 148c-102 0 -171 -130 -171 -243c0 -85 35 -141 104 -141zM152 574l11 61h271l-11 -61h-271z" />
    <glyph glyph-name="Obreve" unicode="&#x14e;" horiz-adv-x="734" 
d="M340 -12c-179 0 -280 137 -280 287c0 198 144 403 364 403c190 0 280 -136 280 -290c0 -196 -139 -400 -364 -400zM344 53c175 0 280 167 280 336c0 119 -68 224 -205 224c-175 0 -279 -165 -279 -337c0 -122 76 -223 204 -223zM446 722c-71 0 -124 42 -124 126
c0 5 1 11 1 16h61c0 -4 -1 -8 -1 -12c0 -42 20 -72 66 -72c42 0 78 32 89 84h64c-22 -100 -96 -142 -156 -142z" />
    <glyph glyph-name="obreve" unicode="&#x14f;" horiz-adv-x="477" 
d="M199 -12c-123 0 -170 106 -170 199c0 149 104 305 247 305c118 0 171 -94 171 -196c0 -160 -106 -308 -248 -308zM204 48c101 0 170 128 170 236c0 96 -35 148 -103 148c-102 0 -171 -130 -171 -243c0 -85 35 -141 104 -141zM290 536c-71 0 -124 42 -124 126
c0 5 1 11 1 16h61c0 -4 -1 -8 -1 -12c0 -42 20 -72 66 -72c42 0 78 32 89 84h64c-22 -100 -96 -142 -156 -142z" />
    <glyph glyph-name="Ohungarumlaut" unicode="&#x150;" horiz-adv-x="734" 
d="M340 -12c-179 0 -280 137 -280 287c0 198 144 403 364 403c190 0 280 -136 280 -290c0 -196 -139 -400 -364 -400zM344 53c175 0 280 167 280 336c0 119 -68 224 -205 224c-175 0 -279 -165 -279 -337c0 -122 76 -223 204 -223zM310 726l109 126h107l-151 -126h-65z
M468 726l109 126h107l-151 -126h-65z" />
    <glyph glyph-name="ohungarumlaut" unicode="&#x151;" horiz-adv-x="477" 
d="M199 -12c-123 0 -170 106 -170 199c0 149 104 305 247 305c118 0 171 -94 171 -196c0 -160 -106 -308 -248 -308zM204 48c101 0 170 128 170 236c0 96 -35 148 -103 148c-102 0 -171 -130 -171 -243c0 -85 35 -141 104 -141zM154 540l109 126h107l-151 -126h-65zM312 540
l109 126h107l-151 -126h-65z" />
    <glyph glyph-name="OE" unicode="&#x152;" horiz-adv-x="863" 
d="M338 -12c-180 0 -278 133 -278 287c0 198 144 403 367 403c42 0 80 -2 114 -12h331l-12 -66h-258l-39 -214h228l-12 -66h-227l-45 -254h265l-12 -66h-330c-29 -8 -60 -12 -92 -12zM342 53c32 0 61 5 88 15l94 528c-29 13 -64 17 -102 17c-178 0 -282 -165 -282 -337
c0 -124 70 -223 202 -223z" />
    <glyph glyph-name="oe" unicode="&#x153;" horiz-adv-x="752" 
d="M199 -12c-123 0 -170 106 -170 199c0 149 104 305 247 305c80 0 130 -45 153 -106c51 68 115 106 187 106s127 -36 127 -109c0 -119 -154 -170 -312 -190v-23c0 -76 32 -118 94 -118c53 0 99 31 125 59l42 -49c-30 -29 -87 -74 -176 -74c-74 0 -120 40 -143 95
c-42 -58 -104 -95 -174 -95zM204 48c101 0 170 128 170 236c0 96 -35 148 -103 148c-102 0 -171 -130 -171 -243c0 -85 35 -141 104 -141zM605 428c-73 0 -142 -76 -166 -180c126 16 229 57 229 128c0 36 -21 52 -63 52z" />
    <glyph glyph-name="Racute" unicode="&#x154;" horiz-adv-x="568" 
d="M49 0l119 666h174c116 0 187 -58 187 -152c0 -118 -82 -189 -217 -199v-2c16 -10 34 -29 64 -83l127 -230h-86l-105 192c-53 97 -68 115 -121 115h-10l-55 -307h-77zM191 371h101c110 0 158 58 158 139c0 61 -41 90 -123 90h-94zM303 726l111 126h111l-152 -126h-70z" />
    <glyph glyph-name="racute" unicode="&#x155;" horiz-adv-x="355" 
d="M32 0l87 480h69c-7 -54 -23 -119 -33 -159h2c34 77 101 171 174 171c24 0 36 -3 49 -9l-30 -69c-8 2 -16 4 -28 4c-84 0 -166 -131 -208 -363l-10 -55h-72zM214 540l111 126h111l-152 -126h-70z" />
    <glyph glyph-name="Rcommaaccent" unicode="&#x156;" horiz-adv-x="568" 
d="M49 0l119 666h174c116 0 187 -58 187 -152c0 -118 -82 -189 -217 -199v-2c16 -10 34 -29 64 -83l127 -230h-86l-105 192c-53 97 -68 115 -121 115h-10l-55 -307h-77zM191 371h101c110 0 158 58 158 139c0 61 -41 90 -123 90h-94zM257 -50c26 0 49 -17 49 -47
c0 -57 -55 -110 -89 -133l-24 20c20 17 43 38 43 63c0 24 -22 30 -22 57c0 23 19 40 43 40z" />
    <glyph glyph-name="rcommaaccent" unicode="&#x157;" horiz-adv-x="355" 
d="M32 0l87 480h69c-7 -54 -23 -119 -33 -159h2c34 77 101 171 174 171c24 0 36 -3 49 -9l-30 -69c-8 2 -16 4 -28 4c-84 0 -166 -131 -208 -363l-10 -55h-72zM49 -50c26 0 49 -17 49 -47c0 -57 -55 -110 -89 -133l-24 20c20 17 43 38 43 63c0 24 -22 30 -22 57
c0 23 19 40 43 40z" />
    <glyph glyph-name="Rcaron" unicode="&#x158;" horiz-adv-x="568" 
d="M49 0l119 666h174c116 0 187 -58 187 -152c0 -118 -82 -189 -217 -199v-2c16 -10 34 -29 64 -83l127 -230h-86l-105 192c-53 97 -68 115 -121 115h-10l-55 -307h-77zM191 371h101c110 0 158 58 158 139c0 61 -41 90 -123 90h-94zM312 725l-96 153h61l69 -89l99 89h69
l-152 -153h-50z" />
    <glyph glyph-name="rcaron" unicode="&#x159;" horiz-adv-x="355" 
d="M32 0l87 480h69c-7 -54 -23 -119 -33 -159h2c34 77 101 171 174 171c24 0 36 -3 49 -9l-30 -69c-8 2 -16 4 -28 4c-84 0 -166 -131 -208 -363l-10 -55h-72zM223 539l-96 153h61l69 -89l99 89h69l-152 -153h-50z" />
    <glyph glyph-name="Sacute" unicode="&#x15a;" horiz-adv-x="453" 
d="M193 -12c-113 0 -173 53 -200 79l48 53c29 -26 70 -66 157 -66s121 53 121 113c0 65 -41 98 -105 155s-123 110 -123 193c0 107 82 163 189 163c84 0 134 -32 160 -52l-40 -59c-26 21 -59 46 -125 46c-73 0 -108 -37 -108 -98c0 -55 40 -89 101 -142
c68 -59 128 -111 128 -204c0 -86 -58 -181 -203 -181zM259 726l111 126h111l-152 -126h-70z" />
    <glyph glyph-name="sacute" unicode="&#x15b;" horiz-adv-x="354" 
d="M135 -12c-72 0 -120 30 -142 50l39 52c25 -20 57 -42 110 -42c51 0 81 28 81 68s-29 66 -78 117c-46 48 -75 82 -75 136c0 76 60 123 151 123c53 0 88 -15 113 -34l-37 -54c-14 10 -40 27 -86 27c-44 0 -72 -21 -72 -58c0 -34 21 -55 65 -102c57 -61 89 -91 89 -155
c0 -69 -54 -128 -158 -128zM194 540l111 126h111l-152 -126h-70z" />
    <glyph glyph-name="Scircumflex" unicode="&#x15c;" horiz-adv-x="453" 
d="M193 -12c-113 0 -173 53 -200 79l48 53c29 -26 70 -66 157 -66s121 53 121 113c0 65 -41 98 -105 155s-123 110 -123 193c0 107 82 163 189 163c84 0 134 -32 160 -52l-40 -59c-26 21 -59 46 -125 46c-73 0 -108 -37 -108 -98c0 -55 40 -89 101 -142
c68 -59 128 -111 128 -204c0 -86 -58 -181 -203 -181zM150 727l147 153h50l92 -153h-61l-65 89l-94 -89h-69z" />
    <glyph glyph-name="scircumflex" unicode="&#x15d;" horiz-adv-x="354" 
d="M135 -12c-72 0 -120 30 -142 50l39 52c25 -20 57 -42 110 -42c51 0 81 28 81 68s-29 66 -78 117c-46 48 -75 82 -75 136c0 76 60 123 151 123c53 0 88 -15 113 -34l-37 -54c-14 10 -40 27 -86 27c-44 0 -72 -21 -72 -58c0 -34 21 -55 65 -102c57 -61 89 -91 89 -155
c0 -69 -54 -128 -158 -128zM85 541l147 153h50l92 -153h-61l-65 89l-94 -89h-69z" />
    <glyph glyph-name="Scedilla" unicode="&#x15e;" horiz-adv-x="453" 
d="M154 -219c-36 0 -55 7 -66 11l15 41c6 -3 24 -9 50 -9c30 0 50 13 50 39c0 37 -35 43 -71 41l32 86c-95 8 -147 53 -171 77l48 53c29 -26 70 -66 157 -66s121 53 121 113c0 65 -41 98 -105 155s-123 110 -123 193c0 107 82 163 189 163c84 0 134 -32 160 -52l-40 -59
c-26 21 -59 46 -125 46c-73 0 -108 -37 -108 -98c0 -55 40 -89 101 -142c68 -59 128 -111 128 -204c0 -82 -53 -171 -182 -180l-20 -55c40 -6 70 -32 70 -73c0 -51 -49 -80 -110 -80z" />
    <glyph glyph-name="scedilla" unicode="&#x15f;" horiz-adv-x="354" 
d="M99 -219c-36 0 -55 7 -66 11l15 41c6 -3 24 -9 50 -9c30 0 50 13 50 39c0 37 -35 43 -71 41l32 86c-58 6 -97 30 -116 48l39 52c25 -20 57 -42 110 -42c51 0 81 28 81 68s-29 66 -78 117c-46 48 -75 82 -75 136c0 76 60 123 151 123c53 0 88 -15 113 -34l-37 -54
c-14 10 -40 27 -86 27c-44 0 -72 -21 -72 -58c0 -34 21 -55 65 -102c57 -61 89 -91 89 -155c0 -63 -46 -118 -133 -127l-21 -55c40 -6 70 -32 70 -73c0 -51 -49 -80 -110 -80z" />
    <glyph glyph-name="Scaron" unicode="&#x160;" horiz-adv-x="453" 
d="M193 -12c-113 0 -173 53 -200 79l48 53c29 -26 70 -66 157 -66s121 53 121 113c0 65 -41 98 -105 155s-123 110 -123 193c0 107 82 163 189 163c84 0 134 -32 160 -52l-40 -59c-26 21 -59 46 -125 46c-73 0 -108 -37 -108 -98c0 -55 40 -89 101 -142
c68 -59 128 -111 128 -204c0 -86 -58 -181 -203 -181zM268 725l-96 153h61l69 -89l99 89h69l-152 -153h-50z" />
    <glyph glyph-name="scaron" unicode="&#x161;" horiz-adv-x="354" 
d="M135 -12c-72 0 -120 30 -142 50l39 52c25 -20 57 -42 110 -42c51 0 81 28 81 68s-29 66 -78 117c-46 48 -75 82 -75 136c0 76 60 123 151 123c53 0 88 -15 113 -34l-37 -54c-14 10 -40 27 -86 27c-44 0 -72 -21 -72 -58c0 -34 21 -55 65 -102c57 -61 89 -91 89 -155
c0 -69 -54 -128 -158 -128zM203 539l-96 153h61l69 -89l99 89h69l-152 -153h-50z" />
    <glyph glyph-name="Tcommaaccent" unicode="&#x162;" horiz-adv-x="486" 
d="M163 0l107 600h-188l11 66h448l-11 -66h-183l-107 -600h-12l-25 -66c40 -6 70 -32 70 -73c0 -51 -49 -80 -110 -80c-36 0 -55 7 -66 11l15 41c6 -3 24 -9 50 -9c30 0 50 13 50 39c0 37 -35 43 -71 41l36 96h-14z" />
    <glyph glyph-name="tcommaaccent" unicode="&#x163;" horiz-adv-x="333" 
d="M122 -219c-36 0 -55 7 -66 11l15 41c6 -3 24 -9 50 -9c30 0 50 13 50 39c0 37 -35 43 -71 41l32 86c-47 8 -67 38 -67 86c0 13 1 28 4 44l56 302h-84l10 58h85l25 135l76 18l-28 -153h118l-10 -58h-119l-53 -286c-4 -21 -7 -39 -7 -53c0 -21 7 -32 29 -32
c37 0 68 29 90 47l37 -50c-29 -27 -64 -51 -111 -58l-21 -56c40 -6 70 -32 70 -73c0 -51 -49 -80 -110 -80z" />
    <glyph glyph-name="Tcaron" unicode="&#x164;" horiz-adv-x="486" 
d="M163 0l107 600h-188l11 66h448l-11 -66h-183l-107 -600h-77zM299 725l-96 153h61l69 -89l99 89h69l-152 -153h-50z" />
    <glyph glyph-name="tcaron" unicode="&#x165;" horiz-adv-x="333" 
d="M157 -12c-65 0 -92 32 -92 88c0 13 1 28 4 44l56 302h-84l10 58h85l25 135l76 18l-28 -153h118l-10 -58h-119l-53 -286c-4 -21 -7 -39 -7 -53c0 -21 7 -32 29 -32c37 0 68 29 90 47l37 -50c-34 -31 -77 -60 -137 -60zM284 554l71 166h91l-106 -166h-56z" />
    <glyph glyph-name="Tbar" unicode="&#x166;" horiz-adv-x="486" 
d="M65 352l11 58h160l34 190h-188l11 66h448l-11 -66h-183l-34 -190h171l-11 -58h-170l-63 -352h-77l63 352h-161z" />
    <glyph glyph-name="tbar" unicode="&#x167;" horiz-adv-x="333" 
d="M33 242l10 58h59l23 122h-84l10 58h85l25 135l76 18l-28 -153h118l-10 -58h-119l-23 -122h101l-10 -58h-102l-19 -106c-4 -21 -7 -39 -7 -53c0 -21 7 -32 29 -32c37 0 68 29 90 47l37 -50c-34 -31 -77 -60 -137 -60c-65 0 -92 32 -92 88c0 13 1 28 4 44l22 122h-58z" />
    <glyph glyph-name="Utilde" unicode="&#x168;" horiz-adv-x="675" 
d="M304 -12c-149 0 -222 80 -222 200c0 19 2 40 6 61l74 417h76l-72 -407c-4 -25 -7 -47 -7 -67c0 -94 49 -137 152 -137c122 0 182 66 206 199l73 412h72l-76 -425c-28 -154 -107 -253 -282 -253zM464 729c-47 0 -63 39 -101 39c-23 0 -41 -18 -53 -29l-30 35
c21 28 52 58 95 58c47 0 64 -39 101 -39c26 0 45 17 55 29l31 -34c-23 -28 -54 -59 -98 -59z" />
    <glyph glyph-name="utilde" unicode="&#x169;" horiz-adv-x="511" 
d="M150 -12c-67 0 -101 44 -101 115c0 15 2 31 5 49l60 328h72l-57 -321c-3 -17 -5 -31 -5 -44c0 -42 17 -62 49 -62c75 0 176 112 219 350l14 77h72l-49 -271c-24 -134 -30 -209 -30 -209h-70c7 52 17 114 28 162h-2c-36 -69 -98 -174 -205 -174zM350 543
c-47 0 -63 39 -101 39c-23 0 -41 -18 -53 -29l-30 35c21 28 52 58 95 58c47 0 64 -39 101 -39c26 0 45 17 55 29l31 -34c-23 -28 -54 -59 -98 -59z" />
    <glyph glyph-name="Umacron" unicode="&#x16a;" horiz-adv-x="675" 
d="M304 -12c-149 0 -222 80 -222 200c0 19 2 40 6 61l74 417h76l-72 -407c-4 -25 -7 -47 -7 -67c0 -94 49 -137 152 -137c122 0 182 66 206 199l73 412h72l-76 -425c-28 -154 -107 -253 -282 -253zM284 760l11 61h271l-11 -61h-271z" />
    <glyph glyph-name="umacron" unicode="&#x16b;" horiz-adv-x="511" 
d="M150 -12c-67 0 -101 44 -101 115c0 15 2 31 5 49l60 328h72l-57 -321c-3 -17 -5 -31 -5 -44c0 -42 17 -62 49 -62c75 0 176 112 219 350l14 77h72l-49 -271c-24 -134 -30 -209 -30 -209h-70c7 52 17 114 28 162h-2c-36 -69 -98 -174 -205 -174zM170 574l11 61h271
l-11 -61h-271z" />
    <glyph glyph-name="Ubreve" unicode="&#x16c;" horiz-adv-x="675" 
d="M304 -12c-149 0 -222 80 -222 200c0 19 2 40 6 61l74 417h76l-72 -407c-4 -25 -7 -47 -7 -67c0 -94 49 -137 152 -137c122 0 182 66 206 199l73 412h72l-76 -425c-28 -154 -107 -253 -282 -253zM422 722c-71 0 -124 42 -124 126c0 5 1 11 1 16h61c0 -4 -1 -8 -1 -12
c0 -42 20 -72 66 -72c42 0 78 32 89 84h64c-22 -100 -96 -142 -156 -142z" />
    <glyph glyph-name="ubreve" unicode="&#x16d;" horiz-adv-x="511" 
d="M150 -12c-67 0 -101 44 -101 115c0 15 2 31 5 49l60 328h72l-57 -321c-3 -17 -5 -31 -5 -44c0 -42 17 -62 49 -62c75 0 176 112 219 350l14 77h72l-49 -271c-24 -134 -30 -209 -30 -209h-70c7 52 17 114 28 162h-2c-36 -69 -98 -174 -205 -174zM308 536
c-71 0 -124 42 -124 126c0 5 1 11 1 16h61c0 -4 -1 -8 -1 -12c0 -42 20 -72 66 -72c42 0 78 32 89 84h64c-22 -100 -96 -142 -156 -142z" />
    <glyph glyph-name="Uring" unicode="&#x16e;" horiz-adv-x="675" 
d="M304 -12c-149 0 -222 80 -222 200c0 19 2 40 6 61l74 417h76l-72 -407c-4 -25 -7 -47 -7 -67c0 -94 49 -137 152 -137c122 0 182 66 206 199l73 412h72l-76 -425c-28 -154 -107 -253 -282 -253zM420 731c-50 0 -94 38 -94 94s44 96 94 96s94 -39 94 -95s-44 -95 -94 -95z
M420 771c31 0 49 25 49 55c0 32 -18 55 -49 55c-32 0 -49 -23 -49 -55c0 -30 17 -55 49 -55z" />
    <glyph glyph-name="uring" unicode="&#x16f;" horiz-adv-x="511" 
d="M150 -12c-67 0 -101 44 -101 115c0 15 2 31 5 49l60 328h72l-57 -321c-3 -17 -5 -31 -5 -44c0 -42 17 -62 49 -62c75 0 176 112 219 350l14 77h72l-49 -271c-24 -134 -30 -209 -30 -209h-70c7 52 17 114 28 162h-2c-36 -69 -98 -174 -205 -174zM306 545
c-50 0 -94 38 -94 94s44 96 94 96s94 -39 94 -95s-44 -95 -94 -95zM306 585c31 0 49 25 49 55c0 32 -18 55 -49 55c-32 0 -49 -23 -49 -55c0 -30 17 -55 49 -55z" />
    <glyph glyph-name="Uhungarumlaut" unicode="&#x170;" horiz-adv-x="675" 
d="M304 -12c-149 0 -222 80 -222 200c0 19 2 40 6 61l74 417h76l-72 -407c-4 -25 -7 -47 -7 -67c0 -94 49 -137 152 -137c122 0 182 66 206 199l73 412h72l-76 -425c-28 -154 -107 -253 -282 -253zM286 726l109 126h107l-151 -126h-65zM444 726l109 126h107l-151 -126h-65z
" />
    <glyph glyph-name="uhungarumlaut" unicode="&#x171;" horiz-adv-x="511" 
d="M150 -12c-67 0 -101 44 -101 115c0 15 2 31 5 49l60 328h72l-57 -321c-3 -17 -5 -31 -5 -44c0 -42 17 -62 49 -62c75 0 176 112 219 350l14 77h72l-49 -271c-24 -134 -30 -209 -30 -209h-70c7 52 17 114 28 162h-2c-36 -69 -98 -174 -205 -174zM172 540l109 126h107
l-151 -126h-65zM330 540l109 126h107l-151 -126h-65z" />
    <glyph glyph-name="Uogonek" unicode="&#x172;" horiz-adv-x="675" 
d="M401 -219c-62 0 -90 33 -90 76c0 60 53 117 94 147c-31 -11 -66 -16 -101 -16c-149 0 -222 80 -222 200c0 19 2 40 6 61l74 417h76l-72 -407c-4 -25 -7 -47 -7 -67c0 -94 49 -137 152 -137c122 0 182 66 206 199l73 412h72l-76 -425c-23 -128 -77 -174 -137 -241
c-30 -31 -74 -77 -74 -131c0 -24 16 -38 43 -38c17 0 30 2 44 7l7 -40c-15 -8 -43 -17 -68 -17z" />
    <glyph glyph-name="uogonek" unicode="&#x173;" horiz-adv-x="511" 
d="M331 -219c-62 0 -90 33 -90 76c0 60 49 111 88 143c7 52 17 114 28 162h-2c-36 -69 -98 -174 -205 -174c-67 0 -101 44 -101 115c0 15 2 31 5 49l60 328h72l-57 -321c-3 -17 -5 -31 -5 -44c0 -42 17 -62 49 -62c75 0 176 112 219 350l14 77h72l-49 -271
c-24 -134 -30 -209 -30 -209h-1c-35 0 -93 -77 -93 -131c0 -24 16 -38 43 -38c17 0 30 2 44 7l7 -40c-15 -8 -43 -17 -68 -17z" />
    <glyph glyph-name="Wcircumflex" unicode="&#x174;" horiz-adv-x="855" 
d="M158 0l-64 666h76l37 -413c5 -54 9 -104 10 -141h2c12 36 34 85 58 139l183 415h78l49 -431c6 -54 10 -86 12 -123h2c13 38 26 68 50 125l178 429h80l-291 -666h-71l-49 422c-7 59 -11 101 -15 150h-2c-18 -49 -37 -91 -64 -150l-190 -422h-69zM364 727l147 153h50
l92 -153h-61l-65 89l-94 -89h-69z" />
    <glyph glyph-name="wcircumflex" unicode="&#x175;" horiz-adv-x="680" 
d="M107 0l-54 480h73l27 -279c3 -33 5 -76 6 -101h2l189 380h69l20 -274c3 -36 5 -76 5 -98h2l193 372h76l-261 -480h-62l-27 382h-2l-194 -382h-62zM247 541l147 153h50l92 -153h-61l-65 89l-94 -89h-69z" />
    <glyph glyph-name="Ycircumflex" unicode="&#x176;" horiz-adv-x="544" 
d="M195 0l45 251l-150 415h80l120 -342h1l227 342h81l-282 -416l-45 -250h-77zM206 727l147 153h50l92 -153h-61l-65 89l-94 -89h-69z" />
    <glyph glyph-name="ycircumflex" unicode="&#x177;" horiz-adv-x="438" 
d="M-12 -220c-52 0 -73 12 -82 17l30 59c10 -5 27 -11 59 -11c51 0 91 28 154 136l-97 499h75l63 -352c4 -24 8 -47 10 -67h2c7 20 15 44 25 67l161 352h76l-176 -368c-111 -232 -171 -332 -300 -332zM116 541l147 153h50l92 -153h-61l-65 89l-94 -89h-69z" />
    <glyph glyph-name="Ydieresis" unicode="&#x178;" horiz-adv-x="544" 
d="M195 0l45 251l-150 415h80l120 -342h1l227 342h81l-282 -416l-45 -250h-77zM263 727c-28 0 -50 22 -50 51c0 28 22 50 50 50c30 0 51 -22 51 -50c0 -29 -22 -51 -51 -51zM446 727c-28 0 -50 22 -50 51c0 28 22 50 50 50c30 0 51 -22 51 -50c0 -29 -22 -51 -51 -51z" />
    <glyph glyph-name="Zacute" unicode="&#x179;" horiz-adv-x="515" 
d="M-16 0l10 55l447 547h-333l12 64h430l-10 -51l-452 -551h367l-12 -64h-459zM303 726l111 126h111l-152 -126h-70z" />
    <glyph glyph-name="zacute" unicode="&#x17a;" horiz-adv-x="412" 
d="M-9 0l8 46l307 375h-232l10 59h324l-8 -49l-308 -372h256l-10 -59h-347zM223 540l111 126h111l-152 -126h-70z" />
    <glyph glyph-name="Zdotaccent" unicode="&#x17b;" horiz-adv-x="515" 
d="M-16 0l10 55l447 547h-333l12 64h430l-10 -51l-452 -551h367l-12 -64h-459zM350 749c-31 0 -55 26 -55 57c0 32 24 58 55 58s56 -25 56 -57s-25 -58 -56 -58z" />
    <glyph glyph-name="zdotaccent" unicode="&#x17c;" horiz-adv-x="412" 
d="M-9 0l8 46l307 375h-232l10 59h324l-8 -49l-308 -372h256l-10 -59h-347zM270 563c-31 0 -55 26 -55 57c0 32 24 58 55 58s56 -25 56 -57s-25 -58 -56 -58z" />
    <glyph glyph-name="Zcaron" unicode="&#x17d;" horiz-adv-x="515" 
d="M-16 0l10 55l447 547h-333l12 64h430l-10 -51l-452 -551h367l-12 -64h-459zM312 725l-96 153h61l69 -89l99 89h69l-152 -153h-50z" />
    <glyph glyph-name="zcaron" unicode="&#x17e;" horiz-adv-x="412" 
d="M-9 0l8 46l307 375h-232l10 59h324l-8 -49l-308 -372h256l-10 -59h-347zM232 539l-96 153h61l69 -89l99 89h69l-152 -153h-50z" />
    <glyph glyph-name="longs" unicode="&#x17f;" horiz-adv-x="247" 
d="M-88 -230c-38 0 -64 9 -86 19l24 60c18 -8 40 -15 67 -15c62 0 85 60 96 121l111 605c20 109 78 172 183 172c56 0 97 -19 116 -31l-32 -60c-15 9 -49 25 -90 25c-72 0 -95 -49 -107 -116l-109 -597c-22 -121 -68 -183 -173 -183z" />
    <glyph glyph-name="uni018F" unicode="&#x18f;" horiz-adv-x="704" 
d="M67 348h525c1 13 2 27 2 41c0 119 -68 224 -205 224c-66 0 -121 -23 -168 -61l-34 54c45 40 127 72 207 72c190 0 280 -136 280 -290c0 -196 -131 -400 -344 -400c-173 0 -270 137 -270 287c0 24 3 49 7 73zM334 53c128 0 215 103 246 229h-440v-6
c0 -122 72 -223 194 -223z" />
    <glyph glyph-name="florin" unicode="&#x192;" horiz-adv-x="435" 
d="M-10 -188c-46 0 -69 10 -85 20l34 59c9 -5 25 -15 55 -15c81 0 120 63 141 133l103 359h-103l18 58h102l37 129c32 112 107 177 220 177c52 0 82 -15 103 -29l-39 -59c-13 10 -44 24 -84 24c-77 0 -112 -52 -136 -133l-31 -109h112l-20 -58h-108l-106 -368
c-31 -107 -98 -188 -213 -188z" />
    <glyph glyph-name="Aringacute" unicode="&#x1fa;" horiz-adv-x="607" 
d="M-21 0l359 641c-23 14 -38 36 -38 63c0 45 44 78 94 78s94 -32 94 -78c0 -33 -24 -59 -56 -71l110 -633h-78l-27 165h-289l-91 -165h-78zM184 231h242l-36 223c-8 49 -15 103 -18 124h-2c-10 -21 -36 -75 -63 -124zM367 802l105 119h108l-143 -119h-70zM345 704
c0 -20 15 -37 44 -38h9c28 1 45 18 45 38c0 23 -18 39 -49 39c-32 0 -49 -16 -49 -39z" />
    <glyph glyph-name="aringacute" unicode="&#x1fb;" horiz-adv-x="481" 
d="M148 -12c-80 0 -118 61 -118 147c0 177 101 357 284 357c69 0 116 -13 136 -19l-48 -264c-24 -134 -30 -209 -30 -209h-70c7 53 14 95 27 148h-2c-41 -81 -90 -160 -179 -160zM164 53c88 0 176 179 196 319l7 48c-11 4 -39 9 -67 9c-125 0 -197 -140 -197 -283
c0 -65 21 -93 61 -93zM326 545c-50 0 -94 38 -94 94s44 96 94 96s94 -39 94 -95s-44 -95 -94 -95zM326 585c31 0 49 25 49 55c0 32 -18 55 -49 55c-32 0 -49 -23 -49 -55c0 -30 17 -55 49 -55zM299 775l111 126h111l-152 -126h-70z" />
    <glyph glyph-name="AEacute" unicode="&#x1fc;" horiz-adv-x="810" 
d="M-63 0l506 666h376l-12 -66h-258l-39 -214h228l-12 -66h-227l-45 -254h265l-12 -66h-342l30 165h-250l-125 -165h-83zM195 231h211c1 0 66 367 66 367zM538 726l111 126h111l-152 -126h-70z" />
    <glyph glyph-name="aeacute" unicode="&#x1fd;" horiz-adv-x="696" 
d="M140 -12c-80 0 -132 52 -132 118c0 79 58 125 121 144c50 15 109 20 163 20h18c11 32 19 56 19 94s-19 63 -79 63c-68 0 -116 -36 -136 -51l-36 50c30 24 87 66 181 66c68 0 112 -24 133 -74c45 46 100 74 161 74c72 0 127 -36 127 -109c0 -120 -139 -166 -309 -168
c-2 -14 -3 -29 -3 -45c0 -76 32 -118 94 -118c53 0 99 31 125 59l42 -49c-30 -29 -87 -74 -176 -74c-71 0 -117 34 -140 84c-43 -49 -97 -84 -173 -84zM152 51c65 0 114 33 146 73c-2 12 -3 25 -3 37c0 19 1 37 4 55h-12c-54 0 -101 -4 -137 -19c-40 -16 -63 -45 -63 -87
c0 -41 26 -59 65 -59zM382 269c132 0 223 36 223 107c0 36 -21 52 -63 52c-66 0 -132 -63 -160 -159zM355 540l111 126h111l-152 -126h-70z" />
    <glyph glyph-name="Oslashacute" unicode="&#x1fe;" horiz-adv-x="734" 
d="M75 -68l-41 34l96 113c-46 52 -70 122 -70 196c0 198 144 403 364 403c72 0 129 -20 173 -52l82 96l41 -34l-84 -98c46 -53 68 -126 68 -202c0 -196 -139 -400 -364 -400c-69 0 -127 20 -171 54zM344 53c175 0 280 167 280 336c0 52 -13 102 -40 141l-370 -432
c34 -28 77 -45 130 -45zM140 276c0 -53 14 -101 40 -140l369 433c-32 27 -76 44 -130 44c-175 0 -279 -165 -279 -337zM404 726l111 126h111l-152 -126h-70z" />
    <glyph glyph-name="oslashacute" unicode="&#x1ff;" horiz-adv-x="477" 
d="M22 -59l-38 32l76 91c-22 36 -31 81 -31 123c0 149 104 305 247 305c47 0 84 -15 111 -40l86 100l38 -32l-92 -109c19 -33 28 -73 28 -115c0 -160 -106 -308 -248 -308c-45 0 -80 14 -106 37zM100 189c0 -26 3 -50 9 -69l236 278c-17 22 -42 34 -74 34
c-102 0 -171 -130 -171 -243zM204 48c101 0 170 128 170 236c0 25 -3 48 -8 67l-232 -275c17 -18 40 -28 70 -28zM248 540l111 126h111l-152 -126h-70z" />
    <glyph glyph-name="Scommaaccent" unicode="&#x218;" horiz-adv-x="453" 
d="M193 -12c-113 0 -173 53 -200 79l48 53c29 -26 70 -66 157 -66s121 53 121 113c0 65 -41 98 -105 155s-123 110 -123 193c0 107 82 163 189 163c84 0 134 -32 160 -52l-40 -59c-26 21 -59 46 -125 46c-73 0 -108 -37 -108 -98c0 -55 40 -89 101 -142
c68 -59 128 -111 128 -204c0 -86 -58 -181 -203 -181zM175 -50c26 0 49 -17 49 -47c0 -57 -55 -110 -89 -133l-24 20c20 17 43 38 43 63c0 24 -22 30 -22 57c0 23 19 40 43 40z" />
    <glyph glyph-name="scommaaccent" unicode="&#x219;" horiz-adv-x="354" 
d="M135 -12c-72 0 -120 30 -142 50l39 52c25 -20 57 -42 110 -42c51 0 81 28 81 68s-29 66 -78 117c-46 48 -75 82 -75 136c0 76 60 123 151 123c53 0 88 -15 113 -34l-37 -54c-14 10 -40 27 -86 27c-44 0 -72 -21 -72 -58c0 -34 21 -55 65 -102c57 -61 89 -91 89 -155
c0 -69 -54 -128 -158 -128zM120 -50c26 0 49 -17 49 -47c0 -57 -55 -110 -89 -133l-24 20c20 17 43 38 43 63c0 24 -22 30 -22 57c0 23 19 40 43 40z" />
    <glyph glyph-name="uni021A" unicode="&#x21a;" horiz-adv-x="486" 
d="M163 0l107 600h-188l11 66h448l-11 -66h-183l-107 -600h-77zM183 -50c26 0 49 -17 49 -47c0 -57 -55 -110 -89 -133l-24 20c20 17 43 38 43 63c0 24 -22 30 -22 57c0 23 19 40 43 40z" />
    <glyph glyph-name="uni021B" unicode="&#x21b;" horiz-adv-x="333" 
d="M157 -12c-65 0 -92 32 -92 88c0 13 1 28 4 44l56 302h-84l10 58h85l25 135l76 18l-28 -153h118l-10 -58h-119l-53 -286c-4 -21 -7 -39 -7 -53c0 -21 7 -32 29 -32c37 0 68 29 90 47l37 -50c-34 -31 -77 -60 -137 -60zM142 -50c26 0 49 -17 49 -47
c0 -57 -55 -110 -89 -133l-24 20c20 17 43 38 43 63c0 24 -22 30 -22 57c0 23 19 40 43 40z" />
    <glyph glyph-name="uni0237" unicode="&#x237;" horiz-adv-x="234" 
d="M-81 -230c-36 0 -57 8 -70 13l27 61c7 -4 25 -10 49 -10c67 0 92 51 106 130l93 516h72l-93 -524c-18 -104 -57 -186 -184 -186z" />
    <glyph glyph-name="uni0259" unicode="&#x259;" horiz-adv-x="426" 
d="M244 492c109 0 158 -81 158 -173c0 -181 -117 -331 -258 -331c-72 0 -127 36 -127 109c0 119 154 170 312 190v23c0 76 -32 118 -94 118c-53 0 -99 -31 -125 -59l-42 49c30 29 87 74 176 74zM155 52c73 0 142 76 166 180c-126 -16 -229 -57 -229 -128
c0 -36 21 -52 63 -52z" />
    <glyph glyph-name="uni02BB" unicode="&#x2bb;" horiz-adv-x="210" 
d="M155 434c-31 0 -61 23 -61 66c0 76 71 151 114 184l29 -26c-25 -24 -55 -58 -55 -92c0 -33 27 -41 27 -78c0 -31 -24 -54 -54 -54z" />
    <glyph glyph-name="afii57929" unicode="&#x2bc;" horiz-adv-x="210" 
d="M117 428l-29 26c25 24 55 58 55 92c0 33 -27 41 -27 78c0 31 24 54 54 54c31 0 61 -23 61 -66c0 -76 -71 -151 -114 -184z" />
    <glyph glyph-name="circumflex" unicode="&#x2c6;" horiz-adv-x="500" 
d="M157 541l147 153h50l92 -153h-61l-65 89l-94 -89h-69z" />
    <glyph glyph-name="caron" unicode="&#x2c7;" horiz-adv-x="500" 
d="M276 539l-96 153h61l69 -89l99 89h69l-152 -153h-50z" />
    <glyph glyph-name="breve" unicode="&#x2d8;" horiz-adv-x="500" 
d="M310 536c-71 0 -124 42 -124 126c0 5 1 11 1 16h61c0 -4 -1 -8 -1 -12c0 -42 20 -72 66 -72c42 0 78 32 89 84h64c-22 -100 -96 -142 -156 -142z" />
    <glyph glyph-name="dotaccent" unicode="&#x2d9;" horiz-adv-x="500" 
d="M315 563c-31 0 -55 26 -55 57c0 32 24 58 55 58s56 -25 56 -57s-25 -58 -56 -58z" />
    <glyph glyph-name="ring" unicode="&#x2da;" horiz-adv-x="500" 
d="M320 545c-50 0 -94 38 -94 94s44 96 94 96s94 -39 94 -95s-44 -95 -94 -95zM320 585c31 0 49 25 49 55c0 32 -18 55 -49 55c-32 0 -49 -23 -49 -55c0 -30 17 -55 49 -55z" />
    <glyph glyph-name="ogonek" unicode="&#x2db;" horiz-adv-x="500" 
d="M191 -219c-62 0 -90 33 -90 76c0 60 49 111 88 143h50c-30 -31 -74 -77 -74 -131c0 -24 16 -38 43 -38c17 0 30 2 44 7l7 -40c-15 -8 -43 -17 -68 -17z" />
    <glyph glyph-name="tilde" unicode="&#x2dc;" horiz-adv-x="500" 
d="M355 543c-47 0 -63 39 -101 39c-23 0 -41 -18 -53 -29l-30 35c21 28 52 58 95 58c47 0 64 -39 101 -39c26 0 45 17 55 29l31 -34c-23 -28 -54 -59 -98 -59z" />
    <glyph glyph-name="hungarumlaut" unicode="&#x2dd;" horiz-adv-x="500" 
d="M76 540l109 126h107l-151 -126h-65zM234 540l109 126h107l-151 -126h-65z" />
    <glyph glyph-name="gravecomb" unicode="&#x300;" 
d="M-231 540l-106 126h97l71 -126h-62z" />
    <glyph glyph-name="acutecomb" unicode="&#x301;" 
d="M-228 540l111 126h111l-152 -126h-70z" />
    <glyph glyph-name="uni0302" unicode="&#x302;" 
d="M-337 541l147 153h50l92 -153h-61l-65 89l-94 -89h-69z" />
    <glyph glyph-name="tildecomb" unicode="&#x303;" 
d="M-144 543c-47 0 -63 39 -101 39c-23 0 -41 -18 -53 -29l-30 35c21 28 52 58 95 58c47 0 64 -39 101 -39c26 0 45 17 55 29l31 -34c-23 -28 -54 -59 -98 -59z" />
    <glyph glyph-name="uni0304" unicode="&#x304;" 
d="M-327 574l11 61h271l-11 -61h-271z" />
    <glyph glyph-name="uni0306" unicode="&#x306;" 
d="M-189 539c-71 0 -124 42 -124 126c0 5 1 11 1 16h61c0 -4 -1 -8 -1 -12c0 -42 20 -72 66 -72c42 0 78 32 89 84h64c-22 -100 -96 -142 -156 -142z" />
    <glyph glyph-name="uni0307" unicode="&#x307;" 
d="M-50 572c-28 0 -53 24 -53 53s25 53 53 53c29 0 53 -24 53 -53s-24 -53 -53 -53z" />
    <glyph glyph-name="uni0308" unicode="&#x308;" 
d="M-280 541c-28 0 -50 22 -50 51c0 28 22 50 50 50c30 0 51 -22 51 -50c0 -29 -22 -51 -51 -51zM-97 541c-28 0 -50 22 -50 51c0 28 22 50 50 50c30 0 51 -22 51 -50c0 -29 -22 -51 -51 -51z" />
    <glyph glyph-name="uni030A" unicode="&#x30a;" 
d="M-179 545c-50 0 -94 38 -94 94s44 96 94 96s94 -39 94 -95s-44 -95 -94 -95zM-179 585c31 0 49 25 49 55c0 32 -18 55 -49 55c-32 0 -49 -23 -49 -55c0 -30 17 -55 49 -55z" />
    <glyph glyph-name="uni030B" unicode="&#x30b;" 
d="M-423 540l109 126h107l-151 -126h-65zM-265 540l109 126h107l-151 -126h-65z" />
    <glyph glyph-name="uni030C" unicode="&#x30c;" 
d="M-179 539l-96 153h61l69 -89l99 89h69l-152 -153h-50z" />
    <glyph glyph-name="uni0312" unicode="&#x312;" 
d="M-158 539c-26 0 -49 17 -49 47c0 57 55 110 89 133l24 -20c-20 -17 -43 -38 -43 -63c0 -24 22 -30 22 -57c0 -23 -19 -40 -43 -40z" />
    <glyph glyph-name="uni0313" unicode="&#x313;" 
d="M-200 554l71 166h91l-106 -166h-56z" />
    <glyph glyph-name="uni0326" unicode="&#x326;" 
d="M-271 -50c26 0 49 -17 49 -47c0 -57 -55 -110 -89 -133l-24 20c20 17 43 38 43 63c0 24 -22 30 -22 57c0 23 19 40 43 40z" />
    <glyph glyph-name="uni0327" unicode="&#x327;" 
d="M-333 -219c-36 0 -55 7 -66 11l15 41c6 -3 24 -9 50 -9c30 0 50 13 50 39c0 37 -35 43 -71 41l36 96h51l-25 -66c40 -6 70 -32 70 -73c0 -51 -49 -80 -110 -80z" />
    <glyph glyph-name="uni0328" unicode="&#x328;" 
d="M-308 -219c-62 0 -90 33 -90 76c0 60 49 111 88 143h50c-30 -31 -74 -77 -74 -131c0 -24 16 -38 43 -38c17 0 30 2 44 7l7 -40c-15 -8 -43 -17 -68 -17z" />
    <glyph glyph-name="uni037E" unicode="&#x37e;" horiz-adv-x="216" 
d="M72 112c33 0 63 -24 63 -67c0 -82 -70 -157 -114 -190l-31 28c26 25 55 55 55 90s-28 44 -28 82c0 33 24 57 55 57zM140 366c-34 0 -61 27 -61 60c0 32 27 59 61 59c32 0 59 -27 59 -59c0 -33 -27 -60 -59 -60z" />
    <glyph glyph-name="tonos" unicode="&#x384;" horiz-adv-x="500" 
d="M156 540l53 126h97l-92 -126h-58z" />
    <glyph glyph-name="dieresistonos" unicode="&#x385;" horiz-adv-x="500" 
d="M106 538c-29 0 -53 24 -53 54c0 29 24 53 53 53c30 0 54 -24 54 -53c0 -30 -24 -54 -54 -54zM393 538c-29 0 -53 24 -53 54c0 29 24 53 53 53c30 0 54 -24 54 -53c0 -30 -24 -54 -54 -54zM196 540l32 126h95l-69 -126h-58z" />
    <glyph glyph-name="Alphatonos" unicode="&#x386;" horiz-adv-x="607" 
d="M184 231h242l-36 223c-8 49 -15 103 -18 124h-2c-10 -21 -36 -75 -63 -124zM-21 0l373 666h75l115 -666h-78l-27 165h-289l-91 -165h-78zM126 540l53 126h97l-92 -126h-58z" />
    <glyph glyph-name="anoteleia" unicode="&#x387;" horiz-adv-x="235" 
d="M118 234c-32 0 -58 26 -58 57s26 57 58 57c31 0 57 -26 57 -57s-26 -57 -57 -57z" />
    <glyph glyph-name="Epsilontonos" unicode="&#x388;" horiz-adv-x="599" 
d="M154 0l119 666h335l-12 -66h-258l-39 -214h228l-12 -66h-227l-45 -254h265l-12 -66h-342zM73 540l53 126h97l-92 -126h-58z" />
    <glyph glyph-name="Etatonos" unicode="&#x389;" horiz-adv-x="814" 
d="M154 0l118 666h77l-50 -282h370l50 282h77l-119 -666h-77l57 318h-369l-57 -318h-77zM73 540l53 126h97l-92 -126h-58z" />
    <glyph glyph-name="Iotatonos" unicode="&#x38a;" horiz-adv-x="374" 
d="M154 0l119 666h77l-119 -666h-77zM73 540l53 126h97l-92 -126h-58z" />
    <glyph glyph-name="Omicrontonos" unicode="&#x38c;" horiz-adv-x="810" 
d="M416 -12c-179 0 -280 137 -280 287c0 198 144 403 364 403c190 0 280 -136 280 -290c0 -196 -139 -400 -364 -400zM420 53c175 0 280 167 280 336c0 119 -68 224 -205 224c-175 0 -279 -165 -279 -337c0 -122 76 -223 204 -223zM66 540l53 126h97l-92 -126h-58z" />
    <glyph glyph-name="Upsilontonos" unicode="&#x38e;" horiz-adv-x="717" 
d="M368 0l45 251l-150 415h80l120 -342h1l227 342h81l-282 -416l-45 -250h-77zM73 540l53 126h97l-92 -126h-58z" />
    <glyph glyph-name="Omegatonos" unicode="&#x38f;" horiz-adv-x="791" 
d="M95 0l12 66h136c-60 52 -100 128 -100 218c0 230 170 394 357 394c150 0 276 -109 276 -274c0 -146 -76 -266 -194 -338h144l-12 -66h-236l11 64c111 61 207 174 207 332c0 117 -80 217 -202 217c-162 0 -271 -154 -271 -325c0 -96 36 -169 103 -224l-11 -64h-220z
M66 540l53 126h97l-92 -126h-58z" />
    <glyph glyph-name="iotadieresistonos" unicode="&#x390;" horiz-adv-x="277" 
d="M142 -12c-63 0 -89 31 -89 82c0 11 2 22 4 35l68 375h72l-67 -368c-2 -12 -3 -22 -3 -31c0 -20 7 -30 27 -30c14 0 27 6 36 13l25 -49c-15 -13 -43 -27 -73 -27zM52 538c-29 0 -53 24 -53 54c0 29 24 53 53 53c30 0 54 -24 54 -53c0 -30 -24 -54 -54 -54zM339 538
c-29 0 -53 24 -53 54c0 29 24 53 53 53c30 0 54 -24 54 -53c0 -30 -24 -54 -54 -54zM142 540l32 126h95l-69 -126h-58z" />
    <glyph glyph-name="Alpha" unicode="&#x391;" horiz-adv-x="607" 
d="M184 231h242l-36 223c-8 49 -15 103 -18 124h-2c-10 -21 -36 -75 -63 -124zM-21 0l373 666h75l115 -666h-78l-27 165h-289l-91 -165h-78z" />
    <glyph glyph-name="Beta" unicode="&#x392;" horiz-adv-x="559" 
d="M49 0l119 666h167c115 0 190 -50 190 -144s-55 -153 -144 -175v-2c67 -13 119 -60 119 -133c0 -145 -114 -212 -276 -212h-175zM137 65h92c138 0 192 49 192 144c0 64 -44 108 -141 108h-99zM192 379h96c106 0 157 51 157 131c0 61 -36 91 -122 91h-91z" />
    <glyph glyph-name="Gamma" unicode="&#x393;" horiz-adv-x="455" 
d="M49 0l119 666h342l-12 -66h-265l-107 -600h-77z" />
    <glyph glyph-name="uni0394" unicode="&#x394;" horiz-adv-x="605" 
d="M87 66h366l-83 393c-9 44 -16 94 -19 119h-2c-12 -27 -32 -76 -55 -119zM-8 0l9 52l328 614h73l131 -614l-9 -52h-532z" />
    <glyph glyph-name="Epsilon" unicode="&#x395;" horiz-adv-x="494" 
d="M49 0l119 666h335l-12 -66h-258l-39 -214h228l-12 -66h-227l-45 -254h265l-12 -66h-342z" />
    <glyph glyph-name="Zeta" unicode="&#x396;" horiz-adv-x="515" 
d="M-16 0l10 55l447 547h-333l12 64h430l-10 -51l-452 -551h367l-12 -64h-459z" />
    <glyph glyph-name="Eta" unicode="&#x397;" horiz-adv-x="709" 
d="M49 0l118 666h77l-50 -282h370l50 282h77l-119 -666h-77l57 318h-369l-57 -318h-77z" />
    <glyph glyph-name="Theta" unicode="&#x398;" horiz-adv-x="734" 
d="M340 -12c-179 0 -280 137 -280 287c0 198 144 403 364 403c190 0 280 -136 280 -290c0 -196 -139 -400 -364 -400zM344 53c175 0 280 167 280 336c0 119 -68 224 -205 224c-175 0 -279 -165 -279 -337c0 -122 76 -223 204 -223zM224 299l12 66h297l-12 -66h-297z" />
    <glyph glyph-name="Iota" unicode="&#x399;" horiz-adv-x="275" 
d="M55 0l119 666h77l-119 -666h-77z" />
    <glyph glyph-name="Kappa" unicode="&#x39a;" horiz-adv-x="553" 
d="M420 0l-227 347l316 319h90l-320 -320l228 -346h-87zM49 0l119 666h75l-118 -666h-76z" />
    <glyph glyph-name="Lambda" unicode="&#x39b;" horiz-adv-x="593" 
d="M-26 0l349 666h73l135 -666h-77l-90 459c-9 44 -16 94 -19 119h-2c-12 -27 -33 -76 -55 -119l-235 -459h-79z" />
    <glyph glyph-name="Mu" unicode="&#x39c;" horiz-adv-x="834" 
d="M20 0l207 666h70l77 -482c6 -40 8 -64 12 -100h2c18 38 30 64 49 100l252 482h71l-34 -666h-74l24 437c3 46 5 73 9 97h-2c-11 -24 -22 -47 -43 -87l-235 -447h-71l-71 441c-7 44 -11 70 -14 93h-2c-4 -24 -12 -50 -26 -97l-130 -437h-71z" />
    <glyph glyph-name="Nu" unicode="&#x39d;" horiz-adv-x="687" 
d="M46 0l119 666h75l225 -464c17 -36 31 -71 39 -97h2c3 26 8 65 15 104l81 457h70l-118 -666h-71l-231 477c-15 31 -25 55 -36 88h-2c-3 -26 -7 -55 -14 -95l-84 -470h-70z" />
    <glyph glyph-name="Xi" unicode="&#x39e;" horiz-adv-x="486" 
d="M-18 0l12 66h433l-12 -66h-433zM83 320l12 66h346l-12 -66h-346zM96 600l12 66h419l-12 -66h-419z" />
    <glyph glyph-name="Omicron" unicode="&#x39f;" horiz-adv-x="734" 
d="M340 -12c-179 0 -280 137 -280 287c0 198 144 403 364 403c190 0 280 -136 280 -290c0 -196 -139 -400 -364 -400zM344 53c175 0 280 167 280 336c0 119 -68 224 -205 224c-175 0 -279 -165 -279 -337c0 -122 76 -223 204 -223z" />
    <glyph glyph-name="Pi" unicode="&#x3a0;" horiz-adv-x="674" 
d="M49 0l120 666h487l-120 -666h-77l108 600h-333l-108 -600h-77z" />
    <glyph glyph-name="Rho" unicode="&#x3a1;" horiz-adv-x="524" 
d="M49 0l119 666h157c124 0 206 -58 206 -166c0 -146 -116 -231 -276 -231h-81l-48 -269h-77zM186 335h76c127 0 188 62 188 156c0 66 -36 109 -138 109h-79z" />
    <glyph glyph-name="Sigma" unicode="&#x3a3;" horiz-adv-x="485" 
d="M6 0l9 56l239 294l-131 260l10 56h374l-12 -66h-291l130 -255l-227 -279h315l-12 -66h-404z" />
    <glyph glyph-name="Tau" unicode="&#x3a4;" horiz-adv-x="486" 
d="M163 0l107 600h-188l11 66h448l-11 -66h-183l-107 -600h-77z" />
    <glyph glyph-name="Upsilon" unicode="&#x3a5;" horiz-adv-x="544" 
d="M195 0l45 251l-150 415h80l120 -342h1l227 342h81l-282 -416l-45 -250h-77z" />
    <glyph glyph-name="Phi" unicode="&#x3a6;" horiz-adv-x="695" 
d="M265 0l13 72c-139 7 -237 109 -237 227c0 162 152 299 331 304l12 63h76l-11 -65c139 -7 237 -109 237 -227c0 -162 -152 -299 -331 -304l-14 -70h-76zM292 134l72 407c-138 -5 -246 -107 -246 -241c0 -94 71 -161 174 -166zM363 132c138 5 246 107 246 241
c0 94 -71 161 -174 166z" />
    <glyph glyph-name="Chi" unicode="&#x3a7;" horiz-adv-x="554" 
d="M-17 0l269 348l-139 318h80l111 -265l194 265h85l-249 -323l151 -343h-80l-123 290l-214 -290h-85z" />
    <glyph glyph-name="Psi" unicode="&#x3a8;" horiz-adv-x="698" 
d="M262 0l38 213c-131 13 -209 99 -209 224c0 19 2 40 6 61l30 168h77l-28 -158c-5 -24 -7 -47 -7 -67c0 -106 59 -155 147 -162l71 387h69l-71 -387c103 1 189 52 212 175l37 212h77l-36 -204c-30 -169 -133 -241 -298 -249l-38 -213h-77z" />
    <glyph glyph-name="uni03A9" unicode="&#x3a9;" horiz-adv-x="736" 
d="M18 0l12 66h136c-60 52 -100 128 -100 218c0 230 170 394 357 394c150 0 276 -109 276 -274c0 -146 -76 -266 -194 -338h144l-12 -66h-236l11 64c111 61 207 174 207 332c0 117 -80 217 -202 217c-162 0 -271 -154 -271 -325c0 -96 36 -169 103 -224l-11 -64h-220z" />
    <glyph glyph-name="Iotadieresis" unicode="&#x3aa;" horiz-adv-x="275" 
d="M55 0l119 666h77l-119 -666h-77zM134 727c-28 0 -50 22 -50 51c0 28 22 50 50 50c30 0 51 -22 51 -50c0 -29 -22 -51 -51 -51zM317 727c-28 0 -50 22 -50 51c0 28 22 50 50 50c30 0 51 -22 51 -50c0 -29 -22 -51 -51 -51z" />
    <glyph glyph-name="Upsilondieresis" unicode="&#x3ab;" horiz-adv-x="544" 
d="M195 0l45 251l-150 415h80l120 -342h1l227 342h81l-282 -416l-45 -250h-77zM263 727c-28 0 -50 22 -50 51c0 28 22 50 50 50c30 0 51 -22 51 -50c0 -29 -22 -51 -51 -51zM446 727c-28 0 -50 22 -50 51c0 28 22 50 50 50c30 0 51 -22 51 -50c0 -29 -22 -51 -51 -51z" />
    <glyph glyph-name="alphatonos" unicode="&#x3ac;" horiz-adv-x="552" 
d="M188 -12c-116 0 -155 101 -155 195c0 133 73 309 241 309c92 0 140 -68 148 -132h1c15 48 44 105 57 120h76c-20 -24 -45 -71 -67 -121l-53 -121l15 -133c6 -50 16 -84 26 -105h-74c-9 18 -18 70 -20 119h-1c-31 -62 -94 -131 -194 -131zM204 48c79 0 143 92 177 192
c-1 79 -25 192 -113 192c-110 0 -164 -131 -164 -245c0 -73 27 -139 100 -139zM268 540l53 126h97l-92 -126h-58z" />
    <glyph glyph-name="epsilontonos" unicode="&#x3ad;" horiz-adv-x="416" 
d="M191 -12c-103 0 -173 45 -173 124c0 73 63 134 138 144v1c-43 12 -78 46 -78 90c0 101 96 147 196 147c50 0 107 -21 136 -47l-31 -56c-27 23 -69 40 -111 40c-68 0 -119 -23 -119 -79c0 -44 46 -75 109 -75h36l-10 -57h-35c-84 0 -159 -32 -159 -100
c0 -44 35 -69 107 -69c54 0 108 21 142 48l31 -52c-42 -33 -105 -59 -179 -59zM237 540l53 126h97l-92 -126h-58z" />
    <glyph glyph-name="etatonos" unicode="&#x3ae;" horiz-adv-x="525" 
d="M288 -218l99 546c2 12 3 23 3 33c0 40 -19 65 -70 65c-54 0 -104 -41 -147 -88l-61 -338h-72l69 382c6 33 9 73 6 98h72c2 -18 1 -47 -4 -71c35 41 80 83 156 83c86 0 125 -51 125 -120c0 -12 -1 -24 -3 -36l-101 -554h-72zM271 540l53 126h97l-92 -126h-58z" />
    <glyph glyph-name="iotatonos" unicode="&#x3af;" horiz-adv-x="277" 
d="M142 -12c-63 0 -89 31 -89 82c0 11 2 22 4 35l68 375h72l-67 -368c-2 -12 -3 -22 -3 -31c0 -20 7 -30 27 -30c14 0 27 6 36 13l25 -49c-15 -13 -43 -27 -73 -27zM142 540l53 126h97l-92 -126h-58z" />
    <glyph glyph-name="upsilondieresistonos" unicode="&#x3b0;" horiz-adv-x="511" 
d="M211 -12c-107 0 -153 68 -153 160c0 19 2 39 6 60l49 272h72l-47 -260c-4 -22 -6 -44 -6 -64c0 -58 20 -104 85 -104c91 0 180 155 180 345c0 32 -2 60 -6 83h72c4 -20 6 -47 6 -78c0 -245 -122 -414 -258 -414zM170 538c-29 0 -53 24 -53 54c0 29 24 53 53 53
c30 0 54 -24 54 -53c0 -30 -24 -54 -54 -54zM457 538c-29 0 -53 24 -53 54c0 29 24 53 53 53c30 0 54 -24 54 -53c0 -30 -24 -54 -54 -54zM260 540l32 126h95l-69 -126h-58z" />
    <glyph glyph-name="alpha" unicode="&#x3b1;" horiz-adv-x="552" 
d="M188 -12c-116 0 -155 101 -155 195c0 133 73 309 241 309c92 0 140 -68 148 -132h1c15 48 44 105 57 120h76c-20 -24 -45 -71 -67 -121l-53 -121l15 -133c6 -50 16 -84 26 -105h-74c-9 18 -18 70 -20 119h-1c-31 -62 -94 -131 -194 -131zM204 48c79 0 143 92 177 192
c-1 79 -25 192 -113 192c-110 0 -164 -131 -164 -245c0 -73 27 -139 100 -139z" />
    <glyph glyph-name="beta" unicode="&#x3b2;" horiz-adv-x="517" 
d="M-3 -218l132 729c29 159 124 221 236 221c78 0 138 -55 138 -130c0 -87 -71 -171 -152 -196v-1c65 -19 123 -80 123 -159c0 -156 -109 -255 -248 -255c-47 0 -92 12 -115 29l-43 -238h-71zM232 52c107 0 170 85 170 185c0 81 -70 134 -171 134l10 55c85 1 190 73 190 166
c0 41 -24 80 -74 80c-71 0 -134 -41 -158 -173l-76 -414c21 -18 65 -33 109 -33z" />
    <glyph glyph-name="gamma" unicode="&#x3b3;" horiz-adv-x="442" 
d="M90 -218c29 79 40 160 40 240c0 151 -43 312 -88 458h78c29 -106 62 -243 70 -376h1c87 131 153 259 192 376h75c-40 -123 -132 -285 -262 -475c-1 -78 -15 -154 -42 -223h-64z" />
    <glyph glyph-name="delta" unicode="&#x3b4;" horiz-adv-x="489" 
d="M209 -12c-127 0 -180 91 -180 186c0 134 76 247 202 296c-23 29 -40 63 -40 108c0 90 70 154 157 154c47 0 87 -15 111 -32l-37 -54c-19 14 -48 24 -78 24c-48 0 -82 -43 -82 -88c0 -57 34 -84 82 -130c47 -45 106 -110 106 -210c0 -138 -93 -254 -241 -254zM293 406
c-7 6 -15 13 -22 20c-112 -44 -171 -131 -171 -248c0 -73 37 -130 115 -130c102 0 162 84 162 190c0 76 -36 122 -84 168z" />
    <glyph glyph-name="epsilon" unicode="&#x3b5;" horiz-adv-x="416" 
d="M191 -12c-103 0 -173 45 -173 124c0 73 63 134 138 144v1c-43 12 -78 46 -78 90c0 101 96 147 196 147c50 0 107 -21 136 -47l-31 -56c-27 23 -69 40 -111 40c-68 0 -119 -23 -119 -79c0 -44 46 -75 109 -75h36l-10 -57h-35c-84 0 -159 -32 -159 -100
c0 -44 35 -69 107 -69c54 0 108 21 142 48l31 -52c-42 -33 -105 -59 -179 -59z" />
    <glyph glyph-name="zeta" unicode="&#x3b6;" horiz-adv-x="350" 
d="M230 -160l-42 38c21 15 41 39 41 67c0 22 -14 38 -38 49l-42 19c-86 39 -117 95 -117 154c0 107 101 230 175 317l149 177h-217l10 59h310l-8 -48l-199 -232c-58 -68 -148 -172 -148 -258c0 -45 18 -80 77 -107l42 -19c40 -18 79 -42 79 -91c0 -53 -36 -102 -72 -125z
" />
    <glyph glyph-name="eta" unicode="&#x3b7;" horiz-adv-x="525" 
d="M288 -218l99 546c2 12 3 23 3 33c0 40 -19 65 -70 65c-54 0 -104 -41 -147 -88l-61 -338h-72l69 382c6 33 9 73 6 98h72c2 -18 1 -47 -4 -71c35 41 80 83 156 83c86 0 125 -51 125 -120c0 -12 -1 -24 -3 -36l-101 -554h-72z" />
    <glyph glyph-name="theta" unicode="&#x3b8;" horiz-adv-x="507" 
d="M200 -12c-109 0 -151 76 -151 171c0 19 2 39 5 59l13 76c4 25 5 54 1 68h72c4 -13 3 -44 -1 -68l-13 -74c-4 -21 -6 -42 -6 -62c0 -62 22 -110 86 -110c107 0 168 161 191 312c-195 9 -286 71 -286 188c0 109 70 184 182 184c130 0 190 -108 190 -228
c0 -182 -65 -516 -283 -516zM181 554c0 -86 54 -125 224 -132c3 27 4 54 4 78c0 96 -38 172 -122 172c-73 0 -106 -50 -106 -118z" />
    <glyph glyph-name="iota" unicode="&#x3b9;" horiz-adv-x="277" 
d="M142 -12c-63 0 -89 31 -89 82c0 11 2 22 4 35l68 375h72l-67 -368c-2 -12 -3 -22 -3 -31c0 -20 7 -30 27 -30c14 0 27 6 36 13l25 -49c-15 -13 -43 -27 -73 -27z" />
    <glyph glyph-name="kappa" unicode="&#x3ba;" horiz-adv-x="494" 
d="M32 0l87 480h70l-36 -200c-6 -35 -18 -87 -32 -130h1c64 107 169 221 291 330h101c-69 -57 -146 -123 -217 -195l136 -285h-80l-104 233c-67 -74 -124 -153 -157 -233h-60z" />
    <glyph glyph-name="lambda" unicode="&#x3bb;" horiz-adv-x="477" 
d="M-23 0l272 484l-17 91c-11 61 -22 86 -51 86c-16 0 -32 -6 -43 -13l-18 50c15 10 47 26 82 26c45 0 77 -24 94 -117l111 -607h-71l-55 334c-6 34 -8 59 -8 79h-1c-7 -19 -16 -41 -28 -62l-189 -351h-78z" />
    <glyph glyph-name="uni03BC" unicode="&#x3bc;" horiz-adv-x="564" 
d="M-13 -207l127 687h72l-57 -321c-3 -17 -5 -31 -5 -44c0 -42 17 -62 49 -62c75 0 176 112 219 350l14 77h72l-49 -271c-24 -134 -30 -209 -30 -209h-70c7 52 17 114 28 162h-2c-36 -69 -98 -174 -205 -174c-23 0 -44 7 -56 23c-1 -20 -5 -46 -12 -87l-23 -131h-72z" />
    <glyph glyph-name="nu" unicode="&#x3bd;" horiz-adv-x="447" 
d="M138 0l-89 480h75l62 -384h2c93 133 163 269 199 384h74c-42 -132 -141 -299 -272 -480h-51z" />
    <glyph glyph-name="xi" unicode="&#x3be;" horiz-adv-x="370" 
d="M230 -160l-42 38c21 15 41 39 41 67c0 22 -14 38 -38 49l-42 19c-86 39 -117 98 -117 157c0 108 81 213 179 233v1c-48 17 -84 79 -84 129c0 114 78 193 203 193c62 0 95 -18 115 -33l-37 -57c-15 11 -40 25 -86 25c-80 0 -123 -48 -123 -122c0 -57 45 -118 119 -118h43
l-11 -58h-47c-113 0 -199 -87 -199 -181c0 -45 18 -80 77 -107l42 -19c40 -18 79 -42 79 -91c0 -53 -36 -102 -72 -125z" />
    <glyph glyph-name="omicron" unicode="&#x3bf;" horiz-adv-x="477" 
d="M199 -12c-123 0 -170 106 -170 199c0 149 104 305 247 305c118 0 171 -94 171 -196c0 -160 -106 -308 -248 -308zM204 48c101 0 170 128 170 236c0 96 -35 148 -103 148c-102 0 -171 -130 -171 -243c0 -85 35 -141 104 -141z" />
    <glyph glyph-name="pi" unicode="&#x3c0;" horiz-adv-x="587" 
d="M414 -12c-63 0 -89 31 -89 82c0 11 2 22 4 35l57 317h-158c-28 -159 -62 -308 -97 -422h-71c40 129 74 273 100 422h-106l10 58h521l-10 -58h-117l-56 -310c-2 -12 -3 -22 -3 -31c0 -20 7 -30 27 -30c14 0 27 6 36 13l25 -49c-15 -13 -43 -27 -73 -27z" />
    <glyph glyph-name="rho" unicode="&#x3c1;" horiz-adv-x="495" 
d="M-18 -218l85 473c26 145 92 237 231 237c103 0 167 -73 167 -188c0 -179 -114 -316 -264 -316c-51 0 -85 19 -103 39l-44 -245h-72zM208 51c109 0 184 119 184 247c0 73 -34 131 -102 131c-85 0 -131 -64 -152 -180l-29 -161c20 -19 50 -37 99 -37z" />
    <glyph glyph-name="sigma1" unicode="&#x3c2;" horiz-adv-x="400" 
d="M225 -160l-42 38c21 15 41 39 41 67c0 22 -14 38 -38 49l-42 19c-86 39 -117 103 -117 172c0 181 109 307 255 307c60 0 108 -20 136 -42l-37 -57c-23 19 -61 34 -107 34c-109 0 -175 -115 -175 -231c0 -52 18 -94 77 -121l42 -19c40 -18 79 -42 79 -91
c0 -53 -36 -102 -72 -125z" />
    <glyph glyph-name="sigma" unicode="&#x3c3;" horiz-adv-x="511" 
d="M199 -12c-123 0 -170 100 -170 193c0 153 96 299 246 299h240l-10 -58h-104c23 -26 46 -81 46 -144c0 -153 -106 -290 -248 -290zM204 48c101 0 170 116 170 224c0 60 -21 122 -47 150h-49c-114 0 -178 -122 -178 -239c0 -85 35 -135 104 -135z" />
    <glyph glyph-name="tau" unicode="&#x3c4;" horiz-adv-x="379" 
d="M192 -12c-63 0 -89 31 -89 82c0 11 2 22 4 35l57 317h-128l10 58h363l-10 -58h-163l-56 -310c-2 -12 -3 -22 -3 -31c0 -20 7 -30 27 -30c14 0 27 6 36 13l25 -49c-15 -13 -43 -27 -73 -27z" />
    <glyph glyph-name="upsilon" unicode="&#x3c5;" horiz-adv-x="511" 
d="M211 -12c-107 0 -153 68 -153 160c0 19 2 39 6 60l49 272h72l-47 -260c-4 -22 -6 -44 -6 -64c0 -58 20 -104 85 -104c91 0 180 155 180 345c0 32 -2 60 -6 83h72c4 -20 6 -47 6 -78c0 -245 -122 -414 -258 -414z" />
    <glyph glyph-name="phi" unicode="&#x3c6;" horiz-adv-x="609" 
d="M173 -218l37 204c-119 15 -181 100 -181 206c0 129 73 250 167 293l29 -51c-69 -39 -124 -141 -124 -236c0 -86 52 -140 121 -149l45 246c22 119 73 197 182 197c74 0 130 -68 130 -170c0 -171 -128 -321 -300 -336l-37 -204h-69zM289 49c122 14 217 129 217 265
c0 69 -28 115 -71 115c-53 0 -86 -48 -100 -127z" />
    <glyph glyph-name="chi" unicode="&#x3c7;" horiz-adv-x="420" 
d="M-87 -218l239 364l-99 334h73l70 -263h1l167 263h78l-222 -334l109 -364h-74l-81 291h-1l-182 -291h-78z" />
    <glyph glyph-name="psi" unicode="&#x3c8;" horiz-adv-x="626" 
d="M190 -218l38 207c-107 6 -169 83 -169 190c0 18 1 37 5 56l44 245h72l-44 -242c-4 -19 -5 -37 -5 -55c0 -72 31 -129 108 -131l108 588h66l-107 -588c108 6 206 159 206 345c0 32 -2 60 -6 83h72c4 -20 6 -47 6 -78c0 -245 -135 -411 -290 -414l-38 -206h-66z" />
    <glyph glyph-name="omega" unicode="&#x3c9;" horiz-adv-x="735" 
d="M166 -12c-82 0 -129 67 -129 165c0 129 54 250 128 327h83c-80 -90 -139 -196 -139 -321c0 -69 27 -106 71 -106c61 0 120 65 163 267h71c-8 -51 -12 -94 -12 -129c0 -103 33 -138 78 -138c83 0 133 128 133 246c0 65 -16 127 -46 181h76c28 -46 42 -104 42 -168
c0 -162 -69 -324 -213 -324c-87 0 -120 69 -125 143h-1c-31 -74 -93 -143 -180 -143z" />
    <glyph glyph-name="iotadieresis" unicode="&#x3ca;" horiz-adv-x="277" 
d="M142 -12c-63 0 -89 31 -89 82c0 11 2 22 4 35l68 375h72l-67 -368c-2 -12 -3 -22 -3 -31c0 -20 7 -30 27 -30c14 0 27 6 36 13l25 -49c-15 -13 -43 -27 -73 -27zM82 541c-28 0 -50 22 -50 51c0 28 22 50 50 50c30 0 51 -22 51 -50c0 -29 -22 -51 -51 -51zM265 541
c-28 0 -50 22 -50 51c0 28 22 50 50 50c30 0 51 -22 51 -50c0 -29 -22 -51 -51 -51z" />
    <glyph glyph-name="upsilondieresis" unicode="&#x3cb;" horiz-adv-x="511" 
d="M211 -12c-107 0 -153 68 -153 160c0 19 2 39 6 60l49 272h72l-47 -260c-4 -22 -6 -44 -6 -64c0 -58 20 -104 85 -104c91 0 180 155 180 345c0 32 -2 60 -6 83h72c4 -20 6 -47 6 -78c0 -245 -122 -414 -258 -414zM200 541c-28 0 -50 22 -50 51c0 28 22 50 50 50
c30 0 51 -22 51 -50c0 -29 -22 -51 -51 -51zM383 541c-28 0 -50 22 -50 51c0 28 22 50 50 50c30 0 51 -22 51 -50c0 -29 -22 -51 -51 -51z" />
    <glyph glyph-name="omicrontonos" unicode="&#x3cc;" horiz-adv-x="477" 
d="M199 -12c-123 0 -170 106 -170 199c0 149 104 305 247 305c118 0 171 -94 171 -196c0 -160 -106 -308 -248 -308zM204 48c101 0 170 128 170 236c0 96 -35 148 -103 148c-102 0 -171 -130 -171 -243c0 -85 35 -141 104 -141zM256 540l53 126h97l-92 -126h-58z" />
    <glyph glyph-name="upsilontonos" unicode="&#x3cd;" horiz-adv-x="511" 
d="M211 -12c-107 0 -153 68 -153 160c0 19 2 39 6 60l49 272h72l-47 -260c-4 -22 -6 -44 -6 -64c0 -58 20 -104 85 -104c91 0 180 155 180 345c0 32 -2 60 -6 83h72c4 -20 6 -47 6 -78c0 -245 -122 -414 -258 -414zM260 540l53 126h97l-92 -126h-58z" />
    <glyph glyph-name="omegatonos" unicode="&#x3ce;" horiz-adv-x="735" 
d="M166 -12c-82 0 -129 67 -129 165c0 129 54 250 128 327h83c-80 -90 -139 -196 -139 -321c0 -69 27 -106 71 -106c61 0 120 65 163 267h71c-8 -51 -12 -94 -12 -129c0 -103 33 -138 78 -138c83 0 133 128 133 246c0 65 -16 127 -46 181h76c28 -46 42 -104 42 -168
c0 -162 -69 -324 -213 -324c-87 0 -120 69 -125 143h-1c-31 -74 -93 -143 -180 -143zM386 540l53 126h97l-92 -126h-58z" />
    <glyph glyph-name="uni0400" unicode="&#x400;" horiz-adv-x="494" 
d="M49 0l119 666h335l-12 -66h-258l-39 -214h228l-12 -66h-227l-45 -254h265l-12 -66h-342zM297 726l-106 126h97l71 -126h-62z" />
    <glyph glyph-name="afii10023" unicode="&#x401;" horiz-adv-x="494" 
d="M49 0l119 666h335l-12 -66h-258l-39 -214h228l-12 -66h-227l-45 -254h265l-12 -66h-342zM248 727c-28 0 -50 22 -50 51c0 28 22 50 50 50c30 0 51 -22 51 -50c0 -29 -22 -51 -51 -51zM431 727c-28 0 -50 22 -50 51c0 28 22 50 50 50c30 0 51 -22 51 -50
c0 -29 -22 -51 -51 -51z" />
    <glyph glyph-name="afii10051" unicode="&#x402;" horiz-adv-x="691" 
d="M324 -190c-20 0 -43 4 -56 10l23 66c7 -3 22 -6 40 -6c121 0 234 180 234 394c0 73 -33 137 -103 137c-85 0 -164 -72 -193 -108l-53 -303h-78l108 600h-164l12 66h454l-12 -66h-213l-41 -226c31 39 95 104 188 104c102 0 175 -76 175 -196c0 -253 -148 -472 -321 -472z
" />
    <glyph glyph-name="afii10052" unicode="&#x403;" horiz-adv-x="455" 
d="M49 0l119 666h342l-12 -66h-265l-107 -600h-77zM304 720l111 126h111l-152 -126h-70z" />
    <glyph glyph-name="afii10053" unicode="&#x404;" horiz-adv-x="607" 
d="M475 309h-335c-1 -13 -2 -26 -2 -39c0 -121 58 -216 196 -216c73 0 123 26 168 60l34 -54c-42 -38 -125 -72 -207 -72c-183 0 -271 124 -271 279c0 226 166 411 381 411c97 0 145 -19 184 -46l-45 -58c-34 24 -78 39 -145 39c-139 0 -245 -101 -282 -238h336z" />
    <glyph glyph-name="afii10054" unicode="&#x405;" horiz-adv-x="453" 
d="M193 -12c-113 0 -173 53 -200 79l48 53c29 -26 70 -66 157 -66s121 53 121 113c0 65 -41 98 -105 155s-123 110 -123 193c0 107 82 163 189 163c84 0 134 -32 160 -52l-40 -59c-26 21 -59 46 -125 46c-73 0 -108 -37 -108 -98c0 -55 40 -89 101 -142
c68 -59 128 -111 128 -204c0 -86 -58 -181 -203 -181z" />
    <glyph glyph-name="afii10055" unicode="&#x406;" horiz-adv-x="275" 
d="M55 0l119 666h77l-119 -666h-77z" />
    <glyph glyph-name="afii10056" unicode="&#x407;" horiz-adv-x="275" 
d="M55 0l119 666h77l-119 -666h-77zM134 727c-28 0 -50 22 -50 51c0 28 22 50 50 50c30 0 51 -22 51 -50c0 -29 -22 -51 -51 -51zM317 727c-28 0 -50 22 -50 51c0 28 22 50 50 50c30 0 51 -22 51 -50c0 -29 -22 -51 -51 -51z" />
    <glyph glyph-name="afii10057" unicode="&#x408;" horiz-adv-x="270" 
d="M-47 -190c-29 0 -53 7 -60 11l27 66c6 -3 17 -7 36 -7c53 0 85 38 99 118l119 668h76l-121 -680c-20 -114 -78 -176 -176 -176z" />
    <glyph glyph-name="afii10058" unicode="&#x409;" horiz-adv-x="895" 
d="M-7 -10l-1 65c81 3 126 97 170 265l92 346h365l-48 -269h80c124 0 206 -58 206 -166c0 -146 -116 -231 -276 -231h-158l107 600h-216l-78 -292c-54 -203 -115 -318 -243 -318zM512 66h76c127 0 188 62 188 156c0 66 -36 109 -138 109h-79z" />
    <glyph glyph-name="afii10059" unicode="&#x40a;" horiz-adv-x="967" 
d="M49 0l118 666h77l-48 -269h370l48 269h77l-48 -269h80c124 0 206 -58 206 -166c0 -146 -116 -231 -276 -231h-158l59 331h-369l-59 -331h-77zM584 66h76c127 0 188 62 188 156c0 66 -36 109 -138 109h-79z" />
    <glyph glyph-name="afii10060" unicode="&#x40b;" horiz-adv-x="715" 
d="M138 0l108 600h-164l12 66h461l-12 -66h-220l-39 -220c36 42 110 98 198 98c101 0 168 -54 168 -151c0 -14 -1 -29 -4 -45l-51 -282h-77l49 268c2 14 4 26 4 38c0 71 -43 105 -104 105c-87 0 -167 -72 -197 -108l-55 -303h-77z" />
    <glyph glyph-name="afii10061" unicode="&#x40c;" horiz-adv-x="560" 
d="M49 0l120 666h75l-53 -295h47l275 295h91l-308 -322c29 -25 57 -68 92 -137c45 -85 74 -142 115 -142h10l-11 -65h-22c-60 0 -91 45 -152 165c-44 85 -76 142 -121 142h-28l-55 -307h-75zM317 720l111 126h111l-152 -126h-70z" />
    <glyph glyph-name="uni040D" unicode="&#x40d;" horiz-adv-x="698" 
d="M49 0l120 666h71l-85 -467c-8 -49 -13 -73 -17 -90h2c14 21 38 52 77 98l390 459h73l-120 -666h-71l85 467c8 49 13 71 17 90h-2c-14 -21 -38 -52 -77 -98l-390 -459h-73zM412 726l-106 126h97l71 -126h-62z" />
    <glyph glyph-name="afii10062" unicode="&#x40e;" horiz-adv-x="528" 
d="M60 -2c-16 0 -33 2 -42 5l21 61c8 -2 19 -3 30 -3c57 0 94 33 140 109l21 35l-118 461h72l98 -376l228 376h78l-322 -531c-61 -101 -121 -137 -206 -137zM351 716c-71 0 -124 42 -124 126c0 5 1 11 1 16h61c0 -4 -1 -8 -1 -12c0 -42 20 -72 66 -72c42 0 78 32 89 84h64
c-22 -100 -96 -142 -156 -142z" />
    <glyph glyph-name="afii10145" unicode="&#x40f;" horiz-adv-x="662" 
d="M235 -144l19 144h-205l120 666h77l-108 -600h321l108 600h77l-120 -666h-201l-33 -144h-55z" />
    <glyph glyph-name="afii10017" unicode="&#x410;" horiz-adv-x="607" 
d="M184 231h242l-36 223c-8 49 -15 103 -18 124h-2c-10 -21 -36 -75 -63 -124zM-21 0l373 666h75l115 -666h-78l-27 165h-289l-91 -165h-78z" />
    <glyph glyph-name="afii10018" unicode="&#x411;" horiz-adv-x="536" 
d="M49 0l119 666h348l-12 -66h-271l-36 -203h80c124 0 206 -58 206 -166c0 -146 -116 -231 -276 -231h-158zM138 66h76c127 0 188 62 188 156c0 66 -36 109 -138 109h-79z" />
    <glyph glyph-name="afii10019" unicode="&#x412;" horiz-adv-x="559" 
d="M49 0l119 666h167c115 0 190 -50 190 -144s-55 -153 -144 -175v-2c67 -13 119 -60 119 -133c0 -145 -114 -212 -276 -212h-175zM137 65h92c138 0 192 49 192 144c0 64 -44 108 -141 108h-99zM192 379h96c106 0 157 51 157 131c0 61 -36 91 -122 91h-91z" />
    <glyph glyph-name="afii10020" unicode="&#x413;" horiz-adv-x="455" 
d="M49 0l119 666h342l-12 -66h-265l-107 -600h-77z" />
    <glyph glyph-name="afii10021" unicode="&#x414;" horiz-adv-x="662" 
d="M-44 -144l27 210h52c66 45 97 107 136 254l92 346h365l-109 -600h69l-59 -210h-55l19 144h-441l-41 -144h-55zM125 66h317l97 534h-215l-77 -292c-36 -136 -77 -213 -122 -242z" />
    <glyph glyph-name="afii10022" unicode="&#x415;" horiz-adv-x="494" 
d="M49 0l119 666h335l-12 -66h-258l-39 -214h228l-12 -66h-227l-45 -254h265l-12 -66h-342z" />
    <glyph glyph-name="afii10024" unicode="&#x416;" horiz-adv-x="839" 
d="M-30 0l11 64h6c49 0 89 53 153 142c63 89 104 135 147 154l-187 306h81l173 -295h41l53 295h75l-53 -295h47l275 295h91l-308 -322c29 -25 57 -68 92 -137c45 -85 74 -142 115 -142h10l-11 -65h-22c-60 0 -91 45 -152 165c-44 85 -76 142 -121 142h-28l-55 -307h-75
l55 307h-36c-49 0 -89 -53 -153 -142c-88 -123 -132 -165 -199 -165h-25z" />
    <glyph glyph-name="afii10025" unicode="&#x417;" horiz-adv-x="511" 
d="M175 -12c-80 0 -145 29 -182 65l45 53c28 -28 79 -53 143 -53c109 0 185 55 185 151c0 67 -48 112 -150 112h-65l11 64h56c99 0 178 42 178 132c0 55 -45 99 -112 99c-63 0 -118 -17 -157 -45l-23 53c41 31 103 59 186 59c104 0 187 -61 187 -155
c0 -90 -56 -150 -143 -170v-2c68 -12 113 -67 113 -140c0 -148 -120 -223 -272 -223z" />
    <glyph glyph-name="afii10026" unicode="&#x418;" horiz-adv-x="698" 
d="M49 0l120 666h71l-85 -467c-8 -49 -13 -73 -17 -90h2c14 21 38 52 77 98l390 459h73l-120 -666h-71l85 467c8 49 13 71 17 90h-2c-14 -21 -38 -52 -77 -98l-390 -459h-73z" />
    <glyph glyph-name="afii10027" unicode="&#x419;" horiz-adv-x="698" 
d="M49 0l120 666h71l-85 -467c-8 -49 -13 -73 -17 -90h2c14 21 38 52 77 98l390 459h73l-120 -666h-71l85 467c8 49 13 71 17 90h-2c-14 -21 -38 -52 -77 -98l-390 -459h-73zM430 716c-71 0 -124 42 -124 126c0 5 1 11 1 16h61c0 -4 -1 -8 -1 -12c0 -42 20 -72 66 -72
c42 0 78 32 89 84h64c-22 -100 -96 -142 -156 -142z" />
    <glyph glyph-name="afii10028" unicode="&#x41a;" horiz-adv-x="560" 
d="M49 0l120 666h75l-53 -295h47l275 295h91l-308 -322c29 -25 57 -68 92 -137c45 -85 74 -142 115 -142h10l-11 -65h-22c-60 0 -91 45 -152 165c-44 85 -76 142 -121 142h-28l-55 -307h-75z" />
    <glyph glyph-name="afii10029" unicode="&#x41b;" horiz-adv-x="638" 
d="M-7 -10l-1 65c81 3 126 97 170 265l92 346h366l-120 -666h-77l108 600h-217l-78 -292c-54 -203 -115 -318 -243 -318z" />
    <glyph glyph-name="afii10030" unicode="&#x41c;" horiz-adv-x="834" 
d="M20 0l207 666h70l77 -482c6 -40 8 -64 12 -100h2c18 38 30 64 49 100l252 482h71l-34 -666h-74l24 437c3 46 5 73 9 97h-2c-11 -24 -22 -47 -43 -87l-235 -447h-71l-71 441c-7 44 -11 70 -14 93h-2c-4 -24 -12 -50 -26 -97l-130 -437h-71z" />
    <glyph glyph-name="afii10031" unicode="&#x41d;" horiz-adv-x="709" 
d="M49 0l118 666h77l-50 -282h370l50 282h77l-119 -666h-77l57 318h-369l-57 -318h-77z" />
    <glyph glyph-name="afii10032" unicode="&#x41e;" horiz-adv-x="734" 
d="M340 -12c-179 0 -280 137 -280 287c0 198 144 403 364 403c190 0 280 -136 280 -290c0 -196 -139 -400 -364 -400zM344 53c175 0 280 167 280 336c0 119 -68 224 -205 224c-175 0 -279 -165 -279 -337c0 -122 76 -223 204 -223z" />
    <glyph glyph-name="afii10033" unicode="&#x41f;" horiz-adv-x="674" 
d="M49 0l120 666h487l-120 -666h-77l108 600h-333l-108 -600h-77z" />
    <glyph glyph-name="afii10034" unicode="&#x420;" horiz-adv-x="524" 
d="M49 0l119 666h157c124 0 206 -58 206 -166c0 -146 -116 -231 -276 -231h-81l-48 -269h-77zM186 335h76c127 0 188 62 188 156c0 66 -36 109 -138 109h-79z" />
    <glyph glyph-name="afii10035" unicode="&#x421;" horiz-adv-x="607" 
d="M329 -12c-183 0 -271 124 -271 279c0 226 166 411 381 411c97 0 145 -19 184 -46l-45 -58c-34 24 -78 39 -145 39c-172 0 -294 -155 -294 -343c0 -121 57 -216 195 -216c73 0 123 26 168 60l34 -54c-42 -38 -125 -72 -207 -72z" />
    <glyph glyph-name="afii10036" unicode="&#x422;" horiz-adv-x="486" 
d="M163 0l107 600h-188l11 66h448l-11 -66h-183l-107 -600h-77z" />
    <glyph glyph-name="afii10037" unicode="&#x423;" horiz-adv-x="528" 
d="M60 -2c-16 0 -33 2 -42 5l21 61c8 -2 19 -3 30 -3c57 0 94 33 140 109l21 35l-118 461h72l98 -376l228 376h78l-322 -531c-61 -101 -121 -137 -206 -137z" />
    <glyph glyph-name="afii10038" unicode="&#x424;" horiz-adv-x="695" 
d="M265 0l13 72c-139 7 -237 109 -237 227c0 162 152 299 331 304l12 63h76l-11 -65c139 -7 237 -109 237 -227c0 -162 -152 -299 -331 -304l-14 -70h-76zM292 134l72 407c-138 -5 -246 -107 -246 -241c0 -94 71 -161 174 -166zM363 132c138 5 246 107 246 241
c0 94 -71 161 -174 166z" />
    <glyph glyph-name="afii10039" unicode="&#x425;" horiz-adv-x="554" 
d="M-17 0l269 348l-139 318h80l111 -265l194 265h85l-249 -323l151 -343h-80l-123 290l-214 -290h-85z" />
    <glyph glyph-name="afii10040" unicode="&#x426;" horiz-adv-x="678" 
d="M491 -144l19 144h-461l120 666h77l-108 -600h321l108 600h77l-108 -600h69l-59 -210h-55z" />
    <glyph glyph-name="afii10041" unicode="&#x427;" horiz-adv-x="609" 
d="M394 0l51 286c-36 -42 -110 -98 -198 -98c-101 0 -168 54 -168 151c0 14 1 29 4 45l51 282h77l-49 -268c-2 -14 -4 -26 -4 -38c0 -71 43 -105 104 -105c87 0 167 72 197 108l55 303h77l-120 -666h-77z" />
    <glyph glyph-name="afii10042" unicode="&#x428;" horiz-adv-x="1024" 
d="M49 0l120 666h77l-108 -600h303l108 600h77l-108 -600h303l108 600h77l-120 -666h-837z" />
    <glyph glyph-name="afii10043" unicode="&#x429;" horiz-adv-x="1040" 
d="M853 -144l19 144h-823l120 666h77l-108 -600h303l108 600h77l-108 -600h303l108 600h77l-108 -600h69l-59 -210h-55z" />
    <glyph glyph-name="afii10044" unicode="&#x42a;" horiz-adv-x="612" 
d="M140 0l107 600h-165l11 66h243l-48 -269h80c124 0 206 -58 206 -166c0 -146 -116 -231 -276 -231h-158zM229 66h76c127 0 188 62 188 156c0 66 -36 109 -138 109h-79z" />
    <glyph glyph-name="afii10045" unicode="&#x42b;" horiz-adv-x="777" 
d="M49 0l119 666h77l-48 -269h80c124 0 206 -58 206 -166c0 -146 -116 -231 -276 -231h-158zM138 66h76c127 0 188 62 188 156c0 66 -36 109 -138 109h-79zM563 0l119 666h77l-119 -666h-77z" />
    <glyph glyph-name="afii10046" unicode="&#x42c;" horiz-adv-x="521" 
d="M49 0l119 666h77l-48 -269h80c124 0 206 -58 206 -166c0 -146 -116 -231 -276 -231h-158zM138 66h76c127 0 188 62 188 156c0 66 -36 109 -138 109h-79z" />
    <glyph glyph-name="afii10047" unicode="&#x42d;" horiz-adv-x="607" 
d="M150 290l12 66h323c1 13 2 26 2 40c0 121 -57 216 -195 216c-70 0 -123 -21 -164 -51l-25 58c38 29 114 59 194 59c183 0 271 -124 271 -279c0 -229 -158 -411 -373 -411c-101 0 -157 28 -193 57l47 57c30 -24 77 -49 152 -49c138 0 239 100 273 237h-324z" />
    <glyph glyph-name="afii10048" unicode="&#x42e;" horiz-adv-x="1030" 
d="M49 0l118 666h77l-50 -282h176c42 157 170 294 350 294c190 0 280 -136 280 -290c0 -196 -139 -400 -364 -400c-179 0 -280 137 -280 287c0 14 1 28 2 43h-175l-57 -318h-77zM640 53c175 0 280 167 280 336c0 119 -68 224 -205 224c-175 0 -279 -165 -279 -337
c0 -122 76 -223 204 -223z" />
    <glyph glyph-name="afii10049" unicode="&#x42f;" horiz-adv-x="572" 
d="M-8 0l11 64h6c49 0 89 53 153 142c35 49 75 97 101 110v1c-78 5 -145 57 -145 140c0 127 110 209 252 209h184l-120 -666h-77l55 307h-43c-49 0 -89 -53 -153 -142c-88 -123 -132 -165 -199 -165h-25zM323 371h100l42 229h-94c-113 0 -174 -51 -174 -142
c0 -57 40 -87 126 -87z" />
    <glyph glyph-name="afii10065" unicode="&#x430;" horiz-adv-x="481" 
d="M148 -12c-80 0 -118 61 -118 147c0 177 101 357 284 357c69 0 116 -13 136 -19l-48 -264c-24 -134 -30 -209 -30 -209h-70c7 53 14 95 27 148h-2c-41 -81 -90 -160 -179 -160zM164 53c88 0 176 179 196 319l7 48c-11 4 -39 9 -67 9c-125 0 -197 -140 -197 -283
c0 -65 21 -93 61 -93z" />
    <glyph glyph-name="afii10066" unicode="&#x431;" horiz-adv-x="483" 
d="M214 -12c-130 0 -166 102 -166 211c0 202 72 437 310 492l146 34v-71l-120 -24c-149 -30 -202 -123 -230 -199c33 35 72 61 137 61c118 0 162 -99 162 -196c0 -160 -97 -308 -239 -308zM219 48c101 0 161 128 161 236c0 86 -29 148 -97 148c-71 0 -111 -35 -148 -81
c-11 -53 -16 -106 -16 -152c0 -92 32 -151 100 -151z" />
    <glyph glyph-name="afii10067" unicode="&#x432;" horiz-adv-x="474" 
d="M202 -14c-73 0 -131 16 -171 38l48 275c20 117 86 193 208 193c85 0 153 -40 153 -111c0 -67 -45 -109 -105 -126v-1c49 -9 87 -49 87 -102c0 -103 -100 -166 -220 -166zM208 45c94 0 140 46 140 107c0 38 -25 72 -74 72c-7 0 -15 0 -23 -2l-118 -22l-24 -133
c21 -14 54 -22 99 -22zM143 255l115 22c72 14 108 48 108 92c0 40 -33 65 -85 65c-79 0 -113 -55 -128 -129z" />
    <glyph glyph-name="afii10068" unicode="&#x433;" horiz-adv-x="374" 
d="M166 -12c-90 0 -151 45 -151 117c0 91 66 126 153 163c78 33 121 54 121 108c0 33 -28 55 -69 55c-46 0 -89 -20 -116 -37l-24 54c36 23 90 44 146 44c83 0 133 -52 133 -114c0 -89 -71 -126 -158 -163c-78 -33 -116 -54 -116 -108c0 -37 33 -59 87 -59
c55 0 93 20 126 41l21 -56c-38 -23 -86 -45 -153 -45z" />
    <glyph glyph-name="afii10069" unicode="&#x434;" horiz-adv-x="465" 
d="M192 -12c-95 0 -161 74 -161 196c0 176 106 301 233 301c47 0 81 -18 104 -42c-17 148 -93 228 -262 228l23 61c208 0 312 -139 312 -351c0 -185 -73 -393 -249 -393zM200 48c111 0 170 161 170 326v1c-24 29 -59 51 -110 51c-88 0 -158 -96 -158 -239
c0 -88 31 -139 98 -139z" />
    <glyph glyph-name="afii10070" unicode="&#x435;" horiz-adv-x="426" 
d="M185 -12c-109 0 -158 81 -158 173c0 181 117 331 258 331c72 0 127 -36 127 -109c0 -119 -154 -170 -312 -190v-23c0 -76 32 -118 94 -118c53 0 99 31 125 59l42 -49c-30 -29 -87 -74 -176 -74zM274 428c-73 0 -142 -76 -166 -180c126 16 229 57 229 128
c0 36 -21 52 -63 52z" />
    <glyph glyph-name="afii10072" unicode="&#x436;" horiz-adv-x="855" 
d="M347 0l40 222h-106c-22 -141 -103 -234 -215 -234c-35 0 -65 9 -85 24l37 57c13 -9 31 -16 56 -16c88 0 142 95 142 245c0 71 -23 130 -67 130c-26 0 -50 -11 -70 -28l-35 48c27 24 62 44 115 44c74 0 129 -68 129 -186c0 -9 0 -17 -1 -25h110l37 199h72l-37 -199h109
c27 127 105 211 211 211c35 0 65 -9 85 -24l-37 -57c-13 9 -31 16 -56 16c-88 0 -142 -95 -142 -245c0 -71 23 -130 67 -130c26 0 50 11 70 28l35 -48c-27 -24 -62 -44 -115 -44c-74 0 -129 68 -129 186c0 16 0 32 2 48h-110l-40 -222h-72z" />
    <glyph glyph-name="afii10073" unicode="&#x437;" horiz-adv-x="392" 
d="M132 -12c-64 0 -111 17 -140 39l40 54c24 -19 57 -33 106 -33c81 0 132 30 132 94c0 52 -62 81 -131 81h-23l9 51h24c71 0 139 35 139 98c0 37 -29 60 -86 60c-46 0 -90 -15 -122 -35l-21 51c34 22 83 44 149 44c85 0 153 -37 153 -108c0 -68 -48 -121 -113 -134v-1
c45 -6 95 -47 95 -101c0 -112 -96 -160 -211 -160z" />
    <glyph glyph-name="afii10074" unicode="&#x438;" horiz-adv-x="511" 
d="M150 -12c-67 0 -101 44 -101 115c0 15 2 31 5 49l60 328h72l-57 -321c-3 -17 -5 -31 -5 -44c0 -42 17 -62 49 -62c75 0 176 112 219 350l14 77h72l-49 -271c-24 -134 -30 -209 -30 -209h-70c7 52 17 114 28 162h-2c-36 -69 -98 -174 -205 -174z" />
    <glyph glyph-name="afii10075" unicode="&#x439;" horiz-adv-x="511" 
d="M150 -12c-67 0 -101 44 -101 115c0 15 2 31 5 49l60 328h72l-57 -321c-3 -17 -5 -31 -5 -44c0 -42 17 -62 49 -62c75 0 176 112 219 350l14 77h72l-49 -271c-24 -134 -30 -209 -30 -209h-70c7 52 17 114 28 162h-2c-36 -69 -98 -174 -205 -174zM308 536
c-71 0 -124 42 -124 126c0 5 1 11 1 16h61c0 -4 -1 -8 -1 -12c0 -42 20 -72 66 -72c42 0 78 32 89 84h64c-22 -100 -96 -142 -156 -142z" />
    <glyph glyph-name="afii10076" unicode="&#x43a;" horiz-adv-x="474" 
d="M38 0l86 480h73l-37 -204h35l199 204h90l-232 -230c22 -19 44 -49 67 -93c31 -60 56 -96 84 -96h10l-12 -61h-19c-54 0 -79 36 -123 122c-32 60 -55 99 -87 99h-22l-39 -221h-73z" />
    <glyph glyph-name="afii10077" unicode="&#x43b;" horiz-adv-x="513" 
d="M-16 -8l-2 57c53 2 90 62 122 183l65 248h306l-87 -480h-72l76 422h-167l-52 -204c-38 -147 -97 -226 -189 -226z" />
    <glyph glyph-name="afii10078" unicode="&#x43c;" horiz-adv-x="641" 
d="M2 0l157 480h68l52 -329c5 -34 7 -56 9 -77h2c9 21 20 43 38 77l179 329h68l-24 -480h-71l17 289c2 34 5 60 8 76h-2c-5 -15 -16 -40 -32 -69l-163 -296h-69l-46 292c-6 33 -10 58 -11 73h-1c-3 -15 -9 -40 -20 -76l-92 -289h-67z" />
    <glyph glyph-name="afii10079" unicode="&#x43d;" horiz-adv-x="543" 
d="M38 0l86 480h74l-36 -199h233l36 199h74l-86 -480h-74l40 222h-233l-40 -222h-74z" />
    <glyph glyph-name="afii10080" unicode="&#x43e;" horiz-adv-x="477" 
d="M199 -12c-123 0 -170 106 -170 199c0 149 104 305 247 305c118 0 171 -94 171 -196c0 -160 -106 -308 -248 -308zM204 48c101 0 170 128 170 236c0 96 -35 148 -103 148c-102 0 -171 -130 -171 -243c0 -85 35 -141 104 -141z" />
    <glyph glyph-name="afii10081" unicode="&#x43f;" horiz-adv-x="511" 
d="M32 0l87 480h69c-5 -33 -19 -107 -32 -156h2c33 63 96 168 202 168c67 0 101 -45 101 -115c0 -15 -2 -32 -5 -49l-60 -328h-72l57 321c3 17 5 31 5 44c0 42 -17 62 -49 62c-79 0 -177 -117 -223 -372l-10 -55h-72z" />
    <glyph glyph-name="afii10082" unicode="&#x440;" horiz-adv-x="487" 
d="M-12 -218l127 698h70c-11 -61 -20 -94 -33 -146h2c42 79 97 158 186 158c82 0 116 -70 116 -154c0 -178 -106 -350 -282 -350c-40 0 -67 6 -75 8l-39 -214h-72zM180 48c129 0 202 138 202 283c0 56 -16 96 -57 96c-98 0 -181 -186 -205 -320l-9 -51c9 -2 26 -8 69 -8z
" />
    <glyph glyph-name="afii10083" unicode="&#x441;" horiz-adv-x="404" 
d="M186 -12c-97 0 -159 68 -159 186c0 182 129 318 262 318c62 0 95 -18 115 -33l-37 -57c-15 11 -40 25 -86 25c-88 0 -182 -95 -182 -245c0 -90 37 -130 93 -130c60 0 99 36 118 55l43 -47c-26 -26 -86 -72 -167 -72z" />
    <glyph glyph-name="afii10084" unicode="&#x442;" horiz-adv-x="790" 
d="M32 0l87 480h69c-4 -33 -19 -106 -31 -153h2c31 65 94 165 193 165c74 0 98 -54 98 -111c0 -16 -2 -32 -5 -48h2c42 75 98 159 195 159c67 0 98 -47 98 -115c0 -16 -2 -32 -5 -50l-59 -327h-71l55 308c10 56 12 119 -41 119c-86 0 -175 -129 -219 -372l-10 -55h-72
l56 308c9 48 12 119 -45 119c-80 0 -170 -125 -215 -372l-10 -55h-72z" />
    <glyph glyph-name="afii10085" unicode="&#x443;" horiz-adv-x="438" 
d="M-12 -220c-52 0 -73 12 -82 17l30 59c10 -5 27 -11 59 -11c51 0 91 28 154 136l-97 499h75l63 -352c4 -24 8 -47 10 -67h2c7 20 15 44 25 67l161 352h76l-176 -368c-111 -232 -171 -332 -300 -332z" />
    <glyph glyph-name="afii10086" unicode="&#x444;" horiz-adv-x="689" 
d="M230 -218l41 220c8 43 17 79 23 100h-2c-34 -65 -87 -114 -149 -114c-70 0 -113 70 -113 154c0 178 116 350 272 350c20 0 47 -6 55 -8l43 236h62l-45 -242c-8 -43 -17 -79 -23 -100h2c34 65 87 114 149 114c70 0 113 -70 113 -154c0 -178 -116 -350 -272 -350
c-20 0 -47 6 -55 8l-39 -214h-62zM165 53c58 0 120 70 146 200l34 171c-9 2 -26 8 -49 8c-109 0 -192 -138 -192 -283c0 -55 18 -96 61 -96zM392 48c109 0 192 138 192 283c0 55 -18 96 -61 96c-58 0 -120 -70 -146 -200l-34 -171c9 -2 26 -8 49 -8z" />
    <glyph glyph-name="afii10087" unicode="&#x445;" horiz-adv-x="426" 
d="M-37 0l207 248l-112 232h79l80 -175l140 175h79l-192 -233l118 -247h-79l-87 189l-154 -189h-79z" />
    <glyph glyph-name="afii10088" unicode="&#x446;" horiz-adv-x="527" 
d="M382 -144l15 144h-27c-36 0 -36 31 -34 47c6 40 13 81 21 115h-2c-36 -69 -98 -174 -205 -174c-67 0 -101 44 -101 115c0 15 2 31 5 49l60 328h72l-57 -321c-3 -17 -5 -31 -5 -44c0 -42 17 -62 49 -62c75 0 176 112 219 350l14 77h72l-49 -271c-9 -50 -13 -79 -18 -111
c-4 -24 -4 -40 25 -40h43l-42 -202h-55z" />
    <glyph glyph-name="afii10089" unicode="&#x447;" horiz-adv-x="490" 
d="M308 0c11 76 32 201 52 289h-2c-36 -69 -108 -133 -197 -133c-67 0 -101 44 -101 115c0 15 2 31 5 49l28 160h72l-25 -153c-3 -17 -5 -31 -5 -44c0 -42 17 -62 49 -62c91 0 178 102 196 225l5 34h72l-49 -271c-24 -134 -30 -209 -30 -209h-70z" />
    <glyph glyph-name="afii10090" unicode="&#x448;" horiz-adv-x="803" 
d="M150 -12c-67 0 -101 44 -101 115c0 15 2 31 5 49l60 328h72l-57 -321c-3 -17 -5 -31 -5 -44c0 -42 17 -62 49 -62c75 0 176 112 219 350l14 77h72l-57 -321c-3 -17 -5 -31 -5 -44c0 -42 17 -62 49 -62c75 0 176 112 219 350l14 77h72l-49 -271
c-24 -134 -30 -209 -30 -209h-70c7 52 17 114 28 162h-2c-36 -69 -98 -174 -205 -174c-74 0 -98 54 -98 111c0 16 2 32 5 48h-2c-42 -75 -100 -159 -197 -159z" />
    <glyph glyph-name="afii10091" unicode="&#x449;" horiz-adv-x="819" 
d="M674 -144l15 144h-27c-36 0 -36 31 -34 47c6 40 13 81 21 115h-2c-36 -69 -98 -174 -205 -174c-74 0 -98 54 -98 111c0 16 2 32 5 48h-2c-42 -75 -100 -159 -197 -159c-67 0 -101 44 -101 115c0 15 2 31 5 49l60 328h72l-57 -321c-3 -17 -5 -31 -5 -44
c0 -42 17 -62 49 -62c75 0 176 112 219 350l14 77h72l-57 -321c-3 -17 -5 -31 -5 -44c0 -42 17 -62 49 -62c75 0 176 112 219 350l14 77h72l-49 -271c-9 -50 -13 -79 -18 -111c-4 -24 -4 -40 25 -40h43l-42 -202h-55z" />
    <glyph glyph-name="afii10092" unicode="&#x44a;" horiz-adv-x="485" 
d="M231 -14c-75 0 -128 12 -170 33l73 403h-118l10 58h193l-23 -124c-8 -43 -18 -89 -33 -144h2c25 42 77 97 151 97c80 0 135 -47 135 -127c0 -105 -96 -196 -220 -196zM237 45c94 0 140 65 140 134c0 42 -27 72 -79 72c-67 0 -135 -80 -151 -167l-4 -22
c23 -11 50 -17 94 -17z" />
    <glyph glyph-name="afii10093" unicode="&#x44b;" horiz-adv-x="704" 
d="M208 -14c-75 0 -128 12 -170 33l84 461h74l-23 -124c-8 -43 -18 -89 -33 -144h2c25 42 77 97 151 97c80 0 135 -47 135 -127c0 -105 -96 -196 -220 -196zM214 45c94 0 140 65 140 134c0 42 -27 72 -79 72c-67 0 -135 -80 -151 -167l-4 -22c23 -11 50 -17 94 -17zM507 0
l87 480h72l-87 -480h-72z" />
    <glyph glyph-name="afii10094" unicode="&#x44c;" horiz-adv-x="468" 
d="M208 -14c-75 0 -128 12 -170 33l84 461h74l-23 -124c-8 -43 -18 -89 -33 -144h2c25 42 77 97 151 97c80 0 135 -47 135 -127c0 -105 -96 -196 -220 -196zM214 45c94 0 140 65 140 134c0 42 -27 72 -79 72c-67 0 -135 -80 -151 -167l-4 -22c23 -11 50 -17 94 -17z" />
    <glyph glyph-name="afii10095" unicode="&#x44d;" horiz-adv-x="404" 
d="M86 206l10 59h207c1 8 1 16 1 24c0 90 -41 139 -97 139c-53 0 -95 -25 -117 -47l-38 47c28 27 85 64 161 64c88 0 163 -77 163 -195c0 -179 -115 -309 -253 -309c-62 0 -95 18 -115 33l37 57c15 -11 40 -25 86 -25c70 0 138 56 163 153h-208z" />
    <glyph glyph-name="afii10096" unicode="&#x44e;" horiz-adv-x="746" 
d="M112 0h-74l86 480h74l-36 -199h149c33 114 121 211 234 211c118 0 171 -94 171 -196c0 -160 -106 -308 -248 -308c-123 0 -170 106 -170 199c0 11 0 23 1 35h-147zM473 48c101 0 170 128 170 236c0 96 -35 148 -103 148c-102 0 -171 -130 -171 -243
c0 -85 35 -141 104 -141z" />
    <glyph glyph-name="afii10097" unicode="&#x44f;" horiz-adv-x="487" 
d="M14 0l8 61h5c28 0 57 32 110 92c25 28 51 59 72 67v1c-68 0 -126 37 -126 105c0 98 81 154 201 154h165l-87 -480h-73l39 213h-28c-28 0 -58 -37 -109 -95c-75 -86 -105 -118 -159 -118h-18zM248 269h90l27 152h-85c-77 0 -119 -29 -119 -93c0 -38 27 -59 87 -59z" />
    <glyph glyph-name="uni0450" unicode="&#x450;" horiz-adv-x="426" 
d="M185 -12c-109 0 -158 81 -158 173c0 181 117 331 258 331c72 0 127 -36 127 -109c0 -119 -154 -170 -312 -190v-23c0 -76 32 -118 94 -118c53 0 99 31 125 59l42 -49c-30 -29 -87 -74 -176 -74zM274 428c-73 0 -142 -76 -166 -180c126 16 229 57 229 128
c0 36 -21 52 -63 52zM252 540l-106 126h97l71 -126h-62z" />
    <glyph glyph-name="afii10071" unicode="&#x451;" horiz-adv-x="426" 
d="M185 -12c-109 0 -158 81 -158 173c0 181 117 331 258 331c72 0 127 -36 127 -109c0 -119 -154 -170 -312 -190v-23c0 -76 32 -118 94 -118c53 0 99 31 125 59l42 -49c-30 -29 -87 -74 -176 -74zM274 428c-73 0 -142 -76 -166 -180c126 16 229 57 229 128
c0 36 -21 52 -63 52zM203 541c-28 0 -50 22 -50 51c0 28 22 50 50 50c30 0 51 -22 51 -50c0 -29 -22 -51 -51 -51zM386 541c-28 0 -50 22 -50 51c0 28 22 50 50 50c30 0 51 -22 51 -50c0 -29 -22 -51 -51 -51z" />
    <glyph glyph-name="afii10099" unicode="&#x452;" horiz-adv-x="517" 
d="M209 -130l-15 52c113 20 198 240 198 403c0 60 -14 102 -49 102c-79 0 -177 -117 -223 -372l-10 -55h-72l105 576h-44l10 58h45l16 86h72l-16 -86h143l-10 -58h-144l-18 -96c-14 -76 -20 -104 -30 -147h2c30 56 92 159 197 159c74 0 101 -75 101 -154
c0 -207 -120 -452 -258 -468z" />
    <glyph glyph-name="afii10100" unicode="&#x453;" horiz-adv-x="374" 
d="M166 -12c-90 0 -151 45 -151 117c0 91 66 126 153 163c78 33 121 54 121 108c0 33 -28 55 -69 55c-46 0 -89 -20 -116 -37l-24 54c36 23 90 44 146 44c83 0 133 -52 133 -114c0 -89 -71 -126 -158 -163c-78 -33 -116 -54 -116 -108c0 -37 33 -59 87 -59
c55 0 93 20 126 41l21 -56c-38 -23 -86 -45 -153 -45zM195 540l111 126h111l-152 -126h-70z" />
    <glyph glyph-name="afii10101" unicode="&#x454;" horiz-adv-x="404" 
d="M301 222h-200c-2 -13 -2 -27 -2 -40c0 -90 37 -130 93 -130c60 0 99 36 118 55l43 -47c-26 -26 -86 -72 -167 -72c-97 0 -159 68 -159 186c0 182 129 318 262 318c62 0 95 -18 115 -33l-37 -57c-15 11 -40 25 -86 25c-67 0 -137 -55 -167 -146h199z" />
    <glyph glyph-name="afii10102" unicode="&#x455;" horiz-adv-x="354" 
d="M135 -12c-72 0 -120 30 -142 50l39 52c25 -20 57 -42 110 -42c51 0 81 28 81 68s-29 66 -78 117c-46 48 -75 82 -75 136c0 76 60 123 151 123c53 0 88 -15 113 -34l-37 -54c-14 10 -40 27 -86 27c-44 0 -72 -21 -72 -58c0 -34 21 -55 65 -102c57 -61 89 -91 89 -155
c0 -69 -54 -128 -158 -128z" />
    <glyph glyph-name="afii10103" unicode="&#x456;" horiz-adv-x="234" 
d="M183 572c-28 0 -53 24 -53 53s25 53 53 53c29 0 53 -24 53 -53s-24 -53 -53 -53zM37 0l87 480h72l-87 -480h-72z" />
    <glyph glyph-name="afii10104" unicode="&#x457;" horiz-adv-x="234" 
d="M37 0l87 480h72l-87 -480h-72zM81 541c-28 0 -50 22 -50 51c0 28 22 50 50 50c30 0 51 -22 51 -50c0 -29 -22 -51 -51 -51zM264 541c-28 0 -50 22 -50 51c0 28 22 50 50 50c30 0 51 -22 51 -50c0 -29 -22 -51 -51 -51z" />
    <glyph glyph-name="afii10105" unicode="&#x458;" horiz-adv-x="234" 
d="M-81 -230c-36 0 -57 8 -70 13l27 61c7 -4 25 -10 49 -10c67 0 92 51 106 130l93 516h72l-93 -524c-18 -104 -57 -186 -184 -186zM183 572c-28 0 -53 24 -53 53s25 53 53 53c29 0 53 -24 53 -53s-24 -53 -53 -53z" />
    <glyph glyph-name="afii10106" unicode="&#x459;" horiz-adv-x="741" 
d="M487 -14c-75 0 -128 12 -170 33l82 403h-176l-52 -204c-38 -147 -95 -226 -187 -226l-2 57c53 2 90 62 122 183l65 248h306l-23 -124c-8 -43 -18 -89 -33 -144h2c25 42 77 97 151 97c80 0 135 -47 135 -127c0 -105 -96 -196 -220 -196zM493 45c94 0 140 65 140 134
c0 42 -27 72 -79 72c-67 0 -135 -80 -151 -167l-4 -22c23 -11 50 -17 94 -17z" />
    <glyph glyph-name="afii10107" unicode="&#x45a;" horiz-adv-x="771" 
d="M518 -14c-75 0 -128 12 -170 33l37 203h-233l-40 -222h-74l86 480h74l-36 -199h233l36 199h75l-23 -124c-8 -43 -18 -89 -33 -144h2c25 42 77 97 151 97c80 0 135 -47 135 -127c0 -105 -96 -196 -220 -196zM524 45c94 0 140 65 140 134c0 42 -27 72 -79 72
c-67 0 -135 -80 -151 -167l-4 -22c23 -11 50 -17 94 -17z" />
    <glyph glyph-name="afii10108" unicode="&#x45b;" horiz-adv-x="517" 
d="M38 0l105 576h-44l10 58h45l16 86h72l-16 -86h143l-10 -58h-144l-18 -96c-14 -76 -20 -104 -30 -147h2c30 56 92 159 197 159c67 0 101 -45 101 -115c0 -15 -2 -32 -5 -49l-60 -328h-72l57 321c3 17 5 31 5 44c0 42 -17 62 -49 62c-79 0 -177 -117 -223 -372l-10 -55h-72
z" />
    <glyph glyph-name="afii10109" unicode="&#x45c;" horiz-adv-x="474" 
d="M38 0l86 480h73l-37 -204h35l199 204h90l-232 -230c22 -19 44 -49 67 -93c31 -60 56 -96 84 -96h10l-12 -61h-19c-54 0 -79 36 -123 122c-32 60 -55 99 -87 99h-22l-39 -221h-73zM247 540l111 126h111l-152 -126h-70z" />
    <glyph glyph-name="uni045D" unicode="&#x45d;" horiz-adv-x="511" 
d="M150 -12c-67 0 -101 44 -101 115c0 15 2 31 5 49l60 328h72l-57 -321c-3 -17 -5 -31 -5 -44c0 -42 17 -62 49 -62c75 0 176 112 219 350l14 77h72l-49 -271c-24 -134 -30 -209 -30 -209h-70c7 52 17 114 28 162h-2c-36 -69 -98 -174 -205 -174zM263 540l-106 126h97
l71 -126h-62z" />
    <glyph glyph-name="afii10110" unicode="&#x45e;" horiz-adv-x="438" 
d="M-12 -220c-52 0 -73 12 -82 17l30 59c10 -5 27 -11 59 -11c51 0 91 28 154 136l-97 499h75l63 -352c4 -24 8 -47 10 -67h2c7 20 15 44 25 67l161 352h76l-176 -368c-111 -232 -171 -332 -300 -332zM267 536c-71 0 -124 42 -124 126c0 5 1 11 1 16h61c0 -4 -1 -8 -1 -12
c0 -42 20 -72 66 -72c42 0 78 32 89 84h64c-22 -100 -96 -142 -156 -142z" />
    <glyph glyph-name="afii10193" unicode="&#x45f;" horiz-adv-x="511" 
d="M150 -12c-67 0 -101 44 -101 115c0 15 2 31 5 49l60 328h72l-57 -321c-13 -71 2 -106 44 -106c75 0 176 112 219 350l14 77h72l-49 -271c-24 -134 -30 -209 -30 -209h-70c7 52 17 114 28 162h-2c-36 -69 -98 -174 -205 -174zM158 -212l17 161h73l-39 -161h-51z" />
    <glyph glyph-name="afii10050" unicode="&#x490;" horiz-adv-x="455" 
d="M49 0l119 666h263l41 144h55l-27 -210h-267l-107 -600h-77z" />
    <glyph glyph-name="afii10098" unicode="&#x491;" horiz-adv-x="390" 
d="M38 0l86 480h218l44 142h46l-27 -201h-217l-76 -421h-74z" />
    <glyph glyph-name="uni0492" unicode="&#x492;" horiz-adv-x="455" 
d="M49 0l63 352h-73l11 58h72l46 256h342l-12 -66h-265l-34 -190h152l-11 -58h-151l-63 -352h-77z" />
    <glyph glyph-name="uni0493" unicode="&#x493;" horiz-adv-x="374" 
d="M355 207h-185c-47 -23 -85 -47 -85 -88c0 -50 33 -71 87 -71c55 0 93 20 126 41l21 -56c-38 -23 -86 -45 -153 -45c-90 0 -151 45 -151 117c0 45 21 77 60 102h-72l10 58h160c60 26 116 51 116 100c0 45 -28 66 -69 66c-46 0 -89 -20 -116 -37l-24 54c36 23 90 44 146 44
c83 0 133 -52 133 -114c0 -53 -31 -87 -82 -113h88z" />
    <glyph glyph-name="uni0496" unicode="&#x496;" horiz-adv-x="839" 
d="M-30 0l11 64h6c49 0 89 53 153 142c63 89 104 135 147 154l-187 306h81l173 -295h41l53 295h75l-53 -295h47l275 295h91l-308 -322c29 -25 57 -68 92 -137c44 -83 72 -139 112 -142h57l-59 -209h-55l19 145c-49 9 -80 56 -134 164c-44 85 -76 142 -121 142h-28l-55 -307
h-75l55 307h-36c-49 0 -89 -53 -153 -142c-88 -123 -132 -165 -199 -165h-25z" />
    <glyph glyph-name="uni0497" unicode="&#x497;" horiz-adv-x="855" 
d="M347 0l40 222h-106c-22 -141 -103 -234 -215 -234c-35 0 -65 9 -85 24l37 57c13 -9 31 -16 56 -16c88 0 142 95 142 245c0 71 -23 130 -67 130c-26 0 -50 -11 -70 -28l-35 48c27 24 62 44 115 44c74 0 129 -68 129 -186c0 -9 0 -17 -1 -25h110l37 199h72l-37 -199h109
c27 127 105 211 211 211c35 0 65 -9 85 -24l-37 -57c-13 9 -31 16 -56 16c-88 0 -142 -95 -142 -245c0 -71 23 -130 67 -130c26 0 50 11 70 28l55 -19l-43 -205h-55l20 147c-21 -12 -38 -15 -57 -15c-74 0 -129 68 -129 186c0 16 0 32 2 48h-110l-40 -222h-72z" />
    <glyph glyph-name="uni049A" unicode="&#x49a;" horiz-adv-x="560" 
d="M49 0l120 666h75l-53 -295h47l275 295h91l-308 -322c29 -25 57 -68 92 -137c45 -85 74 -142 115 -142h54l-59 -209h-55l19 145c-49 9 -80 56 -134 164c-44 85 -76 142 -121 142h-28l-55 -307h-75z" />
    <glyph glyph-name="uni049B" unicode="&#x49b;" horiz-adv-x="474" 
d="M38 0l86 480h73l-37 -204h35l199 204h90l-232 -230c22 -19 44 -49 67 -93c31 -60 56 -96 84 -96h46l-43 -205h-55l15 145c-44 7 -68 44 -107 121c-32 60 -55 99 -87 99h-22l-39 -221h-73z" />
    <glyph glyph-name="uni049C" unicode="&#x49c;" horiz-adv-x="603" 
d="M334 542l-30 -171h18l234 295h86l-265 -325c16 -25 27 -67 54 -134c35 -89 71 -142 115 -142h10l-11 -65h-22c-64 0 -100 41 -152 165c-35 83 -45 142 -75 142h-3l-30 -171h-67l30 171h-47l-55 -307h-75l120 666h75l-53 -295h46l30 171h67z" />
    <glyph glyph-name="uni049D" unicode="&#x49d;" horiz-adv-x="506" 
d="M274 409l-24 -133h7l169 204h84l-199 -233c13 -18 23 -47 40 -90c25 -63 54 -96 84 -96h10l-12 -61h-19c-56 0 -85 33 -123 122c-24 54 -35 93 -51 98l-23 -131h-58l23 132h-32l-39 -221h-73l86 480h73l-37 -204h32l24 133h58z" />
    <glyph glyph-name="uni04A2" unicode="&#x4a2;" horiz-adv-x="709" 
d="M49 0l118 666h77l-50 -282h370l50 282h77l-107 -600h68l-59 -210h-55l19 144h-62l57 318h-369l-57 -318h-77z" />
    <glyph glyph-name="uni04A3" unicode="&#x4a3;" horiz-adv-x="543" 
d="M38 0l86 480h74l-36 -199h233l36 199h74l-76 -422h43l-42 -202h-55l15 144h-45l40 222h-233l-40 -222h-74z" />
    <glyph glyph-name="uni04AE" unicode="&#x4ae;" horiz-adv-x="544" 
d="M195 0l45 251l-150 415h80l120 -342h1l227 342h81l-282 -416l-45 -250h-77z" />
    <glyph glyph-name="uni04AF" unicode="&#x4af;" horiz-adv-x="417" 
d="M68 -218l42 233l-63 465h73l38 -299c3 -27 6 -59 7 -85h2l212 384h76l-274 -471l-41 -227h-72z" />
    <glyph glyph-name="uni04B0" unicode="&#x4b0;" horiz-adv-x="544" 
d="M195 0l30 169h-166l11 58h166l4 24l-150 415h80l120 -342h1l227 342h81l-282 -416l-4 -23h165l-11 -58h-165l-30 -169h-77z" />
    <glyph glyph-name="uni04B1" unicode="&#x4b1;" horiz-adv-x="417" 
d="M280 -58h-111l-29 -160h-72l29 160h-110l10 58h110l3 14l-63 466h73l38 -299c3 -27 6 -59 7 -85h2l212 384h76l-274 -471l-2 -9h111z" />
    <glyph glyph-name="uni04B2" unicode="&#x4b2;" horiz-adv-x="554" 
d="M-17 0l269 348l-139 318h80l111 -265l194 265h85l-249 -323l122 -278h76l-59 -209h-55l19 144h-32l-123 290l-214 -290h-85z" />
    <glyph glyph-name="uni04B3" unicode="&#x4b3;" horiz-adv-x="426" 
d="M-37 0l207 248l-112 232h79l80 -175l140 175h79l-192 -233l89 -186h77l-43 -205h-55l15 144h-44l-87 189l-154 -189h-79z" />
    <glyph glyph-name="uni04B6" unicode="&#x4b6;" horiz-adv-x="609" 
d="M394 0l51 286c-36 -42 -110 -98 -198 -98c-101 0 -168 54 -168 151c0 14 1 29 4 45l51 282h77l-49 -268c-2 -14 -4 -26 -4 -38c0 -71 43 -105 104 -105c87 0 167 72 197 108l55 303h77l-108 -600h68l-59 -210h-55l19 144h-62z" />
    <glyph glyph-name="uni04B7" unicode="&#x4b7;" horiz-adv-x="490" 
d="M308 0c11 76 32 201 52 289h-2c-36 -69 -108 -133 -197 -133c-67 0 -101 44 -101 115c0 15 2 31 5 49l28 160h72l-25 -153c-3 -17 -5 -31 -5 -44c0 -42 17 -62 49 -62c91 0 178 102 196 225l5 34h72l-49 -271c-12 -65 -19 -116 -24 -151h43l-42 -202h-55l15 144h-37z" />
    <glyph glyph-name="uni04B8" unicode="&#x4b8;" horiz-adv-x="609" 
d="M394 0l51 286c-27 -32 -76 -72 -136 -89l-23 -133h-67l22 124c-98 2 -162 56 -162 151c0 14 1 29 4 45l51 282h77l-49 -268c-2 -14 -4 -26 -4 -38c0 -67 38 -101 94 -105l26 145h67l-24 -135c62 22 115 70 138 98l55 303h77l-120 -666h-77z" />
    <glyph glyph-name="uni04B9" unicode="&#x4b9;" horiz-adv-x="490" 
d="M308 0c11 76 32 201 52 289h-2c-25 -48 -67 -93 -120 -117l-21 -120h-58l18 105c-5 -1 -11 -1 -16 -1c-67 0 -101 44 -101 115c0 15 2 31 5 49l28 160h72l-25 -153c-3 -17 -5 -31 -5 -44c0 -42 17 -62 49 -62h4l19 104h58l-16 -87c64 34 117 115 131 208l5 34h72
l-49 -271c-24 -134 -30 -209 -30 -209h-70z" />
    <glyph glyph-name="uni04BA" unicode="&#x4ba;" horiz-adv-x="609" 
d="M246 666l-51 -286c36 42 110 98 198 98c101 0 168 -54 168 -151c0 -14 -1 -29 -4 -45l-51 -282h-77l49 268c2 14 4 26 4 38c0 71 -43 105 -104 105c-87 0 -167 -72 -197 -108l-55 -303h-77l120 666h77z" />
    <glyph glyph-name="uni04BB" unicode="&#x4bb;" horiz-adv-x="511" 
d="M32 0l132 720h72l-45 -240c-14 -76 -20 -104 -30 -147h2c30 56 92 159 197 159c67 0 101 -45 101 -115c0 -15 -2 -32 -5 -49l-60 -328h-72l57 321c3 17 5 31 5 44c0 42 -17 62 -49 62c-79 0 -177 -117 -223 -372l-10 -55h-72z" />
    <glyph glyph-name="uni04C0" unicode="&#x4c0;" horiz-adv-x="275" 
d="M55 0l119 666h77l-119 -666h-77z" />
    <glyph glyph-name="uni04CF" unicode="&#x4cf;" horiz-adv-x="235" 
d="M37 0l130 720h72l-130 -720h-72z" />
    <glyph glyph-name="uni04D8" unicode="&#x4d8;" horiz-adv-x="704" 
d="M67 348h525c1 13 2 27 2 41c0 119 -68 224 -205 224c-66 0 -121 -23 -168 -61l-34 54c45 40 127 72 207 72c190 0 280 -136 280 -290c0 -196 -131 -400 -344 -400c-173 0 -270 137 -270 287c0 24 3 49 7 73zM334 53c128 0 215 103 246 229h-440v-6
c0 -122 72 -223 194 -223z" />
    <glyph glyph-name="afii10846" unicode="&#x4d9;" horiz-adv-x="426" 
d="M244 492c109 0 158 -81 158 -173c0 -181 -117 -331 -258 -331c-72 0 -127 36 -127 109c0 119 154 170 312 190v23c0 76 -32 118 -94 118c-53 0 -99 -31 -125 -59l-42 49c30 29 87 74 176 74zM155 52c73 0 142 76 166 180c-126 -16 -229 -57 -229 -128
c0 -36 21 -52 63 -52z" />
    <glyph glyph-name="uni04E2" unicode="&#x4e2;" horiz-adv-x="698" 
d="M49 0l120 666h71l-85 -467c-8 -49 -13 -73 -17 -90h2c14 21 38 52 77 98l390 459h73l-120 -666h-71l85 467c8 49 13 71 17 90h-2c-14 -21 -38 -52 -77 -98l-390 -459h-73zM304 760l11 61h271l-11 -61h-271z" />
    <glyph glyph-name="uni04E3" unicode="&#x4e3;" horiz-adv-x="511" 
d="M150 -12c-67 0 -101 44 -101 115c0 15 2 31 5 49l60 328h72l-57 -321c-3 -17 -5 -31 -5 -44c0 -42 17 -62 49 -62c75 0 176 112 219 350l14 77h72l-49 -271c-24 -134 -30 -209 -30 -209h-70c7 52 17 114 28 162h-2c-36 -69 -98 -174 -205 -174zM170 574l11 61h271
l-11 -61h-271z" />
    <glyph glyph-name="uni04E8" unicode="&#x4e8;" horiz-adv-x="734" 
d="M340 -12c-179 0 -280 137 -280 287c0 198 144 403 364 403c190 0 280 -136 280 -290c0 -196 -139 -400 -364 -400zM419 613c-145 0 -241 -112 -270 -248h474c0 8 1 16 1 24c0 119 -68 224 -205 224zM344 53c143 0 240 112 270 246h-474v-23c0 -122 76 -223 204 -223z" />
    <glyph glyph-name="uni04E9" unicode="&#x4e9;" horiz-adv-x="477" 
d="M199 -12c-123 0 -170 106 -170 199c0 149 104 305 247 305c118 0 171 -94 171 -196c0 -160 -106 -308 -248 -308zM204 48c79 0 139 79 161 166h-264c-1 -9 -1 -17 -1 -25c0 -85 35 -141 104 -141zM271 432c-77 0 -135 -74 -159 -159h262v11c0 96 -35 148 -103 148z" />
    <glyph glyph-name="uni04EE" unicode="&#x4ee;" horiz-adv-x="528" 
d="M60 -2c-16 0 -33 2 -42 5l21 61c8 -2 19 -3 30 -3c57 0 94 33 140 109l21 35l-118 461h72l98 -376l228 376h78l-322 -531c-61 -101 -121 -137 -206 -137zM221 760l11 61h271l-11 -61h-271z" />
    <glyph glyph-name="uni04EF" unicode="&#x4ef;" horiz-adv-x="438" 
d="M-12 -220c-52 0 -73 12 -82 17l30 59c10 -5 27 -11 59 -11c51 0 91 28 154 136l-97 499h75l63 -352c4 -24 8 -47 10 -67h2c7 20 15 44 25 67l161 352h76l-176 -368c-111 -232 -171 -332 -300 -332zM135 574l11 61h271l-11 -61h-271z" />
    <glyph glyph-name="Wgrave" unicode="&#x1e80;" horiz-adv-x="855" 
d="M158 0l-64 666h76l37 -413c5 -54 9 -104 10 -141h2c12 36 34 85 58 139l183 415h78l49 -431c6 -54 10 -86 12 -123h2c13 38 26 68 50 125l178 429h80l-291 -666h-71l-49 422c-7 59 -11 101 -15 150h-2c-18 -49 -37 -91 -64 -150l-190 -422h-69zM470 726l-106 126h97
l71 -126h-62z" />
    <glyph glyph-name="wgrave" unicode="&#x1e81;" horiz-adv-x="680" 
d="M107 0l-54 480h73l27 -279c3 -33 5 -76 6 -101h2l189 380h69l20 -274c3 -36 5 -76 5 -98h2l193 372h76l-261 -480h-62l-27 382h-2l-194 -382h-62zM353 540l-106 126h97l71 -126h-62z" />
    <glyph glyph-name="Wacute" unicode="&#x1e82;" horiz-adv-x="855" 
d="M158 0l-64 666h76l37 -413c5 -54 9 -104 10 -141h2c12 36 34 85 58 139l183 415h78l49 -431c6 -54 10 -86 12 -123h2c13 38 26 68 50 125l178 429h80l-291 -666h-71l-49 422c-7 59 -11 101 -15 150h-2c-18 -49 -37 -91 -64 -150l-190 -422h-69zM473 726l111 126h111
l-152 -126h-70z" />
    <glyph glyph-name="wacute" unicode="&#x1e83;" horiz-adv-x="680" 
d="M107 0l-54 480h73l27 -279c3 -33 5 -76 6 -101h2l189 380h69l20 -274c3 -36 5 -76 5 -98h2l193 372h76l-261 -480h-62l-27 382h-2l-194 -382h-62zM356 540l111 126h111l-152 -126h-70z" />
    <glyph glyph-name="Wdieresis" unicode="&#x1e84;" horiz-adv-x="855" 
d="M158 0l-64 666h76l37 -413c5 -54 9 -104 10 -141h2c12 36 34 85 58 139l183 415h78l49 -431c6 -54 10 -86 12 -123h2c13 38 26 68 50 125l178 429h80l-291 -666h-71l-49 422c-7 59 -11 101 -15 150h-2c-18 -49 -37 -91 -64 -150l-190 -422h-69zM421 727
c-28 0 -50 22 -50 51c0 28 22 50 50 50c30 0 51 -22 51 -50c0 -29 -22 -51 -51 -51zM604 727c-28 0 -50 22 -50 51c0 28 22 50 50 50c30 0 51 -22 51 -50c0 -29 -22 -51 -51 -51z" />
    <glyph glyph-name="wdieresis" unicode="&#x1e85;" horiz-adv-x="680" 
d="M107 0l-54 480h73l27 -279c3 -33 5 -76 6 -101h2l189 380h69l20 -274c3 -36 5 -76 5 -98h2l193 372h76l-261 -480h-62l-27 382h-2l-194 -382h-62zM304 541c-28 0 -50 22 -50 51c0 28 22 50 50 50c30 0 51 -22 51 -50c0 -29 -22 -51 -51 -51zM487 541c-28 0 -50 22 -50 51
c0 28 22 50 50 50c30 0 51 -22 51 -50c0 -29 -22 -51 -51 -51z" />
    <glyph glyph-name="uni1E9E" unicode="&#x1e9e;" horiz-adv-x="656" 
d="M45 0l68 387c37 206 155 290 316 290c65 0 146 -15 206 -31l-8 -47l-183 -221l33 -23c64 -47 116 -100 116 -180c0 -100 -84 -186 -224 -186c-69 0 -129 17 -170 44l30 59c42 -26 89 -38 140 -38c97 0 147 50 147 118c0 49 -27 88 -96 136l-78 53l196 235
c-35 10 -78 16 -121 16c-119 0 -199 -63 -228 -230l-67 -382h-77z" />
    <glyph glyph-name="Ygrave" unicode="&#x1ef2;" horiz-adv-x="544" 
d="M195 0l45 251l-150 415h80l120 -342h1l227 342h81l-282 -416l-45 -250h-77zM312 726l-106 126h97l71 -126h-62z" />
    <glyph glyph-name="ygrave" unicode="&#x1ef3;" horiz-adv-x="438" 
d="M-12 -220c-52 0 -73 12 -82 17l30 59c10 -5 27 -11 59 -11c51 0 91 28 154 136l-97 499h75l63 -352c4 -24 8 -47 10 -67h2c7 20 15 44 25 67l161 352h76l-176 -368c-111 -232 -171 -332 -300 -332zM222 540l-106 126h97l71 -126h-62z" />
    <glyph glyph-name="uni2007" unicode="&#x2007;" horiz-adv-x="530" 
 />
    <glyph glyph-name="uni2008" unicode="&#x2008;" horiz-adv-x="216" 
 />
    <glyph glyph-name="uni200B" unicode="&#x200b;" horiz-adv-x="0" 
 />
    <glyph glyph-name="uniFEFF" unicode="&#xfeff;" horiz-adv-x="0" 
 />
    <glyph glyph-name="endash" unicode="&#x2013;" horiz-adv-x="561" 
d="M52 244l11 61h457l-11 -61h-457z" />
    <glyph glyph-name="emdash" unicode="&#x2014;" horiz-adv-x="868" 
d="M52 244l11 61h764l-11 -61h-764z" />
    <glyph glyph-name="afii00208" unicode="&#x2015;" horiz-adv-x="868" 
d="M52 244l11 61h764l-11 -61h-764z" />
    <glyph glyph-name="quoteleft" unicode="&#x2018;" horiz-adv-x="210" 
d="M155 434c-31 0 -61 23 -61 66c0 76 71 151 114 184l29 -26c-25 -24 -55 -58 -55 -92c0 -33 27 -41 27 -78c0 -31 -24 -54 -54 -54z" />
    <glyph glyph-name="quoteright" unicode="&#x2019;" horiz-adv-x="210" 
d="M117 428l-29 26c25 24 55 58 55 92c0 33 -27 41 -27 78c0 31 24 54 54 54c31 0 61 -23 61 -66c0 -76 -71 -151 -114 -184z" />
    <glyph glyph-name="quotesinglbase" unicode="&#x201a;" horiz-adv-x="210" 
d="M15 -141l-29 26c25 24 55 58 55 92c0 33 -27 41 -27 78c0 31 24 54 54 54c31 0 61 -23 61 -66c0 -76 -71 -151 -114 -184z" />
    <glyph glyph-name="quotedblleft" unicode="&#x201c;" horiz-adv-x="378" 
d="M155 434c-31 0 -61 23 -61 66c0 76 71 151 114 184l29 -26c-25 -24 -55 -58 -55 -92c0 -33 27 -41 27 -78c0 -31 -24 -54 -54 -54zM323 434c-31 0 -61 23 -61 66c0 76 71 151 114 184l29 -26c-25 -24 -55 -58 -55 -92c0 -33 27 -41 27 -78c0 -31 -24 -54 -54 -54z" />
    <glyph glyph-name="quotedblright" unicode="&#x201d;" horiz-adv-x="378" 
d="M117 428l-29 26c25 24 55 58 55 92c0 33 -27 41 -27 78c0 31 24 54 54 54c31 0 61 -23 61 -66c0 -76 -71 -151 -114 -184zM285 428l-29 26c25 24 55 58 55 92c0 33 -27 41 -27 78c0 31 24 54 54 54c31 0 61 -23 61 -66c0 -76 -71 -151 -114 -184z" />
    <glyph glyph-name="quotedblbase" unicode="&#x201e;" horiz-adv-x="378" 
d="M15 -141l-29 26c25 24 55 58 55 92c0 33 -27 41 -27 78c0 31 24 54 54 54c31 0 61 -23 61 -66c0 -76 -71 -151 -114 -184zM183 -141l-29 26c25 24 55 58 55 92c0 33 -27 41 -27 78c0 31 24 54 54 54c31 0 61 -23 61 -66c0 -76 -71 -151 -114 -184z" />
    <glyph glyph-name="dagger" unicode="&#x2020;" horiz-adv-x="528" 
d="M165 -170l62 446l41 142l-81 -8h-109l12 70h109l78 -8l7 111l24 137h79l-24 -137l-33 -111l84 8h107l-12 -70h-107l-81 8l-10 -142l-98 -446h-48z" />
    <glyph glyph-name="daggerdbl" unicode="&#x2021;" horiz-adv-x="539" 
d="M153 -168l25 137l34 111l-84 -8h-110l13 70h110l81 -8l10 142l42 142l-83 -8h-110l13 70h110l80 -8l8 111l25 137h81l-25 -137l-34 -111l84 8h110l-13 -70h-110l-81 8l-11 -142l-42 -142l84 8h110l-13 -70h-110l-80 8l-8 -111l-26 -137h-80z" />
    <glyph glyph-name="bullet" unicode="&#x2022;" horiz-adv-x="355" 
d="M177 162c-68 0 -122 55 -122 124s54 125 122 125c69 0 123 -56 123 -125s-54 -124 -123 -124z" />
    <glyph glyph-name="ellipsis" unicode="&#x2026;" horiz-adv-x="615" 
d="M78 -9c-34 0 -59 27 -59 59s25 58 59 58c32 0 59 -26 59 -58s-27 -59 -59 -59zM278 -9c-33 0 -58 27 -58 59s25 58 58 58s59 -26 59 -58s-26 -59 -59 -59zM479 -9c-33 0 -59 27 -59 59s26 58 59 58c32 0 59 -26 59 -58s-27 -59 -59 -59z" />
    <glyph glyph-name="perthousand" unicode="&#x2030;" horiz-adv-x="1029" 
d="M163 213c-74 0 -117 56 -117 120c0 81 64 159 153 159c79 0 118 -49 118 -118c0 -85 -65 -161 -154 -161zM168 261c52 0 88 46 88 110c0 46 -21 73 -61 73c-52 0 -88 -43 -88 -106c0 -50 21 -77 61 -77zM508 -12c-74 0 -117 56 -117 120c0 81 64 159 153 159
c79 0 118 -49 118 -118c0 -85 -65 -161 -154 -161zM513 36c52 0 88 46 88 110c0 46 -21 73 -61 73c-52 0 -88 -43 -88 -106c0 -50 21 -77 61 -77zM828 -12c-74 0 -117 56 -117 120c0 81 64 159 153 159c79 0 118 -49 118 -118c0 -85 -65 -161 -154 -161zM833 36
c52 0 88 46 88 110c0 46 -21 73 -61 73c-52 0 -88 -43 -88 -106c0 -50 21 -77 61 -77zM141 0l369 480h61l-369 -480h-61z" />
    <glyph glyph-name="guilsinglleft" unicode="&#x2039;" horiz-adv-x="272" 
d="M130 56l-100 189l167 190h80l-171 -196l96 -183h-72z" />
    <glyph glyph-name="guilsinglright" unicode="&#x203a;" horiz-adv-x="272" 
d="M-1 56l167 195l-96 184h72l100 -191l-163 -188h-80z" />
    <glyph glyph-name="fraction" unicode="&#x2044;" horiz-adv-x="106" 
d="M-226 0l528 666h68l-528 -666h-68z" />
    <glyph glyph-name="uni2070" unicode="&#x2070;" horiz-adv-x="386" 
d="M214 336c-88 0 -121 59 -121 127c0 95 55 209 178 209c88 0 122 -58 122 -125c0 -103 -57 -211 -179 -211zM220 386c71 0 107 77 107 162c0 45 -21 74 -62 74c-75 0 -107 -81 -107 -160c0 -47 22 -76 62 -76z" />
    <glyph glyph-name="uni2074" unicode="&#x2074;" horiz-adv-x="306" 
d="M196 342l13 68h-174l8 42l221 214h57l-41 -207h54l-10 -49h-53l-14 -68h-61zM115 457c8 1 23 2 41 2h63l24 123h-1z" />
    <glyph glyph-name="uni2075" unicode="&#x2075;" horiz-adv-x="286" 
d="M108 336c-27 0 -45 3 -57 7l16 51c10 -4 28 -7 47 -7c61 0 105 22 105 66c0 34 -43 49 -92 49c-15 0 -29 -1 -37 -3l37 167h182l-9 -51h-129l-14 -64c71 -4 128 -35 128 -92c0 -79 -65 -123 -177 -123z" />
    <glyph glyph-name="uni2076" unicode="&#x2076;" horiz-adv-x="324" 
d="M193 336c-88 0 -118 55 -118 114c0 131 113 222 263 222l8 -49c-90 -1 -157 -32 -195 -103c19 15 52 23 83 23c60 0 96 -32 96 -85c0 -71 -57 -122 -137 -122zM195 384c42 0 72 31 72 68c0 28 -24 43 -53 43c-30 0 -56 -8 -74 -22c-1 -11 -1 -15 -1 -27
c0 -38 23 -62 56 -62z" />
    <glyph glyph-name="uni2077" unicode="&#x2077;" horiz-adv-x="282" 
d="M130 328l-49 23l162 262h-158l10 53h230l-7 -35z" />
    <glyph glyph-name="uni2078" unicode="&#x2078;" horiz-adv-x="320" 
d="M181 336c-74 0 -116 33 -116 76c0 47 36 77 89 99c-27 17 -45 39 -45 68c0 57 60 93 128 93c67 0 108 -27 108 -72c0 -40 -35 -68 -82 -88c33 -19 58 -41 58 -75c0 -57 -50 -101 -140 -101zM186 383c37 0 70 19 70 46c0 22 -24 37 -56 54c-38 -16 -71 -32 -71 -63
c0 -20 23 -37 57 -37zM215 539c35 15 67 30 67 54c0 18 -20 32 -50 32c-32 0 -61 -16 -61 -41c0 -19 21 -32 44 -45z" />
    <glyph glyph-name="uni2079" unicode="&#x2079;" horiz-adv-x="328" 
d="M84 333l-10 50c81 0 162 30 193 104c-21 -15 -54 -22 -81 -22c-60 0 -97 33 -97 86c0 73 66 121 139 121c88 0 116 -55 116 -113c0 -127 -89 -226 -260 -226zM208 513c26 0 54 8 72 22c2 8 2 18 2 27c0 39 -25 62 -58 62c-41 0 -72 -33 -72 -68c0 -29 25 -43 56 -43z" />
    <glyph glyph-name="uni207A" unicode="&#x207a;" horiz-adv-x="330" 
d="M168 396l18 87h-100l10 47h99l17 85h50l-17 -85h99l-10 -47h-99l-18 -87h-49z" />
    <glyph glyph-name="uni207B" unicode="&#x207b;" horiz-adv-x="308" 
d="M92 483l11 48h207l-11 -48h-207z" />
    <glyph glyph-name="uni207D" unicode="&#x207d;" horiz-adv-x="200" 
d="M143 288c-23 27 -64 87 -64 163c0 147 104 235 148 269h63c-42 -34 -147 -124 -147 -269c0 -76 36 -136 58 -163h-58z" />
    <glyph glyph-name="uni207E" unicode="&#x207e;" horiz-adv-x="200" 
d="M11 288c42 34 147 124 147 269c0 76 -36 136 -58 163h58c23 -27 64 -87 64 -163c0 -147 -104 -235 -148 -269h-63z" />
    <glyph glyph-name="uni2080" unicode="&#x2080;" horiz-adv-x="386" 
d="M116 -206c-88 0 -121 59 -121 127c0 95 55 209 178 209c88 0 122 -58 122 -125c0 -103 -57 -211 -179 -211zM122 -156c71 0 107 77 107 162c0 45 -21 74 -62 74c-75 0 -107 -81 -107 -160c0 -47 22 -76 62 -76z" />
    <glyph glyph-name="uni2081" unicode="&#x2081;" horiz-adv-x="244" 
d="M28 -200l54 272l-87 -24l-14 48l118 28h55l-64 -324h-62z" />
    <glyph glyph-name="uni2082" unicode="&#x2082;" horiz-adv-x="322" 
d="M-51 -200l6 34c113 80 211 143 211 207c0 26 -24 38 -51 38c-32 0 -62 -15 -84 -32l-30 40c26 21 69 43 123 43c74 0 111 -32 111 -79c0 -74 -87 -139 -179 -202c8 1 28 2 43 2h116l-11 -51h-255z" />
    <glyph glyph-name="uni2083" unicode="&#x2083;" horiz-adv-x="292" 
d="M15 -206c-27 0 -52 5 -63 9l19 50c10 -4 28 -8 49 -8c58 0 103 19 103 59c0 32 -43 46 -102 44l8 43c66 4 114 25 114 58c0 19 -20 30 -48 30c-29 0 -53 -9 -71 -20l-25 40c22 15 62 31 109 31c69 0 100 -29 100 -66c0 -48 -42 -75 -90 -87v-1c37 -6 72 -29 72 -68
c0 -71 -63 -114 -175 -114z" />
    <glyph glyph-name="uni2084" unicode="&#x2084;" horiz-adv-x="306" 
d="M98 -200l13 68h-174l8 42l221 214h57l-41 -207h54l-10 -49h-53l-14 -68h-61zM17 -85c8 1 23 2 41 2h63l24 123h-1z" />
    <glyph glyph-name="uni2085" unicode="&#x2085;" horiz-adv-x="286" 
d="M10 -206c-27 0 -45 3 -57 7l16 51c10 -4 28 -7 47 -7c61 0 105 22 105 66c0 34 -43 49 -92 49c-15 0 -29 -1 -37 -3l37 167h182l-9 -51h-129l-14 -64c71 -4 128 -35 128 -92c0 -79 -65 -123 -177 -123z" />
    <glyph glyph-name="uni2086" unicode="&#x2086;" horiz-adv-x="324" 
d="M95 -206c-88 0 -118 55 -118 114c0 131 113 222 263 222l8 -49c-90 -1 -157 -32 -195 -103c19 15 52 23 83 23c60 0 96 -32 96 -85c0 -71 -57 -122 -137 -122zM97 -158c42 0 72 31 72 68c0 28 -24 43 -53 43c-30 0 -56 -8 -74 -22c-1 -11 -1 -15 -1 -27
c0 -38 23 -62 56 -62z" />
    <glyph glyph-name="uni2087" unicode="&#x2087;" horiz-adv-x="282" 
d="M32 -214l-49 23l162 262h-158l10 53h230l-7 -35z" />
    <glyph glyph-name="uni2088" unicode="&#x2088;" horiz-adv-x="320" 
d="M83 -206c-74 0 -116 33 -116 76c0 47 36 77 89 99c-27 17 -45 39 -45 68c0 57 60 93 128 93c67 0 108 -27 108 -72c0 -40 -35 -68 -82 -88c33 -19 58 -41 58 -75c0 -57 -50 -101 -140 -101zM88 -159c37 0 70 19 70 46c0 22 -24 37 -56 54c-38 -16 -71 -32 -71 -63
c0 -20 23 -37 57 -37zM117 -3c35 15 67 30 67 54c0 18 -20 32 -50 32c-32 0 -61 -16 -61 -41c0 -19 21 -32 44 -45z" />
    <glyph glyph-name="uni2089" unicode="&#x2089;" horiz-adv-x="328" 
d="M-14 -209l-10 50c81 0 162 30 193 104c-21 -15 -54 -22 -81 -22c-60 0 -97 33 -97 86c0 73 66 121 139 121c88 0 116 -55 116 -113c0 -127 -89 -226 -260 -226zM110 -29c26 0 54 8 72 22c2 8 2 18 2 27c0 39 -25 62 -58 62c-41 0 -72 -33 -72 -68c0 -29 25 -43 56 -43z
" />
    <glyph glyph-name="uni208A" unicode="&#x208a;" horiz-adv-x="330" 
d="M70 -146l18 87h-100l10 47h99l17 85h50l-17 -85h99l-10 -47h-99l-18 -87h-49z" />
    <glyph glyph-name="uni208B" unicode="&#x208b;" horiz-adv-x="308" 
d="M-6 -59l11 48h207l-11 -48h-207z" />
    <glyph glyph-name="uni208D" unicode="&#x208d;" horiz-adv-x="200" 
d="M45 -254c-23 27 -64 87 -64 163c0 147 104 235 148 269h63c-42 -34 -147 -124 -147 -269c0 -76 36 -136 58 -163h-58z" />
    <glyph glyph-name="uni208E" unicode="&#x208e;" horiz-adv-x="200" 
d="M-87 -254c42 34 147 124 147 269c0 76 -36 136 -58 163h58c23 -27 64 -87 64 -163c0 -147 -104 -235 -148 -269h-63z" />
    <glyph glyph-name="Euro" unicode="&#x20ac;" horiz-adv-x="545" 
d="M327 -12c-149 0 -219 110 -228 238h-79l10 58h69c1 28 5 56 10 82h-64l10 58h69c48 150 164 254 312 254c87 0 122 -19 151 -40l-40 -59c-22 15 -53 34 -119 34c-108 0 -186 -77 -224 -189h179l-10 -58h-185c-5 -26 -9 -54 -10 -82h180l-10 -58h-170
c7 -101 53 -172 157 -172c58 0 104 24 130 40l27 -60c-31 -19 -81 -46 -165 -46z" />
    <glyph glyph-name="uni20B4" unicode="&#x20b4;" horiz-adv-x="525" 
d="M526 366h-136c-49 -29 -104 -54 -151 -82h273l-10 -58h-335c-15 -18 -25 -37 -29 -60c-11 -59 34 -113 116 -113c89 0 148 45 166 59l30 -56c-28 -23 -99 -68 -201 -68c-129 0 -206 74 -187 179c4 22 12 41 23 59h-65l10 58h108c40 32 90 57 137 82h-231l11 58h319
c32 24 56 52 62 88c10 61 -32 101 -98 101c-70 0 -123 -28 -149 -46l-28 58c25 17 85 53 184 53c102 0 183 -61 164 -170c-6 -33 -22 -61 -44 -84h72z" />
    <glyph glyph-name="afii61352" unicode="&#x2116;" horiz-adv-x="1078" 
d="M49 0l119 666h75l225 -464c17 -36 31 -71 39 -97h2c3 26 8 65 15 104l81 457h70l-118 -666h-71l-231 477c-15 31 -25 55 -36 88h-2c-3 -26 -7 -55 -14 -95l-84 -470h-70zM884 357c-103 0 -140 70 -140 131c0 89 67 183 182 183c103 0 140 -70 140 -131
c0 -89 -67 -183 -182 -183zM889 411c73 0 113 49 113 123c0 50 -28 83 -80 83c-73 0 -114 -49 -114 -123c0 -50 28 -83 81 -83z" />
    <glyph glyph-name="uni2117" unicode="&#x2117;" horiz-adv-x="825" 
d="M432 -14c-205 0 -372 167 -372 373s167 373 372 373c206 0 373 -167 373 -373s-167 -373 -373 -373zM432 38c182 0 317 134 317 321c0 186 -135 321 -317 321c-181 0 -316 -135 -316 -321c0 -187 135 -321 316 -321zM310 136v452h147c91 0 139 -68 139 -135
c0 -69 -48 -134 -168 -134h-53v-183h-65zM375 370h49c66 0 102 26 102 81c0 53 -25 81 -84 81h-67v-162z" />
    <glyph glyph-name="trademark" unicode="&#x2122;" horiz-adv-x="657" 
d="M291 375l82 291h55l36 -171c5 -23 7 -52 8 -63h2c5 11 17 39 31 64l94 170h63l-20 -291h-52l14 165c2 23 6 53 8 65h-2c-5 -11 -18 -42 -35 -72l-91 -158h-43l-31 150c-6 29 -10 66 -12 80h-2c-1 -9 -6 -36 -14 -67l-43 -163h-48zM123 375l43 246h-83l7 45h217l-8 -45
h-80l-43 -246h-53z" />
    <glyph glyph-name="Omega" unicode="&#x2126;" horiz-adv-x="736" 
d="M18 0l12 66h136c-60 52 -100 128 -100 218c0 230 170 394 357 394c150 0 276 -109 276 -274c0 -146 -76 -266 -194 -338h144l-12 -66h-236l11 64c111 61 207 174 207 332c0 117 -80 217 -202 217c-162 0 -271 -154 -271 -325c0 -96 36 -169 103 -224l-11 -64h-220z" />
    <glyph glyph-name="uni2150" unicode="&#x2150;" horiz-adv-x="692" 
d="M18 0l528 666h68l-528 -666h-68zM126 342l54 272l-87 -24l-14 48l118 28h55l-64 -324h-62zM478 -14l-49 23l162 262h-158l10 53h230l-7 -35z" />
    <glyph glyph-name="uni2151" unicode="&#x2151;" horiz-adv-x="678" 
d="M18 0l528 666h68l-528 -666h-68zM126 342l54 272l-87 -24l-14 48l118 28h55l-64 -324h-62zM372 -9l-10 50c81 0 162 30 193 104c-21 -15 -54 -22 -81 -22c-60 0 -97 33 -97 86c0 73 66 121 139 121c88 0 116 -55 116 -113c0 -127 -89 -226 -260 -226zM496 171
c26 0 54 8 72 22c2 8 2 18 2 27c0 39 -25 62 -58 62c-41 0 -72 -33 -72 -68c0 -29 25 -43 56 -43z" />
    <glyph glyph-name="uni2152" unicode="&#x2152;" horiz-adv-x="1040" 
d="M18 0l528 666h68l-528 -666h-68zM126 342l54 272l-87 -24l-14 48l118 28h55l-64 -324h-62zM474 0l54 272l-87 -24l-14 48l118 28h55l-64 -324h-62zM806 -6c-88 0 -121 59 -121 127c0 95 55 209 178 209c88 0 122 -58 122 -125c0 -103 -57 -211 -179 -211zM812 44
c71 0 107 77 107 162c0 45 -21 74 -62 74c-75 0 -107 -81 -107 -160c0 -47 22 -76 62 -76z" />
    <glyph glyph-name="onethird" unicode="&#x2153;" horiz-adv-x="642" 
d="M18 0l528 666h68l-528 -666h-68zM126 342l54 272l-87 -24l-14 48l118 28h55l-64 -324h-62zM401 -6c-27 0 -52 5 -63 9l19 50c10 -4 28 -8 49 -8c58 0 103 19 103 59c0 32 -43 46 -102 44l8 43c66 4 114 25 114 58c0 19 -20 30 -48 30c-29 0 -53 -9 -71 -20l-25 40
c22 15 62 31 109 31c69 0 100 -29 100 -66c0 -48 -42 -75 -90 -87v-1c37 -6 72 -29 72 -68c0 -71 -63 -114 -175 -114z" />
    <glyph glyph-name="twothirds" unicode="&#x2154;" horiz-adv-x="720" 
d="M96 0l528 666h68l-528 -666h-68zM47 342l6 34c113 80 211 143 211 207c0 26 -24 38 -51 38c-32 0 -62 -15 -84 -32l-30 40c26 21 69 43 123 43c74 0 111 -32 111 -79c0 -74 -87 -139 -179 -202c8 1 28 2 43 2h116l-11 -51h-255zM479 -6c-27 0 -52 5 -63 9l19 50
c10 -4 28 -8 49 -8c58 0 103 19 103 59c0 32 -43 46 -102 44l8 43c66 4 114 25 114 58c0 19 -20 30 -48 30c-29 0 -53 -9 -71 -20l-25 40c22 15 62 31 109 31c69 0 100 -29 100 -66c0 -48 -42 -75 -90 -87v-1c37 -6 72 -29 72 -68c0 -71 -63 -114 -175 -114z" />
    <glyph glyph-name="uni2155" unicode="&#x2155;" horiz-adv-x="636" 
d="M18 0l528 666h68l-528 -666h-68zM126 342l54 272l-87 -24l-14 48l118 28h55l-64 -324h-62zM396 -6c-27 0 -45 3 -57 7l16 51c10 -4 28 -7 47 -7c61 0 105 22 105 66c0 34 -43 49 -92 49c-15 0 -29 -1 -37 -3l37 167h182l-9 -51h-129l-14 -64c71 -4 128 -35 128 -92
c0 -79 -65 -123 -177 -123z" />
    <glyph glyph-name="uni2156" unicode="&#x2156;" horiz-adv-x="714" 
d="M96 0l528 666h68l-528 -666h-68zM47 342l6 34c113 80 211 143 211 207c0 26 -24 38 -51 38c-32 0 -62 -15 -84 -32l-30 40c26 21 69 43 123 43c74 0 111 -32 111 -79c0 -74 -87 -139 -179 -202c8 1 28 2 43 2h116l-11 -51h-255zM474 -6c-27 0 -45 3 -57 7l16 51
c10 -4 28 -7 47 -7c61 0 105 22 105 66c0 34 -43 49 -92 49c-15 0 -29 -1 -37 -3l37 167h182l-9 -51h-129l-14 -64c71 -4 128 -35 128 -92c0 -79 -65 -123 -177 -123z" />
    <glyph glyph-name="uni2157" unicode="&#x2157;" horiz-adv-x="684" 
d="M66 0l528 666h68l-528 -666h-68zM113 336c-27 0 -52 5 -63 9l19 50c10 -4 28 -8 49 -8c58 0 103 19 103 59c0 32 -43 46 -102 44l8 43c66 4 114 25 114 58c0 19 -20 30 -48 30c-29 0 -53 -9 -71 -20l-25 40c22 15 62 31 109 31c69 0 100 -29 100 -66
c0 -48 -42 -75 -90 -87v-1c37 -6 72 -29 72 -68c0 -71 -63 -114 -175 -114zM444 -6c-27 0 -45 3 -57 7l16 51c10 -4 28 -7 47 -7c61 0 105 22 105 66c0 34 -43 49 -92 49c-15 0 -29 -1 -37 -3l37 167h182l-9 -51h-129l-14 -64c71 -4 128 -35 128 -92
c0 -79 -65 -123 -177 -123z" />
    <glyph glyph-name="uni2158" unicode="&#x2158;" horiz-adv-x="698" 
d="M80 0l528 666h68l-528 -666h-68zM196 342l13 68h-174l8 42l221 214h57l-41 -207h54l-10 -49h-53l-14 -68h-61zM115 457c8 1 23 2 41 2h63l24 123h-1zM458 -6c-27 0 -45 3 -57 7l16 51c10 -4 28 -7 47 -7c61 0 105 22 105 66c0 34 -43 49 -92 49c-15 0 -29 -1 -37 -3
l37 167h182l-9 -51h-129l-14 -64c71 -4 128 -35 128 -92c0 -79 -65 -123 -177 -123z" />
    <glyph glyph-name="uni2159" unicode="&#x2159;" horiz-adv-x="674" 
d="M18 0l528 666h68l-528 -666h-68zM126 342l54 272l-87 -24l-14 48l118 28h55l-64 -324h-62zM481 -6c-88 0 -118 55 -118 114c0 131 113 222 263 222l8 -49c-90 -1 -157 -32 -195 -103c19 15 52 23 83 23c60 0 96 -32 96 -85c0 -71 -57 -122 -137 -122zM483 42
c42 0 72 31 72 68c0 28 -24 43 -53 43c-30 0 -56 -8 -74 -22c-1 -11 -1 -15 -1 -27c0 -38 23 -62 56 -62z" />
    <glyph glyph-name="uni215A" unicode="&#x215a;" horiz-adv-x="716" 
d="M60 0l528 666h68l-528 -666h-68zM108 336c-27 0 -45 3 -57 7l16 51c10 -4 28 -7 47 -7c61 0 105 22 105 66c0 34 -43 49 -92 49c-15 0 -29 -1 -37 -3l37 167h182l-9 -51h-129l-14 -64c71 -4 128 -35 128 -92c0 -79 -65 -123 -177 -123zM523 -6c-88 0 -118 55 -118 114
c0 131 113 222 263 222l8 -49c-90 -1 -157 -32 -195 -103c19 15 52 23 83 23c60 0 96 -32 96 -85c0 -71 -57 -122 -137 -122zM525 42c42 0 72 31 72 68c0 28 -24 43 -53 43c-30 0 -56 -8 -74 -22c-1 -11 -1 -15 -1 -27c0 -38 23 -62 56 -62z" />
    <glyph glyph-name="oneeighth" unicode="&#x215b;" horiz-adv-x="670" 
d="M18 0l528 666h68l-528 -666h-68zM126 342l54 272l-87 -24l-14 48l118 28h55l-64 -324h-62zM469 -6c-74 0 -116 33 -116 76c0 47 36 77 89 99c-27 17 -45 39 -45 68c0 57 60 93 128 93c67 0 108 -27 108 -72c0 -40 -35 -68 -82 -88c33 -19 58 -41 58 -75
c0 -57 -50 -101 -140 -101zM474 41c37 0 70 19 70 46c0 22 -24 37 -56 54c-38 -16 -71 -32 -71 -63c0 -20 23 -37 57 -37zM503 197c35 15 67 30 67 54c0 18 -20 32 -50 32c-32 0 -61 -16 -61 -41c0 -19 21 -32 44 -45z" />
    <glyph glyph-name="threeeighths" unicode="&#x215c;" horiz-adv-x="718" 
d="M66 0l528 666h68l-528 -666h-68zM113 336c-27 0 -52 5 -63 9l19 50c10 -4 28 -8 49 -8c58 0 103 19 103 59c0 32 -43 46 -102 44l8 43c66 4 114 25 114 58c0 19 -20 30 -48 30c-29 0 -53 -9 -71 -20l-25 40c22 15 62 31 109 31c69 0 100 -29 100 -66
c0 -48 -42 -75 -90 -87v-1c37 -6 72 -29 72 -68c0 -71 -63 -114 -175 -114zM517 -6c-74 0 -116 33 -116 76c0 47 36 77 89 99c-27 17 -45 39 -45 68c0 57 60 93 128 93c67 0 108 -27 108 -72c0 -40 -35 -68 -82 -88c33 -19 58 -41 58 -75c0 -57 -50 -101 -140 -101zM522 41
c37 0 70 19 70 46c0 22 -24 37 -56 54c-38 -16 -71 -32 -71 -63c0 -20 23 -37 57 -37zM551 197c35 15 67 30 67 54c0 18 -20 32 -50 32c-32 0 -61 -16 -61 -41c0 -19 21 -32 44 -45z" />
    <glyph glyph-name="fiveeighths" unicode="&#x215d;" horiz-adv-x="712" 
d="M60 0l528 666h68l-528 -666h-68zM108 336c-27 0 -45 3 -57 7l16 51c10 -4 28 -7 47 -7c61 0 105 22 105 66c0 34 -43 49 -92 49c-15 0 -29 -1 -37 -3l37 167h182l-9 -51h-129l-14 -64c71 -4 128 -35 128 -92c0 -79 -65 -123 -177 -123zM511 -6c-74 0 -116 33 -116 76
c0 47 36 77 89 99c-27 17 -45 39 -45 68c0 57 60 93 128 93c67 0 108 -27 108 -72c0 -40 -35 -68 -82 -88c33 -19 58 -41 58 -75c0 -57 -50 -101 -140 -101zM516 41c37 0 70 19 70 46c0 22 -24 37 -56 54c-38 -16 -71 -32 -71 -63c0 -20 23 -37 57 -37zM545 197
c35 15 67 30 67 54c0 18 -20 32 -50 32c-32 0 -61 -16 -61 -41c0 -19 21 -32 44 -45z" />
    <glyph glyph-name="seveneighths" unicode="&#x215e;" horiz-adv-x="678" 
d="M26 0l528 666h68l-528 -666h-68zM130 328l-49 23l162 262h-158l10 53h230l-7 -35zM477 -6c-74 0 -116 33 -116 76c0 47 36 77 89 99c-27 17 -45 39 -45 68c0 57 60 93 128 93c67 0 108 -27 108 -72c0 -40 -35 -68 -82 -88c33 -19 58 -41 58 -75c0 -57 -50 -101 -140 -101
zM482 41c37 0 70 19 70 46c0 22 -24 37 -56 54c-38 -16 -71 -32 -71 -63c0 -20 23 -37 57 -37zM511 197c35 15 67 30 67 54c0 18 -20 32 -50 32c-32 0 -61 -16 -61 -41c0 -19 21 -32 44 -45z" />
    <glyph glyph-name="uni215F" unicode="&#x215f;" horiz-adv-x="350" 
d="M18 0l528 666h68l-528 -666h-68zM126 342l54 272l-87 -24l-14 48l118 28h55l-64 -324h-62z" />
    <glyph glyph-name="uni2189" unicode="&#x2189;" horiz-adv-x="784" 
d="M160 0l528 666h68l-528 -666h-68zM214 336c-88 0 -121 59 -121 127c0 95 55 209 178 209c88 0 122 -58 122 -125c0 -103 -57 -211 -179 -211zM220 386c71 0 107 77 107 162c0 45 -21 74 -62 74c-75 0 -107 -81 -107 -160c0 -47 22 -76 62 -76zM543 -6c-27 0 -52 5 -63 9
l19 50c10 -4 28 -8 49 -8c58 0 103 19 103 59c0 32 -43 46 -102 44l8 43c66 4 114 25 114 58c0 19 -20 30 -48 30c-29 0 -53 -9 -71 -20l-25 40c22 15 62 31 109 31c69 0 100 -29 100 -66c0 -48 -42 -75 -90 -87v-1c37 -6 72 -29 72 -68c0 -71 -63 -114 -175 -114z" />
    <glyph glyph-name="partialdiff" unicode="&#x2202;" horiz-adv-x="600" 
d="M247 -12c-104 0 -188 75 -188 180c0 133 119 251 250 251c71 0 156 -19 190 -47c4 21 6 40 6 58c0 149 -112 211 -246 211l32 61h7c170 0 282 -88 282 -267s-126 -447 -333 -447zM256 51c114 0 195 136 230 260c-33 27 -112 46 -177 46c-95 0 -173 -82 -173 -179
c0 -75 46 -127 120 -127z" />
    <glyph glyph-name="Delta" unicode="&#x2206;" horiz-adv-x="605" 
d="M87 66h366l-83 393c-9 44 -16 94 -19 119h-2c-12 -27 -32 -76 -55 -119zM-8 0l9 52l328 614h73l131 -614l-9 -52h-532z" />
    <glyph glyph-name="product" unicode="&#x220f;" horiz-adv-x="673" 
d="M17 -224l152 863h-109l10 61h698l-10 -61h-109l-152 -863h-75l152 863h-330l-152 -863h-75z" />
    <glyph glyph-name="summation" unicode="&#x2211;" horiz-adv-x="480" 
d="M-100 -147l9 56l354 431l-194 381l9 56h482l-11 -66h-399l191 -368l-347 -424h430l-11 -66h-513z" />
    <glyph glyph-name="minus" unicode="&#x2212;" horiz-adv-x="550" 
d="M90 232l11 63h369l-11 -63h-369z" />
    <glyph glyph-name="uni2219" unicode="&#x2219;" horiz-adv-x="563" 
d="M281 139c-68 0 -122 55 -122 124s54 125 122 125c69 0 123 -56 123 -125s-54 -124 -123 -124z" />
    <glyph glyph-name="radical" unicode="&#x221a;" horiz-adv-x="516" 
d="M163 0l-100 480h72l74 -392h1l304 632h77l-359 -720h-69z" />
    <glyph glyph-name="infinity" unicode="&#x221e;" horiz-adv-x="820" 
d="M154 109c-87 0 -147 49 -147 123c0 99 101 181 205 181c66 0 124 -35 209 -112c115 79 188 112 248 112c84 0 146 -49 146 -122c0 -99 -97 -182 -206 -182c-56 0 -117 29 -207 111c-130 -87 -185 -111 -248 -111zM171 168c36 0 91 24 190 91c-77 69 -120 94 -162 94
c-62 0 -123 -49 -123 -106c0 -49 42 -79 95 -79zM624 168c63 0 123 49 123 107c0 46 -38 78 -96 78c-40 0 -95 -27 -189 -91c82 -72 125 -94 162 -94z" />
    <glyph glyph-name="integral" unicode="&#x222b;" horiz-adv-x="275" 
d="M-139 -235c-20 0 -57 11 -75 18l33 61c15 -6 44 -13 62 -13c80 0 117 67 131 145l101 575c18 104 94 189 218 189c27 0 56 -10 74 -19l-37 -60c-13 7 -37 13 -57 13c-75 0 -117 -68 -130 -143l-102 -577c-18 -104 -92 -189 -218 -189z" />
    <glyph glyph-name="approxequal" unicode="&#x2248;" horiz-adv-x="551" 
d="M51 138l-20 50c40 31 92 55 141 55c91 0 110 -58 188 -58c33 0 77 17 110 41l18 -52c-42 -35 -98 -54 -146 -54c-90 0 -114 58 -188 58c-36 0 -71 -16 -103 -40zM78 291l-20 50c35 28 88 55 141 55c91 0 110 -58 188 -58c33 0 77 17 110 41l18 -52
c-43 -35 -98 -54 -146 -54c-90 0 -114 58 -188 58c-34 0 -69 -15 -103 -40z" />
    <glyph glyph-name="notequal" unicode="&#x2260;" horiz-adv-x="539" 
d="M104 -12l-45 27l98 126h-156l10 57h191l84 107h-256l10 57h291l103 131l46 -29l-83 -102h144l-10 -57h-179l-84 -107h244l-10 -57h-279z" />
    <glyph glyph-name="lessequal" unicode="&#x2264;" horiz-adv-x="492" 
d="M412 19l-397 205l9 51l470 205l-12 -67l-385 -164l327 -164zM-44 -114l11 64h433l-11 -64h-433z" />
    <glyph glyph-name="greaterequal" unicode="&#x2265;" horiz-adv-x="492" 
d="M-3 19l12 66l385 164l-327 164l12 67l396 -205l-9 -51zM-26 -114l11 64h433l-11 -64h-433z" />
    <glyph glyph-name="dotmath" unicode="&#x22c5;" horiz-adv-x="563" 
d="M283 206c-32 0 -58 26 -58 57s26 57 58 57c31 0 57 -26 57 -57s-26 -57 -57 -57z" />
    <glyph glyph-name="lozenge" unicode="&#x25ca;" horiz-adv-x="521" 
d="M199 -5l-198 328l313 349h40l198 -330l-311 -347h-42zM236 73l232 265l-150 251l-233 -264z" />
    <glyph glyph-name="uniFB00" unicode="&#xfb00;" horiz-adv-x="611" 
d="M-42 -233c-38 0 -64 9 -86 19l24 60c18 -8 40 -15 67 -15c62 0 85 60 96 121l86 470h-96l10 58h97l10 56c23 129 88 188 205 188c69 0 111 -22 139 -43c31 33 73 51 129 51s97 -19 116 -31l-32 -60c-15 9 -49 25 -90 25c-72 0 -95 -49 -107 -116l-13 -70h118l-10 -58
h-119l-85 -469c-21 -116 -66 -178 -168 -178c-38 0 -64 9 -85 19l24 60c18 -8 39 -15 66 -15c59 0 80 58 91 116l86 467h-214l-86 -472c-22 -121 -68 -183 -173 -183zM228 480h213l15 80c4 23 10 45 18 64c-22 18 -54 34 -109 34c-80 0 -112 -37 -129 -132z" />
    <glyph glyph-name="fi" unicode="&#xfb01;" horiz-adv-x="539" 
d="M-43 -230c-38 0 -64 9 -86 19l24 60c18 -8 40 -15 67 -15c62 0 85 60 96 121l86 467h-95l10 58h95l15 80c22 120 94 172 205 172c74 0 116 -23 139 -38l-33 -60c-18 11 -53 32 -112 32c-79 0 -114 -33 -129 -116l-13 -70h275l-87 -480h-72l76 422h-203l-85 -469
c-22 -121 -68 -183 -173 -183z" />
    <glyph glyph-name="fl" unicode="&#xfb02;" horiz-adv-x="540" 
d="M-43 -230c-38 0 -64 9 -86 19l24 60c18 -8 40 -15 67 -15c62 0 85 60 96 121l86 467h-95l10 58h95l15 80c22 120 94 172 205 172c86 0 135 -15 167 -28l-127 -704h-72l118 655c-23 6 -52 11 -92 11c-79 0 -114 -33 -129 -116l-13 -70h118l-10 -58h-119l-85 -469
c-22 -121 -68 -183 -173 -183z" />
    <glyph glyph-name="uniFB03" unicode="&#xfb03;" horiz-adv-x="826" 
d="M-42 -233c-38 0 -64 9 -86 19l24 60c18 -8 40 -15 67 -15c62 0 85 60 96 121l86 470h-96l10 58h97l10 56c23 129 88 188 205 188c71 0 113 -23 141 -45c36 37 86 53 149 53c74 0 116 -23 139 -38l-33 -60c-18 11 -53 32 -112 32c-79 0 -114 -33 -129 -116l-13 -70h275
l-87 -480h-72l76 422h-203l-85 -469c-22 -121 -68 -183 -173 -183c-38 0 -64 9 -86 19l24 60c18 -8 40 -15 67 -15c62 0 85 60 96 121l86 467h-214l-86 -472c-22 -121 -68 -183 -173 -183zM228 480h214l14 80c4 24 11 45 19 63c-22 18 -55 35 -110 35
c-80 0 -112 -37 -129 -132z" />
    <glyph glyph-name="uniFB04" unicode="&#xfb04;" horiz-adv-x="827" 
d="M-42 -233c-38 0 -64 9 -86 19l24 60c18 -8 40 -15 67 -15c62 0 85 60 96 121l86 470h-96l10 58h97l10 56c23 129 88 188 205 188c71 0 113 -23 141 -45c36 37 86 53 149 53c86 0 135 -15 167 -28l-127 -704h-72l118 655c-23 6 -52 11 -92 11c-79 0 -114 -33 -129 -116
l-13 -70h118l-10 -58h-119l-85 -469c-21 -116 -66 -178 -168 -178c-38 0 -64 9 -85 19l24 60c18 -8 39 -15 66 -15c59 0 80 58 91 116l86 467h-214l-86 -472c-22 -121 -68 -183 -173 -183zM228 480h213l15 80c4 24 11 45 19 63c-22 18 -55 35 -110 35
c-80 0 -112 -37 -129 -132z" />
    <glyph glyph-name="slash.alt001" horiz-adv-x="399" 
d="M-84 -113l490 833h72l-489 -833h-73z" />
    <glyph glyph-name="i.latn_TRK" horiz-adv-x="234" 
d="M183 572c-28 0 -53 24 -53 53s25 53 53 53c29 0 53 -24 53 -53s-24 -53 -53 -53zM37 0l87 480h72l-87 -480h-72z" />
    <glyph glyph-name="Ldot.latn_CAT" horiz-adv-x="458" 
d="M49 0l119 666h76l-106 -600h256l-11 -66h-334zM376 294c-31 0 -55 26 -55 57c0 32 24 58 55 58s56 -25 56 -57s-25 -58 -56 -58z" />
    <glyph glyph-name="ldot.latn_CAT" horiz-adv-x="327" 
d="M37 0l130 720h72l-130 -720h-72zM298 283c-31 0 -55 26 -55 57c0 32 24 58 55 58s56 -25 56 -57s-25 -58 -56 -58z" />
    <glyph glyph-name="parenleft.numr" horiz-adv-x="200" 
d="M143 288c-23 27 -64 87 -64 163c0 147 104 235 148 269h63c-42 -34 -147 -124 -147 -269c0 -76 36 -136 58 -163h-58z" />
    <glyph glyph-name="parenright.numr" horiz-adv-x="200" 
d="M11 288c42 34 147 124 147 269c0 76 -36 136 -58 163h58c23 -27 64 -87 64 -163c0 -147 -104 -235 -148 -269h-63z" />
    <glyph glyph-name="plus.numr" horiz-adv-x="330" 
d="M168 396l18 87h-100l10 47h99l17 85h50l-17 -85h99l-10 -47h-99l-18 -87h-49z" />
    <glyph glyph-name="zero.numr" horiz-adv-x="386" 
d="M214 336c-88 0 -121 59 -121 127c0 95 55 209 178 209c88 0 122 -58 122 -125c0 -103 -57 -211 -179 -211zM220 386c71 0 107 77 107 162c0 45 -21 74 -62 74c-75 0 -107 -81 -107 -160c0 -47 22 -76 62 -76z" />
    <glyph glyph-name="one.numr" horiz-adv-x="244" 
d="M126 342l54 272l-87 -24l-14 48l118 28h55l-64 -324h-62z" />
    <glyph glyph-name="two.numr" horiz-adv-x="322" 
d="M47 342l6 34c113 80 211 143 211 207c0 26 -24 38 -51 38c-32 0 -62 -15 -84 -32l-30 40c26 21 69 43 123 43c74 0 111 -32 111 -79c0 -74 -87 -139 -179 -202c8 1 28 2 43 2h116l-11 -51h-255z" />
    <glyph glyph-name="three.numr" horiz-adv-x="292" 
d="M113 336c-27 0 -52 5 -63 9l19 50c10 -4 28 -8 49 -8c58 0 103 19 103 59c0 32 -43 46 -102 44l8 43c66 4 114 25 114 58c0 19 -20 30 -48 30c-29 0 -53 -9 -71 -20l-25 40c22 15 62 31 109 31c69 0 100 -29 100 -66c0 -48 -42 -75 -90 -87v-1c37 -6 72 -29 72 -68
c0 -71 -63 -114 -175 -114z" />
    <glyph glyph-name="four.numr" horiz-adv-x="306" 
d="M196 342l13 68h-174l8 42l221 214h57l-41 -207h54l-10 -49h-53l-14 -68h-61zM115 457c8 1 23 2 41 2h63l24 123h-1z" />
    </font>
</defs>
</svg>
