<?xml version="1.0" standalone="no"?>
<!DOCTYPE svg PUBLIC "-//W3C//DTD SVG 1.1//EN" "http://www.w3.org/Graphics/SVG/1.1/DTD/svg11.dtd" >
<svg xmlns="http://www.w3.org/2000/svg" xmlns:xlink="http://www.w3.org/1999/xlink" version="1.1">
<metadata>
Created by FontForge 20170910 at Wed Jun  5 18:12:36 2002
 By Jimmy Wärting
Copyright 1985, 1987, 1990, 2002 Adobe Systems Incorporated. All Rights Reserved. Melior is a trademark of Heidelberger Druckmaschinen AG, exclusively licensed through Linotype Library GmbH, and may be registered in certain jurisdictions.
</metadata>
<defs>
<font id="MeliorLTStd-Bold" horiz-adv-x="556" >
  <font-face 
    font-family="Melior LT Std"
    font-weight="700"
    font-stretch="normal"
    units-per-em="1000"
    panose-1="2 4 7 3 6 5 6 4 8 4"
    ascent="745"
    descent="-255"
    x-height="472"
    cap-height="692"
    bbox="-132 -252 1000 944"
    underline-thickness="50"
    underline-position="-125"
    stemh="46"
    stemv="134"
    unicode-range="U+0020-FB02"
  />
<missing-glyph horiz-adv-x="500" 
d="M0 0v700h500v-700h-500zM250 395l170 255h-340zM280 350l170 -255v510zM80 50h340l-170 255zM50 605v-510l170 255z" />
    <glyph glyph-name="fi" unicode="fi" horiz-adv-x="611" 
d="M227 594v-124h295v-350c0 -60 -10 -83 67 -83v-39c-42 1 -88 1 -134 2c-46 -1 -92 -1 -125 -2v39c68 8 58 17 58 83v249c3 65 -59 55 -103 55h-58v-304c0 -53 -10 -83 58 -83v-39c-33 1 -79 1 -125 2c-46 -1 -92 -1 -138 -2v39c82 0 71 23 71 83v304h-71v46h71
c0 159 25 275 204 275c40 0 83 -10 107 -57c12 19 36 27 52 27c49 0 68 -29 68 -77c0 -43 -18 -73 -64 -73c-52 1 -62 25 -64 65h-2c-12 -20 -66 -14 -65 1l-8 47c-4 23 -20 29 -42 29c-57 0 -52 -76 -52 -113z" />
    <glyph glyph-name="fl" unicode="fl" horiz-adv-x="611" 
d="M387 695l125 50h9v-626c0 -57 -11 -82 67 -82v-39c-42 1 -88 1 -134 2c-46 -1 -92 -1 -130 -2v39c73 0 63 26 63 82v536l-78 -36l-10 6c0 21 7 77 -33 77c-51 0 -44 -72 -44 -106v-126h95v-46h-95v-305c0 -54 -10 -82 60 -82v-39c-35 1 -81 1 -127 2
c-46 -1 -92 -1 -138 -2v39c82 0 71 23 71 82v305h-71v46h71c0 143 18 275 190 275c41 0 88 -12 109 -50z" />
    <glyph glyph-name=".notdef" horiz-adv-x="500" 
d="M0 0v700h500v-700h-500zM250 395l170 255h-340zM280 350l170 -255v510zM80 50h340l-170 255zM50 605v-510l170 255z" />
    <glyph glyph-name="space" unicode=" " horiz-adv-x="278" 
 />
    <glyph glyph-name="exclam" unicode="!" horiz-adv-x="333" 
d="M234 583l-33 -317c-3 -26 -10 -42 -35 -52c-25 10 -32 26 -35 52l-33 317c-5 47 -11 123 68 122c79 1 73 -75 68 -122zM166 -10c-44 0 -70 28 -70 81c0 54 26 82 70 84c46 -2 71 -30 71 -84c0 -53 -25 -81 -71 -81z" />
    <glyph glyph-name="quotedbl" unicode="&#x22;" horiz-adv-x="402" 
d="M113 371h-46l-44 239c-7 36 27 80 67 80s74 -44 67 -80zM335 371h-46l-44 239c-7 36 27 80 67 80s74 -44 67 -80z" />
    <glyph glyph-name="numbersign" unicode="#" 
d="M498 289v-75h-105l-32 -214h-75l32 214h-108l-32 -214h-75l32 214h-103v75h115l16 106h-103v75h114l30 200h75l-30 -200h107l29 200h75l-29 -200h93v-75h-104l-16 -106h94zM345 395h-107l-16 -106h107z" />
    <glyph glyph-name="dollar" unicode="$" 
d="M243 415v195c-44 -14 -72 -47 -72 -102c0 -50 31 -76 72 -93zM286 262v-230c60 11 102 54 102 118c0 69 -40 96 -102 112zM286 700v-42c69 0 140 -10 206 -31v-146h-69c-3 87 -38 144 -137 136v-216c121 -33 240 -48 240 -202c0 -144 -115 -198 -240 -206v-106h-43v104
c-63 0 -148 12 -206 32v164h69c0 -96 40 -154 137 -157v245c-104 29 -206 59 -206 193c0 121 99 174 206 187v45h43z" />
    <glyph glyph-name="percent" unicode="%" horiz-adv-x="889" 
d="M211 330c-119 0 -178 71 -178 180s59 180 178 180s178 -71 178 -180s-59 -180 -178 -180zM211 362c76 0 75 95 75 146c0 52 0 148 -75 148s-75 -96 -75 -148c0 -51 -1 -146 75 -146zM675 -10c-119 0 -178 71 -178 180s59 180 178 180s178 -71 178 -180
s-59 -180 -178 -180zM675 21c76 0 75 95 75 146c0 52 0 148 -75 148s-75 -96 -75 -148c0 -51 -1 -146 75 -146zM280 -69h-53l377 814h53z" />
    <glyph glyph-name="ampersand" unicode="&#x26;" horiz-adv-x="667" 
d="M369 101l-166 190l-32 -29c-21 -19 -23 -39 -23 -68c0 -63 59 -138 125 -138c41 0 65 20 96 45zM278 395c44 30 66 77 66 129c0 40 -16 83 -63 83s-64 -35 -64 -77c0 -50 24 -101 61 -135zM647 38v-40c-35 1 -70 1 -105 2c-30 -1 -60 -1 -90 -2l-58 73
c-60 -55 -130 -81 -211 -81c-86 0 -155 61 -155 148c0 96 88 143 149 186l-12 14c-34 41 -62 99 -62 152c0 97 80 153 171 153c79 0 145 -33 145 -120c0 -76 -57 -121 -117 -156l152 -169c19 29 42 60 41 98c-1 20 -19 26 -47 26h-23v41c37 -1 74 -1 111 -2c37 1 74 1 111 2
v-41c-66 3 -85 -23 -117 -76l-50 -78c101 -106 77 -114 167 -130z" />
    <glyph glyph-name="quoteright" unicode="&#x2019;" horiz-adv-x="278" 
d="M90 401l-21 31c47 28 83 62 91 117c-53 -24 -91 30 -91 69c0 49 18 87 73 87c56 0 77 -53 77 -101c0 -89 -50 -163 -129 -203z" />
    <glyph glyph-name="parenleft" unicode="(" horiz-adv-x="333" 
d="M302 745v-36c-130 -2 -124 -276 -124 -413c0 -138 -6 -412 124 -414v-36c-72 23 -199 30 -231 203c-15 80 -13 165 -13 247c0 81 -2 166 13 246c24 129 106 187 231 203z" />
    <glyph glyph-name="parenright" unicode=")" horiz-adv-x="333" 
d="M27 709v36c125 -16 207 -74 231 -203c15 -80 13 -165 13 -246c0 -82 2 -167 -13 -247c-32 -173 -159 -180 -231 -203v36c130 2 124 276 124 414c0 137 6 411 -124 413z" />
    <glyph glyph-name="asterisk" unicode="*" 
d="M432 410l-84 -68l-70 140l-70 -140l-84 68l122 92l-152 26l46 96l120 -89l-36 155h108l-36 -155l120 89l46 -96l-152 -26z" />
    <glyph glyph-name="plus" unicode="+" horiz-adv-x="606" 
d="M260 298v207h86v-207h209v-86h-209v-212h-86v212h-209v86h209z" />
    <glyph glyph-name="comma" unicode="," horiz-adv-x="278" 
d="M93 -148l-21 31c47 28 83 62 91 117c-53 -24 -91 30 -91 69c0 49 18 87 73 87c56 0 77 -53 77 -101c0 -89 -50 -163 -129 -203z" />
    <glyph glyph-name="hyphen" unicode="-" horiz-adv-x="333" 
d="M291 174h-248v120h248v-120z" />
    <glyph glyph-name="period" unicode="." horiz-adv-x="278" 
d="M140 -10c-44 0 -70 28 -70 81c0 54 26 82 70 84c46 -2 71 -30 71 -84c0 -53 -25 -81 -71 -81z" />
    <glyph glyph-name="slash" unicode="/" horiz-adv-x="278" 
d="M4 -10l258 755h76l-258 -755h-76z" />
    <glyph glyph-name="zero" unicode="0" 
d="M275 -10c-219 0 -237 165 -237 322s18 323 237 323s237 -165 237 -322s-18 -323 -237 -323zM275 595c-105 0 -88 -190 -88 -282c0 -83 -17 -282 88 -282s88 199 89 283c-1 91 16 281 -89 281z" />
    <glyph glyph-name="one" unicode="1" 
d="M260 625h107v-507c0 -64 9 -79 112 -79v-41c-63 1 -126 1 -189 2c-63 -1 -127 -1 -190 -2v41c80 10 133 -7 133 79v421c-51 -35 -101 -67 -174 -94v63c75 23 157 65 201 117z" />
    <glyph glyph-name="two" unicode="2" 
d="M49 -2v111c100 80 283 240 283 380c0 53 -14 111 -73 108c-72 0 -71 -63 -71 -118c0 -37 -22 -37 -36 -37h-58c-34 0 -29 24 -29 40c0 84 63 153 207 153c99 0 208 -21 208 -143c0 -91 -32 -128 -102 -183l-242 -191h242c52 2 62 22 68 94h41v-214c-76 1 -151 1 -227 2
c-70 -1 -141 -1 -211 -2z" />
    <glyph glyph-name="three" unicode="3" 
d="M172 357l64 -3c66 0 95 44 95 135c0 65 -15 107 -78 107c-69 0 -75 -61 -73 -104c1 -24 -24 -37 -38 -36h-52c-20 0 -32 14 -30 34c8 98 68 145 188 145c170 0 230 -67 230 -159c0 -58 -27 -119 -117 -139v-4c95 -24 127 -61 127 -161c0 -136 -96 -182 -219 -182
c-108 0 -218 18 -219 148c0 18 2 40 34 40h50c30 0 34 -8 37 -37c5 -21 -3 -113 80 -113c81 0 87 84 87 153s-20 131 -101 131l-65 -6v51z" />
    <glyph glyph-name="four" unicode="4" 
d="M516 254v-91h-91c0 -122 -13 -124 91 -124v-41c-54 1 -108 1 -162 2c-55 -1 -109 -1 -164 -2v41c71 4 101 -1 101 53v71h-267v99c84 122 171 241 255 363h146v-371h91zM291 254v303c-63 -103 -135 -205 -205 -303h205z" />
    <glyph glyph-name="five" unicode="5" 
d="M96 625h365c5 0 7 -5 5 -11l-37 -105h-276l-6 -151c40 40 85 57 141 57c143 0 202 -77 202 -213c0 -152 -95 -212 -237 -212c-91 0 -215 42 -197 158c3 18 9 28 27 28h65c17 2 30 -12 28 -28c2 -46 -2 -116 80 -116c87 0 82 113 82 173c0 68 -4 156 -94 156
c-46 0 -66 -17 -83 -52c-6 -12 -15 -17 -25 -15h-27c-16 1 -19 1 -18 22c9 102 9 200 5 309z" />
    <glyph glyph-name="six" unicode="6" 
d="M457 470h-71c-16 0 -20 16 -22 26c-10 55 -6 98 -78 98c-95 1 -83 -122 -86 -184v-43c44 26 71 34 117 34c124 0 192 -56 192 -182c0 -153 -72 -229 -228 -229c-169 0 -230 82 -230 295c0 171 5 350 229 350c164 -1 206 -61 201 -137c-1 -13 -6 -27 -24 -28zM276 359
c-73 0 -76 -82 -76 -153c0 -42 -8 -177 84 -177c85 0 77 118 77 174c0 64 3 156 -85 156z" />
    <glyph glyph-name="seven" unicode="7" 
d="M79 625h428v-84c-88 -175 -180 -349 -241 -543c-25 1 -49 1 -74 2c-22 -1 -44 -1 -66 -2c-14 -1 -13 14 -8 24l150 235c56 86 115 170 171 257h-267c-40 0 -54 -42 -52 -100h-41v211z" />
    <glyph glyph-name="eight" unicode="8" 
d="M196 174c0 -58 3 -144 82 -144s82 86 82 144c0 65 0 145 -82 145s-82 -80 -82 -145zM205 477c0 -50 2 -118 73 -118s73 68 73 118c0 53 -7 120 -73 120s-73 -67 -73 -120zM47 175c0 82 41 159 128 166v5c-70 13 -107 70 -107 137c0 83 36 152 210 152s210 -69 210 -152
c0 -67 -37 -124 -107 -134v-3c87 -12 128 -89 128 -171c0 -91 -45 -185 -231 -185s-231 94 -231 185z" />
    <glyph glyph-name="nine" unicode="9" 
d="M272 595c-86 0 -78 -114 -78 -173c0 -74 12 -160 76 -158c82 2 85 83 85 129c0 62 10 202 -83 202zM281 635c198 0 224 -137 224 -310c-6 -196 -14 -335 -242 -335c-91 0 -189 24 -190 128c0 21 0 36 35 36h50c28 0 35 -16 35 -31c2 -59 19 -101 88 -93
c96 11 68 162 71 226c-45 -30 -87 -34 -127 -34c-127 0 -179 76 -179 184c0 158 78 229 235 229z" />
    <glyph glyph-name="colon" unicode=":" horiz-adv-x="278" 
d="M138 315c-44 0 -70 28 -70 81c0 54 26 82 70 84c46 -2 71 -30 71 -84c0 -53 -25 -81 -71 -81zM138 -10c-44 0 -70 28 -70 81c0 54 26 82 70 84c46 -2 71 -30 71 -84c0 -53 -25 -81 -71 -81z" />
    <glyph glyph-name="semicolon" unicode=";" horiz-adv-x="278" 
d="M102 -148l-21 31c47 28 83 62 91 117c-53 -24 -91 30 -91 69c0 49 18 87 73 87c56 0 77 -53 77 -101c0 -89 -50 -163 -129 -203zM155 316c-51 0 -69 37 -69 84c0 45 18 80 69 80c47 0 67 -35 67 -80c0 -47 -16 -84 -67 -84z" />
    <glyph glyph-name="less" unicode="&#x3c;" horiz-adv-x="606" 
d="M160 255l398 -183v-84l-509 230v74l509 230v-84z" />
    <glyph glyph-name="equal" unicode="=" horiz-adv-x="606" 
d="M555 396v-86h-504v86h504zM555 200v-86h-504v86h504z" />
    <glyph glyph-name="greater" unicode="&#x3e;" horiz-adv-x="606" 
d="M48 72l398 183l-398 183v84l509 -230v-74l-509 -230v84z" />
    <glyph glyph-name="question" unicode="?" horiz-adv-x="444" 
d="M116 522h-47c-35 0 -35 16 -35 30c-12 108 77 153 178 153c157 0 199 -64 199 -141c0 -89 -65 -141 -151 -142l-16 -174c-1 -14 -20 -28 -34 -36c-16 10 -35 19 -36 33l-19 196c98 -13 123 30 123 122c0 44 -5 101 -62 101c-56 0 -68 -42 -66 -89c-1 -22 1 -53 -34 -53z
M210 -10c-44 0 -70 28 -70 81c0 54 26 82 70 84c46 -2 71 -30 71 -84c0 -53 -25 -81 -71 -81z" />
    <glyph glyph-name="at" unicode="@" horiz-adv-x="747" 
d="M313 180c44 0 79 60 94 94c18 40 33 100 33 143c0 30 -12 71 -48 71c-79 0 -130 -165 -130 -228c0 -33 8 -80 51 -80zM461 449l15 62h97l-76 -283c-6 -22 -7 -50 18 -50c33 0 74 47 91 71c33 47 56 110 56 168c0 112 -94 229 -264 229c-174 0 -307 -123 -307 -299
c0 -185 142 -299 319 -299c96 0 181 54 234 133h66c-59 -115 -181 -191 -311 -191c-201 0 -367 143 -367 350c0 204 153 365 360 365c191 0 323 -137 323 -286c0 -70 -22 -139 -70 -191c-38 -38 -104 -84 -158 -84c-49 0 -70 42 -74 84c-34 -46 -62 -78 -119 -78
c-85 0 -130 61 -130 144c0 111 98 225 211 225c46 0 77 -27 84 -70h2z" />
    <glyph glyph-name="A" unicode="A" horiz-adv-x="778" 
d="M453 279h-203l-47 -155c-7 -25 -9 -33 -10 -43c-2 -37 59 -41 87 -42v-41c-46 1 -92 1 -138 2c-42 -1 -83 -1 -125 -2v41c53 1 71 14 83 25c19 18 46 81 75 161c57 157 119 307 173 467c18 -1 36 -2 54 -2s35 1 53 2l187 -528c26 -71 35 -125 116 -125v-41
c-53 1 -110 1 -167 2c-57 -1 -114 -1 -164 -2v41c23 2 84 3 88 36c2 15 -8 40 -12 53zM266 325h170l-86 242z" />
    <glyph glyph-name="B" unicode="B" horiz-adv-x="667" 
d="M256 343v-298c137 -7 191 14 191 158c0 106 -46 140 -150 140h-41zM256 646v-259h48c64 0 132 27 130 134c0 84 -35 130 -121 130c-17 0 -35 -1 -57 -5zM22 -2v41c84 -1 88 21 88 81v450c0 64 -6 86 -88 81v41c62 -1 125 -1 187 -2c62 1 124 1 186 2
c108 0 188 -26 188 -153c0 -114 -79 -155 -180 -166v-7c155 -4 201 -64 201 -172c0 -155 -114 -198 -253 -196c-56 1 -112 1 -168 2c-54 -1 -107 -1 -161 -2z" />
    <glyph glyph-name="C" unicode="C" horiz-adv-x="667" 
d="M635 204v-181c-89 -21 -178 -33 -266 -33c-221 0 -336 116 -336 336c0 251 95 379 357 379c86 0 161 -13 245 -30v-171h-71c-19 125 -32 158 -174 158c-181 0 -197 -199 -197 -336c0 -140 37 -294 205 -294c125 0 157 57 162 172h75z" />
    <glyph glyph-name="D" unicode="D" horiz-adv-x="722" 
d="M242 645v-600c17 -2 33 -3 48 -3c197 0 232 130 232 303c0 147 -18 292 -191 305c-25 1 -55 0 -89 -5zM96 120v450c-2 56 14 81 -79 81v41c38 -1 95 -1 152 -2c79 1 157 1 236 2c220 0 277 -129 277 -333c0 -230 -62 -361 -305 -361c-69 1 -139 1 -208 2
c-57 -1 -114 -1 -152 -2v41c93 0 77 25 79 81z" />
    <glyph glyph-name="E" unicode="E" horiz-adv-x="611" 
d="M104 120v449c-2 59 14 82 -83 82v41c42 -1 99 -2 156 -2c130 0 261 1 391 2v-164h-73c-12 106 -12 118 -147 118h-98v-256h61c60 0 72 40 75 96h55c-1 -39 -1 -78 -2 -117c1 -40 1 -79 2 -118h-55c-5 54 -13 94 -75 97h-61v-304h111c119 0 122 33 134 146h73v-192
c-130 1 -261 2 -391 2c-57 0 -114 -1 -156 -2v41c97 0 81 23 83 81z" />
    <glyph glyph-name="F" unicode="F" horiz-adv-x="611" 
d="M356 39v-41c-54 1 -111 1 -168 2c-57 -1 -114 -1 -161 -2v41c102 0 86 20 88 81v449c-2 59 14 82 -83 82v41c42 -1 99 -2 156 -2c130 0 261 1 391 2v-164h-73c-12 118 -12 120 -147 118h-98v-256h61c60 0 72 40 75 96h55c-1 -39 -1 -78 -2 -117c1 -40 1 -79 2 -118h-55
c-5 54 -13 94 -75 97h-61v-228c0 -68 -8 -81 95 -81z" />
    <glyph glyph-name="G" unicode="G" horiz-adv-x="778" 
d="M412 274v41c79 -1 136 -1 193 -2c57 1 114 1 146 2v-41c-87 4 -73 -50 -73 -81v-160c-71 2 -136 -26 -203 -37c-31 -5 -61 -6 -93 -6c-229 0 -337 116 -337 343c0 260 107 372 370 372c90 0 157 -11 245 -29v-172h-71c-19 126 -32 159 -174 159
c-189 0 -211 -176 -211 -332c0 -136 30 -300 200 -300c38 0 97 12 121 44c7 9 7 20 7 118c-2 64 17 86 -120 81z" />
    <glyph glyph-name="H" unicode="H" horiz-adv-x="778" 
d="M104 120v450c-2 61 14 81 -88 81v41c47 -1 104 -1 161 -2c57 1 114 1 161 2v-41c-97 0 -88 -17 -88 -81v-185h275v185c-2 61 14 81 -88 81v41c47 -1 104 -1 161 -2c57 1 114 1 161 2v-41c-97 0 -88 -17 -88 -81v-450c0 -64 -9 -81 88 -81v-41c-47 1 -104 1 -161 2
c-57 -1 -114 -1 -161 -2v41c102 0 86 20 88 81v216h-275v-216c0 -64 -9 -81 88 -81v-41c-47 1 -104 1 -161 2c-57 -1 -114 -1 -161 -2v41c102 0 86 20 88 81z" />
    <glyph glyph-name="I" unicode="I" horiz-adv-x="389" 
d="M267 570v-450c2 -66 -14 -81 98 -81v-41c-57 1 -114 1 -342 0v41c112 0 96 15 98 81v450c-2 66 14 81 -98 81v41c57 -1 114 -1 171 -2c57 1 114 1 171 2v-41c-112 0 -96 -15 -98 -81z" />
    <glyph glyph-name="J" unicode="J" horiz-adv-x="389" 
d="M127 51v519c-2 66 14 81 -98 81v41c57 -1 114 -1 171 -2c57 1 114 1 171 2v-41c-112 0 -96 -15 -98 -81v-469c0 -175 -89 -289 -259 -304v28c109 23 113 136 113 226z" />
    <glyph glyph-name="K" unicode="K" horiz-adv-x="722" 
d="M113 121v449c-2 61 14 81 -88 81v41c47 -1 104 -1 161 -2c57 1 114 1 161 2v-41c-97 0 -88 -17 -88 -81v-201c88 88 141 133 212 242c15 27 31 39 1 40v41c39 -1 78 -1 116 -2c31 1 62 1 93 2v-41c-112 0 -149 -59 -246 -170l-55 -63l225 -306c45 -63 37 -61 110 -75v-39
c-40 1 -80 1 -119 2c-31 -1 -62 -1 -93 -2c-62 104 -163 245 -244 337v-214c0 -65 -9 -82 88 -82v-41c-47 1 -104 1 -161 2c-57 -1 -114 -1 -161 -2v41c102 0 86 20 88 82z" />
    <glyph glyph-name="L" unicode="L" horiz-adv-x="611" 
d="M258 44h111c119 0 122 33 134 155h73v-201c-130 1 -261 2 -391 2c-57 0 -114 -1 -157 -2v41c98 0 82 22 84 81v450c-2 59 14 81 -84 81v41c43 -1 100 -1 157 -2c57 1 114 1 161 2v-41c-97 0 -88 -17 -88 -81v-526z" />
    <glyph glyph-name="M" unicode="M" horiz-adv-x="944" 
d="M698 120v430h-2l-257 -549c-3 -10 -18 -10 -20 0l-255 549h-2v-430c0 -70 0 -81 92 -81v-41c-43 1 -83 1 -124 2c-42 -1 -83 -1 -107 -2v41c80 0 83 14 83 81v450c-2 58 14 81 -83 81v41c36 -1 71 -1 107 -2c38 1 77 1 115 2l239 -488l228 488c35 -1 69 -1 104 -2
c39 1 77 1 116 2v-41c-102 0 -86 -20 -88 -81v-450c0 -64 -9 -81 88 -81v-41c-47 1 -104 1 -161 2c-57 -1 -114 -1 -161 -2v41c102 0 86 20 88 81z" />
    <glyph glyph-name="N" unicode="N" horiz-adv-x="778" 
d="M106 120v450c-2 58 14 81 -83 81v41c36 -1 71 -1 107 -2c32 0 63 1 95 2l396 -524v402c0 72 -5 81 -93 81v41c34 -1 75 -1 117 -2c41 1 81 1 122 2v-41c-90 0 -90 -12 -90 -81v-572c-20 1 -39 1 -59 2c-18 -1 -37 -1 -55 -2l-401 538v-416c0 -71 0 -81 96 -81v-41
c-47 1 -87 1 -128 2c-42 -1 -83 -1 -107 -2v41c80 0 83 14 83 81z" />
    <glyph glyph-name="O" unicode="O" horiz-adv-x="778" 
d="M388 -10c-249 0 -349 115 -350 358c1 242 102 357 350 357s349 -115 350 -357c-1 -243 -101 -358 -350 -358zM388 32c160 1 188 132 188 316s-28 315 -188 315s-188 -131 -188 -315s28 -315 188 -316z" />
    <glyph glyph-name="P" unicode="P" horiz-adv-x="611" 
d="M245 288v-168c0 -69 -8 -81 98 -81v-41c-57 1 -114 1 -171 2c-57 -1 -114 -1 -155 -2v41c96 0 80 23 82 81v450c-2 61 14 81 -88 81v41c47 -1 104 -1 161 -2c72 1 110 1 215 2c136 -1 191 -44 191 -185c0 -166 -82 -215 -240 -221c-42 -2 -67 2 -93 2zM245 644v-314
c127 -12 176 58 176 175c0 91 -27 142 -130 142c-14 0 -28 -2 -46 -3z" />
    <glyph glyph-name="Q" unicode="Q" horiz-adv-x="778" 
d="M245 -85l-27 23l15 21c9 12 20 27 33 41c-164 29 -229 153 -228 348c1 242 102 357 350 357s349 -115 350 -357c0 -173 -46 -292 -201 -337l71 -51c26 -18 76 -54 108 -54c14 0 31 7 50 18l19 -13c-46 -40 -127 -105 -151 -100c-31 6 -48 19 -71 38l-147 115
c-19 14 -40 32 -65 32c-43 0 -82 -50 -106 -81zM388 663c-160 0 -188 -131 -188 -315c0 -108 -8 -242 110 -298c44 31 57 35 88 35c26 0 55 -14 82 -32c101 51 96 199 96 295c0 184 -28 315 -188 315z" />
    <glyph glyph-name="R" unicode="R" horiz-adv-x="722" 
d="M263 644v-270c106 -4 182 28 182 147c0 83 -46 125 -127 125c-18 0 -36 -1 -55 -2zM425 364l180 -267c27 -40 42 -51 109 -58v-41c-49 1 -93 1 -136 2c-30 -1 -61 -1 -94 -2c-21 42 -41 84 -67 123l-154 231v-232c0 -49 -14 -89 93 -81v-41c-52 1 -109 1 -166 2
c-57 -1 -114 -1 -160 -2v41c105 -10 86 42 87 81v450c-2 61 14 81 -87 81v41c46 -1 103 -1 170 -2c48 1 97 1 145 2c129 -3 255 9 255 -158c0 -108 -72 -165 -175 -170z" />
    <glyph glyph-name="S" unicode="S" horiz-adv-x="611" 
d="M530 672v-156h-72c-5 87 -34 146 -132 146c-77 0 -134 -36 -134 -118c0 -104 123 -111 198 -135c108 -34 176 -69 176 -196c0 -170 -147 -223 -293 -223c-81 0 -149 14 -223 35v175h76c9 -111 33 -169 155 -169c79 0 140 49 140 130c0 53 -22 88 -73 109
c-130 46 -298 53 -298 232c0 150 143 203 272 203c60 0 138 -11 208 -33z" />
    <glyph glyph-name="T" unicode="T" horiz-adv-x="667" 
d="M157 -2v41c111 0 103 10 103 81v526h-43c-111 0 -112 -23 -127 -136h-73v180h632v-180h-73c-15 113 -16 136 -127 136h-43v-526c0 -71 -8 -81 103 -81v-41c-62 1 -119 1 -176 2c-57 -1 -114 -1 -176 -2z" />
    <glyph glyph-name="U" unicode="U" horiz-adv-x="778" 
d="M106 223v348c-2 60 14 80 -88 80v41c47 -1 104 -1 161 -2c57 1 114 1 161 2v-41c-97 0 -88 -17 -88 -80v-356c-3 -119 40 -185 168 -185c125 0 198 67 198 192v349c0 74 -6 80 -101 80v41c42 -1 83 -1 125 -2c41 1 81 1 122 2v-41c-90 0 -90 -13 -90 -80v-355
c0 -167 -113 -226 -268 -226c-187 0 -300 30 -300 233z" />
    <glyph glyph-name="V" unicode="V" horiz-adv-x="722" 
d="M304 -2l-183 528c-12 33 -31 96 -62 114c-13 10 -30 11 -44 11v41c44 -1 100 -1 156 -2c56 1 111 1 160 2v-41c-26 -3 -84 -4 -84 -41c0 -21 8 -44 15 -64l146 -416l112 342c20 61 44 124 41 148c-4 29 -67 30 -86 31v41c46 -1 91 -1 136 -2c41 1 81 1 96 2v-40
c-54 -1 -63 -29 -79 -58s-28 -70 -50 -129l-169 -467c-18 1 -35 1 -53 2c-17 -1 -35 -1 -52 -2z" />
    <glyph glyph-name="W" unicode="W" horiz-adv-x="1000" 
d="M646 -2l-147 531l-148 -531c-17 1 -34 1 -51 2c-18 -1 -37 -1 -55 -2l-134 503c-32 125 -36 144 -98 148v43c54 -1 103 -1 151 -2c50 1 100 1 149 2v-40c-58 0 -77 -1 -77 -42c0 -29 8 -54 16 -86l94 -362l147 530c18 -1 36 -1 54 -2c18 1 35 1 53 2l157 -533h2l86 390
c5 22 10 38 10 60c0 44 -49 43 -82 43v40c37 -1 74 -1 111 -2c37 1 73 1 110 2v-40c-46 2 -70 -41 -93 -127l-143 -527c-18 1 -35 1 -53 2c-20 -1 -39 -1 -59 -2z" />
    <glyph glyph-name="X" unicode="X" horiz-adv-x="722" 
d="M414 126l-92 141c-25 -37 -114 -150 -114 -190c0 -32 34 -34 59 -36v-43c-41 1 -83 1 -124 2c-41 -1 -83 -1 -124 -2v41c82 20 65 3 149 105l131 163l-136 203c-89 129 -75 127 -144 142v40c53 -1 107 -1 160 -2c53 1 107 1 160 2v-39c-26 0 -71 0 -69 -33
c1 -13 10 -30 22 -46l96 -147l104 169c6 9 7 17 8 25c4 32 -40 32 -61 32v39c40 -1 80 -1 120 -2c40 1 80 1 120 2v-39c-69 -6 -97 -44 -132 -90l-135 -172l196 -296c21 -30 39 -50 78 -53l14 -3v-41c-54 1 -107 1 -161 2c-54 -1 -108 -1 -162 -2v43c24 2 62 1 62 35
c0 15 -17 38 -25 50z" />
    <glyph glyph-name="Y" unicode="Y" horiz-adv-x="722" 
d="M444 316v-196c0 -71 -8 -81 103 -81v-41c-62 1 -119 1 -176 2c-57 -1 -114 -1 -176 -2v41c117 0 100 13 103 81v140c0 24 -2 42 -9 56l-114 180c-56 89 -81 145 -156 156v40c56 -1 112 -1 168 -2c56 1 111 1 167 2v-42c-29 -3 -74 -3 -74 -42c0 -15 14 -28 32 -58
l106 -176l88 158c10 17 36 68 36 86c0 34 -33 30 -69 34v40c39 -1 78 -1 117 -2c39 1 77 1 116 2v-40c-77 -15 -89 -48 -145 -135l-113 -180c-1 -7 -4 -14 -4 -21z" />
    <glyph glyph-name="Z" unicode="Z" horiz-adv-x="667" 
d="M28 -2v61l415 587h-171c-104 0 -106 -41 -113 -138h-70v184c89 -1 179 -2 268 -2s179 1 268 2v-45l-416 -600h186c139 -4 153 26 157 162h73v-211c-99 1 -199 1 -298 2c-100 -1 -199 -1 -299 -2z" />
    <glyph glyph-name="bracketleft" unicode="[" horiz-adv-x="333" 
d="M293 745v-41h-104v-788h104v-41h-214v870h214z" />
    <glyph glyph-name="backslash" unicode="\" horiz-adv-x="606" 
d="M67 745h100l372 -745h-100z" />
    <glyph glyph-name="bracketright" unicode="]" horiz-adv-x="333" 
d="M30 745h215v-870h-215v40h104v788h-104v42z" />
    <glyph glyph-name="asciicircum" unicode="^" horiz-adv-x="606" 
d="M147 287h-95l206 403h90l206 -403h-95l-156 294z" />
    <glyph glyph-name="underscore" unicode="_" horiz-adv-x="500" 
d="M500 -150h-500v50h500v-50z" />
    <glyph glyph-name="quoteleft" unicode="&#x2018;" horiz-adv-x="278" 
d="M183 705l21 -31c-47 -28 -83 -62 -91 -117c53 24 91 -30 91 -69c0 -49 -18 -87 -73 -87c-56 0 -77 53 -77 101c0 89 50 163 129 203z" />
    <glyph glyph-name="a" unicode="a" 
d="M337 -2v47c-53 -35 -90 -55 -153 -55c-89 0 -133 53 -133 139c0 80 43 128 124 136c26 3 49 4 75 4h82c0 60 24 170 -65 170c-39 0 -65 -15 -68 -79c2 -22 -4 -30 -20 -30h-70c-12 -2 -22 6 -20 30c-8 90 89 120 178 120c145 -8 199 -20 199 -154v-206
c0 -79 -15 -83 71 -83v-39c-33 1 -67 1 -100 2c-33 -1 -67 -1 -100 -2zM332 138v92h-38c-52 0 -84 -10 -98 -66c-8 -50 -4 -113 61 -113c53 0 75 36 75 87z" />
    <glyph glyph-name="b" unicode="b" 
d="M-5 745h205v-312c37 31 83 47 131 47c148 0 189 -109 189 -243c0 -136 -46 -247 -198 -247c-45 0 -89 12 -126 37l-104 -37h-26v635c0 60 11 83 -71 83v37zM372 238c0 95 -4 196 -84 196c-90 0 -87 -112 -87 -191c0 -58 -19 -207 79 -207c92 0 92 117 92 202z" />
    <glyph glyph-name="c" unicode="c" horiz-adv-x="500" 
d="M455 326h-64c-5 70 -29 115 -99 115c-112 0 -108 -130 -108 -211c0 -77 -3 -203 104 -202c81 0 92 52 102 125h65v-133c-63 -23 -130 -30 -193 -30c-159 0 -226 77 -226 236c0 165 63 254 238 254c57 0 129 -13 181 -36v-118z" />
    <glyph glyph-name="d" unicode="d" horiz-adv-x="611" 
d="M384 -2v56c-37 -42 -81 -64 -137 -64c-144 0 -202 89 -202 228c0 133 38 262 193 262c45 0 106 -11 138 -54h2v201c0 58 11 81 -71 81v37h205v-625c0 -60 -10 -83 72 -83v-39c-33 1 -67 1 -100 2c-33 -1 -67 -1 -100 -2zM377 160v150c0 54 -21 124 -88 124
c-90 0 -95 -96 -95 -166v-54c0 -64 1 -173 90 -173c67 0 93 61 93 119z" />
    <glyph glyph-name="e" unicode="e" horiz-adv-x="500" 
d="M466 224h-284c0 -66 -11 -193 89 -193c53 0 76 23 89 81c4 16 2 26 16 28h63c14 0 12 -16 11 -27c-7 -96 -101 -123 -179 -123c-185 0 -235 73 -235 249c0 181 64 241 226 241c176 0 211 -83 204 -256zM182 270h150c-2 94 8 171 -76 171c-78 0 -72 -81 -74 -171z" />
    <glyph glyph-name="f" unicode="f" horiz-adv-x="333" 
d="M341 470v-46h-110v-304c0 -69 -10 -83 84 -83v-39c-59 1 -105 1 -151 2c-46 -1 -92 -1 -138 -2v39c82 0 71 23 71 83v304h-71v46h71v27c0 150 42 248 204 248c78 0 133 -24 137 -106c2 -22 -4 -30 -20 -30h-70c-12 -2 -22 6 -20 30c-2 38 1 68 -45 68
c-52 0 -52 -62 -52 -98v-139h110z" />
    <glyph glyph-name="g" unicode="g" horiz-adv-x="500" 
d="M165 325c0 -55 7 -119 77 -119c68 0 74 79 74 130c0 48 -12 106 -72 106c-66 0 -79 -63 -79 -117zM365 462l104 9c11 -1 9 -13 6 -36c0 -6 -3 -15 -13 -13l-58 4c29 -34 38 -67 38 -108c0 -119 -110 -150 -208 -150c-31 0 -61 3 -90 12c-5 -13 -11 -27 -11 -42
c0 -57 61 -49 100 -49c25 0 51 2 77 2c130 0 167 -59 167 -139c0 -131 -129 -202 -246 -202c-185 0 -218 98 -218 159c0 46 35 72 78 81c-5 25 -10 50 -10 76c1 46 17 102 32 127c-50 28 -77 71 -77 129c0 119 99 158 202 158c58 0 125 -18 127 -18zM215 -10h-43
c-15 0 -29 0 -44 2c-19 -27 -36 -62 -36 -92c0 -81 71 -112 142 -112c75 0 141 44 141 124c0 68 -71 85 -160 78z" />
    <glyph glyph-name="h" unicode="h" horiz-adv-x="611" 
d="M229 745v-331h2c35 46 93 65 152 65c116 0 141 -55 141 -159v-200c0 -60 -11 -83 71 -83v-39c-46 1 -92 1 -138 2c-46 -1 -92 -1 -126 -2v39c69 0 59 29 59 83v184c0 56 -6 107 -75 107c-65 0 -90 -52 -86 -111v-180c0 -54 -10 -83 59 -83v-39c-34 1 -80 1 -126 2
c-46 -1 -92 -1 -138 -2v39c82 0 71 23 71 83v505c0 60 11 83 -71 83v37h205z" />
    <glyph glyph-name="i" unicode="i" horiz-adv-x="333" 
d="M236 470v-351c0 -59 -11 -82 71 -82v-39c-46 1 -92 1 -138 2c-46 -1 -92 -1 -138 -2v39c82 0 71 23 71 82v243c0 46 9 69 -71 69v39h205zM172 564c-47 0 -69 31 -69 76s22 77 69 77s69 -32 69 -77s-22 -76 -69 -76z" />
    <glyph glyph-name="j" unicode="j" horiz-adv-x="278" 
d="M223 384v-390c0 -126 -97 -227 -220 -243c-1 0 -1 1 -1 29c52 18 87 68 87 121v463c0 46 9 69 -71 69v39h205v-88zM156 564c-47 0 -69 31 -69 76s22 77 69 77s69 -32 69 -77s-22 -76 -69 -76z" />
    <glyph glyph-name="k" unicode="k" horiz-adv-x="611" 
d="M234 745v-487c52 50 107 95 147 152c4 9 1 18 -5 28l-12 4v30c35 -1 70 -1 105 -2c35 1 70 1 105 2v-31c-42 -10 -83 -8 -128 -47l-100 -87l172 -222c12 -17 31 -42 54 -44l36 -7v-36c-34 1 -67 1 -101 2c-31 -1 -63 -1 -94 -2l-13 19c-10 17 -21 31 -32 47l-132 176h-2
v-120c0 -60 -11 -83 71 -83v-39c-46 1 -92 1 -138 2c-46 -1 -92 -1 -138 -2v39c82 0 71 23 71 83v505c0 60 11 83 -71 83v37h205z" />
    <glyph glyph-name="l" unicode="l" horiz-adv-x="333" 
d="M236 745v-625c0 -60 -11 -83 71 -83v-39c-46 1 -92 1 -138 2c-46 -1 -92 -1 -138 -2v39c82 0 71 23 71 83v505c0 60 11 83 -71 83v37h205z" />
    <glyph glyph-name="m" unicode="m" horiz-adv-x="889" 
d="M219 472v-59c48 45 93 67 159 67c54 0 103 -19 127 -71l10 10c35 39 93 61 145 61c108 0 142 -48 142 -150v-210c0 -60 -10 -83 71 -83v-39c-46 1 -92 1 -138 2c-46 -1 -92 -1 -123 -2v39c65 0 56 32 56 83v194c0 50 -9 94 -68 94c-52 0 -87 -29 -87 -81v-207
c0 -49 -9 -83 54 -83v-39c-39 1 -80 1 -121 2c-41 -1 -82 -1 -123 -2v39c65 0 56 32 56 83v194c0 50 -9 94 -68 94c-52 0 -87 -29 -87 -81v-207c0 -49 -9 -83 54 -83v-39c-29 1 -75 1 -121 2c-46 -1 -92 -1 -137 -2v39c80 0 70 23 70 83v230c0 60 10 83 -70 83v39
c33 -1 67 -1 100 -2c33 1 66 1 99 2z" />
    <glyph glyph-name="n" unicode="n" horiz-adv-x="611" 
d="M219 472v-61c56 39 86 69 162 69c108 0 141 -55 141 -154v-206c0 -60 -11 -83 71 -83v-39c-46 1 -92 1 -138 2c-46 -1 -92 -1 -125 -2v39c68 0 58 30 58 83v190c0 57 -12 99 -78 99c-68 0 -86 -57 -86 -113v-176c0 -53 -10 -83 58 -83v-39c-33 1 -79 1 -125 2
c-46 -1 -92 -1 -137 -2v39c81 0 70 23 70 83v230c0 60 11 83 -70 83v39c33 -1 67 -1 100 -2c33 1 66 1 99 2z" />
    <glyph glyph-name="o" unicode="o" 
d="M277 480c175 0 236 -79 236 -256c0 -170 -76 -234 -236 -234s-237 64 -237 234c0 177 62 256 237 256zM277 440c-103 0 -91 -129 -91 -195c0 -67 -12 -216 91 -216s91 149 91 216c0 66 12 195 -91 195z" />
    <glyph glyph-name="p" unicode="p" horiz-adv-x="611" 
d="M222 472v-54c43 46 91 62 152 62c146 0 184 -113 184 -240c0 -133 -38 -250 -192 -250c-58 0 -89 9 -136 45v-164c0 -68 -11 -84 83 -84v-39c-58 1 -104 1 -150 2c-46 -1 -92 -1 -144 -2v39c88 0 77 19 77 84v482c0 65 11 84 -77 84v35c44 -1 87 -1 131 -2
c24 1 48 1 72 2zM412 232v41c0 68 -7 156 -92 156c-92 0 -91 -117 -91 -197s-1 -197 91 -197c85 0 92 88 92 156v41z" />
    <glyph glyph-name="q" unicode="q" 
d="M360 442l91 38h34v-605c0 -66 -11 -88 71 -88v-39c-46 1 -92 1 -138 2c-46 -1 -92 -1 -154 -2v39c99 0 87 14 87 88v163c-38 -35 -82 -48 -133 -48c-130 0 -186 93 -186 250c0 144 46 240 194 240c51 0 90 -7 134 -38zM262 39c104 0 90 128 90 197c0 66 11 199 -87 199
c-94 0 -88 -130 -88 -192s-9 -204 85 -204z" />
    <glyph glyph-name="r" unicode="r" horiz-adv-x="444" 
d="M223 472v-59c29 39 64 67 115 67c57 0 95 -30 95 -89c0 -42 -2 -59 -50 -59c-27 0 -51 3 -52 36c-1 25 -8 48 -38 48c-53 0 -65 -62 -65 -121v-174c0 -69 -10 -84 82 -84v-39c-57 1 -103 1 -149 2c-46 -1 -92 -1 -137 -2v39c81 0 70 23 70 84v230c0 61 11 84 -70 84v37
c44 -1 88 -1 132 -2c22 1 45 1 67 2z" />
    <glyph glyph-name="s" unicode="s" horiz-adv-x="444" 
d="M390 459v-125h-61c-1 63 -18 107 -89 107c-44 0 -80 -18 -80 -67c0 -121 252 -34 252 -233c0 -83 -58 -151 -192 -151c-64 0 -142 8 -186 19v137h67l3 -42c4 -49 42 -77 89 -77c55 0 93 21 93 80c0 63 -97 73 -152 91c-59 19 -100 60 -100 125c0 129 102 157 211 157
c49 0 98 -6 145 -21z" />
    <glyph glyph-name="t" unicode="t" horiz-adv-x="333" 
d="M78 114v310h-66v46h66v133l134 44v-177h98v-46h-98v-249c0 -51 -7 -134 65 -134c14 0 29 1 42 7v-38c-38 -11 -77 -20 -115 -20c-88 0 -126 33 -126 124z" />
    <glyph glyph-name="u" unicode="u" horiz-adv-x="611" 
d="M389 -2v64c-43 -50 -95 -72 -155 -72c-115 0 -145 44 -145 153v221c0 46 9 69 -71 69v39c34 -1 69 -1 103 -2c34 1 68 1 102 2v-290c0 -53 0 -124 72 -124c86 0 89 62 89 130v176c0 42 9 69 -66 69v39c33 -1 67 -1 100 -2c33 1 67 1 100 2v-366c0 -45 -9 -69 70 -69v-39
c-33 1 -67 1 -100 2c-33 -1 -66 -1 -99 -2z" />
    <glyph glyph-name="v" unicode="v" 
d="M544 472v-36c-52 0 -69 -25 -84 -66l-139 -372c-16 1 -31 1 -47 2c-16 -1 -31 -1 -47 -2l-138 372c-13 46 -27 62 -78 66v36c46 -1 92 -1 138 -2c46 1 91 1 137 2v-36c-36 -3 -53 -11 -59 -33c-2 -8 -1 -15 6 -34l91 -251l75 264c3 13 6 20 6 28c-3 18 -24 26 -58 26v36
c33 -1 66 -1 99 -2c33 1 65 1 98 2z" />
    <glyph glyph-name="w" unicode="w" horiz-adv-x="833" 
d="M516 -2l-103 336l-107 -336c-17 1 -34 1 -51 2c-17 -1 -34 -1 -51 -2l-116 372c-23 53 -17 56 -75 66v36c46 -1 93 -1 139 -2c46 1 92 1 138 2v-36l-23 -3c-13 -2 -39 -6 -42 -22c-2 -13 3 -27 7 -41l68 -243l106 345c18 -1 36 -1 54 -2c18 1 36 1 54 2l104 -347l64 245
l10 38c7 26 -43 26 -64 26v38c33 -1 67 -1 100 -2c33 1 66 1 99 2v-36c-40 4 -63 -20 -81 -66l-123 -372c-18 1 -35 1 -53 2c-18 -1 -36 -1 -54 -2z" />
    <glyph glyph-name="x" unicode="x" 
d="M219 207l-124 175c-26 38 -40 48 -83 53v37c41 -1 83 -1 124 -2c41 1 82 1 123 2v-37c-20 2 -29 -6 -29 -15l4 -12l64 -98l70 104c4 5 3 11 2 15c-1 6 -14 6 -23 6v37c29 -1 58 -1 87 -2c29 1 57 1 86 2v-37c-61 -5 -91 -27 -131 -72l-67 -83l141 -194
c21 -31 34 -49 75 -49v-39c-40 1 -81 1 -121 2c-41 -1 -81 -1 -122 -2v39c15 -1 24 4 24 14c0 6 -6 11 -11 19l-65 101l-73 -97c-8 -11 -11 -21 -9 -28c3 -11 20 -9 25 -9v-39c-29 1 -58 1 -87 2c-29 -1 -58 -1 -87 -2v39c48 0 78 15 106 49z" />
    <glyph glyph-name="y" unicode="y" 
d="M226 0l-138 370c-24 57 -19 58 -78 66v36c46 -1 92 -1 138 -2c46 1 91 1 137 2v-36l-18 -3c-13 -2 -38 -6 -42 -22c-2 -13 3 -27 7 -41l91 -252l74 253c5 15 8 25 10 37c5 30 -42 26 -61 28v36c33 -1 66 -1 99 -2c33 1 65 1 98 2v-36c-29 -9 -53 17 -89 -85l-171 -446
c-21 -55 -77 -155 -180 -155c-37 0 -73 28 -73 68c0 30 21 50 46 53c45 6 50 -48 89 -45c42 4 68 64 81 99l29 75h-49z" />
    <glyph glyph-name="z" unicode="z" horiz-adv-x="500" 
d="M468 472v-36l-271 -392h125c72 3 80 41 88 109h58v-155c-73 1 -146 2 -219 2s-147 -1 -220 -2v38l270 390h-121c-60 -2 -74 -58 -78 -100h-48v146c71 -1 140 -2 209 -2s138 1 207 2z" />
    <glyph glyph-name="braceleft" unicode="{" horiz-adv-x="310" 
d="M96 423v185c0 40 4 83 43 109c47 30 95 28 149 28v-2c-74 -17 -95 -52 -95 -121v-183c0 -71 -15 -112 -98 -130v-2c86 -18 98 -63 98 -136v-173c0 -66 24 -106 95 -121v-2c-138 -2 -192 22 -192 154v163c0 68 -14 98 -91 115v2c27 5 50 15 68 36c23 26 23 48 23 78z" />
    <glyph glyph-name="bar" unicode="|" horiz-adv-x="606" 
d="M259 0v745h87v-745h-87z" />
    <glyph glyph-name="braceright" unicode="}" horiz-adv-x="310" 
d="M204 608v-185c0 -30 0 -52 23 -78c18 -21 40 -31 68 -36v-2c-77 -17 -91 -47 -91 -115v-163c0 -132 -54 -156 -192 -154v2c71 15 95 55 95 121v173c0 73 12 118 98 136v2c-83 18 -98 59 -98 130v183c0 69 -21 104 -95 121v2c54 0 102 2 149 -28c39 -26 43 -69 43 -109z
" />
    <glyph glyph-name="asciitilde" unicode="~" horiz-adv-x="606" 
d="M507 345l48 -55c-31 -55 -73 -113 -144 -113c-45 0 -100 31 -133 44c-26 10 -54 25 -83 25c-49 0 -75 -51 -96 -88l-48 55c31 57 73 120 145 120c36 0 77 -17 116 -34c40 -18 76 -35 101 -35c44 0 75 46 94 81z" />
    <glyph glyph-name="exclamdown" unicode="&#xa1;" horiz-adv-x="333" 
d="M187 228l33 -317c5 -47 11 -123 -68 -122c-79 -1 -73 75 -68 122l33 317c3 26 10 42 35 52c25 -10 32 -26 35 -52zM152 340c-44 0 -70 28 -70 81c0 54 26 82 70 84c46 -2 71 -30 71 -84c0 -53 -25 -81 -71 -81z" />
    <glyph glyph-name="cent" unicode="&#xa2;" 
d="M244 64l114 371c-10 3 -22 5 -36 5c-112 0 -108 -130 -108 -210c0 -51 -1 -124 30 -166zM485 443v-118h-64c-3 39 -11 69 -30 89l-118 -376c12 -7 27 -10 45 -10c81 0 92 52 102 125h65v-133c-56 -21 -167 -39 -226 -27l-37 -118h-37l38 122c-121 16 -157 119 -157 229
c0 164 64 254 238 254c22 0 45 -3 66 -6l25 81h40l-28 -88c26 -6 54 -14 78 -24z" />
    <glyph glyph-name="sterling" unicode="&#xa3;" 
d="M281 357h159v-50h-165c-4 -85 -34 -149 -101 -205l2 -2c78 22 158 -2 246 3c64 0 56 3 69 78h41v-174c-64 -18 -100 -17 -135 -17c-43 0 -85 13 -127 27c-43 14 -85 29 -129 32c-9 -10 -21 -25 -37 -37s-35 -22 -59 -22c-21 0 -40 22 -37 46c5 49 66 55 108 61
c34 64 24 141 24 210h-102v50h103c0 165 27 313 223 313c110 0 178 -44 176 -142c0 -16 -9 -30 -33 -30h-45c-22 0 -34 6 -33 29c0 50 -1 100 -63 100c-56 0 -72 -59 -75 -104z" />
    <glyph glyph-name="fraction" unicode="&#x2044;" horiz-adv-x="167" 
d="M302 635l-364 -635h-70l364 635h70z" />
    <glyph glyph-name="yen" unicode="&#xa5;" 
d="M344 227h114v-46h-114v-67c0 -56 -7 -83 84 -77v-39c-48 1 -95 1 -143 2c-48 -1 -95 -1 -143 -2v39c96 -6 82 25 84 77v67h-114v46h114v21c0 21 -1 37 -6 51h-108v46h83l-69 127c-44 83 -63 137 -126 149v37c46 -1 91 -1 136 -2c45 1 90 1 136 2v-39
c-21 -3 -77 -9 -61 -40l112 -223l89 191c7 15 11 33 12 41c4 34 -27 29 -57 33v37c32 -1 63 -1 95 -2c31 1 63 1 94 2v-37c-64 -18 -66 -38 -117 -129l-78 -147h97v-46h-114v-72z" />
    <glyph glyph-name="florin" unicode="&#x192;" 
d="M70 353h109c31 227 75 314 223 314c64 0 132 -25 132 -99c0 -16 -2 -31 -9 -46c-10 -15 -32 -15 -48 -15c-25 0 -44 10 -44 37c-1 34 15 76 -31 80c-36 3 -53 -63 -62 -121l-24 -150h112v-49h-118l-26 -177l-11 -83c-19 -143 -65 -255 -226 -255c-75 0 -119 39 -118 107
c0 44 35 49 71 44c10 -3 20 -8 24 -18c6 -30 0 -92 34 -91c50 1 68 119 74 167l40 306h-102v49z" />
    <glyph glyph-name="section" unicode="&#xa7;" 
d="M262 359l-85 51c-31 -17 -55 -57 -42 -92c25 -54 137 -92 253 -170c22 20 38 42 38 73c0 59 -120 112 -164 138zM260 490l102 -57c88 -49 129 -85 140 -149c12 -68 -22 -108 -86 -160c35 -35 49 -69 49 -119c0 -108 -100 -158 -195 -158s-205 41 -186 156
c5 12 16 10 27 10h50c9 0 23 2 23 -11c0 -68 15 -117 93 -117c65 0 89 49 90 86c0 77 -92 117 -149 147c-71 40 -163 77 -167 169c-4 69 42 115 97 147c-33 25 -57 61 -57 104c0 116 83 167 190 167c100 0 193 -28 183 -135c-1 -16 -2 -25 -28 -26h-42c-28 0 -27 12 -28 26
c-4 58 -24 97 -81 97c-60 0 -94 -22 -94 -85c0 -47 31 -71 69 -92z" />
    <glyph glyph-name="currency" unicode="&#xa4;" 
d="M25 151l48 48c-28 43 -42 84 -42 135c0 50 12 98 42 139l-48 47l66 68l49 -48c41 29 92 43 142 43c46 0 96 -16 134 -43l48 48l66 -68l-48 -47c30 -39 44 -88 44 -138c0 -48 -13 -97 -43 -136l48 -48l-66 -67l-48 48c-39 -28 -88 -44 -137 -44c-50 0 -100 14 -141 44
l-48 -48zM282 478c-81 0 -146 -62 -146 -144c0 -80 66 -141 145 -141c78 0 140 66 140 143c0 75 -63 142 -139 142z" />
    <glyph glyph-name="quotesingle" unicode="'" horiz-adv-x="227" 
d="M136 371h-46l-44 239c-7 36 27 80 67 80s74 -44 67 -80z" />
    <glyph glyph-name="quotedblleft" unicode="&#x201c;" horiz-adv-x="500" 
d="M181 705l21 -31c-47 -28 -83 -62 -91 -117c53 24 91 -30 91 -69c0 -49 -18 -87 -73 -87c-56 0 -77 53 -77 101c0 89 50 163 129 203zM406 705l21 -31c-47 -28 -83 -62 -91 -117c53 24 91 -30 91 -69c0 -49 -18 -87 -73 -87c-56 0 -77 53 -77 101c0 89 50 163 129 203z
" />
    <glyph glyph-name="guillemotleft" unicode="&#xab;" 
d="M352 223l120 -192v-7h-37l-177 174v48l180 176h34v-7zM174 223l120 -192v-7h-37l-177 174v48l179 176h35v-7z" />
    <glyph glyph-name="guilsinglleft" unicode="&#x2039;" horiz-adv-x="278" 
d="M125 223l120 -192v-7h-37l-177 174v48l180 176h34v-7z" />
    <glyph glyph-name="guilsinglright" unicode="&#x203a;" horiz-adv-x="278" 
d="M153 223l-121 192v7h37l178 -175v-47l-180 -176h-35v7z" />
    <glyph glyph-name="endash" unicode="&#x2013;" horiz-adv-x="500" 
d="M500 181h-500v83h500v-83z" />
    <glyph glyph-name="dagger" unicode="&#x2020;" 
d="M519 477l-29 -43l30 -45l-7 -11c-28 4 -57 6 -86 7h-86v-241c3 -76 4 -112 13 -145l-14 -9l-61 37l-61 -37l-14 9c9 33 10 69 13 145v241h-86c-29 -1 -58 -3 -86 -7l-7 11l30 45l-29 43l11 13c20 -5 56 -7 90 -10h77v88c1 41 1 86 -12 126l13 11l61 -33l61 33l13 -11
c-13 -40 -13 -85 -12 -126v-88h77c34 3 70 5 90 10z" />
    <glyph glyph-name="daggerdbl" unicode="&#x2021;" 
d="M338 440v-184h104c26 2 46 5 66 12l12 -16l-32 -42l32 -40l-12 -15c-20 7 -40 10 -66 12h-104v-52c-1 -40 2 -78 15 -116l-15 -9l-59 42l-59 -42l-15 9c13 38 16 76 15 116v52h-104c-26 -2 -46 -5 -66 -12l-12 15l32 40l-32 42l12 16c20 -7 40 -10 66 -12h104v184h-104
c-26 -3 -46 -6 -66 -13l-12 16l32 42l-32 40l12 15c20 -7 40 -10 66 -12h104v52c1 40 -2 78 -15 116l15 9l59 -42l59 42l15 -9c-13 -38 -16 -76 -15 -116v-52h104c26 2 46 5 66 12l12 -15l-32 -40l32 -42l-12 -16c-20 7 -40 10 -66 13h-104z" />
    <glyph glyph-name="periodcentered" unicode="&#xb7;" horiz-adv-x="278" 
d="M204 255c0 -37 -33 -70 -70 -70s-69 33 -69 70s32 69 69 69s70 -32 70 -69z" />
    <glyph glyph-name="paragraph" unicode="&#xb6;" horiz-adv-x="641" 
d="M507 654v-696h64v-41h-363v41h79v377c-129 0 -237 29 -237 180c0 165 131 175 262 175h259v-36h-64zM438 654h-80v-696h80v696zM202 545v-68c0 -66 11 -110 85 -110v287c-75 2 -85 -47 -85 -109z" />
    <glyph glyph-name="bullet" unicode="&#x2022;" horiz-adv-x="606" 
d="M446 345c0 -79 -64 -143 -143 -143s-143 64 -143 143s64 143 143 143s143 -64 143 -143z" />
    <glyph glyph-name="quotesinglbase" unicode="&#x201a;" horiz-adv-x="278" 
d="M85 -148l-21 31c47 28 83 62 91 117c-53 -24 -91 30 -91 69c0 49 18 87 73 87c56 0 77 -53 77 -101c0 -89 -50 -163 -129 -203z" />
    <glyph glyph-name="quotedblbase" unicode="&#x201e;" horiz-adv-x="500" 
d="M309 -148l-21 31c47 28 83 62 91 117c-53 -24 -91 30 -91 69c0 49 18 87 73 87c56 0 77 -53 77 -101c0 -89 -50 -163 -129 -203zM83 -148l-21 31c47 28 83 62 91 117c-53 -24 -91 30 -91 69c0 49 18 87 73 87c56 0 77 -53 77 -101c0 -89 -50 -163 -129 -203z" />
    <glyph glyph-name="quotedblright" unicode="&#x201d;" horiz-adv-x="500" 
d="M315 401l-21 31c47 28 83 62 91 117c-53 -24 -91 30 -91 69c0 49 18 87 73 87c56 0 77 -53 77 -101c0 -89 -50 -163 -129 -203zM89 401l-21 31c47 28 83 62 91 117c-53 -24 -91 30 -91 69c0 49 18 87 73 87c56 0 77 -53 77 -101c0 -89 -50 -163 -129 -203z" />
    <glyph glyph-name="guillemotright" unicode="&#xbb;" 
d="M201 223l-120 192v7h37l177 -175v-47l-179 -176h-35v7zM380 223l-121 192v7h37l177 -175v-47l-179 -176h-35v7z" />
    <glyph glyph-name="ellipsis" unicode="&#x2026;" horiz-adv-x="1000" 
d="M167 -11c-44 1 -70 29 -70 82c0 54 26 82 70 84c46 -2 71 -30 71 -84c0 -53 -25 -81 -71 -82zM500 -10c-44 0 -70 28 -70 81c0 54 26 82 70 84c46 -2 71 -30 71 -84c0 -53 -25 -81 -71 -81zM833 -10c-44 0 -70 28 -70 81c0 54 26 82 70 84c46 -2 71 -30 71 -84
c0 -53 -25 -81 -71 -81z" />
    <glyph glyph-name="perthousand" unicode="&#x2030;" horiz-adv-x="1000" 
d="M153 674c-38 0 -59 -65 -60 -135c-1 -71 19 -134 61 -135c38 -1 55 72 55 142c-1 71 -23 128 -56 128zM151 705c96 0 156 -66 156 -166c0 -99 -60 -165 -156 -165s-156 66 -156 165c0 100 60 166 156 166zM831 321c96 0 156 -66 156 -166c0 -99 -60 -165 -156 -165
s-156 66 -156 165c0 100 60 166 156 166zM834 286c-38 0 -59 -63 -61 -133c-1 -71 17 -134 56 -135c41 -1 60 72 60 142c0 71 -19 126 -55 126zM477 321c96 0 156 -66 156 -166c0 -99 -60 -165 -156 -165s-156 66 -156 165c0 100 60 166 156 166zM479 286
c-38 0 -59 -63 -60 -133c-1 -71 19 -134 61 -135c38 -1 55 72 55 142c-1 71 -20 126 -56 126zM65 -65l451 834h58l-451 -834h-58z" />
    <glyph glyph-name="questiondown" unicode="&#xbf;" horiz-adv-x="444" 
d="M328 -29h47c28 0 33 -16 35 -30c12 -108 -77 -153 -178 -153c-157 0 -199 64 -199 141c0 89 65 141 151 142l16 174c1 14 20 28 34 36c16 -10 35 -19 36 -33l19 -196c-98 13 -123 -30 -123 -122c0 -44 5 -101 62 -101c56 0 68 42 66 89c1 22 -1 53 34 53zM234 340
c-44 0 -70 28 -70 81c0 54 26 82 70 84c46 -2 71 -30 71 -84c0 -53 -25 -81 -71 -81z" />
    <glyph glyph-name="grave" unicode="`" horiz-adv-x="333" 
d="M302 535h-55l-159 97c-33 21 -26 58 -10 76c18 20 58 16 82 -12z" />
    <glyph glyph-name="acute" unicode="&#xb4;" horiz-adv-x="333" 
d="M274 616l-132 -81h-55l128 148c22 26 46 47 82 33c18 -5 28 -22 28 -40c0 -32 -27 -45 -51 -60z" />
    <glyph glyph-name="circumflex" unicode="&#x2c6;" horiz-adv-x="333" 
d="M120 711h93l123 -176h-57l-112 98l-113 -98h-55z" />
    <glyph glyph-name="tilde" unicode="&#x2dc;" horiz-adv-x="333" 
d="M307 681h43c-14 -63 -48 -127 -121 -127c-27 0 -53 11 -77 22c-24 10 -54 27 -80 27c-22 0 -38 -20 -47 -47h-43c20 82 59 125 121 125c30 0 67 -17 94 -29c12 -6 30 -17 59 -18c19 -1 43 14 51 47z" />
    <glyph glyph-name="macron" unicode="&#xaf;" horiz-adv-x="333" 
d="M295 572h-257v72h257v-72z" />
    <glyph glyph-name="breve" unicode="&#x2d8;" horiz-adv-x="333" 
d="M15 698h44c9 -61 50 -87 109 -87c56 0 96 28 106 87h44c-3 -93 -52 -163 -151 -163c-98 0 -153 68 -152 163z" />
    <glyph glyph-name="dotaccent" unicode="&#x2d9;" horiz-adv-x="333" 
d="M165 544c-34 0 -62 32 -62 65c0 34 28 65 62 65c35 0 65 -29 65 -65s-29 -65 -65 -65z" />
    <glyph glyph-name="dieresis" unicode="&#xa8;" horiz-adv-x="333" 
d="M272 674c34 0 64 -32 64 -65c0 -35 -29 -65 -64 -65c-36 0 -65 30 -65 65s30 65 65 65zM61 544c-34 0 -62 32 -62 65c0 34 28 65 62 65c35 0 65 -29 65 -65s-29 -65 -65 -65z" />
    <glyph glyph-name="ring" unicode="&#x2da;" horiz-adv-x="333" 
d="M274 641c0 -59 -48 -107 -107 -107c-58 0 -108 48 -108 107c0 58 50 108 108 108s107 -50 107 -108zM106 641c0 -33 29 -60 61 -60s60 28 60 60c0 33 -28 60 -60 60c-33 0 -61 -27 -61 -60z" />
    <glyph glyph-name="cedilla" unicode="&#xb8;" horiz-adv-x="333" 
d="M79 -103l43 97h41l-29 -66c53 20 127 -6 123 -68c0 -70 -86 -85 -139 -85c-29 0 -61 9 -88 18l16 37c39 -17 118 -26 116 29c-2 36 -39 39 -73 30z" />
    <glyph glyph-name="hungarumlaut" unicode="&#x2dd;" horiz-adv-x="333" 
d="M69 535h-55l128 148c22 26 46 47 82 33c18 -5 28 -22 28 -40c0 -32 -27 -45 -51 -60zM279 535h-55l128 148c22 26 46 47 82 33c18 -5 28 -22 28 -40c0 -32 -27 -45 -51 -60z" />
    <glyph glyph-name="ogonek" unicode="&#x2db;" horiz-adv-x="333" 
d="M292 -172l6 -26c-30 -16 -64 -30 -106 -31c-46 -1 -120 23 -108 119c8 58 46 94 94 110h38c-36 -36 -57 -91 -56 -112c-2 -44 24 -80 64 -76c28 3 50 11 68 16z" />
    <glyph glyph-name="caron" unicode="&#x2c7;" horiz-adv-x="333" 
d="M213 535h-93l-121 176h55l113 -99l112 99h57z" />
    <glyph glyph-name="emdash" unicode="&#x2014;" horiz-adv-x="1000" 
d="M1000 181h-1000v83h1000v-83z" />
    <glyph glyph-name="AE" unicode="&#xc6;" horiz-adv-x="1000" 
d="M934 190v-192c-130 1 -261 2 -391 2c-57 0 -114 -1 -156 -2v41c82 0 86 12 86 81v129h-226l-39 -75c-9 -19 -40 -75 -40 -95c0 -37 23 -40 79 -40v-41c-40 1 -79 1 -119 2c-40 -1 -80 -1 -120 -2v41c50 0 66 25 90 62l327 539l-15 4c-24 4 -48 4 -72 4v44
c68 -1 137 -2 205 -2c130 0 261 1 391 2v-164h-73c-12 118 -12 120 -147 118h-98v-256h61c60 0 72 40 75 96h55c-1 -39 -1 -78 -2 -117c1 -40 1 -79 2 -118h-55c-5 54 -13 94 -75 97h-61v-304h111c119 0 122 33 134 146h73zM270 295h203v340z" />
    <glyph glyph-name="ordfeminine" unicode="&#xaa;" horiz-adv-x="334" 
d="M190 552v41c0 43 -6 70 -39 70c-23 0 -39 -9 -41 -52c1 -15 -2 -20 -12 -20h-42c-7 -1 -13 4 -12 20c-5 60 54 79 107 79c84 -5 119 -13 119 -101v-143c0 -46 0 -45 43 -45v-26c-20 1 -40 1 -60 2c-20 -1 -40 -1 -60 -2v31c-37 -28 -75 -40 -119 -30c-39 9 -53 44 -53 85
c0 103 93 91 169 91zM190 466v60h-23c-31 0 -50 -6 -59 -43c-4 -32 -2 -73 37 -73c31 0 41 20 45 56zM21 324v-50h292v50h-292z" />
    <glyph glyph-name="Lslash" unicode="&#x141;" horiz-adv-x="611" 
d="M385 454l-127 -99v-311h111c119 0 122 33 134 155h73v-201c-130 1 -261 2 -391 2c-57 0 -114 -1 -157 -2v41c98 0 82 22 84 81v115l-84 -70v63l84 70v272c0 59 14 81 -84 81v41c43 -1 100 -1 157 -2c57 1 114 1 161 2v-41c-97 0 -88 -17 -88 -81v-152l127 98v-62z" />
    <glyph glyph-name="Oslash" unicode="&#xd8;" horiz-adv-x="778" 
d="M210 205l339 350c-24 68 -73 108 -161 108c-160 0 -188 -131 -188 -315c0 -52 2 -101 10 -143zM564 499l-340 -351c24 -72 73 -115 164 -116c160 1 188 132 188 316c0 56 -3 107 -12 151zM631 640l83 86l38 -33l-85 -88c53 -63 70 -151 71 -258
c-1 -242 -102 -357 -350 -357c-85 0 -179 15 -248 70l-84 -87l-35 36l84 87c-50 62 -66 148 -67 251c1 243 101 358 350 358c83 0 175 -15 243 -65z" />
    <glyph glyph-name="OE" unicode="&#x152;" horiz-adv-x="1000" 
d="M680 44h91c119 0 122 33 134 146h73v-192c-83 1 -165 2 -248 2c-63 0 -126 -1 -184 -2v65c-53 -48 -129 -73 -204 -73c-244 0 -307 163 -307 377c0 201 100 338 313 338c75 0 149 -22 198 -82v69c40 -1 81 -2 122 -2c103 0 207 1 310 2v-164h-73
c-12 106 -12 118 -147 118h-78v-256h44c58 0 69 42 72 96h55c-1 -39 -1 -78 -2 -117c1 -40 1 -79 2 -118h-55c-5 51 -13 94 -72 97h-44v-304zM534 205v285c0 105 -61 170 -167 170c-148 0 -173 -119 -173 -240v-163c0 -109 34 -224 164 -224c100 0 176 72 176 172z" />
    <glyph glyph-name="ordmasculine" unicode="&#xba;" horiz-adv-x="334" 
d="M167 690c105 0 142 -51 142 -167c0 -111 -46 -153 -142 -153s-142 42 -142 153c0 116 37 167 142 167zM167 664c-61 0 -55 -88 -55 -127s-11 -141 55 -141s55 102 55 141s6 127 -55 127zM25 324v-50h284v50h-284z" />
    <glyph glyph-name="ae" unicode="&#xe6;" horiz-adv-x="778" 
d="M447 268h149c0 58 13 177 -74 174c-91 -3 -73 -112 -75 -174zM643 139h66c13 0 9 -16 8 -27c-7 -96 -101 -122 -179 -122c-79 -3 -155 13 -199 81c-48 -60 -87 -81 -164 -81c-85 0 -139 49 -139 136c0 101 63 141 158 142h121c-2 70 19 171 -65 171
c-39 0 -65 -15 -68 -81c2 -22 -4 -30 -20 -30h-70c-12 -2 -22 6 -20 30c-8 92 89 122 178 122c68 -2 106 -12 140 -38c35 26 90 38 133 38c134 0 221 -45 203 -254h-279c1 -72 -14 -195 91 -195c53 0 76 23 89 80c4 16 2 26 16 28zM315 226h-51c-61 -5 -86 -27 -86 -90
c0 -42 10 -86 62 -86c73 0 74 71 75 124v52z" />
    <glyph glyph-name="dotlessi" unicode="&#x131;" horiz-adv-x="333" 
d="M31 472h205v-352c0 -79 -9 -83 71 -83v-39c-46 1 -92 1 -138 2c-46 -1 -92 -1 -138 -2v39c80 0 71 4 71 83v244c0 68 3 69 -71 69v39z" />
    <glyph glyph-name="lslash" unicode="&#x142;" horiz-adv-x="333" 
d="M236 745v-235l71 52v-63l-71 -52v-327c0 -60 -11 -83 71 -83v-39c-46 1 -92 1 -138 2c-46 -1 -92 -1 -138 -2v39c82 0 71 23 71 83v207l-71 -59v63l71 60v234c0 60 11 83 -71 83v37h205z" />
    <glyph glyph-name="oslash" unicode="&#xf8;" 
d="M366 315l-173 -208c7 -43 37 -78 84 -78c108 0 91 149 91 216c0 20 -1 41 -2 70zM418 451l72 87l40 -26l-74 -89c41 -41 58 -106 58 -199c0 -170 -77 -234 -237 -234c-64 0 -115 10 -153 34l-70 -85l-32 33l67 82c-33 37 -49 92 -49 170c0 177 62 256 237 256
c59 0 106 -9 141 -29zM188 172l170 206c-11 35 -40 62 -81 62c-101 0 -91 -129 -91 -195c0 -30 1 -53 2 -73z" />
    <glyph glyph-name="oe" unicode="&#x153;" horiz-adv-x="833" 
d="M784 228h-284c3 -73 -13 -197 95 -197c53 0 76 23 89 81c4 16 2 26 16 28h54c9 0 22 5 20 -27c-7 -96 -101 -123 -179 -123c-65 2 -122 9 -161 47c-44 -41 -111 -47 -169 -47c-164 0 -221 95 -221 249c0 145 68 241 221 241c64 0 125 -3 173 -52c37 41 93 52 142 52
c185 0 204 -89 204 -252zM280 440c-94 0 -86 -108 -86 -177c0 -103 -8 -228 86 -231c94 3 86 128 86 231c0 69 8 177 -86 177zM500 269h154c-2 62 13 172 -77 172s-74 -110 -77 -172z" />
    <glyph glyph-name="germandbls" unicode="&#xdf;" horiz-adv-x="611" 
d="M84 120v439c0 129 64 186 212 186c154 0 195 -73 195 -144c0 -86 -39 -108 -110 -143v-2c165 -7 161 -107 161 -246c0 -134 -28 -220 -177 -220c-31 0 -62 14 -84 35v-27c-48 1 -88 1 -130 2c-46 -1 -92 -1 -138 -2v39c82 0 71 23 71 83zM276 418v43c67 4 80 -5 80 143
c0 32 8 100 -65 100c-53 0 -73 -34 -73 -78v-533c0 -43 12 -55 51 -52c-3 18 -6 37 -6 55c-5 16 -3 28 11 30h56v-58c0 -26 17 -32 32 -33c41 -1 34 43 34 112v145c0 105 -20 126 -120 126z" />
    <glyph glyph-name="onesuperior" unicode="&#xb9;" horiz-adv-x="333" 
d="M157 635h77v-304c0 -38 6 -47 73 -47v-25c-49 0 -90 0 -130 1c-41 -1 -83 -1 -124 -1v24c52 6 86 -4 86 48v252c-33 -21 -65 -40 -113 -56v38c49 14 102 39 131 70z" />
    <glyph glyph-name="logicalnot" unicode="&#xac;" horiz-adv-x="606" 
d="M469 114v196h-418v86h504v-282h-86z" />
    <glyph glyph-name="mu" unicode="&#xb5;" horiz-adv-x="611" 
d="M588 37v-39c-33 1 -67 1 -100 2c-33 -1 -66 -1 -99 -2v64c-36 -42 -95 -78 -181 -72l12 -115c8 -48 -14 -85 -63 -85c-45 0 -68 24 -68 85v489c0 46 9 69 -71 69v39c34 -1 69 -1 103 -2c34 1 68 1 102 2v-290c0 -53 0 -124 72 -124c86 0 89 62 89 130v176
c0 42 9 69 -66 69v39c33 -1 67 -1 100 -2c33 1 67 1 100 2v-366c0 -45 -9 -69 70 -69z" />
    <glyph glyph-name="trademark" unicode="&#x2122;" horiz-adv-x="998" 
d="M318 286h-197v26c49 0 64 18 64 45v301h-44c-54 0 -72 -16 -73 -70h-30v102h367v-102h-30c-1 54 -19 70 -73 70h-44v-310c0 -20 11 -36 60 -36v-26zM592 690l118 -279l118 279h133v-24h-19c-31 0 -30 -10 -30 -36v-269c0 -42 4 -46 49 -49v-26h-173v26c45 1 51 5 51 48
v278h-2l-143 -352h-10l-149 352h-2v-294c1 -31 17 -31 50 -32v-26h-131v26c37 1 50 2 50 34v284c0 27 4 36 -27 36h-15v24h132z" />
    <glyph glyph-name="Eth" unicode="&#xd0;" horiz-adv-x="722" 
d="M242 645v-260h122v-49h-122v-291c17 -2 33 -3 48 -3c197 0 232 130 232 303c0 147 -18 292 -191 305c-25 1 -55 0 -89 -5zM17 -2v41c93 0 77 25 79 81v216h-92v49h92v185c-2 56 14 81 -79 81v41c38 -1 95 -1 152 -2c79 1 157 1 236 2c220 0 277 -129 277 -333
c0 -230 -62 -361 -305 -361c-69 1 -139 1 -208 2c-57 -1 -114 -1 -152 -2z" />
    <glyph glyph-name="onehalf" unicode="&#xbd;" horiz-adv-x="834" 
d="M663 635l-364 -635h-70l364 635h70zM150 635h77v-304c0 -38 6 -47 73 -47v-25c-49 0 -90 0 -130 1c-41 -1 -83 -1 -124 -1v24c52 6 86 -4 86 48v252c-33 -21 -65 -40 -113 -56v38c49 14 102 39 131 70zM528 -1v75c65 48 174 142 174 212c0 32 0 68 -38 66
c-47 0 -44 -32 -44 -65c0 -22 -14 -22 -23 -22h-38c-22 0 -19 15 -19 24c0 51 41 92 135 92c64 0 135 -13 135 -86c0 -54 -21 -77 -66 -110l-142 -105h142c34 0 40 12 44 55h27v-136c-50 0 -99 0 -148 1c-45 -1 -92 -1 -139 -1z" />
    <glyph glyph-name="plusminus" unicode="&#xb1;" horiz-adv-x="606" 
d="M260 362v143h86v-143h209v-86h-209v-143h-86v143h-209v86h209zM51 0v86h504v-86h-504z" />
    <glyph glyph-name="Thorn" unicode="&#xde;" horiz-adv-x="611" 
d="M99 120v450c-2 61 14 81 -88 81v41c47 -1 104 -1 161 -2c57 1 114 1 171 2v-41c-112 0 -96 -15 -98 -81v-23c32 0 72 0 142 1c136 -1 191 -44 191 -185c0 -166 -82 -215 -240 -221c-42 -2 -67 2 -93 2v-24c0 -69 -8 -81 98 -81v-41c-57 1 -114 1 -171 2
c-57 -1 -114 -1 -155 -2v41c96 0 80 23 82 81zM245 500v-314c127 -12 176 58 176 175c0 91 -27 142 -130 142c-14 0 -28 -2 -46 -3z" />
    <glyph glyph-name="onequarter" unicode="&#xbc;" horiz-adv-x="834" 
d="M669 93h-174v63c55 74 111 145 166 218h95v-222h59v-59h-59c0 -69 -9 -70 59 -70v-25c-35 1 -70 1 -105 1c-36 0 -71 0 -107 -1v25c46 2 66 -1 66 31v39zM669 152v168c-41 -61 -80 -110 -126 -168h126zM665 635l-364 -635h-70l364 635h70zM150 635h77v-304
c0 -38 6 -47 73 -47v-25c-49 0 -90 0 -130 1c-41 -1 -83 -1 -124 -1v24c52 6 86 -4 86 48v252c-33 -21 -65 -40 -113 -56v38c49 14 102 39 131 70z" />
    <glyph glyph-name="divide" unicode="&#xf7;" horiz-adv-x="606" 
d="M51 212v86h504v-86h-504zM303 375c-34 0 -62 32 -62 65c0 34 28 65 62 65c35 0 65 -29 65 -65s-29 -65 -65 -65zM303 5c-34 0 -62 32 -62 65c0 34 28 65 62 65c35 0 65 -29 65 -65s-29 -65 -65 -65z" />
    <glyph glyph-name="brokenbar" unicode="&#xa6;" horiz-adv-x="606" 
d="M259 0v298h87v-298h-87zM259 745h87v-298h-87v298z" />
    <glyph glyph-name="degree" unicode="&#xb0;" horiz-adv-x="400" 
d="M350 535c0 -83 -68 -150 -150 -150c-83 0 -150 67 -150 150c-1 82 67 150 150 150c82 0 150 -68 150 -150zM288 535c0 48 -40 88 -89 88c-48 0 -88 -40 -87 -88c0 -49 39 -88 88 -88c48 0 88 39 88 88z" />
    <glyph glyph-name="thorn" unicode="&#xfe;" horiz-adv-x="611" 
d="M412 232v41c0 68 -7 156 -92 156c-90 0 -90 -117 -90 -197s0 -197 90 -197c85 0 92 88 92 156v41zM313 -213v-39c-58 1 -104 1 -150 2c-46 -1 -92 -1 -144 -2v39c88 0 77 19 77 84v754c0 60 11 83 -71 83v37h205v-327h2c33 46 81 62 142 62c146 0 184 -113 184 -240
c0 -133 -38 -250 -192 -250c-58 0 -89 9 -136 45v-164c0 -68 -11 -84 83 -84z" />
    <glyph glyph-name="threequarters" unicode="&#xbe;" horiz-adv-x="834" 
d="M664 93h-174v63c55 74 111 145 166 218h95v-222h59v-59h-59c0 -69 -9 -70 59 -70v-25c-35 1 -70 1 -105 1c-36 0 -71 0 -107 -1v25c46 2 66 -1 66 31v39zM664 152v168c-41 -61 -80 -110 -126 -168h126zM658 635l-364 -635h-70l364 635h70zM141 436l-40 -4v36l43 -2
c43 0 53 27 53 82c0 39 -5 56 -46 56c-45 0 -44 -29 -43 -55c1 -14 -16 -22 -25 -21h-33c-13 0 -21 8 -20 20c5 59 44 87 122 87c111 0 150 -40 150 -95c0 -35 -18 -72 -76 -84v-2c61 -15 82 -37 82 -97c0 -81 -62 -109 -142 -109c-70 0 -142 11 -142 89c0 11 1 24 22 24h32
c20 0 22 -5 24 -22c3 -13 -5 -59 49 -59c53 0 52 43 52 84s-9 72 -62 72z" />
    <glyph glyph-name="twosuperior" unicode="&#xb2;" horiz-adv-x="333" 
d="M23 253v75c65 48 174 142 174 212c0 32 0 68 -38 66c-47 0 -44 -32 -44 -65c0 -22 -14 -22 -23 -22h-38c-22 0 -19 15 -19 24c0 51 41 92 135 92c64 0 135 -13 135 -86c0 -54 -21 -77 -66 -110l-142 -105h142c34 0 40 12 44 55h27v-136c-50 0 -99 0 -148 1
c-45 -1 -92 -1 -139 -1z" />
    <glyph glyph-name="registered" unicode="&#xae;" horiz-adv-x="747" 
d="M373 -10c-192 0 -347 160 -347 356c0 198 155 359 347 359c193 0 349 -160 349 -359c0 -196 -156 -356 -349 -356zM373 47c162 0 294 135 294 300c0 168 -131 302 -294 302c-162 0 -292 -135 -292 -302c0 -165 131 -300 292 -300zM212 549h153c65 0 150 -6 150 -93
c0 -59 -46 -94 -98 -102v-2c41 -8 60 -49 77 -89c17 -39 32 -77 65 -77v-20h-69c-14 0 -21 4 -31 16c-22 26 -52 122 -71 143c-14 16 -31 14 -48 14h-15v-122c0 -23 3 -33 43 -31v-20h-157v20c39 -2 45 8 45 27v286c0 31 -8 29 -44 29v21zM325 488v-123h19
c57 0 100 15 100 82c0 54 -30 80 -81 78h-21c-20 0 -17 -23 -17 -37z" />
    <glyph glyph-name="minus" unicode="&#x2212;" horiz-adv-x="606" 
d="M51 212v86h504v-86h-504z" />
    <glyph glyph-name="eth" unicode="&#xf0;" 
d="M278 29c103 0 91 149 91 216c0 66 12 195 -91 195s-91 -129 -91 -195c0 -67 -12 -216 91 -216zM303 607l-150 -80l-45 34l154 83c-48 37 -105 61 -156 72l34 30c68 -4 135 -26 192 -65l111 60l47 -33l-114 -61c84 -74 139 -189 139 -343c0 -180 -79 -314 -237 -314
c-160 0 -237 64 -237 234c0 177 62 256 237 256c42 0 70 -14 96 -30c-6 64 -33 116 -71 157z" />
    <glyph glyph-name="multiply" unicode="&#xd7;" horiz-adv-x="606" 
d="M241 255l-168 168l61 60l169 -167l168 169l61 -61l-169 -169l171 -171l-61 -61l-170 171l-170 -169l-61 61z" />
    <glyph glyph-name="threesuperior" unicode="&#xb3;" horiz-adv-x="333" 
d="M104 468l41 -2c43 0 53 27 53 82c0 39 -5 56 -46 56c-45 0 -44 -29 -43 -55c1 -14 -16 -22 -25 -21h-33c-13 0 -21 8 -20 20c5 59 44 87 122 87c111 0 150 -40 150 -95c0 -35 -18 -72 -76 -84v-2c61 -15 82 -37 82 -97c0 -81 -62 -109 -142 -109c-70 0 -142 11 -142 89
c0 11 1 24 22 24h32c20 0 22 -5 24 -22c3 -13 -5 -59 49 -59c53 0 52 43 52 84s-9 72 -62 72l-40 -4z" />
    <glyph glyph-name="copyright" unicode="&#xa9;" horiz-adv-x="747" 
d="M372 -10c-192 0 -347 160 -347 356c0 198 155 359 347 359c193 0 349 -160 349 -359c0 -196 -156 -356 -349 -356zM372 47c162 0 294 135 294 300c0 168 -131 302 -294 302c-162 0 -292 -135 -292 -302c0 -165 131 -300 292 -300zM520 516v-104h-33c-8 53 -38 97 -96 97
c-81 0 -118 -76 -118 -149c0 -44 8 -86 31 -121c21 -34 58 -55 97 -55c36 0 76 17 97 50l8 14l26 -11c-25 -62 -97 -92 -160 -92c-112 0 -185 84 -185 196c0 119 80 203 196 203c29 0 43 -3 70 -10c22 -5 47 -10 67 -18z" />
    <glyph glyph-name="Aacute" unicode="&#xc1;" horiz-adv-x="778" 
d="M453 279h-203l-47 -155c-7 -25 -9 -33 -10 -43c-2 -37 59 -41 87 -42v-41c-46 1 -92 1 -138 2c-42 -1 -83 -1 -125 -2v41c53 1 71 14 83 25c19 18 46 81 75 161c57 157 119 307 173 467c18 -1 36 -2 54 -2s35 1 53 2l187 -528c26 -71 35 -125 116 -125v-41
c-53 1 -110 1 -167 2c-57 -1 -114 -1 -164 -2v41c23 2 84 3 88 36c2 15 -8 40 -12 53zM266 325h170l-86 242zM497 831l-132 -81h-55l128 148c22 26 46 47 82 33c18 -5 28 -22 28 -40c0 -32 -27 -45 -51 -60z" />
    <glyph glyph-name="Acircumflex" unicode="&#xc2;" horiz-adv-x="778" 
d="M453 279h-203l-47 -155c-7 -25 -9 -33 -10 -43c-2 -37 59 -41 87 -42v-41c-46 1 -92 1 -138 2c-42 -1 -83 -1 -125 -2v41c53 1 71 14 83 25c19 18 46 81 75 161c57 157 119 307 173 467c18 -1 36 -2 54 -2s35 1 53 2l187 -528c26 -71 35 -125 116 -125v-41
c-53 1 -110 1 -167 2c-57 -1 -114 -1 -164 -2v41c23 2 84 3 88 36c2 15 -8 40 -12 53zM266 325h170l-86 242zM343 926h93l123 -176h-57l-112 98l-113 -98h-55z" />
    <glyph glyph-name="Adieresis" unicode="&#xc4;" horiz-adv-x="778" 
d="M453 279h-203l-47 -155c-7 -25 -9 -33 -10 -43c-2 -37 59 -41 87 -42v-41c-46 1 -92 1 -138 2c-42 -1 -83 -1 -125 -2v41c53 1 71 14 83 25c19 18 46 81 75 161c57 157 119 307 173 467c18 -1 36 -2 54 -2s35 1 53 2l187 -528c26 -71 35 -125 116 -125v-41
c-53 1 -110 1 -167 2c-57 -1 -114 -1 -164 -2v41c23 2 84 3 88 36c2 15 -8 40 -12 53zM266 325h170l-86 242zM495 889c34 0 64 -32 64 -65c0 -35 -29 -65 -64 -65c-36 0 -65 30 -65 65s30 65 65 65zM284 759c-34 0 -62 32 -62 65c0 34 28 65 62 65c35 0 65 -29 65 -65
s-29 -65 -65 -65z" />
    <glyph glyph-name="Agrave" unicode="&#xc0;" horiz-adv-x="778" 
d="M453 279h-203l-47 -155c-7 -25 -9 -33 -10 -43c-2 -37 59 -41 87 -42v-41c-46 1 -92 1 -138 2c-42 -1 -83 -1 -125 -2v41c53 1 71 14 83 25c19 18 46 81 75 161c57 157 119 307 173 467c18 -1 36 -2 54 -2s35 1 53 2l187 -528c26 -71 35 -125 116 -125v-41
c-53 1 -110 1 -167 2c-57 -1 -114 -1 -164 -2v41c23 2 84 3 88 36c2 15 -8 40 -12 53zM266 325h170l-86 242zM525 750h-55l-159 97c-33 21 -26 58 -10 76c18 20 58 16 82 -12z" />
    <glyph glyph-name="Aring" unicode="&#xc5;" horiz-adv-x="778" 
d="M453 279h-203l-47 -155c-7 -25 -9 -33 -10 -43c-2 -37 59 -41 87 -42v-41c-46 1 -92 1 -138 2c-42 -1 -83 -1 -125 -2v41c53 1 71 14 83 25c19 18 46 81 75 161c57 157 119 307 173 467c18 -1 36 -2 54 -2s35 1 53 2l187 -528c26 -71 35 -125 116 -125v-41
c-53 1 -110 1 -167 2c-57 -1 -114 -1 -164 -2v41c23 2 84 3 88 36c2 15 -8 40 -12 53zM266 325h170l-86 242zM512 836c0 -59 -48 -107 -107 -107c-58 0 -108 48 -108 107c0 58 50 108 108 108s107 -50 107 -108zM344 836c0 -33 29 -60 61 -60s60 28 60 60
c0 33 -28 60 -60 60c-33 0 -61 -27 -61 -60z" />
    <glyph glyph-name="Atilde" unicode="&#xc3;" horiz-adv-x="778" 
d="M453 279h-203l-47 -155c-7 -25 -9 -33 -10 -43c-2 -37 59 -41 87 -42v-41c-46 1 -92 1 -138 2c-42 -1 -83 -1 -125 -2v41c53 1 71 14 83 25c19 18 46 81 75 161c57 157 119 307 173 467c18 -1 36 -2 54 -2s35 1 53 2l187 -528c26 -71 35 -125 116 -125v-41
c-53 1 -110 1 -167 2c-57 -1 -114 -1 -164 -2v41c23 2 84 3 88 36c2 15 -8 40 -12 53zM266 325h170l-86 242zM530 896h43c-14 -63 -48 -127 -121 -127c-27 0 -53 11 -77 22c-24 10 -54 27 -80 27c-22 0 -38 -20 -47 -47h-43c20 82 59 125 121 125c30 0 67 -17 94 -29
c12 -6 30 -17 59 -18c19 -1 43 14 51 47z" />
    <glyph glyph-name="Ccedilla" unicode="&#xc7;" horiz-adv-x="667" 
d="M635 204v-181c-89 -21 -178 -33 -266 -33c-14 0 -27 0 -40 1l-28 -63c53 20 125 -6 123 -68c-2 -70 -86 -85 -139 -85c-29 0 -61 9 -88 18l16 37c39 -17 118 -26 116 29c-2 36 -39 39 -73 30l-10 8l44 99c-169 26 -257 138 -257 330c0 251 95 379 357 379
c86 0 161 -13 245 -30v-171h-71c-19 125 -32 158 -174 158c-181 0 -197 -199 -197 -336c0 -140 37 -294 205 -294c125 0 157 57 162 172h75z" />
    <glyph glyph-name="Eacute" unicode="&#xc9;" horiz-adv-x="611" 
d="M104 120v449c-2 59 14 82 -83 82v41c42 -1 99 -2 156 -2c130 0 261 1 391 2v-164h-73c-12 106 -12 118 -147 118h-98v-256h61c60 0 72 40 75 96h55c-1 -39 -1 -78 -2 -117c1 -40 1 -79 2 -118h-55c-5 54 -13 94 -75 97h-61v-304h111c119 0 122 33 134 146h73v-192
c-130 1 -261 2 -391 2c-57 0 -114 -1 -156 -2v41c97 0 81 23 83 81zM413 831l-132 -81h-55l128 148c22 26 46 47 82 33c18 -5 28 -22 28 -40c0 -32 -27 -45 -51 -60z" />
    <glyph glyph-name="Ecircumflex" unicode="&#xca;" horiz-adv-x="611" 
d="M104 120v449c-2 59 14 82 -83 82v41c42 -1 99 -2 156 -2c130 0 261 1 391 2v-164h-73c-12 106 -12 118 -147 118h-98v-256h61c60 0 72 40 75 96h55c-1 -39 -1 -78 -2 -117c1 -40 1 -79 2 -118h-55c-5 54 -13 94 -75 97h-61v-304h111c119 0 122 33 134 146h73v-192
c-130 1 -261 2 -391 2c-57 0 -114 -1 -156 -2v41c97 0 81 23 83 81zM259 926h93l123 -176h-57l-112 98l-113 -98h-55z" />
    <glyph glyph-name="Edieresis" unicode="&#xcb;" horiz-adv-x="611" 
d="M104 120v449c-2 59 14 82 -83 82v41c42 -1 99 -2 156 -2c130 0 261 1 391 2v-164h-73c-12 106 -12 118 -147 118h-98v-256h61c60 0 72 40 75 96h55c-1 -39 -1 -78 -2 -117c1 -40 1 -79 2 -118h-55c-5 54 -13 94 -75 97h-61v-304h111c119 0 122 33 134 146h73v-192
c-130 1 -261 2 -391 2c-57 0 -114 -1 -156 -2v41c97 0 81 23 83 81zM411 889c34 0 64 -32 64 -65c0 -35 -29 -65 -64 -65c-36 0 -65 30 -65 65s30 65 65 65zM200 759c-34 0 -62 32 -62 65c0 34 28 65 62 65c35 0 65 -29 65 -65s-29 -65 -65 -65z" />
    <glyph glyph-name="Egrave" unicode="&#xc8;" horiz-adv-x="611" 
d="M104 120v449c-2 59 14 82 -83 82v41c42 -1 99 -2 156 -2c130 0 261 1 391 2v-164h-73c-12 106 -12 118 -147 118h-98v-256h61c60 0 72 40 75 96h55c-1 -39 -1 -78 -2 -117c1 -40 1 -79 2 -118h-55c-5 54 -13 94 -75 97h-61v-304h111c119 0 122 33 134 146h73v-192
c-130 1 -261 2 -391 2c-57 0 -114 -1 -156 -2v41c97 0 81 23 83 81zM441 750h-55l-159 97c-33 21 -26 58 -10 76c18 20 58 16 82 -12z" />
    <glyph glyph-name="Iacute" unicode="&#xcd;" horiz-adv-x="389" 
d="M267 570v-450c2 -66 -14 -81 98 -81v-41c-57 1 -114 1 -342 0v41c112 0 96 15 98 81v450c-2 66 14 81 -98 81v41c57 -1 114 -1 171 -2c57 1 114 1 171 2v-41c-112 0 -96 -15 -98 -81zM302 831l-132 -81h-55l128 148c22 26 46 47 82 33c18 -5 28 -22 28 -40
c0 -32 -27 -45 -51 -60z" />
    <glyph glyph-name="Icircumflex" unicode="&#xce;" horiz-adv-x="389" 
d="M267 570v-450c2 -66 -14 -81 98 -81v-41c-57 1 -114 1 -342 0v41c112 0 96 15 98 81v450c-2 66 14 81 -98 81v41c57 -1 114 -1 171 -2c57 1 114 1 171 2v-41c-112 0 -96 -15 -98 -81zM148 926h93l123 -176h-57l-112 98l-113 -98h-55z" />
    <glyph glyph-name="Idieresis" unicode="&#xcf;" horiz-adv-x="389" 
d="M267 570v-450c2 -66 -14 -81 98 -81v-41c-57 1 -114 1 -342 0v41c112 0 96 15 98 81v450c-2 66 14 81 -98 81v41c57 -1 114 -1 171 -2c57 1 114 1 171 2v-41c-112 0 -96 -15 -98 -81zM300 889c34 0 64 -32 64 -65c0 -35 -29 -65 -64 -65c-36 0 -65 30 -65 65s30 65 65 65
zM89 759c-34 0 -62 32 -62 65c0 34 28 65 62 65c35 0 65 -29 65 -65s-29 -65 -65 -65z" />
    <glyph glyph-name="Igrave" unicode="&#xcc;" horiz-adv-x="389" 
d="M267 570v-450c2 -66 -14 -81 98 -81v-41c-57 1 -114 1 -342 0v41c112 0 96 15 98 81v450c-2 66 14 81 -98 81v41c57 -1 114 -1 171 -2c57 1 114 1 171 2v-41c-112 0 -96 -15 -98 -81zM330 750h-55l-159 97c-33 21 -26 58 -10 76c18 20 58 16 82 -12z" />
    <glyph glyph-name="Ntilde" unicode="&#xd1;" horiz-adv-x="778" 
d="M106 120v450c-2 58 14 81 -83 81v41c36 -1 71 -1 107 -2c32 0 63 1 95 2l396 -524v402c0 72 -5 81 -93 81v41c34 -1 75 -1 117 -2c41 1 81 1 122 2v-41c-90 0 -90 -12 -90 -81v-572c-20 1 -39 1 -59 2c-18 -1 -37 -1 -55 -2l-401 538v-416c0 -71 0 -81 96 -81v-41
c-47 1 -87 1 -128 2c-42 -1 -83 -1 -107 -2v41c80 0 83 14 83 81zM530 896h43c-14 -63 -48 -127 -121 -127c-27 0 -53 11 -77 22c-24 10 -54 27 -80 27c-22 0 -38 -20 -47 -47h-43c20 82 59 125 121 125c30 0 67 -17 94 -29c12 -6 30 -17 59 -18c19 -1 43 14 51 47z" />
    <glyph glyph-name="Oacute" unicode="&#xd3;" horiz-adv-x="778" 
d="M388 -10c-249 0 -349 115 -350 358c1 242 102 357 350 357s349 -115 350 -357c-1 -243 -101 -358 -350 -358zM388 32c160 1 188 132 188 316s-28 315 -188 315s-188 -131 -188 -315s28 -315 188 -316zM497 831l-132 -81h-55l128 148c22 26 46 47 82 33
c18 -5 28 -22 28 -40c0 -32 -27 -45 -51 -60z" />
    <glyph glyph-name="Ocircumflex" unicode="&#xd4;" horiz-adv-x="778" 
d="M388 -10c-249 0 -349 115 -350 358c1 242 102 357 350 357s349 -115 350 -357c-1 -243 -101 -358 -350 -358zM388 32c160 1 188 132 188 316s-28 315 -188 315s-188 -131 -188 -315s28 -315 188 -316zM343 926h93l123 -176h-57l-112 98l-113 -98h-55z" />
    <glyph glyph-name="Odieresis" unicode="&#xd6;" horiz-adv-x="778" 
d="M388 -10c-249 0 -349 115 -350 358c1 242 102 357 350 357s349 -115 350 -357c-1 -243 -101 -358 -350 -358zM388 32c160 1 188 132 188 316s-28 315 -188 315s-188 -131 -188 -315s28 -315 188 -316zM495 889c34 0 64 -32 64 -65c0 -35 -29 -65 -64 -65
c-36 0 -65 30 -65 65s30 65 65 65zM284 759c-34 0 -62 32 -62 65c0 34 28 65 62 65c35 0 65 -29 65 -65s-29 -65 -65 -65z" />
    <glyph glyph-name="Ograve" unicode="&#xd2;" horiz-adv-x="778" 
d="M388 -10c-249 0 -349 115 -350 358c1 242 102 357 350 357s349 -115 350 -357c-1 -243 -101 -358 -350 -358zM388 32c160 1 188 132 188 316s-28 315 -188 315s-188 -131 -188 -315s28 -315 188 -316zM525 750h-55l-159 97c-33 21 -26 58 -10 76c18 20 58 16 82 -12z" />
    <glyph glyph-name="Otilde" unicode="&#xd5;" horiz-adv-x="778" 
d="M388 -10c-249 0 -349 115 -350 358c1 242 102 357 350 357s349 -115 350 -357c-1 -243 -101 -358 -350 -358zM388 32c160 1 188 132 188 316s-28 315 -188 315s-188 -131 -188 -315s28 -315 188 -316zM530 896h43c-14 -63 -48 -127 -121 -127c-27 0 -53 11 -77 22
c-24 10 -54 27 -80 27c-22 0 -38 -20 -47 -47h-43c20 82 59 125 121 125c30 0 67 -17 94 -29c12 -6 30 -17 59 -18c19 -1 43 14 51 47z" />
    <glyph glyph-name="Scaron" unicode="&#x160;" horiz-adv-x="611" 
d="M530 672v-156h-72c-5 87 -34 146 -132 146c-77 0 -134 -36 -134 -118c0 -104 123 -111 198 -135c108 -34 176 -69 176 -196c0 -170 -147 -223 -293 -223c-81 0 -149 14 -223 35v175h76c9 -111 33 -169 155 -169c79 0 140 49 140 130c0 53 -22 88 -73 109
c-130 46 -298 53 -298 232c0 150 143 203 272 203c60 0 138 -11 208 -33zM352 750h-93l-121 176h55l113 -99l112 99h57z" />
    <glyph glyph-name="Uacute" unicode="&#xda;" horiz-adv-x="778" 
d="M106 223v348c-2 60 14 80 -88 80v41c47 -1 104 -1 161 -2c57 1 114 1 161 2v-41c-97 0 -88 -17 -88 -80v-356c-3 -119 40 -185 168 -185c125 0 198 67 198 192v349c0 74 -6 80 -101 80v41c42 -1 83 -1 125 -2c41 1 81 1 122 2v-41c-90 0 -90 -13 -90 -80v-355
c0 -167 -113 -226 -268 -226c-187 0 -300 30 -300 233zM517 831l-132 -81h-55l128 148c22 26 46 47 82 33c18 -5 28 -22 28 -40c0 -32 -27 -45 -51 -60z" />
    <glyph glyph-name="Ucircumflex" unicode="&#xdb;" horiz-adv-x="778" 
d="M106 223v348c-2 60 14 80 -88 80v41c47 -1 104 -1 161 -2c57 1 114 1 161 2v-41c-97 0 -88 -17 -88 -80v-356c-3 -119 40 -185 168 -185c125 0 198 67 198 192v349c0 74 -6 80 -101 80v41c42 -1 83 -1 125 -2c41 1 81 1 122 2v-41c-90 0 -90 -13 -90 -80v-355
c0 -167 -113 -226 -268 -226c-187 0 -300 30 -300 233zM358 926h93l123 -176h-57l-112 98l-113 -98h-55z" />
    <glyph glyph-name="Udieresis" unicode="&#xdc;" horiz-adv-x="778" 
d="M106 223v348c-2 60 14 80 -88 80v41c47 -1 104 -1 161 -2c57 1 114 1 161 2v-41c-97 0 -88 -17 -88 -80v-356c-3 -119 40 -185 168 -185c125 0 198 67 198 192v349c0 74 -6 80 -101 80v41c42 -1 83 -1 125 -2c41 1 81 1 122 2v-41c-90 0 -90 -13 -90 -80v-355
c0 -167 -113 -226 -268 -226c-187 0 -300 30 -300 233zM510 889c34 0 64 -32 64 -65c0 -35 -29 -65 -64 -65c-36 0 -65 30 -65 65s30 65 65 65zM299 759c-34 0 -62 32 -62 65c0 34 28 65 62 65c35 0 65 -29 65 -65s-29 -65 -65 -65z" />
    <glyph glyph-name="Ugrave" unicode="&#xd9;" horiz-adv-x="778" 
d="M106 223v348c-2 60 14 80 -88 80v41c47 -1 104 -1 161 -2c57 1 114 1 161 2v-41c-97 0 -88 -17 -88 -80v-356c-3 -119 40 -185 168 -185c125 0 198 67 198 192v349c0 74 -6 80 -101 80v41c42 -1 83 -1 125 -2c41 1 81 1 122 2v-41c-90 0 -90 -13 -90 -80v-355
c0 -167 -113 -226 -268 -226c-187 0 -300 30 -300 233zM525 750h-55l-159 97c-33 21 -26 58 -10 76c18 20 58 16 82 -12z" />
    <glyph glyph-name="Yacute" unicode="&#xdd;" horiz-adv-x="722" 
d="M444 316v-196c0 -71 -8 -81 103 -81v-41c-62 1 -119 1 -176 2c-57 -1 -114 -1 -176 -2v41c117 0 100 13 103 81v140c0 24 -2 42 -9 56l-114 180c-56 89 -81 145 -156 156v40c56 -1 112 -1 168 -2c56 1 111 1 167 2v-42c-29 -3 -74 -3 -74 -42c0 -15 14 -28 32 -58
l106 -176l88 158c10 17 36 68 36 86c0 34 -33 30 -69 34v40c39 -1 78 -1 117 -2c39 1 77 1 116 2v-40c-77 -15 -89 -48 -145 -135l-113 -180c-1 -7 -4 -14 -4 -21zM489 831l-132 -81h-55l128 148c22 26 46 47 82 33c18 -5 28 -22 28 -40c0 -32 -27 -45 -51 -60z" />
    <glyph glyph-name="Ydieresis" unicode="&#x178;" horiz-adv-x="722" 
d="M444 316v-196c0 -71 -8 -81 103 -81v-41c-62 1 -119 1 -176 2c-57 -1 -114 -1 -176 -2v41c117 0 100 13 103 81v140c0 24 -2 42 -9 56l-114 180c-56 89 -81 145 -156 156v40c56 -1 112 -1 168 -2c56 1 111 1 167 2v-42c-29 -3 -74 -3 -74 -42c0 -15 14 -28 32 -58
l106 -176l88 158c10 17 36 68 36 86c0 34 -33 30 -69 34v40c39 -1 78 -1 117 -2c39 1 77 1 116 2v-40c-77 -15 -89 -48 -145 -135l-113 -180c-1 -7 -4 -14 -4 -21zM482 889c34 0 64 -32 64 -65c0 -35 -29 -65 -64 -65c-36 0 -65 30 -65 65s30 65 65 65zM271 759
c-34 0 -62 32 -62 65c0 34 28 65 62 65c35 0 65 -29 65 -65s-29 -65 -65 -65z" />
    <glyph glyph-name="Zcaron" unicode="&#x17d;" horiz-adv-x="667" 
d="M28 -2v61l415 587h-171c-104 0 -106 -41 -113 -138h-70v184c89 -1 179 -2 268 -2s179 1 268 2v-45l-416 -600h186c139 -4 153 26 157 162h73v-211c-99 1 -199 1 -298 2c-100 -1 -199 -1 -299 -2zM380 750h-93l-121 176h55l113 -99l112 99h57z" />
    <glyph glyph-name="aacute" unicode="&#xe1;" 
d="M337 -2v47c-53 -35 -90 -55 -153 -55c-89 0 -133 53 -133 139c0 80 43 128 124 136c26 3 49 4 75 4h82c0 60 24 170 -65 170c-39 0 -65 -15 -68 -79c2 -22 -4 -30 -20 -30h-70c-12 -2 -22 6 -20 30c-8 90 89 120 178 120c145 -8 199 -20 199 -154v-206
c0 -79 -15 -83 71 -83v-39c-33 1 -67 1 -100 2c-33 -1 -67 -1 -100 -2zM332 138v92h-38c-52 0 -84 -10 -98 -66c-8 -50 -4 -113 61 -113c53 0 75 36 75 87zM386 616l-132 -81h-55l128 148c22 26 46 47 82 33c18 -5 28 -22 28 -40c0 -32 -27 -45 -51 -60z" />
    <glyph glyph-name="acircumflex" unicode="&#xe2;" 
d="M337 -2v47c-53 -35 -90 -55 -153 -55c-89 0 -133 53 -133 139c0 80 43 128 124 136c26 3 49 4 75 4h82c0 60 24 170 -65 170c-39 0 -65 -15 -68 -79c2 -22 -4 -30 -20 -30h-70c-12 -2 -22 6 -20 30c-8 90 89 120 178 120c145 -8 199 -20 199 -154v-206
c0 -79 -15 -83 71 -83v-39c-33 1 -67 1 -100 2c-33 -1 -67 -1 -100 -2zM332 138v92h-38c-52 0 -84 -10 -98 -66c-8 -50 -4 -113 61 -113c53 0 75 36 75 87zM232 711h93l123 -176h-57l-112 98l-113 -98h-55z" />
    <glyph glyph-name="adieresis" unicode="&#xe4;" 
d="M337 -2v47c-53 -35 -90 -55 -153 -55c-89 0 -133 53 -133 139c0 80 43 128 124 136c26 3 49 4 75 4h82c0 60 24 170 -65 170c-39 0 -65 -15 -68 -79c2 -22 -4 -30 -20 -30h-70c-12 -2 -22 6 -20 30c-8 90 89 120 178 120c145 -8 199 -20 199 -154v-206
c0 -79 -15 -83 71 -83v-39c-33 1 -67 1 -100 2c-33 -1 -67 -1 -100 -2zM332 138v92h-38c-52 0 -84 -10 -98 -66c-8 -50 -4 -113 61 -113c53 0 75 36 75 87zM384 674c34 0 64 -32 64 -65c0 -35 -29 -65 -64 -65c-36 0 -65 30 -65 65s30 65 65 65zM173 544
c-34 0 -62 32 -62 65c0 34 28 65 62 65c35 0 65 -29 65 -65s-29 -65 -65 -65z" />
    <glyph glyph-name="agrave" unicode="&#xe0;" 
d="M337 -2v47c-53 -35 -90 -55 -153 -55c-89 0 -133 53 -133 139c0 80 43 128 124 136c26 3 49 4 75 4h82c0 60 24 170 -65 170c-39 0 -65 -15 -68 -79c2 -22 -4 -30 -20 -30h-70c-12 -2 -22 6 -20 30c-8 90 89 120 178 120c145 -8 199 -20 199 -154v-206
c0 -79 -15 -83 71 -83v-39c-33 1 -67 1 -100 2c-33 -1 -67 -1 -100 -2zM332 138v92h-38c-52 0 -84 -10 -98 -66c-8 -50 -4 -113 61 -113c53 0 75 36 75 87zM414 535h-55l-159 97c-33 21 -26 58 -10 76c18 20 58 16 82 -12z" />
    <glyph glyph-name="aring" unicode="&#xe5;" 
d="M337 -2v47c-53 -35 -90 -55 -153 -55c-89 0 -133 53 -133 139c0 80 43 128 124 136c26 3 49 4 75 4h82c0 60 24 170 -65 170c-39 0 -65 -15 -68 -79c2 -22 -4 -30 -20 -30h-70c-12 -2 -22 6 -20 30c-8 90 89 120 178 120c145 -8 199 -20 199 -154v-206
c0 -79 -15 -83 71 -83v-39c-33 1 -67 1 -100 2c-33 -1 -67 -1 -100 -2zM332 138v92h-38c-52 0 -84 -10 -98 -66c-8 -50 -4 -113 61 -113c53 0 75 36 75 87zM386 641c0 -59 -48 -107 -107 -107c-58 0 -108 48 -108 107c0 58 50 108 108 108s107 -50 107 -108zM218 641
c0 -33 29 -60 61 -60s60 28 60 60c0 33 -28 60 -60 60c-33 0 -61 -27 -61 -60z" />
    <glyph glyph-name="atilde" unicode="&#xe3;" 
d="M337 -2v47c-53 -35 -90 -55 -153 -55c-89 0 -133 53 -133 139c0 80 43 128 124 136c26 3 49 4 75 4h82c0 60 24 170 -65 170c-39 0 -65 -15 -68 -79c2 -22 -4 -30 -20 -30h-70c-12 -2 -22 6 -20 30c-8 90 89 120 178 120c145 -8 199 -20 199 -154v-206
c0 -79 -15 -83 71 -83v-39c-33 1 -67 1 -100 2c-33 -1 -67 -1 -100 -2zM332 138v92h-38c-52 0 -84 -10 -98 -66c-8 -50 -4 -113 61 -113c53 0 75 36 75 87zM419 681h43c-14 -63 -48 -127 -121 -127c-27 0 -53 11 -77 22c-24 10 -54 27 -80 27c-22 0 -38 -20 -47 -47h-43
c20 82 59 125 121 125c30 0 67 -17 94 -29c12 -6 30 -17 59 -18c19 -1 43 14 51 47z" />
    <glyph glyph-name="ccedilla" unicode="&#xe7;" horiz-adv-x="500" 
d="M455 326h-64c-5 70 -29 115 -99 115c-112 0 -108 -130 -108 -211c0 -77 -3 -203 104 -202c81 0 92 52 102 125h65v-133c-63 -23 -130 -30 -193 -30h-17l-27 -62c53 20 125 -6 123 -68c-2 -70 -86 -85 -139 -85c-29 0 -61 9 -88 18l16 37c39 -17 118 -26 116 29
c-2 36 -39 39 -73 30l-10 8l43 97c-119 17 -170 93 -170 232c0 165 63 254 238 254c57 0 129 -13 181 -36v-118z" />
    <glyph glyph-name="eacute" unicode="&#xe9;" horiz-adv-x="500" 
d="M466 224h-284c0 -66 -11 -193 89 -193c53 0 76 23 89 81c4 16 2 26 16 28h63c14 0 12 -16 11 -27c-7 -96 -101 -123 -179 -123c-185 0 -235 73 -235 249c0 181 64 241 226 241c176 0 211 -83 204 -256zM182 270h150c-2 94 8 171 -76 171c-78 0 -72 -81 -74 -171zM358 616
l-132 -81h-55l128 148c22 26 46 47 82 33c18 -5 28 -22 28 -40c0 -32 -27 -45 -51 -60z" />
    <glyph glyph-name="ecircumflex" unicode="&#xea;" horiz-adv-x="500" 
d="M466 224h-284c0 -66 -11 -193 89 -193c53 0 76 23 89 81c4 16 2 26 16 28h63c14 0 12 -16 11 -27c-7 -96 -101 -123 -179 -123c-185 0 -235 73 -235 249c0 181 64 241 226 241c176 0 211 -83 204 -256zM182 270h150c-2 94 8 171 -76 171c-78 0 -72 -81 -74 -171zM204 711
h93l123 -176h-57l-112 98l-113 -98h-55z" />
    <glyph glyph-name="edieresis" unicode="&#xeb;" horiz-adv-x="500" 
d="M466 224h-284c0 -66 -11 -193 89 -193c53 0 76 23 89 81c4 16 2 26 16 28h63c14 0 12 -16 11 -27c-7 -96 -101 -123 -179 -123c-185 0 -235 73 -235 249c0 181 64 241 226 241c176 0 211 -83 204 -256zM182 270h150c-2 94 8 171 -76 171c-78 0 -72 -81 -74 -171zM356 674
c34 0 64 -32 64 -65c0 -35 -29 -65 -64 -65c-36 0 -65 30 -65 65s30 65 65 65zM145 544c-34 0 -62 32 -62 65c0 34 28 65 62 65c35 0 65 -29 65 -65s-29 -65 -65 -65z" />
    <glyph glyph-name="egrave" unicode="&#xe8;" horiz-adv-x="500" 
d="M466 224h-284c0 -66 -11 -193 89 -193c53 0 76 23 89 81c4 16 2 26 16 28h63c14 0 12 -16 11 -27c-7 -96 -101 -123 -179 -123c-185 0 -235 73 -235 249c0 181 64 241 226 241c176 0 211 -83 204 -256zM182 270h150c-2 94 8 171 -76 171c-78 0 -72 -81 -74 -171zM386 535
h-55l-159 97c-33 21 -26 58 -10 76c18 20 58 16 82 -12z" />
    <glyph glyph-name="iacute" unicode="&#xed;" horiz-adv-x="333" 
d="M31 472h205v-352c0 -79 -9 -83 71 -83v-39c-46 1 -92 1 -138 2c-46 -1 -92 -1 -138 -2v39c80 0 71 4 71 83v244c0 68 3 69 -71 69v39zM274 616l-132 -81h-55l128 148c22 26 46 47 82 33c18 -5 28 -22 28 -40c0 -32 -27 -45 -51 -60z" />
    <glyph glyph-name="icircumflex" unicode="&#xee;" horiz-adv-x="333" 
d="M31 472h205v-352c0 -79 -9 -83 71 -83v-39c-46 1 -92 1 -138 2c-46 -1 -92 -1 -138 -2v39c80 0 71 4 71 83v244c0 68 3 69 -71 69v39zM120 711h93l123 -176h-57l-112 98l-113 -98h-55z" />
    <glyph glyph-name="idieresis" unicode="&#xef;" horiz-adv-x="333" 
d="M31 472h205v-352c0 -79 -9 -83 71 -83v-39c-46 1 -92 1 -138 2c-46 -1 -92 -1 -138 -2v39c80 0 71 4 71 83v244c0 68 3 69 -71 69v39zM272 674c34 0 64 -32 64 -65c0 -35 -29 -65 -64 -65c-36 0 -65 30 -65 65s30 65 65 65zM61 544c-34 0 -62 32 -62 65c0 34 28 65 62 65
c35 0 65 -29 65 -65s-29 -65 -65 -65z" />
    <glyph glyph-name="igrave" unicode="&#xec;" horiz-adv-x="333" 
d="M31 472h205v-352c0 -79 -9 -83 71 -83v-39c-46 1 -92 1 -138 2c-46 -1 -92 -1 -138 -2v39c80 0 71 4 71 83v244c0 68 3 69 -71 69v39zM302 535h-55l-159 97c-33 21 -26 58 -10 76c18 20 58 16 82 -12z" />
    <glyph glyph-name="ntilde" unicode="&#xf1;" horiz-adv-x="611" 
d="M219 472v-61c56 39 86 69 162 69c108 0 141 -55 141 -154v-206c0 -60 -11 -83 71 -83v-39c-46 1 -92 1 -138 2c-46 -1 -92 -1 -125 -2v39c68 0 58 30 58 83v190c0 57 -12 99 -78 99c-68 0 -86 -57 -86 -113v-176c0 -53 -10 -83 58 -83v-39c-33 1 -79 1 -125 2
c-46 -1 -92 -1 -137 -2v39c81 0 70 23 70 83v230c0 60 11 83 -70 83v39c33 -1 67 -1 100 -2c33 1 66 1 99 2zM446 681h43c-14 -63 -48 -127 -121 -127c-27 0 -53 11 -77 22c-24 10 -54 27 -80 27c-22 0 -38 -20 -47 -47h-43c20 82 59 125 121 125c30 0 67 -17 94 -29
c12 -6 30 -17 59 -18c19 -1 43 14 51 47z" />
    <glyph glyph-name="oacute" unicode="&#xf3;" 
d="M277 480c175 0 236 -79 236 -256c0 -170 -76 -234 -236 -234s-237 64 -237 234c0 177 62 256 237 256zM277 440c-103 0 -91 -129 -91 -195c0 -67 -12 -216 91 -216s91 149 91 216c0 66 12 195 -91 195zM386 616l-132 -81h-55l128 148c22 26 46 47 82 33
c18 -5 28 -22 28 -40c0 -32 -27 -45 -51 -60z" />
    <glyph glyph-name="ocircumflex" unicode="&#xf4;" 
d="M277 480c175 0 236 -79 236 -256c0 -170 -76 -234 -236 -234s-237 64 -237 234c0 177 62 256 237 256zM277 440c-103 0 -91 -129 -91 -195c0 -67 -12 -216 91 -216s91 149 91 216c0 66 12 195 -91 195zM232 711h93l123 -176h-57l-112 98l-113 -98h-55z" />
    <glyph glyph-name="odieresis" unicode="&#xf6;" 
d="M277 480c175 0 236 -79 236 -256c0 -170 -76 -234 -236 -234s-237 64 -237 234c0 177 62 256 237 256zM277 440c-103 0 -91 -129 -91 -195c0 -67 -12 -216 91 -216s91 149 91 216c0 66 12 195 -91 195zM384 674c34 0 64 -32 64 -65c0 -35 -29 -65 -64 -65
c-36 0 -65 30 -65 65s30 65 65 65zM173 544c-34 0 -62 32 -62 65c0 34 28 65 62 65c35 0 65 -29 65 -65s-29 -65 -65 -65z" />
    <glyph glyph-name="ograve" unicode="&#xf2;" 
d="M277 480c175 0 236 -79 236 -256c0 -170 -76 -234 -236 -234s-237 64 -237 234c0 177 62 256 237 256zM277 440c-103 0 -91 -129 -91 -195c0 -67 -12 -216 91 -216s91 149 91 216c0 66 12 195 -91 195zM414 535h-55l-159 97c-33 21 -26 58 -10 76c18 20 58 16 82 -12z
" />
    <glyph glyph-name="otilde" unicode="&#xf5;" 
d="M277 480c175 0 236 -79 236 -256c0 -170 -76 -234 -236 -234s-237 64 -237 234c0 177 62 256 237 256zM277 440c-103 0 -91 -129 -91 -195c0 -67 -12 -216 91 -216s91 149 91 216c0 66 12 195 -91 195zM419 681h43c-14 -63 -48 -127 -121 -127c-27 0 -53 11 -77 22
c-24 10 -54 27 -80 27c-22 0 -38 -20 -47 -47h-43c20 82 59 125 121 125c30 0 67 -17 94 -29c12 -6 30 -17 59 -18c19 -1 43 14 51 47z" />
    <glyph glyph-name="scaron" unicode="&#x161;" horiz-adv-x="444" 
d="M390 459v-125h-61c-1 63 -18 107 -89 107c-44 0 -80 -18 -80 -67c0 -121 252 -34 252 -233c0 -83 -58 -151 -192 -151c-64 0 -142 8 -186 19v137h67l3 -42c4 -49 42 -77 89 -77c55 0 93 21 93 80c0 63 -97 73 -152 91c-59 19 -100 60 -100 125c0 129 102 157 211 157
c49 0 98 -6 145 -21zM269 535h-93l-121 176h55l113 -99l112 99h57z" />
    <glyph glyph-name="uacute" unicode="&#xfa;" horiz-adv-x="611" 
d="M389 -2v64c-43 -50 -95 -72 -155 -72c-115 0 -145 44 -145 153v221c0 46 9 69 -71 69v39c34 -1 69 -1 103 -2c34 1 68 1 102 2v-290c0 -53 0 -124 72 -124c86 0 89 62 89 130v176c0 42 9 69 -66 69v39c33 -1 67 -1 100 -2c33 1 67 1 100 2v-366c0 -45 -9 -69 70 -69v-39
c-33 1 -67 1 -100 2c-33 -1 -66 -1 -99 -2zM413 616l-132 -81h-55l128 148c22 26 46 47 82 33c18 -5 28 -22 28 -40c0 -32 -27 -45 -51 -60z" />
    <glyph glyph-name="ucircumflex" unicode="&#xfb;" horiz-adv-x="611" 
d="M389 -2v64c-43 -50 -95 -72 -155 -72c-115 0 -145 44 -145 153v221c0 46 9 69 -71 69v39c34 -1 69 -1 103 -2c34 1 68 1 102 2v-290c0 -53 0 -124 72 -124c86 0 89 62 89 130v176c0 42 9 69 -66 69v39c33 -1 67 -1 100 -2c33 1 67 1 100 2v-366c0 -45 -9 -69 70 -69v-39
c-33 1 -67 1 -100 2c-33 -1 -66 -1 -99 -2zM259 711h93l123 -176h-57l-112 98l-113 -98h-55z" />
    <glyph glyph-name="udieresis" unicode="&#xfc;" horiz-adv-x="611" 
d="M389 -2v64c-43 -50 -95 -72 -155 -72c-115 0 -145 44 -145 153v221c0 46 9 69 -71 69v39c34 -1 69 -1 103 -2c34 1 68 1 102 2v-290c0 -53 0 -124 72 -124c86 0 89 62 89 130v176c0 42 9 69 -66 69v39c33 -1 67 -1 100 -2c33 1 67 1 100 2v-366c0 -45 -9 -69 70 -69v-39
c-33 1 -67 1 -100 2c-33 -1 -66 -1 -99 -2zM411 674c34 0 64 -32 64 -65c0 -35 -29 -65 -64 -65c-36 0 -65 30 -65 65s30 65 65 65zM200 544c-34 0 -62 32 -62 65c0 34 28 65 62 65c35 0 65 -29 65 -65s-29 -65 -65 -65z" />
    <glyph glyph-name="ugrave" unicode="&#xf9;" horiz-adv-x="611" 
d="M389 -2v64c-43 -50 -95 -72 -155 -72c-115 0 -145 44 -145 153v221c0 46 9 69 -71 69v39c34 -1 69 -1 103 -2c34 1 68 1 102 2v-290c0 -53 0 -124 72 -124c86 0 89 62 89 130v176c0 42 9 69 -66 69v39c33 -1 67 -1 100 -2c33 1 67 1 100 2v-366c0 -45 -9 -69 70 -69v-39
c-33 1 -67 1 -100 2c-33 -1 -66 -1 -99 -2zM441 535h-55l-159 97c-33 21 -26 58 -10 76c18 20 58 16 82 -12z" />
    <glyph glyph-name="yacute" unicode="&#xfd;" 
d="M226 0l-138 370c-24 57 -19 58 -78 66v36c46 -1 92 -1 138 -2c46 1 91 1 137 2v-36l-18 -3c-13 -2 -38 -6 -42 -22c-2 -13 3 -27 7 -41l91 -252l74 253c5 15 8 25 10 37c5 30 -42 26 -61 28v36c33 -1 66 -1 99 -2c33 1 65 1 98 2v-36c-29 -9 -53 17 -89 -85l-171 -446
c-21 -55 -77 -155 -180 -155c-37 0 -73 28 -73 68c0 30 21 50 46 53c45 6 50 -48 89 -45c42 4 68 64 81 99l29 75h-49zM386 616l-132 -81h-55l128 148c22 26 46 47 82 33c18 -5 28 -22 28 -40c0 -32 -27 -45 -51 -60z" />
    <glyph glyph-name="ydieresis" unicode="&#xff;" 
d="M226 0l-138 370c-24 57 -19 58 -78 66v36c46 -1 92 -1 138 -2c46 1 91 1 137 2v-36l-18 -3c-13 -2 -38 -6 -42 -22c-2 -13 3 -27 7 -41l91 -252l74 253c5 15 8 25 10 37c5 30 -42 26 -61 28v36c33 -1 66 -1 99 -2c33 1 65 1 98 2v-36c-29 -9 -53 17 -89 -85l-171 -446
c-21 -55 -77 -155 -180 -155c-37 0 -73 28 -73 68c0 30 21 50 46 53c45 6 50 -48 89 -45c42 4 68 64 81 99l29 75h-49zM384 674c34 0 64 -32 64 -65c0 -35 -29 -65 -64 -65c-36 0 -65 30 -65 65s30 65 65 65zM173 544c-34 0 -62 32 -62 65c0 34 28 65 62 65
c35 0 65 -29 65 -65s-29 -65 -65 -65z" />
    <glyph glyph-name="zcaron" unicode="&#x17e;" horiz-adv-x="500" 
d="M468 472v-36l-271 -392h125c72 3 80 41 88 109h58v-155c-73 1 -146 2 -219 2s-147 -1 -220 -2v38l270 390h-121c-60 -2 -74 -58 -78 -100h-48v146c71 -1 140 -2 209 -2s138 1 207 2zM297 535h-93l-121 176h55l113 -99l112 99h57z" />
    <glyph glyph-name="Delta" unicode="&#x2206;" horiz-adv-x="642" 
d="M608 0h-575v35l253 581l60 14l262 -595v-35zM447 60l-174 409l-170 -409h344z" />
    <glyph glyph-name="Omega" unicode="&#x2126;" horiz-adv-x="727" 
d="M694 160l-28 -160h-254l-9 22c38 78 108 200 108 324c-1 180 -65 247 -150 247c-87 0 -146 -62 -146 -250c0 -119 61 -234 106 -320l-8 -23h-256l-24 160h33c21 -54 35 -65 78 -65h90c-69 47 -168 120 -168 255c0 172 126 280 298 280c174 0 295 -104 295 -274
c0 -121 -94 -199 -174 -261h101c40 0 53 10 74 65h34z" />
    <glyph glyph-name="uni03BC" unicode="&#x3bc;" horiz-adv-x="611" 
d="M588 37v-39c-33 1 -67 1 -100 2c-33 -1 -66 -1 -99 -2v64c-36 -42 -95 -78 -181 -72l12 -115c8 -48 -14 -85 -63 -85c-45 0 -68 24 -68 85v489c0 46 9 69 -71 69v39c34 -1 69 -1 103 -2c34 1 68 1 102 2v-290c0 -53 0 -124 72 -124c86 0 89 62 89 130v176
c0 42 9 69 -66 69v39c33 -1 67 -1 100 -2c33 1 67 1 100 2v-366c0 -45 -9 -69 70 -69z" />
    <glyph glyph-name="pi" unicode="&#x3c0;" horiz-adv-x="576" 
d="M524 443l28 -8c-4 -40 -24 -98 -38 -115c-16 -5 -38 -6 -62 -6c-5 -58 -5 -109 -4 -173c0 -58 16 -78 39 -78c17 0 27 8 41 18l13 -27c-25 -37 -74 -66 -119 -66c-56 0 -103 27 -103 125c0 83 5 141 9 203c-54 1 -85 2 -120 2v-9c0 -208 -48 -286 -63 -304
c-25 -9 -49 -15 -68 -17l-8 22c67 90 90 225 90 310c-57 1 -82 -10 -123 -35l-17 30c34 44 68 100 177 99c76 -1 179 -2 269 -2c30 0 44 6 59 31z" />
    <glyph glyph-name="Euro" unicode="&#x20ac;" 
d="M415 300l-14 -46h-169c2 -75 12 -165 49 -203c16 -15 42 -20 63 -20c79 0 104 53 104 88c0 10 1 29 17 29h62c11 0 13 -8 13 -17c0 -109 -125 -141 -214 -141c-180 0 -230 123 -240 264h-74l13 46h58v29c0 15 0 29 1 43h-72l13 46h62c13 139 66 252 243 252
c73 0 120 -10 189 -32v-154h-69c-3 93 -12 146 -117 146c-21 0 -39 -5 -55 -20c-33 -32 -43 -119 -46 -192h217l-14 -46h-204v-72h184z" />
    <glyph glyph-name="afii61289" unicode="&#x2113;" horiz-adv-x="440" 
d="M399 138l24 -22c-44 -78 -103 -125 -187 -125c-55 0 -89 14 -112 37c-23 27 -38 55 -38 141v50l-57 -34l-13 31l69 47v123c0 127 12 179 53 229c35 44 75 61 115 61c73 0 106 -62 106 -131c0 -103 -53 -173 -150 -257v-68c0 -112 23 -155 82 -155c46 0 82 37 108 73z
M209 437v-95c44 49 77 113 77 202c0 50 -10 96 -39 96c-33 0 -38 -47 -38 -203z" />
    <glyph glyph-name="estimated" unicode="&#x212e;" horiz-adv-x="776" 
d="M745 303h-579c-3 0 -5 -1 -5 -4v-175c0 -8 3 -14 8 -20c56 -58 133 -95 219 -95c93 0 175 41 231 106h51c-64 -75 -167 -124 -283 -124c-197 0 -357 143 -357 321s160 322 357 322c198 0 358 -144 358 -322v-9zM614 326v176c0 8 -3 15 -9 21c-56 55 -132 91 -217 91
s-162 -37 -218 -94c-6 -6 -9 -13 -9 -22v-172c0 -2 2 -6 5 -6h444c3 0 4 4 4 6z" />
    <glyph glyph-name="partialdiff" unicode="&#x2202;" horiz-adv-x="543" 
d="M260 397h1c43 0 92 -19 118 -55c4 29 9 68 10 100c2 46 -1 93 -23 137c-19 34 -54 59 -100 59c-56 0 -109 -37 -145 -67c-19 0 -54 59 -42 87c34 18 75 37 145 37c101 0 172 -51 219 -132c42 -70 53 -155 53 -211c0 -74 -13 -157 -50 -223c-43 -81 -113 -138 -218 -138
c-114 0 -188 72 -188 186c0 66 26 119 59 154c40 41 97 66 161 66zM294 349h-1c-28 0 -59 -8 -86 -50c-28 -47 -41 -116 -41 -180c0 -57 23 -91 66 -91c41 0 71 48 90 91c24 54 36 103 47 178c-11 22 -38 52 -75 52z" />
    <glyph glyph-name="product" unicode="&#x220f;" horiz-adv-x="705" 
d="M678 632v-33c-83 -6 -88 -15 -88 -87v-461c0 -77 7 -86 88 -93v-33h-295v33c70 6 74 12 74 93v506c0 30 -6 33 -36 33h-141c-29 0 -33 -3 -33 -31v-508c0 -77 1 -87 67 -93v-33h-287v33c79 7 87 16 87 93v461c0 73 -7 81 -91 87v33h655z" />
    <glyph glyph-name="summation" unicode="&#x2211;" horiz-adv-x="557" 
d="M535 127l-47 -209h-464v33l208 284l-202 363v34h457c1 -17 7 -102 12 -169l-34 -8c-10 41 -23 77 -37 101c-16 27 -31 37 -102 37h-138l154 -274l-211 -295h228c86 0 96 5 142 112z" />
    <glyph glyph-name="uni2219" unicode="&#x2219;" horiz-adv-x="278" 
d="M204 255c0 -37 -33 -70 -70 -70s-69 33 -69 70s32 69 69 69s70 -32 70 -69z" />
    <glyph glyph-name="radical" unicode="&#x221a;" horiz-adv-x="542" 
d="M534 786l-169 -931l-30 -13l-205 487l-83 -38l-14 40l183 82l138 -349h2l129 732z" />
    <glyph glyph-name="infinity" unicode="&#x221e;" horiz-adv-x="714" 
d="M671 257v-1c0 -103 -75 -163 -151 -163c-50 0 -103 19 -163 101c-47 -58 -94 -101 -167 -101c-78 0 -148 63 -148 158c0 96 67 161 156 161c68 0 117 -37 163 -98c35 40 81 99 164 98c80 0 146 -61 146 -155zM198 165h1c49 0 86 43 118 83c-35 50 -64 94 -121 94
c-48 0 -81 -37 -81 -91c0 -47 36 -86 83 -86zM517 342h-1c-52 0 -90 -54 -118 -88c53 -69 81 -89 124 -89c48 0 75 48 75 85c0 53 -31 92 -80 92z" />
    <glyph glyph-name="integral" unicode="&#x222b;" horiz-adv-x="392" 
d="M154 -14l-19 357c-19 344 96 409 172 409c32 0 73 -19 74 -55c0 -39 -30 -58 -58 -58c-37 0 -35 63 -55 63c-17 0 -29 -24 -23 -135l18 -333c16 -313 -76 -429 -178 -429c-40 0 -73 26 -73 57c-1 36 36 62 67 62c33 0 31 -69 51 -69c23 0 29 51 24 131z" />
    <glyph glyph-name="approxequal" unicode="&#x2248;" horiz-adv-x="517" 
d="M434 415l50 -48c-35 -58 -83 -95 -133 -95c-39 0 -65 12 -104 36c-25 15 -48 29 -78 29c-41 0 -66 -31 -90 -64l-50 47c29 52 85 94 144 94c44 0 72 -17 97 -31c35 -22 52 -33 79 -33c34 0 59 25 85 65zM434 239l50 -48c-34 -57 -81 -94 -134 -94c-38 0 -66 13 -103 35
c-27 17 -49 30 -78 30c-42 0 -66 -32 -90 -65l-50 47c29 52 85 94 144 94c45 0 73 -17 97 -30c27 -17 48 -34 78 -34c36 0 58 25 86 65z" />
    <glyph glyph-name="notequal" unicode="&#x2260;" horiz-adv-x="517" 
d="M385 463l-33 -76h121v-77h-152l-52 -117h204v-77h-235l-46 -103l-61 26l34 77h-121v77h152l51 117h-203v77h234l45 102z" />
    <glyph glyph-name="lessequal" unicode="&#x2264;" horiz-adv-x="517" 
d="M471 98l-424 200v83l424 200v-88l-345 -152v-2l345 -153v-88zM474 -12h-429v78h429v-78z" />
    <glyph glyph-name="greaterequal" unicode="&#x2265;" horiz-adv-x="517" 
d="M49 581l424 -200v-83l-424 -200v88l344 153v2l-344 152v88zM471 -12h-426v78h426v-78z" />
    <glyph glyph-name="lozenge" unicode="&#x25ca;" horiz-adv-x="557" 
d="M515 300l-190 -367h-94l-189 367l191 370h93zM427 300l-146 292h-4l-146 -291l147 -295h3z" />
    <glyph glyph-name="uni00A0" unicode="&#xa0;" horiz-adv-x="278" 
 />
    <glyph glyph-name="uni00AD" unicode="&#xad;" horiz-adv-x="333" 
d="M291 174h-248v120h248v-120z" />
    <glyph glyph-name="uni02C9" unicode="&#x2c9;" horiz-adv-x="333" 
d="M295 572h-257v72h257v-72z" />
    <glyph glyph-name="uni03A9" unicode="&#x3a9;" horiz-adv-x="727" 
d="M694 160l-28 -160h-254l-9 22c38 78 108 200 108 324c-1 180 -65 247 -150 247c-87 0 -146 -62 -146 -250c0 -119 61 -234 106 -320l-8 -23h-256l-24 160h33c21 -54 35 -65 78 -65h90c-69 47 -168 120 -168 255c0 172 126 280 298 280c174 0 295 -104 295 -274
c0 -121 -94 -199 -174 -261h101c40 0 53 10 74 65h34z" />
    <glyph glyph-name="uni2215" unicode="&#x2215;" horiz-adv-x="167" 
d="M302 635l-364 -635h-70l364 635h70z" />
    </font>
</defs>
</svg>
